# This file was created with Minddesk Qubicle 3.0
# Get Qubicle at www.getqubicle.com

mtllib BulletCase.mtl

vn 0.0 0.0 1.0
vn 0.0 0.0 -1.0
vn -1.0 0.0 0.0
vn 1.0 0.0 0.0
vn 0.0 1.0 0.0
vn 0.0 -1.0 0.0

v 3.00000 2.00000 -2.00000
v 3.00000 -2.00000 -2.00000
v -3.00000 -2.00000 -2.00000
v -3.00000 2.00000 -2.00000
v -2.00000 1.00000 1.00000
v -2.00000 -1.00000 1.00000
v -3.00000 -1.00000 1.00000
v -3.00000 1.00000 1.00000
v -3.00000 2.00000 2.00000
v -3.00000 -2.00000 2.00000
v 3.00000 -2.00000 2.00000
v 3.00000 2.00000 2.00000
v -3.00000 1.00000 -1.00000
v -3.00000 -1.00000 -1.00000
v -2.00000 -1.00000 -1.00000
v -2.00000 1.00000 -1.00000
v -3.00000 1.00000 -2.00000
v -3.00000 -1.00000 -2.00000
v -3.00000 -1.00000 2.00000
v -3.00000 1.00000 2.00000

vt 0.03125 0.31250
vt 0.03125 0.06250
vt 0.21875 0.06250
vt 0.21875 0.31250
vt 0.28125 0.31250
vt 0.28125 0.06250
vt 0.46875 0.06250
vt 0.46875 0.31250
vt 0.53125 0.31250
vt 0.53125 0.06250
vt 0.71875 0.06250
vt 0.71875 0.31250
vt 0.78125 0.31250
vt 0.78125 0.06250
vt 0.96875 0.06250
vt 0.96875 0.31250
vt 0.03125 0.68750
vt 0.03125 0.43750
vt 0.15625 0.43750
vt 0.15625 0.68750
vt 0.21875 0.56250
vt 0.21875 0.43750
vt 0.28125 0.43750
vt 0.28125 0.56250
vt 0.34375 0.56250
vt 0.34375 0.43750
vt 0.37500 0.43750
vt 0.37500 0.56250
vt 0.43750 0.56250
vt 0.43750 0.43750
vt 0.46875 0.43750
vt 0.46875 0.56250
vt 0.53125 0.56250
vt 0.53125 0.43750
vt 0.56250 0.43750
vt 0.56250 0.56250
vt 0.62500 0.56250
vt 0.62500 0.43750
vt 0.65625 0.43750
vt 0.65625 0.56250
vt 0.71875 0.56250
vt 0.71875 0.43750
vt 0.75000 0.43750
vt 0.75000 0.56250
vt 0.81250 0.56250
vt 0.81250 0.43750
vt 0.84375 0.43750
vt 0.84375 0.56250
vt 0.03125 0.87500
vt 0.03125 0.81250
vt 0.15625 0.81250
vt 0.15625 0.87500
vt 0.21875 0.87500
vt 0.21875 0.81250
vt 0.34375 0.81250
vt 0.34375 0.87500

g BulletCase
usemtl BulletCase_Material
f 1/9/2 2/10/2 3/11/2 4/12/2
f 5/29/2 6/30/2 7/31/2 8/32/2
f 9/1/1 10/2/1 11/3/1 12/4/1
f 13/25/1 14/26/1 15/27/1 16/28/1
f 16/21/3 15/22/3 6/23/3 5/24/3
f 17/33/3 18/34/3 14/35/3 13/36/3
f 8/45/3 7/46/3 19/47/3 20/48/3
f 18/49/3 3/50/3 10/51/3 19/52/3
f 4/53/3 17/54/3 20/55/3 9/56/3
f 12/17/4 11/18/4 2/19/4 1/20/4
f 4/5/5 9/6/5 12/7/5 1/8/5
f 14/37/5 7/38/5 6/39/5 15/40/5
f 10/13/6 3/14/6 2/15/6 11/16/6
f 8/41/6 13/42/6 16/43/6 5/44/6
