# This file was created with Minddesk Qubicle 3.0
# Get Qubicle at www.getqubicle.com

mtllib Item Ammo.mtl

vn 0.0 0.0 1.0
vn 0.0 0.0 -1.0
vn -1.0 0.0 0.0
vn 1.0 0.0 0.0
vn 0.0 1.0 0.0
vn 0.0 -1.0 0.0

v -2.00000 2.00000 -7.00000
v -2.00000 -5.00000 -7.00000
v -6.00000 -5.00000 -7.00000
v -6.00000 2.00000 -7.00000
v 4.00000 2.00000 -7.00000
v 4.00000 -5.00000 -7.00000
v 0.00000 -5.00000 -7.00000
v 0.00000 2.00000 -7.00000
v 0.00000 2.00000 -6.00000
v 0.00000 -5.00000 -6.00000
v -2.00000 -5.00000 -6.00000
v -2.00000 2.00000 -6.00000
v 0.00000 2.00000 -1.00000
v 0.00000 -5.00000 -1.00000
v -2.00000 -5.00000 -1.00000
v -2.00000 2.00000 -1.00000
v -6.00000 2.00000 -6.00000
v -6.00000 -5.00000 -6.00000
v -7.00000 -5.00000 -6.00000
v -7.00000 2.00000 -6.00000
v 5.00000 2.00000 -6.00000
v 5.00000 -5.00000 -6.00000
v 4.00000 -5.00000 -6.00000
v 4.00000 2.00000 -6.00000
v -3.00000 2.00000 0.00000
v -3.00000 -5.00000 0.00000
v -4.00000 -5.00000 0.00000
v -4.00000 2.00000 0.00000
v 2.00000 2.00000 0.00000
v 2.00000 -5.00000 0.00000
v 1.00000 -5.00000 0.00000
v 1.00000 2.00000 0.00000
v -2.00000 3.00000 -6.00000
v -6.00000 3.00000 -6.00000
v 4.00000 3.00000 -6.00000
v 0.00000 3.00000 -6.00000
v 1.00000 3.00000 0.00000
v -3.00000 3.00000 0.00000
v -3.00000 4.00000 -6.00000
v -3.00000 3.00000 -6.00000
v -5.00000 3.00000 -6.00000
v -5.00000 4.00000 -6.00000
v 3.00000 4.00000 -6.00000
v 3.00000 3.00000 -6.00000
v 1.00000 3.00000 -6.00000
v 1.00000 4.00000 -6.00000
v -3.00000 5.00000 -5.00000
v -3.00000 4.00000 -5.00000
v -5.00000 4.00000 -5.00000
v -5.00000 5.00000 -5.00000
v 3.00000 5.00000 -5.00000
v 3.00000 4.00000 -5.00000
v 1.00000 4.00000 -5.00000
v 1.00000 5.00000 -5.00000
v 0.00000 4.00000 0.00000
v 0.00000 3.00000 0.00000
v -2.00000 3.00000 0.00000
v -2.00000 4.00000 0.00000
v 0.00000 5.00000 1.00000
v 0.00000 4.00000 1.00000
v -2.00000 4.00000 1.00000
v -2.00000 5.00000 1.00000
v -5.00000 3.00000 -5.00000
v -6.00000 3.00000 -5.00000
v -6.00000 4.00000 -5.00000
v -2.00000 4.00000 -5.00000
v -2.00000 3.00000 -5.00000
v -3.00000 3.00000 -5.00000
v 1.00000 3.00000 -5.00000
v 0.00000 3.00000 -5.00000
v 0.00000 4.00000 -5.00000
v 4.00000 4.00000 -5.00000
v 4.00000 3.00000 -5.00000
v 3.00000 3.00000 -5.00000
v -2.00000 3.00000 1.00000
v -3.00000 3.00000 1.00000
v -3.00000 4.00000 1.00000
v 1.00000 4.00000 1.00000
v 1.00000 3.00000 1.00000
v 0.00000 3.00000 1.00000
v -6.00000 2.00000 -1.00000
v -6.00000 -5.00000 -1.00000
v -3.00000 -5.00000 -1.00000
v -3.00000 2.00000 -1.00000
v 1.00000 2.00000 -1.00000
v 1.00000 -5.00000 -1.00000
v 4.00000 -5.00000 -1.00000
v 4.00000 2.00000 -1.00000
v -3.00000 2.00000 5.00000
v -3.00000 -5.00000 5.00000
v 1.00000 -5.00000 5.00000
v 1.00000 2.00000 5.00000
v -2.00000 2.00000 -2.00000
v -2.00000 -5.00000 -2.00000
v 0.00000 -5.00000 -2.00000
v 0.00000 2.00000 -2.00000
v -7.00000 2.00000 -2.00000
v -7.00000 -5.00000 -2.00000
v -6.00000 -5.00000 -2.00000
v -6.00000 2.00000 -2.00000
v 4.00000 2.00000 -2.00000
v 4.00000 -5.00000 -2.00000
v 5.00000 -5.00000 -2.00000
v 5.00000 2.00000 -2.00000
v -4.00000 2.00000 4.00000
v -4.00000 -5.00000 4.00000
v -3.00000 -5.00000 4.00000
v -3.00000 2.00000 4.00000
v 1.00000 2.00000 4.00000
v 1.00000 -5.00000 4.00000
v 2.00000 -5.00000 4.00000
v 2.00000 2.00000 4.00000
v -6.00000 3.00000 -2.00000
v -2.00000 3.00000 -2.00000
v 0.00000 3.00000 -2.00000
v 4.00000 3.00000 -2.00000
v -3.00000 3.00000 4.00000
v 1.00000 3.00000 4.00000
v -5.00000 5.00000 -3.00000
v -5.00000 4.00000 -3.00000
v -3.00000 4.00000 -3.00000
v -3.00000 5.00000 -3.00000
v 1.00000 5.00000 -3.00000
v 1.00000 4.00000 -3.00000
v 3.00000 4.00000 -3.00000
v 3.00000 5.00000 -3.00000
v -5.00000 4.00000 -2.00000
v -5.00000 3.00000 -2.00000
v -3.00000 3.00000 -2.00000
v -3.00000 4.00000 -2.00000
v 1.00000 4.00000 -2.00000
v 1.00000 3.00000 -2.00000
v 3.00000 3.00000 -2.00000
v 3.00000 4.00000 -2.00000
v -2.00000 5.00000 3.00000
v -2.00000 4.00000 3.00000
v 0.00000 4.00000 3.00000
v 0.00000 5.00000 3.00000
v -2.00000 4.00000 4.00000
v -2.00000 3.00000 4.00000
v 0.00000 3.00000 4.00000
v 0.00000 4.00000 4.00000
v -6.00000 4.00000 -3.00000
v -6.00000 3.00000 -3.00000
v -5.00000 3.00000 -3.00000
v -3.00000 3.00000 -3.00000
v -2.00000 3.00000 -3.00000
v -2.00000 4.00000 -3.00000
v 0.00000 4.00000 -3.00000
v 0.00000 3.00000 -3.00000
v 1.00000 3.00000 -3.00000
v 3.00000 3.00000 -3.00000
v 4.00000 3.00000 -3.00000
v 4.00000 4.00000 -3.00000
v -3.00000 4.00000 3.00000
v -3.00000 3.00000 3.00000
v -2.00000 3.00000 3.00000
v 0.00000 3.00000 3.00000
v 1.00000 3.00000 3.00000
v 1.00000 4.00000 3.00000

vt 0.01563 0.12500
vt 0.01563 0.01563
vt 0.07813 0.01563
vt 0.07813 0.12500
vt 0.10938 0.12500
vt 0.10938 0.01563
vt 0.17188 0.01563
vt 0.17188 0.12500
vt 0.20313 0.12500
vt 0.20313 0.01563
vt 0.26563 0.01563
vt 0.26563 0.12500
vt 0.29688 0.12500
vt 0.29688 0.01563
vt 0.35938 0.01563
vt 0.35938 0.12500
vt 0.39063 0.12500
vt 0.39063 0.01563
vt 0.45313 0.01563
vt 0.45313 0.12500
vt 0.48438 0.12500
vt 0.48438 0.01563
vt 0.54688 0.01563
vt 0.54688 0.12500
vt 0.57813 0.12500
vt 0.57813 0.01563
vt 0.64063 0.01563
vt 0.64063 0.12500
vt 0.67188 0.12500
vt 0.67188 0.01563
vt 0.71875 0.01563
vt 0.71875 0.12500
vt 0.75000 0.12500
vt 0.75000 0.01563
vt 0.79688 0.01563
vt 0.79688 0.12500
vt 0.82813 0.12500
vt 0.82813 0.01563
vt 0.85938 0.01563
vt 0.85938 0.12500
vt 0.89063 0.12500
vt 0.89063 0.01563
vt 0.92188 0.01563
vt 0.92188 0.12500
vt 0.95313 0.12500
vt 0.95313 0.01563
vt 0.98438 0.01563
vt 0.98438 0.12500
vt 0.01563 0.26563
vt 0.01563 0.15625
vt 0.03125 0.15625
vt 0.03125 0.26563
vt 0.06250 0.26563
vt 0.06250 0.15625
vt 0.07813 0.15625
vt 0.07813 0.26563
vt 0.10938 0.26563
vt 0.10938 0.15625
vt 0.12500 0.15625
vt 0.12500 0.26563
vt 0.15625 0.26563
vt 0.15625 0.15625
vt 0.17188 0.15625
vt 0.17188 0.26563
vt 0.20313 0.26563
vt 0.20313 0.15625
vt 0.21875 0.15625
vt 0.21875 0.26563
vt 0.25000 0.26563
vt 0.25000 0.15625
vt 0.26563 0.15625
vt 0.26563 0.26563
vt 0.29688 0.26563
vt 0.29688 0.15625
vt 0.31250 0.15625
vt 0.31250 0.26563
vt 0.34375 0.26563
vt 0.34375 0.15625
vt 0.35938 0.15625
vt 0.35938 0.26563
vt 0.39063 0.26563
vt 0.39063 0.15625
vt 0.40625 0.15625
vt 0.40625 0.26563
vt 0.43750 0.26563
vt 0.43750 0.15625
vt 0.45313 0.15625
vt 0.45313 0.26563
vt 0.48438 0.26563
vt 0.48438 0.15625
vt 0.50000 0.15625
vt 0.50000 0.26563
vt 0.53125 0.26563
vt 0.53125 0.15625
vt 0.54688 0.15625
vt 0.54688 0.26563
vt 0.57813 0.26563
vt 0.57813 0.15625
vt 0.59375 0.15625
vt 0.59375 0.26563
vt 0.62500 0.26563
vt 0.62500 0.15625
vt 0.64063 0.15625
vt 0.64063 0.26563
vt 0.67188 0.26563
vt 0.67188 0.15625
vt 0.68750 0.15625
vt 0.68750 0.26563
vt 0.71875 0.26563
vt 0.71875 0.15625
vt 0.73438 0.15625
vt 0.73438 0.26563
vt 0.76563 0.26563
vt 0.76563 0.15625
vt 0.78125 0.15625
vt 0.78125 0.26563
vt 0.81250 0.26563
vt 0.81250 0.15625
vt 0.82813 0.15625
vt 0.82813 0.26563
vt 0.85938 0.26563
vt 0.85938 0.15625
vt 0.87500 0.15625
vt 0.87500 0.26563
vt 0.90625 0.26563
vt 0.90625 0.15625
vt 0.92188 0.15625
vt 0.92188 0.26563
vt 0.01563 0.35938
vt 0.01563 0.29688
vt 0.20313 0.29688
vt 0.20313 0.35938
vt 0.23438 0.35938
vt 0.23438 0.29688
vt 0.32813 0.29688
vt 0.32813 0.35938
vt 0.95313 0.21875
vt 0.95313 0.15625
vt 0.98438 0.15625
vt 0.98438 0.21875
vt 0.35938 0.35938
vt 0.35938 0.29688
vt 0.37500 0.29688
vt 0.37500 0.35938
vt 0.40625 0.35938
vt 0.40625 0.29688
vt 0.42188 0.29688
vt 0.42188 0.35938
vt 0.45313 0.35938
vt 0.45313 0.29688
vt 0.46875 0.29688
vt 0.46875 0.35938
vt 0.50000 0.35938
vt 0.50000 0.29688
vt 0.51563 0.29688
vt 0.51563 0.35938
vt 0.54688 0.32813
vt 0.54688 0.29688
vt 0.57813 0.29688
vt 0.57813 0.32813
vt 0.60938 0.32813
vt 0.60938 0.29688
vt 0.64063 0.29688
vt 0.64063 0.32813
vt 0.67188 0.32813
vt 0.67188 0.29688
vt 0.70313 0.29688
vt 0.70313 0.32813
vt 0.73438 0.32813
vt 0.73438 0.29688
vt 0.75000 0.29688
vt 0.75000 0.32813
vt 0.78125 0.32813
vt 0.78125 0.29688
vt 0.79688 0.29688
vt 0.79688 0.32813
vt 0.82813 0.32813
vt 0.82813 0.29688
vt 0.84375 0.29688
vt 0.84375 0.32813
vt 0.87500 0.32813
vt 0.87500 0.29688
vt 0.89063 0.29688
vt 0.89063 0.32813
vt 0.92188 0.32813
vt 0.92188 0.29688
vt 0.93750 0.29688
vt 0.93750 0.32813
vt 0.96875 0.32813
vt 0.96875 0.29688
vt 0.98438 0.29688
vt 0.98438 0.32813
vt 0.01563 0.40625
vt 0.01563 0.39063
vt 0.07813 0.39063
vt 0.07813 0.40625
vt 0.10938 0.40625
vt 0.10938 0.39063
vt 0.17188 0.39063
vt 0.17188 0.40625
vt 0.20313 0.40625
vt 0.20313 0.39063
vt 0.26563 0.39063
vt 0.26563 0.40625
vt 0.29688 0.40625
vt 0.29688 0.39063
vt 0.35938 0.39063
vt 0.35938 0.40625
vt 0.39063 0.40625
vt 0.39063 0.39063
vt 0.45313 0.39063
vt 0.45313 0.40625
vt 0.48438 0.40625
vt 0.48438 0.39063
vt 0.54688 0.39063
vt 0.54688 0.40625
vt 0.57813 0.40625
vt 0.57813 0.39063
vt 0.64063 0.39063
vt 0.64063 0.40625
vt 0.67188 0.40625
vt 0.67188 0.39063
vt 0.73438 0.39063
vt 0.73438 0.40625
vt 0.76563 0.40625
vt 0.76563 0.39063
vt 0.82813 0.39063
vt 0.82813 0.40625
vt 0.85938 0.40625
vt 0.85938 0.39063
vt 0.92188 0.39063
vt 0.92188 0.40625
vt 0.01563 0.45313
vt 0.01563 0.43750
vt 0.07813 0.43750
vt 0.07813 0.45313
vt 0.10938 0.45313
vt 0.10938 0.43750
vt 0.17188 0.43750
vt 0.17188 0.45313
vt 0.20313 0.45313
vt 0.20313 0.43750
vt 0.26563 0.43750
vt 0.26563 0.45313
vt 0.29688 0.45313
vt 0.29688 0.43750
vt 0.35938 0.43750
vt 0.35938 0.45313
vt 0.39063 0.45313
vt 0.39063 0.43750
vt 0.45313 0.43750
vt 0.45313 0.45313
vt 0.48438 0.45313
vt 0.48438 0.43750
vt 0.54688 0.43750
vt 0.54688 0.45313
vt 0.57813 0.45313
vt 0.57813 0.43750
vt 0.64063 0.43750
vt 0.64063 0.45313
vt 0.67188 0.45313
vt 0.67188 0.43750
vt 0.73438 0.43750
vt 0.73438 0.45313
vt 0.76563 0.45313
vt 0.76563 0.43750
vt 0.82813 0.43750
vt 0.82813 0.45313
vt 0.85938 0.45313
vt 0.85938 0.43750
vt 0.92188 0.43750
vt 0.92188 0.45313
vt 0.01563 0.50000
vt 0.01563 0.48438
vt 0.07813 0.48438
vt 0.07813 0.50000
vt 0.10938 0.50000
vt 0.10938 0.48438
vt 0.17188 0.48438
vt 0.17188 0.50000
vt 0.20313 0.50000
vt 0.20313 0.48438
vt 0.26563 0.48438
vt 0.26563 0.50000
vt 0.29688 0.50000
vt 0.29688 0.48438
vt 0.35938 0.48438
vt 0.35938 0.50000
vt 0.95313 0.26563
vt 0.95313 0.25000
vt 0.98438 0.25000
vt 0.98438 0.26563
vt 0.95313 0.40625
vt 0.95313 0.39063
vt 0.98438 0.39063
vt 0.98438 0.40625
vt 0.95313 0.45313
vt 0.95313 0.43750
vt 0.98438 0.43750
vt 0.98438 0.45313
vt 0.39063 0.50000
vt 0.39063 0.48438
vt 0.42188 0.48438
vt 0.42188 0.50000
vt 0.45313 0.50000
vt 0.45313 0.48438
vt 0.48438 0.48438
vt 0.48438 0.50000
vt 0.51563 0.50000
vt 0.51563 0.48438
vt 0.54688 0.48438
vt 0.54688 0.50000
vt 0.57813 0.50000
vt 0.57813 0.48438
vt 0.60938 0.48438
vt 0.60938 0.50000
vt 0.64063 0.50000
vt 0.64063 0.48438
vt 0.67188 0.48438
vt 0.67188 0.50000
vt 0.70313 0.50000
vt 0.70313 0.48438
vt 0.73438 0.48438
vt 0.73438 0.50000
vt 0.76563 0.50000
vt 0.76563 0.48438
vt 0.79688 0.48438
vt 0.79688 0.50000
vt 0.82813 0.50000
vt 0.82813 0.48438
vt 0.85938 0.48438
vt 0.85938 0.50000
vt 0.89063 0.50000
vt 0.89063 0.48438
vt 0.92188 0.48438
vt 0.92188 0.50000
vt 0.95313 0.50000
vt 0.95313 0.48438
vt 0.98438 0.48438
vt 0.98438 0.50000
vt 0.01563 0.54688
vt 0.01563 0.53125
vt 0.04688 0.53125
vt 0.04688 0.54688
vt 0.07813 0.54688
vt 0.07813 0.53125
vt 0.10938 0.53125
vt 0.10938 0.54688
vt 0.14063 0.54688
vt 0.14063 0.53125
vt 0.17188 0.53125
vt 0.17188 0.54688
vt 0.20313 0.54688
vt 0.20313 0.53125
vt 0.23438 0.53125
vt 0.23438 0.54688
vt 0.26563 0.54688
vt 0.26563 0.53125
vt 0.29688 0.53125
vt 0.29688 0.54688
vt 0.32813 0.54688
vt 0.32813 0.53125
vt 0.35938 0.53125
vt 0.35938 0.54688
vt 0.39063 0.54688
vt 0.39063 0.53125
vt 0.42188 0.53125
vt 0.42188 0.54688
vt 0.45313 0.54688
vt 0.45313 0.53125
vt 0.48438 0.53125
vt 0.48438 0.54688
vt 0.51563 0.54688
vt 0.51563 0.53125
vt 0.54688 0.53125
vt 0.54688 0.54688
vt 0.57813 0.54688
vt 0.57813 0.53125
vt 0.60938 0.53125
vt 0.60938 0.54688
vt 0.64063 0.54688
vt 0.64063 0.53125
vt 0.67188 0.53125
vt 0.67188 0.54688
vt 0.70313 0.54688
vt 0.70313 0.53125
vt 0.73438 0.53125
vt 0.73438 0.54688
vt 0.76563 0.54688
vt 0.76563 0.53125
vt 0.79688 0.53125
vt 0.79688 0.54688
vt 0.82813 0.54688
vt 0.82813 0.53125
vt 0.85938 0.53125
vt 0.85938 0.54688
vt 0.89063 0.54688
vt 0.89063 0.53125
vt 0.92188 0.53125
vt 0.92188 0.54688
vt 0.95313 0.54688
vt 0.95313 0.53125
vt 0.98438 0.53125
vt 0.98438 0.54688
vt 0.01563 0.59375
vt 0.01563 0.57813
vt 0.04688 0.57813
vt 0.04688 0.59375
vt 0.07813 0.59375
vt 0.07813 0.57813
vt 0.09375 0.57813
vt 0.09375 0.59375
vt 0.12500 0.59375
vt 0.12500 0.57813
vt 0.14063 0.57813
vt 0.14063 0.59375
vt 0.17188 0.59375
vt 0.17188 0.57813
vt 0.18750 0.57813
vt 0.18750 0.59375
vt 0.21875 0.59375
vt 0.21875 0.57813
vt 0.23438 0.57813
vt 0.23438 0.59375
vt 0.26563 0.59375
vt 0.26563 0.57813
vt 0.28125 0.57813
vt 0.28125 0.59375
vt 0.31250 0.59375
vt 0.31250 0.57813
vt 0.32813 0.57813
vt 0.32813 0.59375
vt 0.35938 0.59375
vt 0.35938 0.57813
vt 0.37500 0.57813
vt 0.37500 0.59375
vt 0.40625 0.59375
vt 0.40625 0.57813
vt 0.42188 0.57813
vt 0.42188 0.59375
vt 0.45313 0.59375
vt 0.45313 0.57813
vt 0.46875 0.57813
vt 0.46875 0.59375
vt 0.50000 0.59375
vt 0.50000 0.57813
vt 0.51563 0.57813
vt 0.51563 0.59375
vt 0.54688 0.59375
vt 0.54688 0.57813
vt 0.56250 0.57813
vt 0.56250 0.59375
vt 0.59375 0.59375
vt 0.59375 0.57813
vt 0.60938 0.57813
vt 0.60938 0.59375
vt 0.64063 0.59375
vt 0.64063 0.57813
vt 0.65625 0.57813
vt 0.65625 0.59375
vt 0.68750 0.59375
vt 0.68750 0.57813
vt 0.70313 0.57813
vt 0.70313 0.59375
vt 0.73438 0.59375
vt 0.73438 0.57813
vt 0.75000 0.57813
vt 0.75000 0.59375
vt 0.78125 0.59375
vt 0.78125 0.57813
vt 0.79688 0.57813
vt 0.79688 0.59375
vt 0.82813 0.59375
vt 0.82813 0.57813
vt 0.84375 0.57813
vt 0.84375 0.59375
vt 0.87500 0.59375
vt 0.87500 0.57813
vt 0.89063 0.57813
vt 0.89063 0.59375
vt 0.92188 0.59375
vt 0.92188 0.57813
vt 0.93750 0.57813
vt 0.93750 0.59375
vt 0.96875 0.59375
vt 0.96875 0.57813
vt 0.98438 0.57813
vt 0.98438 0.59375
vt 0.01563 0.64063
vt 0.01563 0.62500
vt 0.03125 0.62500
vt 0.03125 0.64063
vt 0.06250 0.64063
vt 0.06250 0.62500
vt 0.07813 0.62500
vt 0.07813 0.64063
vt 0.10938 0.64063
vt 0.10938 0.62500
vt 0.12500 0.62500
vt 0.12500 0.64063
vt 0.15625 0.64063
vt 0.15625 0.62500
vt 0.17188 0.62500
vt 0.17188 0.64063
vt 0.20313 0.64063
vt 0.20313 0.62500
vt 0.21875 0.62500
vt 0.21875 0.64063
vt 0.25000 0.64063
vt 0.25000 0.62500
vt 0.26563 0.62500
vt 0.26563 0.64063
vt 0.29688 0.64063
vt 0.29688 0.62500
vt 0.31250 0.62500
vt 0.31250 0.64063
vt 0.34375 0.64063
vt 0.34375 0.62500
vt 0.35938 0.62500
vt 0.35938 0.64063
vt 0.39063 0.64063
vt 0.39063 0.62500
vt 0.40625 0.62500
vt 0.40625 0.64063
vt 0.43750 0.64063
vt 0.43750 0.62500
vt 0.45313 0.62500
vt 0.45313 0.64063
vt 0.48438 0.64063
vt 0.48438 0.62500
vt 0.50000 0.62500
vt 0.50000 0.64063
vt 0.53125 0.64063
vt 0.53125 0.62500
vt 0.54688 0.62500
vt 0.54688 0.64063
vt 0.57813 0.64063
vt 0.57813 0.62500
vt 0.59375 0.62500
vt 0.59375 0.64063
vt 0.62500 0.64063
vt 0.62500 0.62500
vt 0.64063 0.62500
vt 0.64063 0.64063
vt 0.67188 0.64063
vt 0.67188 0.62500
vt 0.68750 0.62500
vt 0.68750 0.64063
vt 0.71875 0.64063
vt 0.71875 0.62500
vt 0.73438 0.62500
vt 0.73438 0.64063

g Ammo
usemtl Item Ammo_Material
f 1/13/2 2/14/2 3/15/2 4/16/2
f 5/9/2 6/10/2 7/11/2 8/12/2
f 9/41/2 10/42/2 11/43/2 12/44/2
f 13/37/2 14/38/2 15/39/2 16/40/2
f 17/105/2 18/106/2 19/107/2 20/108/2
f 21/125/2 22/126/2 23/127/2 24/128/2
f 25/121/2 26/122/2 27/123/2 28/124/2
f 29/109/2 30/110/2 31/111/2 32/112/2
f 33/201/2 12/202/2 17/203/2 34/204/2
f 35/193/2 24/194/2 9/195/2 36/196/2
f 37/205/2 32/206/2 25/207/2 38/208/2
f 39/357/2 40/358/2 41/359/2 42/360/2
f 43/329/2 44/330/2 45/331/2 46/332/2
f 47/325/2 48/326/2 49/327/2 50/328/2
f 51/321/2 52/322/2 53/323/2 54/324/2
f 55/341/2 56/342/2 57/343/2 58/344/2
f 59/337/2 60/338/2 61/339/2 62/340/2
f 49/417/2 63/418/2 64/419/2 65/420/2
f 66/413/2 67/414/2 68/415/2 48/416/2
f 53/421/2 69/422/2 70/423/2 71/424/2
f 72/429/2 73/430/2 74/431/2 52/432/2
f 61/425/2 75/426/2 76/427/2 77/428/2
f 78/409/2 79/410/2 80/411/2 60/412/2
f 81/29/1 82/30/1 83/31/1 84/32/1
f 85/33/1 86/34/1 87/35/1 88/36/1
f 89/5/1 90/6/1 91/7/1 92/8/1
f 93/45/1 94/46/1 95/47/1 96/48/1
f 97/69/1 98/70/1 99/71/1 100/72/1
f 101/53/1 102/54/1 103/55/1 104/56/1
f 105/49/1 106/50/1 107/51/1 108/52/1
f 109/117/1 110/118/1 111/119/1 112/120/1
f 113/217/1 100/218/1 93/219/1 114/220/1
f 115/213/1 96/214/1 101/215/1 116/216/1
f 117/209/1 108/210/1 109/211/1 118/212/1
f 119/313/1 120/314/1 121/315/1 122/316/1
f 123/309/1 124/310/1 125/311/1 126/312/1
f 127/305/1 128/306/1 129/307/1 130/308/1
f 131/293/1 132/294/1 133/295/1 134/296/1
f 135/289/1 136/290/1 137/291/1 138/292/1
f 139/301/1 140/302/1 141/303/1 142/304/1
f 143/509/1 144/510/1 145/511/1 120/512/1
f 121/513/1 146/514/1 147/515/1 148/516/1
f 149/517/1 150/518/1 151/519/1 124/520/1
f 125/505/1 152/506/1 153/507/1 154/508/1
f 155/493/1 156/494/1 157/495/1 136/496/1
f 137/497/1 158/498/1 159/499/1 160/500/1
f 20/1/3 19/2/3 98/3/3 97/4/3
f 28/25/3 27/26/3 106/27/3 105/28/3
f 4/65/3 3/66/3 18/67/3 17/68/3
f 8/89/3 7/90/3 10/91/3 9/92/3
f 100/85/3 99/86/3 82/87/3 81/88/3
f 96/93/3 95/94/3 14/95/3 13/96/3
f 84/101/3 83/102/3 26/103/3 25/104/3
f 108/97/3 107/98/3 90/99/3 89/100/3
f 34/225/3 17/226/3 100/227/3 113/228/3
f 36/229/3 9/230/3 96/231/3 115/232/3
f 38/233/3 25/234/3 108/235/3 117/236/3
f 65/297/3 64/298/3 144/299/3 143/300/3
f 50/317/3 49/318/3 120/319/3 119/320/3
f 71/393/3 70/394/3 150/395/3 149/396/3
f 54/377/3 53/378/3 124/379/3 123/380/3
f 77/389/3 76/390/3 156/391/3 155/392/3
f 62/385/3 61/386/3 136/387/3 135/388/3
f 42/501/3 41/502/3 63/503/3 49/504/3
f 46/521/3 45/522/3 69/523/3 53/524/3
f 120/541/3 145/542/3 128/543/3 127/544/3
f 124/545/3 151/546/3 132/547/3 131/548/3
f 58/549/3 57/550/3 75/551/3 61/552/3
f 136/537/3 157/538/3 140/539/3 139/540/3
f 104/17/4 103/18/4 22/19/4 21/20/4
f 112/21/4 111/22/4 30/23/4 29/24/4
f 12/113/4 11/114/4 2/115/4 1/116/4
f 24/81/4 23/82/4 6/83/4 5/84/4
f 16/57/4 15/58/4 94/59/4 93/60/4
f 88/61/4 87/62/4 102/63/4 101/64/4
f 32/73/4 31/74/4 86/75/4 85/76/4
f 92/77/4 91/78/4 110/79/4 109/80/4
f 114/281/4 93/282/4 12/283/4 33/284/4
f 116/277/4 101/278/4 24/279/4 35/280/4
f 118/285/4 109/286/4 32/287/4 37/288/4
f 122/381/4 121/382/4 48/383/4 47/384/4
f 148/401/4 147/402/4 67/403/4 66/404/4
f 126/405/4 125/406/4 52/407/4 51/408/4
f 154/397/4 153/398/4 73/399/4 72/400/4
f 138/373/4 137/374/4 60/375/4 59/376/4
f 160/333/4 159/334/4 79/335/4 78/336/4
f 48/525/4 68/526/4 40/527/4 39/528/4
f 52/529/4 74/530/4 44/531/4 43/532/4
f 130/533/4 129/534/4 146/535/4 121/536/4
f 134/449/4 133/450/4 152/451/4 125/452/4
f 60/453/4 80/454/4 56/455/4 55/456/4
f 142/457/4 141/458/4 158/459/4 137/460/4
f 12/137/5 93/138/5 96/139/5 9/140/5
f 20/149/5 97/150/5 100/151/5 17/152/5
f 24/153/5 101/154/5 104/155/5 21/156/5
f 28/141/5 105/142/5 108/143/5 25/144/5
f 32/145/5 109/146/5 112/147/5 29/148/5
f 50/157/5 119/158/5 122/159/5 47/160/5
f 54/165/5 123/166/5 126/167/5 51/168/5
f 62/161/5 135/162/5 138/163/5 59/164/5
f 65/185/5 143/186/5 120/187/5 49/188/5
f 48/181/5 121/182/5 148/183/5 66/184/5
f 71/189/5 149/190/5 124/191/5 53/192/5
f 52/169/5 125/170/5 154/171/5 72/172/5
f 77/173/5 155/174/5 136/175/5 61/176/5
f 60/177/5 137/178/5 160/179/5 78/180/5
f 4/265/5 17/266/5 12/267/5 1/268/5
f 8/269/5 9/270/5 24/271/5 5/272/5
f 100/273/5 81/274/5 16/275/5 93/276/5
f 96/253/5 13/254/5 88/255/5 101/256/5
f 84/257/5 25/258/5 32/259/5 85/260/5
f 108/261/5 89/262/5 92/263/5 109/264/5
f 42/345/5 49/346/5 48/347/5 39/348/5
f 46/361/5 53/362/5 52/363/5 43/364/5
f 120/365/5 127/366/5 130/367/5 121/368/5
f 124/369/5 131/370/5 134/371/5 125/372/5
f 58/349/5 61/350/5 60/351/5 55/352/5
f 136/353/5 139/354/5 142/355/5 137/356/5
f 34/445/5 64/446/5 63/447/5 41/448/5
f 40/433/5 68/434/5 67/435/5 33/436/5
f 36/437/5 70/438/5 69/439/5 45/440/5
f 44/441/5 74/442/5 73/443/5 35/444/5
f 144/461/5 113/462/5 128/463/5 145/464/5
f 146/481/5 129/482/5 114/483/5 147/484/5
f 150/485/5 115/486/5 132/487/5 151/488/5
f 152/489/5 133/490/5 116/491/5 153/492/5
f 38/477/5 76/478/5 75/479/5 57/480/5
f 56/465/5 80/466/5 79/467/5 37/468/5
f 156/469/5 117/470/5 140/471/5 157/472/5
f 158/473/5 141/474/5 118/475/5 159/476/5
f 98/129/6 19/130/6 22/131/6 103/132/6
f 106/133/6 27/134/6 30/135/6 111/136/6
f 18/197/6 3/198/6 2/199/6 11/200/6
f 10/221/6 7/222/6 6/223/6 23/224/6
f 82/241/6 99/242/6 94/243/6 15/244/6
f 14/245/6 95/246/6 102/247/6 87/248/6
f 26/249/6 83/250/6 86/251/6 31/252/6
f 90/237/6 107/238/6 110/239/6 91/240/6
