# This file was created with Minddesk Qubicle 3.0
# Get Qubicle at www.getqubicle.com

mtllib Item Coin Bronze.mtl

vn 0.0 0.0 1.0
vn 0.0 0.0 -1.0
vn -1.0 0.0 0.0
vn 1.0 0.0 0.0
vn 0.0 1.0 0.0
vn 0.0 -1.0 0.0

v 2.00000 6.00000 -1.00000
v 2.00000 2.00000 -1.00000
v -2.00000 2.00000 -1.00000
v -2.00000 6.00000 -1.00000
v -2.00000 6.00000 -2.00000
v -2.00000 2.00000 -2.00000
v -4.00000 2.00000 -2.00000
v -4.00000 6.00000 -2.00000
v 4.00000 6.00000 -2.00000
v 4.00000 2.00000 -2.00000
v 2.00000 2.00000 -2.00000
v 2.00000 6.00000 -2.00000
v 3.00000 1.00000 -2.00000
v 3.00000 0.00000 -2.00000
v -3.00000 0.00000 -2.00000
v -3.00000 1.00000 -2.00000
v 3.00000 8.00000 -2.00000
v 3.00000 7.00000 -2.00000
v -3.00000 7.00000 -2.00000
v -3.00000 8.00000 -2.00000
v -1.00000 2.00000 -2.00000
v -1.00000 1.00000 -2.00000
v -4.00000 1.00000 -2.00000
v -1.00000 7.00000 -2.00000
v -1.00000 6.00000 -2.00000
v -4.00000 7.00000 -2.00000
v 2.00000 0.00000 -2.00000
v 2.00000 -1.00000 -2.00000
v -2.00000 -1.00000 -2.00000
v -2.00000 0.00000 -2.00000
v 2.00000 9.00000 -2.00000
v 2.00000 8.00000 -2.00000
v -2.00000 8.00000 -2.00000
v -2.00000 9.00000 -2.00000
v 4.00000 1.00000 -2.00000
v 1.00000 1.00000 -2.00000
v 1.00000 2.00000 -2.00000
v 4.00000 7.00000 -2.00000
v 1.00000 6.00000 -2.00000
v 1.00000 7.00000 -2.00000
v 1.00000 2.00000 -1.00000
v 1.00000 1.00000 -1.00000
v -1.00000 1.00000 -1.00000
v -1.00000 2.00000 -1.00000
v 1.00000 7.00000 -1.00000
v 1.00000 6.00000 -1.00000
v -1.00000 6.00000 -1.00000
v -1.00000 7.00000 -1.00000
v -2.00000 6.00000 0.00000
v -2.00000 2.00000 0.00000
v 2.00000 2.00000 0.00000
v 2.00000 6.00000 0.00000
v -4.00000 6.00000 1.00000
v -4.00000 2.00000 1.00000
v -2.00000 2.00000 1.00000
v -2.00000 6.00000 1.00000
v 2.00000 6.00000 1.00000
v 2.00000 2.00000 1.00000
v 4.00000 2.00000 1.00000
v 4.00000 6.00000 1.00000
v -3.00000 1.00000 1.00000
v -3.00000 0.00000 1.00000
v 3.00000 0.00000 1.00000
v 3.00000 1.00000 1.00000
v -3.00000 8.00000 1.00000
v -3.00000 7.00000 1.00000
v 3.00000 7.00000 1.00000
v 3.00000 8.00000 1.00000
v -4.00000 1.00000 1.00000
v -1.00000 1.00000 1.00000
v -1.00000 2.00000 1.00000
v -4.00000 7.00000 1.00000
v -1.00000 6.00000 1.00000
v -1.00000 7.00000 1.00000
v -2.00000 0.00000 1.00000
v -2.00000 -1.00000 1.00000
v 2.00000 -1.00000 1.00000
v 2.00000 0.00000 1.00000
v -2.00000 9.00000 1.00000
v -2.00000 8.00000 1.00000
v 2.00000 8.00000 1.00000
v 2.00000 9.00000 1.00000
v 1.00000 2.00000 1.00000
v 1.00000 1.00000 1.00000
v 4.00000 1.00000 1.00000
v 1.00000 7.00000 1.00000
v 1.00000 6.00000 1.00000
v 4.00000 7.00000 1.00000
v -1.00000 2.00000 0.00000
v -1.00000 1.00000 0.00000
v 1.00000 1.00000 0.00000
v 1.00000 2.00000 0.00000
v -1.00000 7.00000 0.00000
v -1.00000 6.00000 0.00000
v 1.00000 6.00000 0.00000
v 1.00000 7.00000 0.00000

vt 0.01563 0.21875
vt 0.01563 0.03125
vt 0.06250 0.03125
vt 0.06250 0.21875
vt 0.09375 0.21875
vt 0.09375 0.03125
vt 0.14063 0.03125
vt 0.14063 0.21875
vt 0.17188 0.15625
vt 0.17188 0.03125
vt 0.23438 0.03125
vt 0.23438 0.15625
vt 0.26563 0.15625
vt 0.26563 0.03125
vt 0.32813 0.03125
vt 0.32813 0.15625
vt 0.35938 0.15625
vt 0.35938 0.03125
vt 0.39063 0.03125
vt 0.39063 0.15625
vt 0.42188 0.15625
vt 0.42188 0.03125
vt 0.45313 0.03125
vt 0.45313 0.15625
vt 0.48438 0.15625
vt 0.48438 0.03125
vt 0.51563 0.03125
vt 0.51563 0.15625
vt 0.54688 0.15625
vt 0.54688 0.03125
vt 0.57813 0.03125
vt 0.57813 0.15625
vt 0.60938 0.15625
vt 0.60938 0.03125
vt 0.62500 0.03125
vt 0.62500 0.15625
vt 0.65625 0.15625
vt 0.65625 0.03125
vt 0.67188 0.03125
vt 0.67188 0.15625
vt 0.70313 0.15625
vt 0.70313 0.03125
vt 0.71875 0.03125
vt 0.71875 0.15625
vt 0.75000 0.15625
vt 0.75000 0.03125
vt 0.76563 0.03125
vt 0.76563 0.15625
vt 0.79688 0.12500
vt 0.79688 0.03125
vt 0.85938 0.03125
vt 0.85938 0.12500
vt 0.89063 0.12500
vt 0.89063 0.03125
vt 0.95313 0.03125
vt 0.95313 0.12500
vt 0.01563 0.37500
vt 0.01563 0.28125
vt 0.03125 0.28125
vt 0.03125 0.37500
vt 0.06250 0.37500
vt 0.06250 0.28125
vt 0.07813 0.28125
vt 0.07813 0.37500
vt 0.10938 0.37500
vt 0.10938 0.28125
vt 0.12500 0.28125
vt 0.12500 0.37500
vt 0.15625 0.37500
vt 0.15625 0.28125
vt 0.17188 0.28125
vt 0.17188 0.37500
vt 0.20313 0.37500
vt 0.20313 0.28125
vt 0.21875 0.28125
vt 0.21875 0.37500
vt 0.25000 0.37500
vt 0.25000 0.28125
vt 0.26563 0.28125
vt 0.26563 0.37500
vt 0.29688 0.37500
vt 0.29688 0.28125
vt 0.31250 0.28125
vt 0.31250 0.37500
vt 0.34375 0.37500
vt 0.34375 0.28125
vt 0.35938 0.28125
vt 0.35938 0.37500
vt 0.39063 0.31250
vt 0.39063 0.28125
vt 0.48438 0.28125
vt 0.48438 0.31250
vt 0.51563 0.31250
vt 0.51563 0.28125
vt 0.60938 0.28125
vt 0.60938 0.31250
vt 0.64063 0.31250
vt 0.64063 0.28125
vt 0.73438 0.28125
vt 0.73438 0.31250
vt 0.76563 0.31250
vt 0.76563 0.28125
vt 0.85938 0.28125
vt 0.85938 0.31250
vt 0.89063 0.31250
vt 0.89063 0.28125
vt 0.95313 0.28125
vt 0.95313 0.31250
vt 0.01563 0.46875
vt 0.01563 0.43750
vt 0.07813 0.43750
vt 0.07813 0.46875
vt 0.10938 0.46875
vt 0.10938 0.43750
vt 0.17188 0.43750
vt 0.17188 0.46875
vt 0.20313 0.46875
vt 0.20313 0.43750
vt 0.26563 0.43750
vt 0.26563 0.46875
vt 0.29688 0.46875
vt 0.29688 0.43750
vt 0.34375 0.43750
vt 0.34375 0.46875
vt 0.37500 0.46875
vt 0.37500 0.43750
vt 0.42188 0.43750
vt 0.42188 0.46875
vt 0.45313 0.46875
vt 0.45313 0.43750
vt 0.50000 0.43750
vt 0.50000 0.46875
vt 0.53125 0.46875
vt 0.53125 0.43750
vt 0.57813 0.43750
vt 0.57813 0.46875
vt 0.60938 0.46875
vt 0.60938 0.43750
vt 0.65625 0.43750
vt 0.65625 0.46875
vt 0.68750 0.46875
vt 0.68750 0.43750
vt 0.73438 0.43750
vt 0.73438 0.46875
vt 0.76563 0.46875
vt 0.76563 0.43750
vt 0.81250 0.43750
vt 0.81250 0.46875
vt 0.84375 0.46875
vt 0.84375 0.43750
vt 0.89063 0.43750
vt 0.89063 0.46875
vt 0.92188 0.46875
vt 0.92188 0.43750
vt 0.96875 0.43750
vt 0.96875 0.46875
vt 0.01563 0.56250
vt 0.01563 0.53125
vt 0.06250 0.53125
vt 0.06250 0.56250
vt 0.09375 0.56250
vt 0.09375 0.53125
vt 0.14063 0.53125
vt 0.14063 0.56250
vt 0.17188 0.56250
vt 0.17188 0.53125
vt 0.21875 0.53125
vt 0.21875 0.56250
vt 0.25000 0.56250
vt 0.25000 0.53125
vt 0.29688 0.53125
vt 0.29688 0.56250
vt 0.32813 0.56250
vt 0.32813 0.53125
vt 0.37500 0.53125
vt 0.37500 0.56250
vt 0.40625 0.56250
vt 0.40625 0.53125
vt 0.45313 0.53125
vt 0.45313 0.56250
vt 0.48438 0.56250
vt 0.48438 0.53125
vt 0.53125 0.53125
vt 0.53125 0.56250
vt 0.56250 0.56250
vt 0.56250 0.53125
vt 0.59375 0.53125
vt 0.59375 0.56250
vt 0.62500 0.56250
vt 0.62500 0.53125
vt 0.65625 0.53125
vt 0.65625 0.56250
vt 0.68750 0.56250
vt 0.68750 0.53125
vt 0.71875 0.53125
vt 0.71875 0.56250
vt 0.75000 0.56250
vt 0.75000 0.53125
vt 0.78125 0.53125
vt 0.78125 0.56250
vt 0.81250 0.56250
vt 0.81250 0.53125
vt 0.84375 0.53125
vt 0.84375 0.56250
vt 0.87500 0.56250
vt 0.87500 0.53125
vt 0.90625 0.53125
vt 0.90625 0.56250
vt 0.93750 0.56250
vt 0.93750 0.53125
vt 0.96875 0.53125
vt 0.96875 0.56250
vt 0.01563 0.65625
vt 0.01563 0.62500
vt 0.04688 0.62500
vt 0.04688 0.65625
vt 0.07813 0.65625
vt 0.07813 0.62500
vt 0.09375 0.62500
vt 0.09375 0.65625
vt 0.12500 0.65625
vt 0.12500 0.62500
vt 0.14063 0.62500
vt 0.14063 0.65625
vt 0.17188 0.65625
vt 0.17188 0.62500
vt 0.18750 0.62500
vt 0.18750 0.65625
vt 0.21875 0.65625
vt 0.21875 0.62500
vt 0.23438 0.62500
vt 0.23438 0.65625
vt 0.26563 0.65625
vt 0.26563 0.62500
vt 0.28125 0.62500
vt 0.28125 0.65625
vt 0.31250 0.65625
vt 0.31250 0.62500
vt 0.32813 0.62500
vt 0.32813 0.65625
vt 0.35938 0.65625
vt 0.35938 0.62500
vt 0.37500 0.62500
vt 0.37500 0.65625
vt 0.40625 0.65625
vt 0.40625 0.62500
vt 0.42188 0.62500
vt 0.42188 0.65625
vt 0.45313 0.65625
vt 0.45313 0.62500
vt 0.46875 0.62500
vt 0.46875 0.65625
vt 0.50000 0.65625
vt 0.50000 0.62500
vt 0.51563 0.62500
vt 0.51563 0.65625
vt 0.54688 0.65625
vt 0.54688 0.62500
vt 0.56250 0.62500
vt 0.56250 0.65625
vt 0.59375 0.65625
vt 0.59375 0.62500
vt 0.60938 0.62500
vt 0.60938 0.65625
vt 0.64063 0.65625
vt 0.64063 0.62500
vt 0.65625 0.62500
vt 0.65625 0.65625
vt 0.68750 0.65625
vt 0.68750 0.62500
vt 0.70313 0.62500
vt 0.70313 0.65625
vt 0.73438 0.65625
vt 0.73438 0.62500
vt 0.75000 0.62500
vt 0.75000 0.65625
vt 0.78125 0.65625
vt 0.78125 0.62500
vt 0.79688 0.62500
vt 0.79688 0.65625

g Coin
usemtl Item Coin Bronze_Material
f 1/13/2 2/14/2 3/15/2 4/16/2
f 5/21/2 6/22/2 7/23/2 8/24/2
f 9/25/2 10/26/2 11/27/2 12/28/2
f 13/101/2 14/102/2 15/103/2 16/104/2
f 17/93/2 18/94/2 19/95/2 20/96/2
f 21/161/2 22/162/2 23/163/2 7/164/2
f 24/165/2 25/166/2 8/167/2 26/168/2
f 27/109/2 28/110/2 29/111/2 30/112/2
f 31/117/2 32/118/2 33/119/2 34/120/2
f 10/153/2 35/154/2 36/155/2 37/156/2
f 38/157/2 9/158/2 39/159/2 40/160/2
f 41/205/2 42/206/2 43/207/2 44/208/2
f 45/193/2 46/194/2 47/195/2 48/196/2
f 49/9/1 50/10/1 51/11/1 52/12/1
f 53/17/1 54/18/1 55/19/1 56/20/1
f 57/29/1 58/30/1 59/31/1 60/32/1
f 61/97/1 62/98/1 63/99/1 64/100/1
f 65/89/1 66/90/1 67/91/1 68/92/1
f 54/125/1 69/126/1 70/127/1 71/128/1
f 72/145/1 53/146/1 73/147/1 74/148/1
f 75/105/1 76/106/1 77/107/1 78/108/1
f 79/113/1 80/114/1 81/115/1 82/116/1
f 83/133/1 84/134/1 85/135/1 59/136/1
f 86/129/1 87/130/1 60/131/1 88/132/1
f 89/213/1 90/214/1 91/215/1 92/216/1
f 93/201/1 94/202/1 95/203/1 96/204/1
f 26/5/3 23/6/3 69/7/3 72/8/3
f 12/33/3 11/34/3 2/35/3 1/36/3
f 52/37/3 51/38/3 58/39/3 57/40/3
f 16/141/3 15/142/3 62/143/3 61/144/3
f 20/137/3 19/138/3 66/139/3 65/140/3
f 30/121/3 29/122/3 76/123/3 75/124/3
f 34/149/3 33/150/3 80/151/3 79/152/3
f 37/257/3 36/258/3 42/259/3 41/260/3
f 40/261/3 39/262/3 46/263/3 45/264/3
f 92/249/3 91/250/3 84/251/3 83/252/3
f 96/253/3 95/254/3 87/255/3 86/256/3
f 88/1/4 85/2/4 35/3/4 38/4/4
f 4/41/4 3/42/4 6/43/4 5/44/4
f 56/45/4 55/46/4 50/47/4 49/48/4
f 78/181/4 77/182/4 28/183/4 27/184/4
f 82/177/4 81/178/4 32/179/4 31/180/4
f 64/173/4 63/174/4 14/175/4 13/176/4
f 68/169/4 67/170/4 18/171/4 17/172/4
f 44/273/4 43/274/4 22/275/4 21/276/4
f 48/277/4 47/278/4 25/279/4 24/280/4
f 71/265/4 70/266/4 90/267/4 89/268/4
f 74/269/4 73/270/4 94/271/4 93/272/4
f 34/49/5 79/50/5 82/51/5 31/52/5
f 26/65/5 72/66/5 66/67/5 19/68/5
f 20/61/5 65/62/5 80/63/5 33/64/5
f 32/57/5 81/58/5 68/59/5 17/60/5
f 18/69/5 67/70/5 88/71/5 38/72/5
f 22/209/5 43/210/5 42/211/5 36/212/5
f 90/197/5 70/198/5 84/199/5 91/200/5
f 6/225/5 3/226/5 44/227/5 21/228/5
f 37/229/5 41/230/5 2/231/5 11/232/5
f 50/217/5 55/218/5 71/219/5 89/220/5
f 92/221/5 83/222/5 58/223/5 51/224/5
f 76/53/6 29/54/6 28/55/6 77/56/6
f 69/77/6 23/78/6 16/79/6 61/80/6
f 62/73/6 15/74/6 30/75/6 75/76/6
f 78/85/6 27/86/6 14/87/6 63/88/6
f 64/81/6 13/82/6 35/83/6 85/84/6
f 48/189/6 24/190/6 40/191/6 45/192/6
f 74/185/6 93/186/6 96/187/6 86/188/6
f 4/241/6 5/242/6 25/243/6 47/244/6
f 46/245/6 39/246/6 12/247/6 1/248/6
f 56/233/6 49/234/6 94/235/6 73/236/6
f 87/237/6 95/238/6 52/239/6 57/240/6
