# Created by Kenney (www.kenney.nl)

mtllib block.mtl

g block

v -0.591514 0.8414931 0.5
v -0.5 1 0.5
v -0.5 0.8414931 0.591514
v 0.5 0.8414931 -0.591514
v 0.591514 0.8414931 -0.5
v 0.5 1 -0.5
v -0.591514 0.8414931 -0.5
v -0.5 1 -0.5
v -0.633028 0.7695886 -0.4166666
v -0.591514 0.8414931 -0.3333333
v -0.591514 0.8414931 -0.1666667
v -0.633028 0.7695886 -0.25
v -0.591514 0.8414931 0
v -0.633028 0.7695886 -0.08333331
v -0.591514 0.8414931 0.1666667
v -0.633028 0.7695886 0.08333331
v -0.633028 0.7695886 0.25
v -0.591514 0.8414931 0.3333333
v -0.633028 0.7695886 0.4166666
v 0.591514 0.8414931 0.5
v 0.5 0.8414931 0.591514
v 0.5 1 0.5
v -0.4166666 0.7695886 -0.633028
v -0.3333333 0.8414931 -0.591514
v -0.5 0.8414931 -0.591514
v -0.1666667 0.8414931 -0.591514
v 0 0.8414931 -0.591514
v 0.1666667 0.8414931 -0.591514
v 0.3333333 0.8414931 -0.591514
v 0.4166666 0.7695886 -0.633028
v 0.25 0.7695886 -0.633028
v 0.08333325 0.7695886 -0.633028
v -0.08333331 0.7695886 -0.633028
v -0.25 0.7695886 -0.633028
v 0.4166666 0.7695886 0.633028
v 0.3333333 0.8414931 0.591514
v 0.1666667 0.8414931 0.591514
v 0 0.8414931 0.591514
v -0.1666667 0.8414931 0.591514
v -0.3333333 0.8414931 0.591514
v -0.4166666 0.7695886 0.633028
v -0.25 0.7695886 0.633028
v -0.08333331 0.7695886 0.633028
v 0.08333325 0.7695886 0.633028
v 0.25 0.7695886 0.633028
v 0.633028 0.7695886 -0.4166666
v 0.591514 0.8414931 -0.3333333
v 0.591514 0.8414931 -0.1666667
v 0.633028 0.7695886 -0.25
v 0.591514 0.8414931 0
v 0.633028 0.7695886 -0.08333331
v 0.591514 0.8414931 0.1666667
v 0.633028 0.7695886 0.08333331
v 0.633028 0.7695886 0.25
v 0.591514 0.8414931 0.3333333
v 0.633028 0.7695886 0.4166666
v 0.5 0 0.5
v -0.5 0 0.5
v -0.5 0 -0.5
v 0.5 0 -0.5

vn -0.6546537 0.3779645 0.6546537
vn 0.6546537 -0.3779645 -0.6546537
vn 0.6546537 0.3779645 -0.6546537
vn -0.6546537 -0.3779645 0.6546537
vn -0.8660254 0.4999999 0
vn 0.8660254 -0.4999999 0
vn 0.6546535 0.3779645 0.6546537
vn -0.6546535 -0.3779645 -0.6546537
vn 0 0.4999999 -0.8660254
vn 0 -0.4999999 0.8660254
vn 0 1 0
vn -0.6546537 0.3779645 -0.6546535
vn 0.6546537 -0.3779645 0.6546535
vn 0 0.4999999 0.8660254
vn 0 -0.4999999 -0.8660254
vn 0.8660254 0.4999999 0
vn -0.8660254 -0.4999999 0
vn 0 0 1
vn -1 0 0
vn 0 -1 0
vn 0 0 -1
vn 1 0 0

vt -2.547644 19.18708
vt 7.105427E-15 25.92752
vt 2.547644 19.18708
vt 2.547645 19.18708
vt -2.547645 19.18708
vt -4.218137E-11 25.92751
vt -19.68504 17.04715
vt -19.68504 24.25297
vt -16.4042 13.77833
vt -13.12336 17.04715
vt 19.68504 24.25297
vt -6.561681 17.04715
vt -9.84252 13.77833
vt 3.391326E-14 17.04715
vt -3.280838 13.77833
vt 6.561681 17.04715
vt 3.280838 13.77833
vt 9.84252 13.77833
vt 13.12336 17.04715
vt 16.4042 13.77833
vt 19.68504 17.04715
vt 2.547647 19.18708
vt -2.547643 19.18708
vt 1.521009E-06 25.92751
vt -3.332856E-12 17.04715
vt -19.68504 19.68504
vt 19.68504 19.68504
vt -19.68504 -19.68504
vt 19.68504 -19.68504
vt 2.547643 19.18708
vt -2.547647 19.18708
vt -1.521016E-06 25.92751
vt 16.4042 13.77833
vt -9.235932E-15 17.04715
vt -16.4042 13.77833
vt -3.125373E-12 17.04715
vt 19.68504 0
vt -19.68504 0
vt 19.68504 39.37008
vt -19.68504 39.37008
vt 19.68504 4.973799E-12
vt -19.68504 4.973799E-12
vt 19.68504 -4.604317E-12
vt -19.68504 -4.604317E-12

usemtl grass

f 3/3/1 2/2/1 1/1/1
f 1/1/2 2/2/2 3/3/2
f 6/6/3 5/5/3 4/4/3
f 4/4/4 5/5/4 6/6/4
f 9/9/5 8/8/5 7/7/5
f 8/8/5 9/9/5 10/10/5
f 8/8/5 10/10/5 2/11/5
f 2/11/5 10/10/5 11/12/5
f 11/12/5 10/10/5 12/13/5
f 2/11/5 11/12/5 13/14/5
f 13/14/5 11/12/5 14/15/5
f 2/11/5 13/14/5 15/16/5
f 15/16/5 13/14/5 16/17/5
f 2/11/5 15/16/5 17/18/5
f 2/11/5 17/18/5 18/19/5
f 2/11/5 18/19/5 19/20/5
f 2/11/5 19/20/5 1/21/5
f 7/7/6 8/8/6 9/9/6
f 10/10/6 9/9/6 8/8/6
f 2/11/6 10/10/6 8/8/6
f 11/12/6 10/10/6 2/11/6
f 12/13/6 10/10/6 11/12/6
f 13/14/6 11/12/6 2/11/6
f 14/15/6 11/12/6 13/14/6
f 15/16/6 13/14/6 2/11/6
f 16/17/6 13/14/6 15/16/6
f 17/18/6 15/16/6 2/11/6
f 18/19/6 17/18/6 2/11/6
f 19/20/6 18/19/6 2/11/6
f 1/21/6 19/20/6 2/11/6
f 22/24/7 21/23/7 20/22/7
f 20/22/8 21/23/8 22/24/8
f 25/21/9 24/19/9 23/20/9
f 24/19/9 25/21/9 8/11/9
f 24/19/9 8/11/9 26/16/9
f 26/16/9 8/11/9 27/25/9
f 27/25/9 8/11/9 28/12/9
f 28/12/9 8/11/9 29/10/9
f 29/10/9 8/11/9 4/7/9
f 4/7/9 8/11/9 6/8/9
f 4/7/9 30/9/9 29/10/9
f 29/10/9 31/13/9 28/12/9
f 28/12/9 32/15/9 27/25/9
f 27/25/9 33/17/9 26/16/9
f 26/16/9 34/18/9 24/19/9
f 23/20/10 24/19/10 25/21/10
f 8/11/10 25/21/10 24/19/10
f 26/16/10 8/11/10 24/19/10
f 27/25/10 8/11/10 26/16/10
f 28/12/10 8/11/10 27/25/10
f 29/10/10 8/11/10 28/12/10
f 4/7/10 8/11/10 29/10/10
f 6/8/10 8/11/10 4/7/10
f 29/10/10 30/9/10 4/7/10
f 28/12/10 31/13/10 29/10/10
f 27/25/10 32/15/10 28/12/10
f 26/16/10 33/17/10 27/25/10
f 24/19/10 34/18/10 26/16/10
f 6/28/11 2/27/11 22/26/11
f 2/27/11 6/28/11 8/29/11
f 8/32/12 25/31/12 7/30/12
f 7/30/13 25/31/13 8/32/13
f 21/21/14 36/19/14 35/33/14
f 36/19/14 21/21/14 22/11/14
f 36/19/14 22/11/14 37/16/14
f 37/16/14 22/11/14 38/34/14
f 38/34/14 22/11/14 39/12/14
f 39/12/14 22/11/14 40/10/14
f 40/10/14 22/11/14 3/7/14
f 3/7/14 22/11/14 2/8/14
f 3/7/14 41/35/14 40/10/14
f 40/10/14 42/13/14 39/12/14
f 39/12/14 43/15/14 38/34/14
f 38/34/14 44/17/14 37/16/14
f 37/16/14 45/18/14 36/19/14
f 35/33/15 36/19/15 21/21/15
f 22/11/15 21/21/15 36/19/15
f 37/16/15 22/11/15 36/19/15
f 38/34/15 22/11/15 37/16/15
f 39/12/15 22/11/15 38/34/15
f 40/10/15 22/11/15 39/12/15
f 3/7/15 22/11/15 40/10/15
f 2/8/15 22/11/15 3/7/15
f 40/10/15 41/35/15 3/7/15
f 39/12/15 42/13/15 40/10/15
f 38/34/15 43/15/15 39/12/15
f 37/16/15 44/17/15 38/34/15
f 36/19/15 45/18/15 37/16/15
f 6/11/16 46/33/16 5/21/16
f 46/33/16 6/11/16 47/19/16
f 47/19/16 6/11/16 22/8/16
f 47/19/16 22/8/16 48/16/16
f 47/19/16 48/16/16 49/18/16
f 48/16/16 22/8/16 50/36/16
f 48/16/16 50/36/16 51/17/16
f 50/36/16 22/8/16 52/12/16
f 50/36/16 52/12/16 53/15/16
f 52/12/16 22/8/16 54/13/16
f 54/13/16 22/8/16 55/10/16
f 55/10/16 22/8/16 56/35/16
f 56/35/16 22/8/16 20/7/16
f 5/21/17 46/33/17 6/11/17
f 47/19/17 6/11/17 46/33/17
f 22/8/17 6/11/17 47/19/17
f 48/16/17 22/8/17 47/19/17
f 49/18/17 48/16/17 47/19/17
f 50/36/17 22/8/17 48/16/17
f 51/17/17 50/36/17 48/16/17
f 52/12/17 22/8/17 50/36/17
f 53/15/17 52/12/17 50/36/17
f 54/13/17 22/8/17 52/12/17
f 55/10/17 22/8/17 54/13/17
f 56/35/17 22/8/17 55/10/17
f 20/7/17 22/8/17 56/35/17

usemtl dirt

f 22/39/18 58/38/18 57/37/18
f 58/38/18 22/39/18 2/40/18
f 58/37/19 8/40/19 59/38/19
f 8/40/19 58/37/19 2/39/19
f 58/26/20 60/29/20 57/27/20
f 60/29/20 58/26/20 59/28/20
f 8/39/21 60/42/21 59/41/21
f 60/42/21 8/39/21 6/40/21
f 22/40/22 60/43/22 6/39/22
f 60/43/22 22/40/22 57/44/22

