# Created by Kenney (www.kenney.nl)

mtllib blockHexagon.mtl

g blockHexagon

v 0.129014 0.7695886 -0.6564715
v 0.1707571 0.8414931 -0.584435
v 0.04575706 0.8414931 -0.6566037
v 0 1 -0.5773503
v 0.2957571 0.8414931 -0.5122662
v 0.4207571 0.8414931 -0.4400973
v 0.5457571 0.8414931 -0.3679286
v 0.5 1 -0.2886751
v 0.504014 0.7695886 -0.4399651
v 0.379014 0.7695886 -0.512134
v 0.254014 0.7695886 -0.5843027
v -0.591514 0.8414931 0.2886751
v -0.5 1 0.2886751
v -0.545757 0.8414931 0.3679286
v 0.5 1 0.2886751
v 0 1 0.57735
v -0.5 1 -0.2886751
v -0.045757 0.8414931 -0.6566037
v -0.129014 0.7695886 0.656471
v -0.170757 0.8414931 0.584435
v -0.045757 0.8414931 0.656604
v -0.295757 0.8414931 0.512266
v -0.4207569 0.8414931 0.4400973
v -0.504014 0.7695886 0.4399652
v -0.379014 0.7695886 0.512134
v -0.254014 0.7695886 0.584303
v 0.591514 0.8414931 0.2886751
v 0.5457571 0.8414931 0.3679286
v 0.504014 0.7695886 0.4399652
v 0.4207571 0.8414931 0.4400973
v 0.2957571 0.8414931 0.512266
v 0.1707571 0.8414931 0.584435
v 0.04575706 0.8414931 0.656604
v 0.129014 0.7695886 0.656471
v 0.254014 0.7695886 0.584303
v 0.379014 0.7695886 0.512134
v -0.504014 0.7695886 -0.4399651
v -0.4207569 0.8414931 -0.4400973
v -0.545757 0.8414931 -0.3679286
v -0.295757 0.8414931 -0.5122662
v -0.170757 0.8414931 -0.584435
v -0.129014 0.7695886 -0.6564715
v -0.254014 0.7695886 -0.5843027
v -0.379014 0.7695886 -0.512134
v 0.591514 0.8414931 -0.2886751
v -0.591514 0.8414931 -0.2886751
v -0.633028 0.7695886 -0.2165064
v -0.591514 0.8414931 -0.1443376
v -0.591514 0.8414931 0
v -0.633028 0.7695886 -0.07216883
v -0.633028 0.7695886 0.0721688
v -0.591514 0.8414931 0.1443375
v -0.633028 0.7695886 0.2165064
v 0.591514 0.8414931 -0.1443376
v 0.633028 0.7695886 -0.2165064
v 0.591514 0.8414931 0
v 0.633028 0.7695886 -0.07216883
v 0.633028 0.7695886 0.0721688
v 0.591514 0.8414931 0.1443375
v 0.633028 0.7695886 0.2165064
v 0.5 0 0.2886751
v 0.1339742 8.014827E-32 0.5
v 0 0 0.57735
v -0.5 0 -0.2886751
v -0.5 0 0.2886751
v 0.5 0 -0.2886751
v 0 0 -0.5773503
v 0.1339746 8.014827E-32 -0.5
v -0.1339743 8.014827E-32 0.5
v -0.1339746 8.014827E-32 -0.5

vn 0.4330127 0.5 -0.7500001
vn -0.4330127 -0.5 0.7500001
vn -0.7745968 0.4472136 0.4472134
vn 0.7745968 -0.4472136 -0.4472134
vn 0 1 0
vn 0 0.4472135 -0.8944273
vn 0 -0.4472135 0.8944273
vn -0.4330126 0.5000002 0.7499999
vn 0.4330126 -0.5000002 -0.7499999
vn 0.7745967 0.4472136 0.4472135
vn -0.7745967 -0.4472136 -0.4472135
vn 0.4330125 0.5000003 0.75
vn -0.4330125 -0.5000003 -0.75
vn -0.4330127 0.5 -0.7500001
vn 0.4330127 -0.5 0.7500001
vn 0.7745967 0.4472136 -0.4472135
vn -0.7745967 -0.4472136 0.4472135
vn -0.8660254 0.5 0
vn 0.8660254 -0.5 0
vn -0.7745968 0.4472136 -0.4472134
vn 0.7745968 -0.4472136 0.4472134
vn 0 0.4472161 0.8944259
vn 0 -0.4472161 -0.8944259
vn 0.8660254 0.5 0
vn -0.8660254 -0.5 0
vn 0.4999998 0 0.8660256
vn -1 0 0
vn 1 0 0
vn 0.5000001 0 -0.8660254
vn -0.4999998 0 0.8660256
vn -0.5000001 0 -0.8660254
vn 0 -1 0

vt 8.523871 13.77832
vt 5.682581 17.04714
vt 11.36516 17.04714
vt 11.36516 24.25297
vt -1.747736E-07 17.04714
vt -5.682581 17.04714
vt -11.36516 17.04714
vt -11.36516 24.25297
vt -8.523872 13.77832
vt -2.841291 13.77832
vt 2.84129 13.77832
vt -1.801451 18.07134
vt 5.178791E-06 25.04836
vt 1.801464 18.07134
vt -19.68504 -11.36516
vt -19.68504 11.36516
vt -3.865352E-12 -22.73033
vt -3.865352E-12 22.73031
vt 19.68504 -11.36516
vt 19.68504 11.36516
vt 1.801457 18.07135
vt -1.801457 18.07135
vt -3.86613E-12 25.04836
vt 8.523859 13.77832
vt 5.68258 17.04713
vt 11.36517 17.04713
vt 11.36516 24.25296
vt -5.798542E-06 17.04713
vt -5.682582 17.04713
vt -11.36517 17.04713
vt -11.36517 24.25296
vt -8.523874 13.77831
vt -2.841292 13.77831
vt 2.841293 13.77831
vt -3.027748E-06 25.04836
vt 1.801453 18.07134
vt -1.801462 18.07134
vt 8.523874 13.77831
vt 5.682586 17.04713
vt 11.36517 17.04713
vt 11.36517 24.25296
vt 6.165078E-06 17.04713
vt -5.68258 17.04713
vt -11.36516 17.04713
vt -11.36516 24.25296
vt -8.523859 13.77832
vt -2.841293 13.77831
vt 2.841293 13.77831
vt 5.682578 17.04714
vt 11.36516 17.04714
vt -1.917631E-07 17.04714
vt -5.682581 17.04714
vt -11.36516 17.04714
vt -11.36516 24.25297
vt -8.523872 13.77832
vt -2.841291 13.77832
vt 3.027731E-06 25.04836
vt 1.801462 18.07134
vt -1.801453 18.07134
vt -11.36516 17.04714
vt -11.36516 24.25297
vt -8.523874 13.77832
vt -5.682583 17.04714
vt 11.36516 24.25297
vt 9.918059E-12 17.04714
vt -2.841291 13.77832
vt 2.841291 13.77832
vt 5.682579 17.04714
vt 8.523874 13.77832
vt 11.36516 17.04714
vt 1.801451 18.07134
vt -1.801464 18.07134
vt -5.178773E-06 25.04836
vt 1.801457 18.07124
vt -1.801457 18.07124
vt 3.865352E-12 25.04826
vt 5.682583 17.04714
vt -9.891589E-12 17.04714
vt -5.682579 17.04714
vt 11.36517 4.153301E-16
vt -5.274596 4.153301E-16
vt 11.36517 39.37008
vt -11.36515 39.37008
vt -11.36515 4.153301E-16
vt -11.36516 0
vt -11.36516 39.37008
vt 11.36516 0
vt 11.36516 39.37008
vt 11.36516 4.983963E-16
vt 5.274592 4.983963E-16
vt 11.36516 39.37008
vt -11.36516 39.37008
vt -11.36516 4.983963E-16
vt 11.36515 -9.137263E-16
vt 5.274596 -9.137263E-16
vt 11.36515 39.37008
vt -11.36517 39.37008
vt -11.36517 -9.137263E-16
vt 11.36516 -8.306604E-16
vt -5.274592 -8.306604E-16
vt 11.36516 39.37008
vt -11.36516 39.37008
vt -11.36516 -8.306604E-16
vt 5.274576 19.68504
vt 5.27459 -19.68504
vt 3.865352E-12 -22.73033
vt 3.865352E-12 22.73031
vt -5.274576 19.68504
vt -5.27459 -19.68504

usemtl grass

f 3/3/1 2/2/1 1/1/1
f 2/2/1 3/3/1 4/4/1
f 2/2/1 4/4/1 5/5/1
f 5/5/1 4/4/1 6/6/1
f 6/6/1 4/4/1 7/7/1
f 7/7/1 4/4/1 8/8/1
f 7/7/1 9/9/1 6/6/1
f 6/6/1 10/10/1 5/5/1
f 5/5/1 11/11/1 2/2/1
f 1/1/2 2/2/2 3/3/2
f 4/4/2 3/3/2 2/2/2
f 5/5/2 4/4/2 2/2/2
f 6/6/2 4/4/2 5/5/2
f 7/7/2 4/4/2 6/6/2
f 8/8/2 4/4/2 7/7/2
f 6/6/2 9/9/2 7/7/2
f 5/5/2 10/10/2 6/6/2
f 2/2/2 11/11/2 5/5/2
f 14/14/3 13/13/3 12/12/3
f 12/12/4 13/13/4 14/14/4
f 4/17/5 15/16/5 8/15/5
f 15/16/5 4/17/5 16/18/5
f 16/18/5 4/17/5 17/19/5
f 16/18/5 17/19/5 13/20/5
f 4/23/6 3/22/6 18/21/6
f 18/21/7 3/22/7 4/23/7
f 21/26/8 20/25/8 19/24/8
f 20/25/8 21/26/8 16/27/8
f 20/25/8 16/27/8 22/28/8
f 22/28/8 16/27/8 23/29/8
f 23/29/8 16/27/8 14/30/8
f 14/30/8 16/27/8 13/31/8
f 14/30/8 24/32/8 23/29/8
f 23/29/8 25/33/8 22/28/8
f 22/28/8 26/34/8 20/25/8
f 19/24/9 20/25/9 21/26/9
f 16/27/9 21/26/9 20/25/9
f 22/28/9 16/27/9 20/25/9
f 23/29/9 16/27/9 22/28/9
f 14/30/9 16/27/9 23/29/9
f 13/31/9 16/27/9 14/30/9
f 23/29/9 24/32/9 14/30/9
f 22/28/9 25/33/9 23/29/9
f 20/25/9 26/34/9 22/28/9
f 28/37/10 27/36/10 15/35/10
f 15/35/11 27/36/11 28/37/11
f 28/40/12 30/39/12 29/38/12
f 30/39/12 28/40/12 15/41/12
f 30/39/12 15/41/12 31/42/12
f 31/42/12 15/41/12 32/43/12
f 32/43/12 15/41/12 33/44/12
f 33/44/12 15/41/12 16/45/12
f 33/44/12 34/46/12 32/43/12
f 32/43/12 35/47/12 31/42/12
f 31/42/12 36/48/12 30/39/12
f 29/38/13 30/39/13 28/40/13
f 15/41/13 28/40/13 30/39/13
f 31/42/13 15/41/13 30/39/13
f 32/43/13 15/41/13 31/42/13
f 33/44/13 15/41/13 32/43/13
f 16/45/13 15/41/13 33/44/13
f 32/43/13 34/46/13 33/44/13
f 31/42/13 35/47/13 32/43/13
f 30/39/13 36/48/13 31/42/13
f 39/50/14 38/49/14 37/1/14
f 38/49/14 39/50/14 17/4/14
f 38/49/14 17/4/14 40/51/14
f 40/51/14 17/4/14 41/52/14
f 41/52/14 17/4/14 18/53/14
f 18/53/14 17/4/14 4/54/14
f 18/53/14 42/55/14 41/52/14
f 41/52/14 43/56/14 40/51/14
f 40/51/14 44/11/14 38/49/14
f 37/1/15 38/49/15 39/50/15
f 17/4/15 39/50/15 38/49/15
f 40/51/15 17/4/15 38/49/15
f 41/52/15 17/4/15 40/51/15
f 18/53/15 17/4/15 41/52/15
f 4/54/15 17/4/15 18/53/15
f 41/52/15 42/55/15 18/53/15
f 40/51/15 43/56/15 41/52/15
f 38/49/15 44/11/15 40/51/15
f 45/59/16 7/58/16 8/57/16
f 8/57/17 7/58/17 45/59/17
f 47/62/18 17/61/18 46/60/18
f 17/61/18 47/62/18 48/63/18
f 17/61/18 48/63/18 13/64/18
f 13/64/18 48/63/18 49/65/18
f 49/65/18 48/63/18 50/66/18
f 13/64/18 49/65/18 51/67/18
f 13/64/18 51/67/18 52/68/18
f 13/64/18 52/68/18 53/69/18
f 13/64/18 53/69/18 12/70/18
f 46/60/19 17/61/19 47/62/19
f 48/63/19 47/62/19 17/61/19
f 13/64/19 48/63/19 17/61/19
f 49/65/19 48/63/19 13/64/19
f 50/66/19 48/63/19 49/65/19
f 51/67/19 49/65/19 13/64/19
f 52/68/19 51/67/19 13/64/19
f 53/69/19 52/68/19 13/64/19
f 12/70/19 53/69/19 13/64/19
f 17/73/20 39/72/20 46/71/20
f 46/71/21 39/72/21 17/73/21
f 16/76/22 21/75/22 33/74/22
f 33/74/23 21/75/23 16/76/23
f 15/61/24 45/70/24 8/64/24
f 45/70/24 15/61/24 54/77/24
f 45/70/24 54/77/24 55/69/24
f 54/77/24 15/61/24 56/78/24
f 54/77/24 56/78/24 57/67/24
f 56/78/24 15/61/24 58/66/24
f 58/66/24 15/61/24 59/79/24
f 59/79/24 15/61/24 60/62/24
f 60/62/24 15/61/24 27/60/24
f 8/64/25 45/70/25 15/61/25
f 54/77/25 15/61/25 45/70/25
f 55/69/25 54/77/25 45/70/25
f 56/78/25 15/61/25 54/77/25
f 57/67/25 56/78/25 54/77/25
f 58/66/25 15/61/25 56/78/25
f 59/79/25 15/61/25 58/66/25
f 60/62/25 15/61/25 59/79/25
f 27/60/25 15/61/25 60/62/25

usemtl dirt

f 15/82/26 62/81/26 61/80/26
f 16/83/26 62/81/26 15/82/26
f 62/81/26 16/83/26 63/84/26
f 65/87/27 17/86/27 64/85/27
f 17/86/27 65/87/27 13/88/27
f 15/86/28 66/87/28 8/88/28
f 66/87/28 15/86/28 61/85/28
f 4/91/29 68/90/29 67/89/29
f 8/92/29 68/90/29 4/91/29
f 68/90/29 8/92/29 66/93/29
f 16/96/30 69/95/30 63/94/30
f 13/97/30 69/95/30 16/96/30
f 69/95/30 13/97/30 65/98/30
f 17/101/31 70/100/31 64/99/31
f 4/102/31 70/100/31 17/101/31
f 70/100/31 4/102/31 67/103/31
f 62/104/32 66/19/32 61/20/32
f 66/19/32 62/104/32 68/105/32
f 68/105/32 62/104/32 67/106/32
f 67/106/32 62/104/32 63/107/32
f 67/106/32 63/107/32 69/108/32
f 67/106/32 69/108/32 70/109/32
f 70/109/32 69/108/32 65/16/32
f 70/109/32 65/16/32 64/15/32

