# Created by Kenney (www.kenney.nl)

mtllib blockSnow.mtl

g blockSnow

v -0.5 0 -0.5
v -0.5 1 -0.5
v -0.5 0 0.5
v -0.5 1 0.5
v 0.5 0 -0.5
v 0.5 1 -0.5
v 0.5 1 0.5
v 0.5 0 0.5
v -0.25 0.7981918 -0.616514
v -0.2072618 0.79941 -0.6158106
v -0.2927382 0.79941 -0.6158106
v -0.3352913 0.803059 -0.613704
v -0.1647086 0.803059 -0.613704
v -0.3774755 0.8091233 -0.6102027
v -0.1225245 0.8091233 -0.6102027
v -0.4191079 0.8175765 -0.6053224
v -0.08089209 0.8175765 -0.6053224
v -0.4600083 0.828382 -0.5990837
v -0.03999162 0.828382 -0.5990837
v -0.5 0.8414931 -0.591514
v 0.03999162 0.8546042 -0.5839443
v 0.08089209 0.8654098 -0.5777057
v 0.1225245 0.8738629 -0.5728252
v 0.1647086 0.8799272 -0.569324
v 0.2072618 0.8835763 -0.5672172
v 0.25 0.8847944 -0.566514
v 0.2927382 0.8835763 -0.5672172
v 0.3352914 0.8799272 -0.569324
v 0.3774755 0.8738629 -0.5728252
v 0.4191079 0.8654098 -0.5777057
v 0.4600084 0.8546042 -0.5839443
v 0.5 0.8414931 -0.591514
v 0.25 0.7981918 0.616514
v 0.2072618 0.79941 0.615811
v 0.2927382 0.79941 0.615811
v 0.3352914 0.803059 0.613704
v 0.1647086 0.803059 0.613704
v 0.3774755 0.8091233 0.610203
v 0.1225245 0.8091233 0.610203
v 0.4191079 0.8175765 0.605322
v 0.08089209 0.8175765 0.605322
v 0.4600084 0.828382 0.599084
v 0.03999162 0.828382 0.599084
v 0.5 0.8414931 0.591514
v -0.03999162 0.8546042 0.583944
v -0.08089209 0.8654098 0.577706
v -0.1225245 0.8738629 0.572825
v -0.1647086 0.8799272 0.569324
v -0.2072618 0.8835763 0.567217
v -0.25 0.8847944 0.566514
v -0.2927382 0.8835763 0.567217
v -0.3352913 0.8799272 0.569324
v -0.3774755 0.8738629 0.572825
v -0.4191079 0.8654098 0.577706
v -0.4600083 0.8546042 0.583944
v -0.5 0.8414931 0.591514
v 0.591514 0.8414931 -0.5
v 0.5990837 0.828382 -0.4600084
v 0.6053224 0.8175765 -0.4191079
v 0.6102027 0.8091233 -0.3774755
v 0.613704 0.803059 -0.3352914
v 0.6158106 0.79941 -0.2927382
v 0.616514 0.7981918 -0.25
v 0.6158106 0.79941 -0.2072618
v 0.613704 0.803059 -0.1647086
v 0.6102027 0.8091233 -0.1225245
v 0.6053224 0.8175765 -0.08089209
v 0.5839443 0.8546042 0.03999159
v 0.5990837 0.828382 -0.03999162
v 0.591514 0.8414931 0
v 0.5777057 0.8654098 0.08089209
v 0.5728252 0.8738629 0.1225245
v 0.569324 0.8799272 0.1647086
v 0.5672172 0.8835763 0.2072618
v 0.566514 0.8847944 0.25
v 0.5672172 0.8835763 0.2927382
v 0.569324 0.8799272 0.3352913
v 0.5728252 0.8738629 0.3774755
v 0.5777057 0.8654098 0.4191079
v 0.5839443 0.8546042 0.4600083
v 0.591514 0.8414931 0.5
v -0.591514 0.8414931 -0.5
v -0.583944 0.8546042 -0.4600084
v -0.577706 0.8654098 -0.4191079
v -0.572825 0.8738629 -0.3774755
v -0.569324 0.8799272 -0.3352914
v -0.567217 0.8835763 -0.2927382
v -0.566514 0.8847944 -0.25
v -0.567217 0.8835763 -0.2072618
v -0.569324 0.8799272 -0.1647086
v -0.572825 0.8738629 -0.1225245
v -0.577706 0.8654098 -0.08089209
v -0.583944 0.8546042 -0.03999162
v -0.599084 0.828382 0.03999159
v -0.605322 0.8175765 0.08089209
v -0.610203 0.8091233 0.1225245
v -0.613704 0.803059 0.1647086
v -0.615811 0.79941 0.2072618
v -0.616514 0.7981918 0.25
v -0.615811 0.79941 0.2927382
v -0.613704 0.803059 0.3352913
v -0.610203 0.8091233 0.3774755
v -0.605322 0.8175765 0.4191079
v -0.599084 0.828382 0.4600083
v -0.591514 0.8414931 0.5

vn -1 0 0
vn 0 0 -1
vn 1 0 0
vn 0 -1 0
vn 0 0 1
vn 0 1 0
vn 0 0.5 -0.8660254
vn 0 -0.5 0.8660254
vn 0 0.5000005 0.8660251
vn 0 -0.5000005 -0.8660251
vn 0.6546537 0.3779645 -0.6546537
vn -0.6546537 -0.3779645 0.6546537
vn 0.8660254 0.5 0
vn -0.8660254 -0.5 0
vn -0.8660251 0.5000005 0
vn 0.8660251 -0.5000005 0
vn -0.6546537 0.3779645 -0.6546535
vn 0.6546537 -0.3779645 0.6546535
vn -0.6546537 0.3779645 0.6546537
vn 0.6546537 -0.3779645 -0.6546537
vn 0.6546536 0.3779645 0.6546537
vn -0.6546536 -0.3779645 -0.6546537

vt -19.68504 0
vt -19.68504 39.37008
vt 19.68504 0
vt 19.68504 39.37008
vt 19.68504 4.973799E-12
vt -19.68504 4.973799E-12
vt 19.68504 -4.604317E-12
vt -19.68504 -4.604317E-12
vt 19.68504 19.68504
vt 19.68504 -19.68504
vt -19.68504 19.68504
vt -19.68504 -19.68504
vt 9.84252 15.07864
vt 8.159913 15.13402
vt 11.52513 15.13402
vt 13.20044 15.2999
vt 6.48459 15.2999
vt 14.86124 15.57559
vt 4.823799 15.57559
vt 16.50031 15.95988
vt 3.184728 15.95988
vt 18.11056 16.4511
vt 1.574472 16.4511
vt 19.68504 17.04714
vt -1.574473 17.64318
vt 19.68504 24.25297
vt -3.184729 18.13441
vt -4.8238 18.5187
vt -6.484591 18.79438
vt -8.159914 18.96027
vt -9.84252 19.01565
vt -19.68504 24.25297
vt -11.52513 18.96027
vt -13.20045 18.79438
vt -14.86124 18.5187
vt -16.50031 18.13441
vt -18.11057 17.64318
vt -19.68504 17.04714
vt 9.842525 15.07862
vt 8.159918 15.13399
vt 11.52513 15.13399
vt 13.20045 15.29988
vt 6.484595 15.29988
vt 14.86124 15.57557
vt 4.823804 15.57556
vt 16.50031 15.95986
vt 3.184733 15.95986
vt 18.11057 16.45108
vt 1.574477 16.45108
vt 19.68504 17.04712
vt -1.574468 17.64317
vt 19.68504 24.25295
vt -3.184724 18.13438
vt -4.823795 18.51868
vt -6.484586 18.79436
vt -8.159909 18.96025
vt -9.842516 19.01563
vt -19.68504 24.25295
vt -11.52512 18.96025
vt -13.20044 18.79436
vt -14.86124 18.51868
vt -16.50031 18.13438
vt -18.11056 17.64317
vt -19.68504 17.04712
vt 2.547645 19.18708
vt -2.547645 19.18708
vt -3.104486E-10 25.92751
vt 18.11057 16.4511
vt 16.50031 15.95988
vt 13.20045 15.2999
vt -1.574473 17.64318
vt -3.164618E-07 17.04714
vt -13.20045 18.79438
vt -18.11056 17.64318
vt -18.11056 17.64317
vt -16.50031 18.13438
vt -13.20044 18.79436
vt 13.20045 15.29988
vt 18.11057 16.45108
vt 2.547643 19.18708
vt -2.547647 19.18708
vt -1.520817E-06 25.92751
vt -2.547644 19.18708
vt 1.953993E-14 25.92752
vt 2.547644 19.18708
vt 2.547646 19.18708
vt -2.547643 19.18708
vt 1.313689E-06 25.92751

usemtl dirt

f 3/3/1 2/2/1 1/1/1
f 2/2/1 3/3/1 4/4/1
f 2/4/2 5/6/2 1/5/2
f 5/6/2 2/4/2 6/2/2
f 7/2/3 5/7/3 6/4/3
f 5/7/3 7/2/3 8/8/3
f 3/11/4 5/10/4 8/9/4
f 5/10/4 3/11/4 1/12/4
f 7/4/5 3/1/5 8/3/5
f 3/1/5 7/4/5 4/2/5

usemtl snow

f 6/12/6 4/9/6 7/11/6
f 4/9/6 6/12/6 2/10/6
f 11/15/7 10/14/7 9/13/7
f 10/14/7 11/15/7 12/16/7
f 10/14/7 12/16/7 13/17/7
f 13/17/7 12/16/7 14/18/7
f 13/17/7 14/18/7 15/19/7
f 15/19/7 14/18/7 16/20/7
f 15/19/7 16/20/7 17/21/7
f 17/21/7 16/20/7 18/22/7
f 17/21/7 18/22/7 19/23/7
f 19/23/7 18/22/7 20/24/7
f 19/23/7 20/24/7 21/25/7
f 21/25/7 20/24/7 2/26/7
f 21/25/7 2/26/7 22/27/7
f 22/27/7 2/26/7 23/28/7
f 23/28/7 2/26/7 24/29/7
f 24/29/7 2/26/7 25/30/7
f 25/30/7 2/26/7 26/31/7
f 6/32/7 26/31/7 2/26/7
f 6/32/7 27/33/7 26/31/7
f 6/32/7 28/34/7 27/33/7
f 6/32/7 29/35/7 28/34/7
f 6/32/7 30/36/7 29/35/7
f 6/32/7 31/37/7 30/36/7
f 31/37/7 6/32/7 32/38/7
f 9/13/8 10/14/8 11/15/8
f 12/16/8 11/15/8 10/14/8
f 13/17/8 12/16/8 10/14/8
f 14/18/8 12/16/8 13/17/8
f 15/19/8 14/18/8 13/17/8
f 16/20/8 14/18/8 15/19/8
f 17/21/8 16/20/8 15/19/8
f 18/22/8 16/20/8 17/21/8
f 19/23/8 18/22/8 17/21/8
f 20/24/8 18/22/8 19/23/8
f 21/25/8 20/24/8 19/23/8
f 2/26/8 20/24/8 21/25/8
f 22/27/8 2/26/8 21/25/8
f 23/28/8 2/26/8 22/27/8
f 24/29/8 2/26/8 23/28/8
f 25/30/8 2/26/8 24/29/8
f 26/31/8 2/26/8 25/30/8
f 2/26/8 26/31/8 6/32/8
f 26/31/8 27/33/8 6/32/8
f 27/33/8 28/34/8 6/32/8
f 28/34/8 29/35/8 6/32/8
f 29/35/8 30/36/8 6/32/8
f 30/36/8 31/37/8 6/32/8
f 32/38/8 6/32/8 31/37/8
f 35/41/9 34/40/9 33/39/9
f 34/40/9 35/41/9 36/42/9
f 34/40/9 36/42/9 37/43/9
f 37/43/9 36/42/9 38/44/9
f 37/43/9 38/44/9 39/45/9
f 39/45/9 38/44/9 40/46/9
f 39/45/9 40/46/9 41/47/9
f 41/47/9 40/46/9 42/48/9
f 41/47/9 42/48/9 43/49/9
f 43/49/9 42/48/9 44/50/9
f 43/49/9 44/50/9 45/51/9
f 45/51/9 44/50/9 7/52/9
f 45/51/9 7/52/9 46/53/9
f 46/53/9 7/52/9 47/54/9
f 47/54/9 7/52/9 48/55/9
f 48/55/9 7/52/9 49/56/9
f 49/56/9 7/52/9 50/57/9
f 4/58/9 50/57/9 7/52/9
f 4/58/9 51/59/9 50/57/9
f 4/58/9 52/60/9 51/59/9
f 4/58/9 53/61/9 52/60/9
f 4/58/9 54/62/9 53/61/9
f 4/58/9 55/63/9 54/62/9
f 55/63/9 4/58/9 56/64/9
f 33/39/10 34/40/10 35/41/10
f 36/42/10 35/41/10 34/40/10
f 37/43/10 36/42/10 34/40/10
f 38/44/10 36/42/10 37/43/10
f 39/45/10 38/44/10 37/43/10
f 40/46/10 38/44/10 39/45/10
f 41/47/10 40/46/10 39/45/10
f 42/48/10 40/46/10 41/47/10
f 43/49/10 42/48/10 41/47/10
f 44/50/10 42/48/10 43/49/10
f 45/51/10 44/50/10 43/49/10
f 7/52/10 44/50/10 45/51/10
f 46/53/10 7/52/10 45/51/10
f 47/54/10 7/52/10 46/53/10
f 48/55/10 7/52/10 47/54/10
f 49/56/10 7/52/10 48/55/10
f 50/57/10 7/52/10 49/56/10
f 7/52/10 50/57/10 4/58/10
f 50/57/10 51/59/10 4/58/10
f 51/59/10 52/60/10 4/58/10
f 52/60/10 53/61/10 4/58/10
f 53/61/10 54/62/10 4/58/10
f 54/62/10 55/63/10 4/58/10
f 56/64/10 4/58/10 55/63/10
f 6/67/11 57/66/11 32/65/11
f 32/65/12 57/66/12 6/67/12
f 6/26/13 58/68/13 57/24/13
f 58/68/13 6/26/13 7/32/13
f 58/68/13 7/32/13 59/69/13
f 59/69/13 7/32/13 60/18/13
f 60/18/13 7/32/13 61/70/13
f 61/70/13 7/32/13 62/15/13
f 62/15/13 7/32/13 63/13/13
f 63/13/13 7/32/13 64/14/13
f 64/14/13 7/32/13 65/17/13
f 65/17/13 7/32/13 66/19/13
f 66/19/13 7/32/13 67/21/13
f 67/21/13 7/32/13 68/71/13
f 67/21/13 68/71/13 69/23/13
f 69/23/13 68/71/13 70/72/13
f 68/71/13 7/32/13 71/27/13
f 71/27/13 7/32/13 72/28/13
f 72/28/13 7/32/13 73/29/13
f 73/29/13 7/32/13 74/30/13
f 74/30/13 7/32/13 75/31/13
f 75/31/13 7/32/13 76/33/13
f 76/33/13 7/32/13 77/73/13
f 77/73/13 7/32/13 78/35/13
f 78/35/13 7/32/13 79/36/13
f 79/36/13 7/32/13 80/74/13
f 80/74/13 7/32/13 81/38/13
f 57/24/14 58/68/14 6/26/14
f 7/32/14 6/26/14 58/68/14
f 59/69/14 7/32/14 58/68/14
f 60/18/14 7/32/14 59/69/14
f 61/70/14 7/32/14 60/18/14
f 62/15/14 7/32/14 61/70/14
f 63/13/14 7/32/14 62/15/14
f 64/14/14 7/32/14 63/13/14
f 65/17/14 7/32/14 64/14/14
f 66/19/14 7/32/14 65/17/14
f 67/21/14 7/32/14 66/19/14
f 68/71/14 7/32/14 67/21/14
f 69/23/14 68/71/14 67/21/14
f 70/72/14 68/71/14 69/23/14
f 71/27/14 7/32/14 68/71/14
f 72/28/14 7/32/14 71/27/14
f 73/29/14 7/32/14 72/28/14
f 74/30/14 7/32/14 73/29/14
f 75/31/14 7/32/14 74/30/14
f 76/33/14 7/32/14 75/31/14
f 77/73/14 7/32/14 76/33/14
f 78/35/14 7/32/14 77/73/14
f 79/36/14 7/32/14 78/35/14
f 80/74/14 7/32/14 79/36/14
f 81/38/14 7/32/14 80/74/14
f 83/75/15 2/58/15 82/64/15
f 2/58/15 83/75/15 84/76/15
f 2/58/15 84/76/15 85/61/15
f 2/58/15 85/61/15 86/77/15
f 2/58/15 86/77/15 4/52/15
f 4/52/15 86/77/15 87/59/15
f 4/52/15 87/59/15 88/57/15
f 4/52/15 88/57/15 89/56/15
f 4/52/15 89/56/15 90/55/15
f 4/52/15 90/55/15 91/54/15
f 4/52/15 91/54/15 92/53/15
f 4/52/15 92/53/15 93/51/15
f 4/52/15 93/51/15 94/49/15
f 4/52/15 94/49/15 95/47/15
f 4/52/15 95/47/15 96/45/15
f 4/52/15 96/45/15 97/43/15
f 4/52/15 97/43/15 98/40/15
f 4/52/15 98/40/15 99/39/15
f 4/52/15 99/39/15 100/41/15
f 4/52/15 100/41/15 101/78/15
f 4/52/15 101/78/15 102/44/15
f 4/52/15 102/44/15 103/46/15
f 4/52/15 103/46/15 104/79/15
f 4/52/15 104/79/15 105/50/15
f 82/64/16 2/58/16 83/75/16
f 84/76/16 83/75/16 2/58/16
f 85/61/16 84/76/16 2/58/16
f 86/77/16 85/61/16 2/58/16
f 4/52/16 86/77/16 2/58/16
f 87/59/16 86/77/16 4/52/16
f 88/57/16 87/59/16 4/52/16
f 89/56/16 88/57/16 4/52/16
f 90/55/16 89/56/16 4/52/16
f 91/54/16 90/55/16 4/52/16
f 92/53/16 91/54/16 4/52/16
f 93/51/16 92/53/16 4/52/16
f 94/49/16 93/51/16 4/52/16
f 95/47/16 94/49/16 4/52/16
f 96/45/16 95/47/16 4/52/16
f 97/43/16 96/45/16 4/52/16
f 98/40/16 97/43/16 4/52/16
f 99/39/16 98/40/16 4/52/16
f 100/41/16 99/39/16 4/52/16
f 101/78/16 100/41/16 4/52/16
f 102/44/16 101/78/16 4/52/16
f 103/46/16 102/44/16 4/52/16
f 104/79/16 103/46/16 4/52/16
f 105/50/16 104/79/16 4/52/16
f 2/82/17 20/81/17 82/80/17
f 82/80/18 20/81/18 2/82/18
f 56/85/19 4/84/19 105/83/19
f 105/83/20 4/84/20 56/85/20
f 7/88/21 44/87/21 81/86/21
f 81/86/22 44/87/22 7/88/22

