# Created by Kenney (www.kenney.nl)

mtllib blockSnowHexagonLow.mtl

g blockSnowHexagonLow

v 0.0366056 0.3030137 0.525283
v -0.0366056 0.3030137 0.525283
v 0 0.4298192 0.4618802
v 0.4 0.4298192 -0.2309401
v 0.4366056 0.3030137 -0.2943429
v 0.4732112 0.3030137 -0.2309401
v 0.4 0.4298192 0.2309401
v 0 0.4298192 -0.4618802
v -0.4 0.4298192 -0.2309401
v -0.4 0.4298192 0.2309401
v -0.1466056 0.2683727 0.4848685
v -0.1634196 0.2693472 0.4745113
v -0.129229 0.2693472 0.4942511
v -0.111365 0.2722664 0.502619
v -0.1795982 0.2722664 0.4632244
v -0.09309089 0.2771178 0.509935
v -0.1950713 0.2771178 0.4510567
v -0.07448578 0.2838804 0.516168
v -0.2097721 0.2838804 0.4380608
v -0.05563009 0.2925248 0.521292
v -0.2236368 0.2925248 0.424293
v -0.2495744 0.3135026 0.3953328
v -0.2634391 0.322147 0.381565
v -0.2781399 0.3289095 0.3685691
v -0.2936131 0.3337609 0.3564015
v -0.3097916 0.3366802 0.3451146
v -0.3266056 0.3376547 0.3347574
v -0.3439822 0.3366802 0.3253747
v -0.3618462 0.3337609 0.3170071
v -0.3801203 0.3289095 0.3096908
v -0.3987255 0.322147 0.3034574
v -0.4175811 0.3135026 0.2983341
v -0.4366056 0.3030137 0.2943429
v 0.3466055 0.2683727 0.3693984
v 0.329229 0.2693472 0.3787811
v 0.3634195 0.2693472 0.3590412
v 0.3795981 0.2722664 0.3477544
v 0.311365 0.2722664 0.3871487
v 0.3950713 0.2771178 0.3355866
v 0.2930909 0.2771178 0.394465
v 0.409772 0.2838804 0.3225908
v 0.2744858 0.2838804 0.4006983
v 0.4236368 0.2925248 0.3088229
v 0.2556301 0.2925248 0.4058217
v 0.4366056 0.3030137 0.2943429
v 0.217581 0.3135026 0.4138041
v 0.1987253 0.322147 0.4189276
v 0.1801203 0.3289095 0.4251608
v 0.1618462 0.3337609 0.4324771
v 0.1439822 0.3366802 0.4408447
v 0.1266056 0.3376547 0.4502274
v 0.1097918 0.3366802 0.4605846
v 0.09361315 0.3337609 0.4718715
v 0.0781399 0.3289095 0.4840392
v 0.06343925 0.322147 0.4970351
v 0.04957426 0.3135026 0.510803
v 0.1466056 0.2683727 -0.4848685
v 0.1634195 0.2693472 -0.4745113
v 0.1292289 0.2693472 -0.4942511
v 0.111365 0.2722664 -0.5026188
v 0.1795981 0.2722664 -0.4632244
v 0.09309089 0.2771178 -0.509935
v 0.1950713 0.2771178 -0.4510567
v 0.07448578 0.2838804 -0.5161684
v 0.2097721 0.2838804 -0.4380608
v 0.05563009 0.2925248 -0.5212917
v 0.2236369 0.2925248 -0.424293
v 0.0366056 0.3030137 -0.525283
v 0.2495744 0.3135026 -0.3953328
v 0.2634391 0.322147 -0.381565
v 0.2781398 0.3289095 -0.3685692
v 0.2936131 0.3337609 -0.3564015
v 0.3097916 0.3366802 -0.3451146
v 0.3266056 0.3376547 -0.3347574
v 0.3439822 0.3366802 -0.3253747
v 0.3618462 0.3337609 -0.3170071
v 0.3801203 0.3289095 -0.3096908
v 0.3987254 0.322147 -0.3034575
v 0.4175811 0.3135026 -0.2983341
v -0.3466056 0.2683727 -0.3693984
v -0.329229 0.2693472 -0.3787811
v -0.3634196 0.2693472 -0.3590412
v -0.3795981 0.2722664 -0.3477543
v -0.311365 0.2722664 -0.3871487
v -0.3950712 0.2771178 -0.3355865
v -0.2930909 0.2771178 -0.394465
v -0.409772 0.2838804 -0.3225908
v -0.2744858 0.2838804 -0.4006983
v -0.4236369 0.2925248 -0.308823
v -0.2556301 0.2925248 -0.4058217
v -0.4366056 0.3030137 -0.2943429
v -0.217581 0.3135026 -0.4138042
v -0.1987254 0.322147 -0.4189276
v -0.1801203 0.3289095 -0.4251608
v -0.1618462 0.3337609 -0.4324771
v -0.1439822 0.3366802 -0.4408448
v -0.1266056 0.3376547 -0.4502275
v -0.1097916 0.3366802 -0.4605846
v -0.09361309 0.3337609 -0.4718715
v -0.0781399 0.3289095 -0.4840392
v -0.06343913 0.322147 -0.497035
v -0.04957432 0.3135026 -0.5108029
v -0.0366056 0.3030137 -0.525283
v -0.4732112 0.3030137 -0.2309401
v -0.4732112 0.3030137 0.2309401
v 0.4732112 0.3030137 0.2309401
v -0.4671554 0.3135026 -0.2124688
v -0.4621646 0.322147 -0.1935776
v -0.4582602 0.3289095 -0.1743485
v -0.4554592 0.3337609 -0.1548645
v -0.4537739 0.3366802 -0.13521
v -0.4532112 0.3376547 -0.1154701
v -0.4537739 0.3366802 -0.09573007
v -0.4554592 0.3337609 -0.07607561
v -0.4582602 0.3289095 -0.05659169
v -0.4621646 0.322147 -0.03736252
v -0.4671554 0.3135026 -0.01847142
v -0.4792669 0.2925248 0.01847139
v -0.4842578 0.2838804 0.03736249
v -0.4881622 0.2771178 0.0565916
v -0.4909632 0.2722664 0.07607561
v -0.4926486 0.2693472 0.0957301
v -0.4932112 0.2683727 0.1154701
v -0.4926486 0.2693472 0.13521
v -0.4909632 0.2722664 0.1548645
v -0.4881622 0.2771178 0.1743485
v -0.4842578 0.2838804 0.1935776
v -0.4792669 0.2925248 0.2124687
v 0.479267 0.2925248 -0.2124688
v 0.4842578 0.2838804 -0.1935776
v 0.4881622 0.2771178 -0.1743485
v 0.4909632 0.2722664 -0.1548645
v 0.4926486 0.2693472 -0.13521
v 0.4932113 0.2683727 -0.1154701
v 0.4926486 0.2693472 -0.09573007
v 0.4909632 0.2722664 -0.07607561
v 0.4881622 0.2771178 -0.05659169
v 0.4842578 0.2838804 -0.03736252
v 0.4671555 0.3135026 0.01847139
v 0.4732112 0.3030137 0
v 0.479267 0.2925248 -0.01847142
v 0.4621645 0.322147 0.03736249
v 0.4582602 0.3289095 0.0565916
v 0.4554592 0.3337609 0.07607561
v 0.4537739 0.3366802 0.0957301
v 0.4532112 0.3376547 0.1154701
v 0.4537739 0.3366802 0.13521
v 0.4554592 0.3337609 0.1548645
v 0.4582602 0.3289095 0.1743485
v 0.4621645 0.322147 0.1935776
v 0.4671555 0.3135026 0.2124687
v -0.1339743 5.634566E-18 0.5
v -0.5 5.639933E-18 0.2886751
v 0 5.639933E-18 0.57735
v 0.1339742 5.634566E-18 0.5
v 0.5 5.639933E-18 0.2886751
v -0.5 5.639933E-18 -0.2886751
v -0.1339746 5.634566E-18 -0.5
v 0 5.639933E-18 -0.5773503
v 0.1339746 5.634566E-18 -0.5
v 0.5 5.639933E-18 -0.2886751

vn 0 0.4472139 0.8944271
vn 0 -0.4472139 -0.8944271
vn 0.7745968 0.4472137 -0.4472134
vn -0.7745968 -0.4472137 0.4472134
vn 0 1 0
vn -0.4330126 0.5000002 0.7499999
vn 0.4330126 -0.5000002 -0.7499999
vn 0.4330127 0.5000001 0.7499999
vn -0.4330127 -0.5000001 -0.7499999
vn 0.4330127 0.5000001 -0.75
vn -0.4330127 -0.5000001 0.75
vn -0.4330127 0.5000001 -0.7500001
vn 0.4330127 -0.5000001 0.7500001
vn -0.7745968 0.4472137 -0.4472134
vn 0.7745968 -0.4472137 0.4472134
vn -0.7745968 0.4472137 0.4472134
vn 0.7745968 -0.4472137 -0.4472134
vn 0 0.4472137 -0.8944271
vn 0 -0.4472137 0.8944271
vn 0.7745968 0.4472137 0.4472134
vn -0.7745968 -0.4472137 -0.4472134
vn -0.8660253 0.5000001 0
vn 0.8660253 -0.5000001 0
vn 0.8660254 0.5000001 0
vn -0.8660254 -0.5000001 0
vn -0.4869934 0.2266036 0.8434977
vn 0.4869934 0.2266036 0.8434977
vn -0.973987 0.2266039 0
vn -0.4869935 0.2266038 -0.8434974
vn 0.4869935 0.2266038 -0.8434974
vn 0 -1 0
vn 0.973987 0.2266039 0

vt 1.441165 1.421646
vt -1.441165 1.421646
vt 3.979039E-12 7.003255
vt 4.824923E-06 7.00326
vt 1.441172 1.421651
vt -1.44116 1.421651
vt -15.74803 -9.09213
vt -15.74803 9.09213
vt -3.979039E-12 -18.18426
vt -3.979039E-12 18.18426
vt 15.74803 -9.09213
vt 15.74803 9.09213
vt 4.546065 -0.5585887
vt 3.768902 -0.5142879
vt 5.323226 -0.5142853
vt 6.09703 -0.3815809
vt 2.995102 -0.3815784
vt 6.86411 -0.1610281
vt 2.228017 -0.1610299
vt 7.621157 0.1464085
vt 1.470961 0.1464021
vt 8.364918 0.5393785
vt 0.7272179 0.5393835
vt 9.09213 1.016214
vt -0.7272199 1.493047
vt 9.09213 6.780876
vt -1.470963 1.886028
vt -2.228019 2.193457
vt -2.995105 2.414002
vt -3.768902 2.546716
vt -4.546065 2.591017
vt -9.092131 6.780876
vt -5.323228 2.546715
vt -6.097026 2.414002
vt -6.864112 2.193455
vt -7.621171 1.886027
vt -8.364914 1.493047
vt -9.09213 1.016214
vt 4.546064 -0.558587
vt 3.768902 -0.5142852
vt 5.323228 -0.5142862
vt 6.097023 -0.3815773
vt 2.995104 -0.3815756
vt 6.864113 -0.1610282
vt 2.228018 -0.161028
vt 7.621165 0.1464025
vt 1.470965 0.1464036
vt 8.364913 0.5393849
vt 0.7272164 0.5393838
vt 9.092129 1.016215
vt -0.7272167 1.493048
vt 9.09213 6.780877
vt -1.470967 1.886027
vt -2.228018 2.193457
vt -2.995104 2.414004
vt -3.768902 2.546717
vt -4.546065 2.591019
vt -9.092131 6.780877
vt -5.323225 2.546717
vt -6.097025 2.414004
vt -6.864113 2.193457
vt -7.621166 1.886027
vt -8.364918 1.493046
vt -9.092132 1.016215
vt 4.546064 -0.5585852
vt 3.768904 -0.5142832
vt 5.323227 -0.5142837
vt 6.097025 -0.3815743
vt 2.995104 -0.3815739
vt 6.864111 -0.1610266
vt 2.228016 -0.1610265
vt 7.621164 0.1464047
vt 1.470961 0.1464048
vt 8.364912 0.5393856
vt 0.7272182 0.5393859
vt 9.09213 1.016217
vt -0.7272202 1.49305
vt 9.09213 6.780878
vt -1.470964 1.886031
vt -2.228017 2.193458
vt -2.995105 2.414005
vt -3.768902 2.546719
vt -4.546066 2.59102
vt -9.092131 6.780879
vt -5.323228 2.546718
vt -6.097026 2.414005
vt -6.864112 2.193458
vt -7.621165 1.88603
vt -8.364913 1.49305
vt -9.092131 1.016217
vt 4.546066 -0.5585835
vt 3.768903 -0.5142817
vt 5.323229 -0.5142826
vt 6.097026 -0.3815721
vt 2.995105 -0.3815722
vt 6.864111 -0.1610237
vt 2.228019 -0.1610246
vt 7.621168 0.1464057
vt 1.470966 0.1464062
vt 8.364915 0.5393861
vt 0.7272179 0.5393871
vt 9.092131 1.016219
vt -0.7272196 1.493052
vt 9.092131 6.78088
vt -1.470964 1.886032
vt -2.228017 2.193459
vt -2.995103 2.414007
vt -3.768902 2.54672
vt -4.546064 2.591022
vt -9.09213 6.780879
vt -5.323228 2.546721
vt -6.097024 2.414007
vt -6.864112 2.19346
vt -7.621167 1.886032
vt -8.364914 1.493051
vt -9.09213 1.016219
vt 1.44116 1.421651
vt -1.441172 1.421651
vt -4.824927E-06 7.00326
vt 4.824944E-06 7.00326
vt 1.441165 1.421651
vt -1.441165 1.421651
vt -3.979039E-12 7.00326
vt -4.824941E-06 7.00326
vt -9.09213 1.016217
vt -9.09213 6.780877
vt -8.364913 1.493049
vt -7.621165 1.886029
vt -6.864114 2.193458
vt -6.097027 2.414006
vt 9.092131 6.780878
vt -5.323228 2.546716
vt -4.546067 2.591019
vt -3.768901 2.546716
vt -2.995102 2.414006
vt -2.228019 2.193458
vt -1.470964 1.886029
vt -0.7272201 1.493049
vt 0.7272209 0.5393857
vt 1.470965 0.1464047
vt 2.228016 -0.1610277
vt 2.995103 -0.3815764
vt 3.768902 -0.5142851
vt 4.546067 -0.5585859
vt 5.323229 -0.5142851
vt 6.097028 -0.3815764
vt 6.864115 -0.1610277
vt 7.621166 0.1464047
vt 8.36491 0.5393859
vt 9.092131 1.016217
vt 9.09213 6.780879
vt 9.09213 1.016218
vt -9.09213 6.780879
vt 8.364913 0.5393857
vt 7.621165 0.1464054
vt 6.864114 -0.1610262
vt 6.097027 -0.3815741
vt 5.323228 -0.5142836
vt 4.546067 -0.5585849
vt 3.768902 -0.5142836
vt 2.995102 -0.3815741
vt 2.22802 -0.1610262
vt 1.470965 0.1464054
vt -0.7272205 1.49305
vt -3.499693E-08 1.016218
vt 0.7272204 0.5393857
vt -1.470965 1.88603
vt -2.228016 2.193458
vt -2.995102 2.414006
vt -3.768902 2.546719
vt -4.546067 2.59102
vt -5.323228 2.546719
vt -6.097028 2.414006
vt -6.864114 2.193458
vt -7.621165 1.88603
vt -8.364909 1.49305
vt -9.09213 1.016218
vt 5.274598 -4.4607
vt -11.36517 -4.4607
vt 11.36515 -4.4607
vt 9.092126 12.91326
vt -9.092134 12.91326
vt -5.274598 -4.4607
vt -11.36515 -4.4607
vt 11.36517 -4.4607
vt 9.092134 12.91326
vt -9.092126 12.91326
vt -11.36516 -4.460706
vt -9.09213 12.91326
vt 11.36516 -4.460706
vt 9.09213 12.91326
vt -5.274591 -4.460706
vt -11.36516 -4.460706
vt 11.36516 -4.460706
vt -9.092131 12.91326
vt 5.274591 -4.460706
vt -11.36516 -4.460706
vt 11.36516 -4.460706
vt 9.092131 12.91326
vt 19.68504 11.36516
vt 19.68504 -11.36516
vt 5.274576 19.68504
vt 5.27459 -19.68504
vt 3.979039E-12 -22.73033
vt 3.979039E-12 22.73031
vt -5.274576 19.68504
vt -5.27459 -19.68504
vt -19.68504 11.36516
vt -19.68504 -11.36516

usemtl snow

f 3/3/1 2/2/1 1/1/1
f 1/1/2 2/2/2 3/3/2
f 6/6/3 5/5/3 4/4/3
f 4/4/4 5/5/4 6/6/4
f 8/9/5 7/8/5 4/7/5
f 7/8/5 8/9/5 3/10/5
f 3/10/5 8/9/5 9/11/5
f 3/10/5 9/11/5 10/12/5
f 13/15/6 12/14/6 11/13/6
f 12/14/6 13/15/6 14/16/6
f 12/14/6 14/16/6 15/17/6
f 15/17/6 14/16/6 16/18/6
f 15/17/6 16/18/6 17/19/6
f 17/19/6 16/18/6 18/20/6
f 17/19/6 18/20/6 19/21/6
f 19/21/6 18/20/6 20/22/6
f 19/21/6 20/22/6 21/23/6
f 21/23/6 20/22/6 2/24/6
f 21/23/6 2/24/6 22/25/6
f 22/25/6 2/24/6 3/26/6
f 22/25/6 3/26/6 23/27/6
f 23/27/6 3/26/6 24/28/6
f 24/28/6 3/26/6 25/29/6
f 25/29/6 3/26/6 26/30/6
f 26/30/6 3/26/6 27/31/6
f 10/32/6 27/31/6 3/26/6
f 10/32/6 28/33/6 27/31/6
f 10/32/6 29/34/6 28/33/6
f 10/32/6 30/35/6 29/34/6
f 10/32/6 31/36/6 30/35/6
f 10/32/6 32/37/6 31/36/6
f 32/37/6 10/32/6 33/38/6
f 11/13/7 12/14/7 13/15/7
f 14/16/7 13/15/7 12/14/7
f 15/17/7 14/16/7 12/14/7
f 16/18/7 14/16/7 15/17/7
f 17/19/7 16/18/7 15/17/7
f 18/20/7 16/18/7 17/19/7
f 19/21/7 18/20/7 17/19/7
f 20/22/7 18/20/7 19/21/7
f 21/23/7 20/22/7 19/21/7
f 2/24/7 20/22/7 21/23/7
f 22/25/7 2/24/7 21/23/7
f 3/26/7 2/24/7 22/25/7
f 23/27/7 3/26/7 22/25/7
f 24/28/7 3/26/7 23/27/7
f 25/29/7 3/26/7 24/28/7
f 26/30/7 3/26/7 25/29/7
f 27/31/7 3/26/7 26/30/7
f 3/26/7 27/31/7 10/32/7
f 27/31/7 28/33/7 10/32/7
f 28/33/7 29/34/7 10/32/7
f 29/34/7 30/35/7 10/32/7
f 30/35/7 31/36/7 10/32/7
f 31/36/7 32/37/7 10/32/7
f 33/38/7 10/32/7 32/37/7
f 36/41/8 35/40/8 34/39/8
f 35/40/8 36/41/8 37/42/8
f 35/40/8 37/42/8 38/43/8
f 38/43/8 37/42/8 39/44/8
f 38/43/8 39/44/8 40/45/8
f 40/45/8 39/44/8 41/46/8
f 40/45/8 41/46/8 42/47/8
f 42/47/8 41/46/8 43/48/8
f 42/47/8 43/48/8 44/49/8
f 44/49/8 43/48/8 45/50/8
f 44/49/8 45/50/8 46/51/8
f 46/51/8 45/50/8 7/52/8
f 46/51/8 7/52/8 47/53/8
f 47/53/8 7/52/8 48/54/8
f 48/54/8 7/52/8 49/55/8
f 49/55/8 7/52/8 50/56/8
f 50/56/8 7/52/8 51/57/8
f 3/58/8 51/57/8 7/52/8
f 3/58/8 52/59/8 51/57/8
f 3/58/8 53/60/8 52/59/8
f 3/58/8 54/61/8 53/60/8
f 3/58/8 55/62/8 54/61/8
f 3/58/8 56/63/8 55/62/8
f 56/63/8 3/58/8 1/64/8
f 34/39/9 35/40/9 36/41/9
f 37/42/9 36/41/9 35/40/9
f 38/43/9 37/42/9 35/40/9
f 39/44/9 37/42/9 38/43/9
f 40/45/9 39/44/9 38/43/9
f 41/46/9 39/44/9 40/45/9
f 42/47/9 41/46/9 40/45/9
f 43/48/9 41/46/9 42/47/9
f 44/49/9 43/48/9 42/47/9
f 45/50/9 43/48/9 44/49/9
f 46/51/9 45/50/9 44/49/9
f 7/52/9 45/50/9 46/51/9
f 47/53/9 7/52/9 46/51/9
f 48/54/9 7/52/9 47/53/9
f 49/55/9 7/52/9 48/54/9
f 50/56/9 7/52/9 49/55/9
f 51/57/9 7/52/9 50/56/9
f 7/52/9 51/57/9 3/58/9
f 51/57/9 52/59/9 3/58/9
f 52/59/9 53/60/9 3/58/9
f 53/60/9 54/61/9 3/58/9
f 54/61/9 55/62/9 3/58/9
f 55/62/9 56/63/9 3/58/9
f 1/64/9 3/58/9 56/63/9
f 59/67/10 58/66/10 57/65/10
f 58/66/10 59/67/10 60/68/10
f 58/66/10 60/68/10 61/69/10
f 61/69/10 60/68/10 62/70/10
f 61/69/10 62/70/10 63/71/10
f 63/71/10 62/70/10 64/72/10
f 63/71/10 64/72/10 65/73/10
f 65/73/10 64/72/10 66/74/10
f 65/73/10 66/74/10 67/75/10
f 67/75/10 66/74/10 68/76/10
f 67/75/10 68/76/10 69/77/10
f 69/77/10 68/76/10 8/78/10
f 69/77/10 8/78/10 70/79/10
f 70/79/10 8/78/10 71/80/10
f 71/80/10 8/78/10 72/81/10
f 72/81/10 8/78/10 73/82/10
f 73/82/10 8/78/10 74/83/10
f 4/84/10 74/83/10 8/78/10
f 4/84/10 75/85/10 74/83/10
f 4/84/10 76/86/10 75/85/10
f 4/84/10 77/87/10 76/86/10
f 4/84/10 78/88/10 77/87/10
f 4/84/10 79/89/10 78/88/10
f 79/89/10 4/84/10 5/90/10
f 57/65/11 58/66/11 59/67/11
f 60/68/11 59/67/11 58/66/11
f 61/69/11 60/68/11 58/66/11
f 62/70/11 60/68/11 61/69/11
f 63/71/11 62/70/11 61/69/11
f 64/72/11 62/70/11 63/71/11
f 65/73/11 64/72/11 63/71/11
f 66/74/11 64/72/11 65/73/11
f 67/75/11 66/74/11 65/73/11
f 68/76/11 66/74/11 67/75/11
f 69/77/11 68/76/11 67/75/11
f 8/78/11 68/76/11 69/77/11
f 70/79/11 8/78/11 69/77/11
f 71/80/11 8/78/11 70/79/11
f 72/81/11 8/78/11 71/80/11
f 73/82/11 8/78/11 72/81/11
f 74/83/11 8/78/11 73/82/11
f 8/78/11 74/83/11 4/84/11
f 74/83/11 75/85/11 4/84/11
f 75/85/11 76/86/11 4/84/11
f 76/86/11 77/87/11 4/84/11
f 77/87/11 78/88/11 4/84/11
f 78/88/11 79/89/11 4/84/11
f 5/90/11 4/84/11 79/89/11
f 82/93/12 81/92/12 80/91/12
f 81/92/12 82/93/12 83/94/12
f 81/92/12 83/94/12 84/95/12
f 84/95/12 83/94/12 85/96/12
f 84/95/12 85/96/12 86/97/12
f 86/97/12 85/96/12 87/98/12
f 86/97/12 87/98/12 88/99/12
f 88/99/12 87/98/12 89/100/12
f 88/99/12 89/100/12 90/101/12
f 90/101/12 89/100/12 91/102/12
f 90/101/12 91/102/12 92/103/12
f 92/103/12 91/102/12 9/104/12
f 92/103/12 9/104/12 93/105/12
f 93/105/12 9/104/12 94/106/12
f 94/106/12 9/104/12 95/107/12
f 95/107/12 9/104/12 96/108/12
f 96/108/12 9/104/12 97/109/12
f 8/110/12 97/109/12 9/104/12
f 8/110/12 98/111/12 97/109/12
f 8/110/12 99/112/12 98/111/12
f 8/110/12 100/113/12 99/112/12
f 8/110/12 101/114/12 100/113/12
f 8/110/12 102/115/12 101/114/12
f 102/115/12 8/110/12 103/116/12
f 80/91/13 81/92/13 82/93/13
f 83/94/13 82/93/13 81/92/13
f 84/95/13 83/94/13 81/92/13
f 85/96/13 83/94/13 84/95/13
f 86/97/13 85/96/13 84/95/13
f 87/98/13 85/96/13 86/97/13
f 88/99/13 87/98/13 86/97/13
f 89/100/13 87/98/13 88/99/13
f 90/101/13 89/100/13 88/99/13
f 91/102/13 89/100/13 90/101/13
f 92/103/13 91/102/13 90/101/13
f 9/104/13 91/102/13 92/103/13
f 93/105/13 9/104/13 92/103/13
f 94/106/13 9/104/13 93/105/13
f 95/107/13 9/104/13 94/106/13
f 96/108/13 9/104/13 95/107/13
f 97/109/13 9/104/13 96/108/13
f 9/104/13 97/109/13 8/110/13
f 97/109/13 98/111/13 8/110/13
f 98/111/13 99/112/13 8/110/13
f 99/112/13 100/113/13 8/110/13
f 100/113/13 101/114/13 8/110/13
f 101/114/13 102/115/13 8/110/13
f 103/116/13 8/110/13 102/115/13
f 9/119/14 91/118/14 104/117/14
f 104/117/15 91/118/15 9/119/15
f 33/5/16 10/120/16 105/6/16
f 105/6/17 10/120/17 33/5/17
f 8/123/18 68/122/18 103/121/18
f 103/121/19 68/122/19 8/123/19
f 45/118/20 106/117/20 7/124/20
f 7/124/21 106/117/21 45/118/21
f 107/127/22 9/126/22 104/125/22
f 9/126/22 107/127/22 108/128/22
f 9/126/22 108/128/22 109/129/22
f 9/126/22 109/129/22 110/130/22
f 9/126/22 110/130/22 10/131/22
f 10/131/22 110/130/22 111/132/22
f 10/131/22 111/132/22 112/133/22
f 10/131/22 112/133/22 113/134/22
f 10/131/22 113/134/22 114/135/22
f 10/131/22 114/135/22 115/136/22
f 10/131/22 115/136/22 116/137/22
f 10/131/22 116/137/22 117/138/22
f 10/131/22 117/138/22 118/139/22
f 10/131/22 118/139/22 119/140/22
f 10/131/22 119/140/22 120/141/22
f 10/131/22 120/141/22 121/142/22
f 10/131/22 121/142/22 122/143/22
f 10/131/22 122/143/22 123/144/22
f 10/131/22 123/144/22 124/145/22
f 10/131/22 124/145/22 125/146/22
f 10/131/22 125/146/22 126/147/22
f 10/131/22 126/147/22 127/148/22
f 10/131/22 127/148/22 128/149/22
f 10/131/22 128/149/22 105/150/22
f 104/125/23 9/126/23 107/127/23
f 108/128/23 107/127/23 9/126/23
f 109/129/23 108/128/23 9/126/23
f 110/130/23 109/129/23 9/126/23
f 10/131/23 110/130/23 9/126/23
f 111/132/23 110/130/23 10/131/23
f 112/133/23 111/132/23 10/131/23
f 113/134/23 112/133/23 10/131/23
f 114/135/23 113/134/23 10/131/23
f 115/136/23 114/135/23 10/131/23
f 116/137/23 115/136/23 10/131/23
f 117/138/23 116/137/23 10/131/23
f 118/139/23 117/138/23 10/131/23
f 119/140/23 118/139/23 10/131/23
f 120/141/23 119/140/23 10/131/23
f 121/142/23 120/141/23 10/131/23
f 122/143/23 121/142/23 10/131/23
f 123/144/23 122/143/23 10/131/23
f 124/145/23 123/144/23 10/131/23
f 125/146/23 124/145/23 10/131/23
f 126/147/23 125/146/23 10/131/23
f 127/148/23 126/147/23 10/131/23
f 128/149/23 127/148/23 10/131/23
f 105/150/23 128/149/23 10/131/23
f 7/153/24 6/152/24 4/151/24
f 6/152/24 7/153/24 129/154/24
f 129/154/24 7/153/24 130/155/24
f 130/155/24 7/153/24 131/156/24
f 131/156/24 7/153/24 132/157/24
f 132/157/24 7/153/24 133/158/24
f 133/158/24 7/153/24 134/159/24
f 134/159/24 7/153/24 135/160/24
f 135/160/24 7/153/24 136/161/24
f 136/161/24 7/153/24 137/162/24
f 137/162/24 7/153/24 138/163/24
f 138/163/24 7/153/24 139/164/24
f 138/163/24 139/164/24 140/165/24
f 138/163/24 140/165/24 141/166/24
f 139/164/24 7/153/24 142/167/24
f 142/167/24 7/153/24 143/168/24
f 143/168/24 7/153/24 144/169/24
f 144/169/24 7/153/24 145/170/24
f 145/170/24 7/153/24 146/171/24
f 146/171/24 7/153/24 147/172/24
f 147/172/24 7/153/24 148/173/24
f 148/173/24 7/153/24 149/174/24
f 149/174/24 7/153/24 150/175/24
f 150/175/24 7/153/24 151/176/24
f 151/176/24 7/153/24 106/177/24
f 4/151/25 6/152/25 7/153/25
f 129/154/25 7/153/25 6/152/25
f 130/155/25 7/153/25 129/154/25
f 131/156/25 7/153/25 130/155/25
f 132/157/25 7/153/25 131/156/25
f 133/158/25 7/153/25 132/157/25
f 134/159/25 7/153/25 133/158/25
f 135/160/25 7/153/25 134/159/25
f 136/161/25 7/153/25 135/160/25
f 137/162/25 7/153/25 136/161/25
f 138/163/25 7/153/25 137/162/25
f 139/164/25 7/153/25 138/163/25
f 140/165/25 139/164/25 138/163/25
f 141/166/25 140/165/25 138/163/25
f 142/167/25 7/153/25 139/164/25
f 143/168/25 7/153/25 142/167/25
f 144/169/25 7/153/25 143/168/25
f 145/170/25 7/153/25 144/169/25
f 146/171/25 7/153/25 145/170/25
f 147/172/25 7/153/25 146/171/25
f 148/173/25 7/153/25 147/172/25
f 149/174/25 7/153/25 148/173/25
f 150/175/25 7/153/25 149/174/25
f 151/176/25 7/153/25 150/175/25
f 106/177/25 7/153/25 151/176/25

usemtl dirt

f 154/180/26 153/179/26 152/178/26
f 153/179/26 154/180/26 3/181/26
f 153/179/26 3/181/26 10/182/26
f 156/185/27 154/184/27 155/183/27
f 154/184/27 156/185/27 7/186/27
f 154/184/27 7/186/27 3/187/27
f 153/190/28 9/189/28 157/188/28
f 9/189/28 153/190/28 10/191/28
f 157/194/29 159/193/29 158/192/29
f 159/193/29 157/194/29 9/191/29
f 159/193/29 9/191/29 8/195/29
f 159/198/30 161/197/30 160/196/30
f 161/197/30 159/198/30 8/199/30
f 161/197/30 8/199/30 4/189/30
f 155/202/31 161/201/31 156/200/31
f 161/201/31 155/202/31 160/203/31
f 160/203/31 155/202/31 159/204/31
f 159/204/31 155/202/31 154/205/31
f 159/204/31 154/205/31 152/206/31
f 159/204/31 152/206/31 158/207/31
f 158/207/31 152/206/31 153/208/31
f 158/207/31 153/208/31 157/209/31
f 4/191/32 156/188/32 161/190/32
f 156/188/32 4/191/32 7/189/32

