# Created by Kenney (www.kenney.nl)

mtllib blockMovingLarge.mtl

g blockMovingLarge

v 0.4 1.295114E-26 0.5
v -0.4 1.295114E-26 0.5
v 0.4 0.1207859 0.5
v -0.4 0.1207859 0.5
v -0.4 1.295114E-26 -0.5
v 0.4 1.295114E-26 -0.5
v -0.4 0.1207859 -0.5
v 0.4 0.1207859 -0.5
v 0.5 0.1207859 -0.4
v 0.5 1.295114E-26 -0.4
v 0.5 0.1207859 0.4
v 0.5 1.295114E-26 0.4
v -0.5 1.295114E-26 -0.4
v -0.5 0.1207859 -0.4
v -0.5 1.295114E-26 0.4
v -0.5 0.1207859 0.4
v 0.4 0.3792141 0.5
v -0.4 0.3792141 0.5
v 0.4 0.5 0.5
v -0.4 0.5 0.5
v 0.5 0.5 -0.4
v 0.5 0.3792141 -0.4
v 0.5 0.5 0.4
v 0.5 0.3792141 0.4
v -0.4 0.3792141 -0.5
v 0.4 0.3792141 -0.5
v -0.4 0.5 -0.5
v 0.4 0.5 -0.5
v -0.5 0.3792141 -0.4
v -0.5 0.5 -0.4
v -0.5 0.3792141 0.4
v -0.5 0.5 0.4
v 0.4866025 0.1207859 -0.45
v 0.4866025 0 -0.45
v -0.45 0 0.4866025
v -0.45 0.1207859 0.4866025
v -0.4866025 0 0.45
v -0.4866025 0.1207859 0.45
v 0.45 0 -0.4866025
v 0.45 0.1207859 -0.4866025
v 0.4866025 0.1207859 0.45
v 0.4866025 0 0.45
v 0.45 0.1207859 0.4866025
v 0.45 0 0.4866025
v -0.45 0 -0.4866025
v -0.45 0.1207859 -0.4866025
v 0.4866025 0.5 0.45
v 0.4866025 0.3792141 0.45
v 0.45 0.5 0.4866025
v 0.45 0.3792141 0.4866025
v -0.4866025 0 -0.45
v -0.4866025 0.1207859 -0.45
v -0.4866025 0.3792141 0.45
v -0.4866025 0.5 0.45
v 0.45 0.3792141 -0.4866025
v 0.45 0.5 -0.4866025
v 0.4866025 0.5 -0.45
v 0.4866025 0.3792141 -0.45
v -0.45 0.3792141 0.4866025
v -0.45 0.5 0.4866025
v -0.4866025 0.3792141 -0.45
v -0.4866025 0.5 -0.45
v -0.45 0.3792141 -0.4866025
v -0.45 0.5 -0.4866025
v 0.3972179 0.5 0.3972178
v 0.396945 0.5 0.3982362
v 0.3868347 0.5 0.4
v 0.3982362 0.5 0.396945
v 0.4 0.5 0.3868347
v 0.4 0.5 -0.3868347
v 0.3982362 0.5 -0.396945
v 0.3972179 0.5 -0.3972179
v 0.396945 0.5 -0.3982362
v 0.3868347 0.5 -0.4
v -0.3868347 0.5 -0.4
v -0.396945 0.5 -0.3982362
v -0.3982362 0.5 -0.396945
v -0.4 0.5 -0.3868347
v -0.3972179 0.5 -0.3972179
v -0.4 0.5 0.3868347
v -0.3982362 0.5 0.396945
v -0.3972179 0.5 0.3972178
v -0.396945 0.5 0.3982362
v -0.3868347 0.5 0.4
v 0.45 0.1207859 -0.3934174
v 0.4417738 0.1207859 -0.4241181
v 0.424118 0.1207859 -0.4417738
v 0.3934174 0.1207859 -0.45
v -0.3934174 0.1207859 -0.45
v -0.4241181 0.1207859 -0.4417738
v -0.4417738 0.1207859 -0.4241181
v -0.45 0.1207859 -0.3934174
v -0.45 0.1207859 0.3934174
v -0.4417738 0.1207859 0.4241181
v -0.4241181 0.1207859 0.4417737
v -0.3934174 0.1207859 0.45
v 0.3934174 0.1207859 0.45
v 0.424118 0.1207859 0.4417737
v 0.4417738 0.1207859 0.4241181
v 0.45 0.1207859 0.3934174
v 0.3 0.5 -0.3
v 0.3 0.5 0.3
v -0.3 0.5 -0.3
v -0.3 0.5 0.3
v 0.45 0.3792141 0.3934174
v 0.4417738 0.3792141 0.4241181
v 0.424118 0.3792141 0.4417737
v 0.3934174 0.3792141 0.45
v -0.1436884 0.3792141 0.45
v -0.2436885 0.3792141 0.45
v -0.3934174 0.3792141 0.45
v -0.4241181 0.3792141 0.4417737
v -0.4417738 0.3792141 0.4241181
v -0.45 0.3792141 0.3934174
v -0.45 0.3792141 -0.3934174
v -0.4417738 0.3792141 -0.4241181
v -0.4241181 0.3792141 -0.4417738
v -0.3934174 0.3792141 -0.45
v 0.3934174 0.3792141 -0.45
v 0.424118 0.3792141 -0.4417738
v 0.4417738 0.3792141 -0.4241181
v 0.45 0.3792141 -0.3934174
v 0.3934174 0.4292141 0.45
v -0.1436884 0.4292141 0.45
v 0.424118 0.4292141 0.4417737
v 0.4417738 0.4292141 0.4241181
v 0.45 0.4292141 0.3934174
v 0.45 0.4292141 -0.3934174
v 0.4417738 0.4292141 -0.4241181
v 0.424118 0.4292141 -0.4417738
v 0.3934174 0.4292141 -0.45
v -0.3934174 0.4292141 -0.45
v -0.4241181 0.4292141 -0.4417738
v -0.4417738 0.4292141 -0.4241181
v -0.45 0.4292141 -0.3934174
v -0.45 0.4292141 0.3934174
v -0.4417738 0.4292141 0.4241181
v -0.4241181 0.4292141 0.4417737
v -0.3934174 0.4292141 0.45
v -0.2436885 0.4292141 0.45

vn 0 0 1
vn 0 0 -1
vn 1 0 0
vn -1 0 0
vn 0.8660254 0 -0.5
vn 0.9659258 0 -0.258819
vn -0.5 0 0.8660254
vn -0.258819 0 0.9659258
vn -0.8660254 0 0.5
vn -0.9659258 0 0.258819
vn 0.5 0 -0.8660254
vn 0.258819 0 -0.9659258
vn 0.8660254 0 0.5
vn 0.5 0 0.8660254
vn 0.9659258 0 0.258819
vn -0.5 0 -0.8660254
vn -0.258819 0 -0.9659258
vn 0.258819 0 0.9659258
vn -0.8660254 0 -0.5
vn -0.9659258 0 -0.258819
vn 0 -1 0
vn 0 1 0

vt 15.74803 5.098875E-25
vt -15.74803 5.098875E-25
vt 15.74803 4.75535
vt -15.74803 4.75535
vt 15.74803 14.92969
vt -15.74803 14.92969
vt 15.74803 19.68504
vt -15.74803 19.68504
vt 12.15451 4.75535
vt 12.15451 0
vt 10.11657 4.75535
vt 10.11657 5.098875E-25
vt -12.15451 0
vt -12.15451 4.75535
vt -10.11657 5.098875E-25
vt -10.11657 4.75535
vt -1.018973 0
vt -1.018973 4.75535
vt 1.018973 0
vt 1.018973 4.75535
vt 1.018973 19.68504
vt 1.018973 14.92969
vt -1.018973 19.68504
vt -1.018973 14.92969
vt 10.11657 14.92969
vt 10.11657 19.68504
vt 12.15451 14.92969
vt 12.15451 19.68504
vt -10.11657 14.92969
vt -12.15451 14.92969
vt -10.11657 19.68504
vt -12.15451 19.68504
vt 19.68504 15.74803
vt 19.68504 -15.74803
vt 19.15758 17.71654
vt 19.15758 -17.71654
vt 17.71654 19.15758
vt 17.71654 -19.15758
vt 15.74803 -19.68504
vt -15.74803 -19.68504
vt -17.71654 19.15758
vt -17.71654 -19.15758
vt -19.15758 17.71654
vt -19.15758 -17.71654
vt -19.68504 15.74803
vt -19.68504 -15.74803
vt -15.6385 15.6385
vt -15.62776 15.67859
vt -15.22971 15.74803
vt -15.67859 15.62776
vt -15.74803 15.22971
vt -15.74803 -15.22971
vt -15.67859 -15.62776
vt -15.6385 -15.6385
vt -15.62776 -15.67859
vt -15.22971 -15.74803
vt 15.22971 -15.74803
vt 15.62776 -15.67859
vt 15.67859 -15.62776
vt 15.74803 -15.22971
vt 15.6385 -15.6385
vt 15.74803 15.22971
vt 15.67859 15.62776
vt 15.6385 15.6385
vt 15.62776 15.67859
vt 15.22971 15.74803
vt -17.71654 -15.48887
vt -17.39267 -16.69756
vt -16.69756 -17.39267
vt -15.48887 -17.71654
vt 15.48887 -17.71654
vt 16.69756 -17.39267
vt 17.39267 -16.69756
vt 17.71654 -15.48887
vt 17.71654 15.48887
vt 17.39267 16.69756
vt 16.69756 17.39267
vt 15.48887 17.71654
vt -15.48887 17.71654
vt -16.69756 17.39267
vt -17.39267 16.69756
vt -17.71654 15.48887
vt -11.81102 -11.81102
vt -11.81102 11.81102
vt 11.81102 -11.81102
vt 11.81102 11.81102
vt -5.657025 17.71654
vt -9.594033 17.71654
vt 15.48887 14.92969
vt -5.657025 14.92969
vt 15.48887 16.89819
vt -5.657025 16.89819
vt 11.62705 14.92969
vt 10.37573 14.92969
vt 11.62705 16.89819
vt 10.37573 16.89819
vt 0.4915136 16.89819
vt 0.4915136 14.92969
vt -0.4915136 16.89819
vt -0.4915136 14.92969
vt -10.37573 16.89819
vt -10.37573 14.92969
vt -11.62705 16.89819
vt -11.62705 14.92969
vt -15.48887 16.89819
vt -15.48887 14.92969
vt -9.594033 14.92969
vt -9.594033 16.89819
vt -15.48887 4.75535
vt 15.48887 4.75535
vt 11.62705 4.75535
vt 10.37573 4.75535
vt 0.4915136 4.75535
vt -0.4915136 4.75535
vt -10.37573 4.75535
vt -11.62705 4.75535

usemtl gold

f 3/3/1 2/2/1 1/1/1
f 2/2/1 3/3/1 4/4/1
f 7/3/2 6/2/2 5/1/2
f 6/2/2 7/3/2 8/4/2
f 11/4/3 10/1/3 9/3/3
f 10/1/3 11/4/3 12/2/3
f 15/1/4 14/4/4 13/2/4
f 14/4/4 15/1/4 16/3/4
f 19/7/1 18/6/1 17/5/1
f 18/6/1 19/7/1 20/8/1
f 23/8/3 22/5/3 21/7/3
f 22/5/3 23/8/3 24/6/3
f 27/7/2 26/6/2 25/5/2
f 26/6/2 27/7/2 28/8/2
f 31/5/4 30/8/4 29/6/4
f 30/8/4 31/5/4 32/7/4
f 9/11/6 34/10/5 33/9/5
f 34/10/5 9/11/6 10/12/6
f 2/15/8 36/14/7 35/13/7
f 36/14/7 2/15/8 4/16/8
f 35/19/7 38/18/9 37/17/9
f 38/18/9 35/19/7 36/20/7
f 37/10/9 16/11/10 15/12/10
f 16/11/10 37/10/9 38/9/9
f 6/15/12 40/14/11 39/13/11
f 40/14/11 6/15/12 8/16/12
f 43/18/14 42/19/13 41/20/13
f 42/19/13 43/18/14 44/17/14
f 41/14/13 12/15/15 11/16/15
f 12/15/15 41/14/13 42/13/13
f 33/18/5 39/19/11 40/20/11
f 39/19/11 33/18/5 34/17/5
f 46/9/16 5/12/17 45/10/16
f 5/12/17 46/9/16 7/11/17
f 43/9/14 1/12/18 44/10/14
f 1/12/18 43/9/14 3/11/18
f 49/23/14 48/22/13 47/21/13
f 48/22/13 49/23/14 50/24/14
f 13/15/20 52/14/19 51/13/19
f 52/14/19 13/15/20 14/16/20
f 51/19/19 46/18/16 45/17/16
f 46/18/16 51/19/19 52/20/19
f 53/27/9 32/26/10 31/25/10
f 32/26/10 53/27/9 54/28/9
f 28/31/12 55/30/11 26/29/12
f 55/30/11 28/31/12 56/32/11
f 57/23/5 55/22/11 56/21/11
f 55/22/11 57/23/5 58/24/5
f 21/26/6 58/27/5 57/28/5
f 58/27/5 21/26/6 22/25/6
f 59/22/7 54/23/9 53/24/9
f 54/23/9 59/22/7 60/21/7
f 47/32/13 24/29/15 23/31/15
f 24/29/15 47/32/13 48/30/13
f 49/28/14 17/25/18 50/27/14
f 17/25/18 49/28/14 19/26/18
f 20/31/8 59/30/7 18/29/8
f 59/30/7 20/31/8 60/32/7
f 29/29/20 62/32/19 61/30/19
f 62/32/19 29/29/20 30/31/20
f 64/28/16 25/25/17 63/27/16
f 25/25/17 64/28/16 27/26/17
f 61/22/19 64/23/16 63/24/16
f 64/23/16 61/22/19 62/21/19
f 42/35/21 10/34/21 12/33/21
f 10/34/21 42/35/21 34/36/21
f 34/36/21 42/35/21 44/37/21
f 34/36/21 44/37/21 39/38/21
f 39/38/21 44/37/21 1/7/21
f 39/38/21 1/7/21 6/39/21
f 6/39/21 1/7/21 2/8/21
f 6/39/21 2/8/21 5/40/21
f 5/40/21 2/8/21 35/41/21
f 5/40/21 35/41/21 45/42/21
f 45/42/21 35/41/21 37/43/21
f 45/42/21 37/43/21 51/44/21
f 51/44/21 37/43/21 15/45/21
f 51/44/21 15/45/21 13/46/21
f 67/49/22 66/48/22 65/47/22
f 67/49/22 19/8/22 66/48/22
f 19/8/22 67/49/22 20/7/22
f 66/48/22 19/8/22 68/50/22
f 66/48/22 68/50/22 65/47/22
f 19/8/22 69/51/22 68/50/22
f 68/50/22 69/51/22 65/47/22
f 19/8/22 70/52/22 69/51/22
f 19/8/22 28/40/22 70/52/22
f 49/41/22 28/40/22 19/8/22
f 49/41/22 56/42/22 28/40/22
f 47/43/22 56/42/22 49/41/22
f 47/43/22 57/44/22 56/42/22
f 23/45/22 57/44/22 47/43/22
f 57/44/22 23/45/22 21/46/22
f 28/40/22 71/53/22 70/52/22
f 72/54/22 70/52/22 71/53/22
f 71/53/22 28/40/22 73/55/22
f 73/55/22 72/54/22 71/53/22
f 74/56/22 72/54/22 73/55/22
f 73/55/22 28/40/22 74/56/22
f 74/56/22 28/40/22 27/39/22
f 74/56/22 27/39/22 75/57/22
f 75/57/22 27/39/22 76/58/22
f 76/58/22 27/39/22 77/59/22
f 78/60/22 77/59/22 27/39/22
f 77/59/22 78/60/22 79/61/22
f 79/61/22 75/57/22 76/58/22
f 77/59/22 79/61/22 76/58/22
f 78/60/22 27/39/22 64/38/22
f 78/60/22 64/38/22 80/62/22
f 80/62/22 64/38/22 20/7/22
f 20/7/22 64/38/22 60/37/22
f 60/37/22 64/38/22 62/36/22
f 60/37/22 62/36/22 54/35/22
f 54/35/22 62/36/22 30/34/22
f 54/35/22 30/34/22 32/33/22
f 20/7/22 81/63/22 80/62/22
f 80/62/22 81/63/22 82/64/22
f 20/7/22 83/65/22 81/63/22
f 81/63/22 83/65/22 82/64/22
f 20/7/22 84/66/22 83/65/22
f 82/64/22 83/65/22 84/66/22
f 20/7/22 67/49/22 84/66/22
f 40/42/22 86/68/22 85/67/22
f 86/68/22 40/42/22 8/40/22
f 86/68/22 8/40/22 87/69/22
f 87/69/22 8/40/22 88/70/22
f 88/70/22 8/40/22 7/39/22
f 88/70/22 7/39/22 89/71/22
f 89/71/22 7/39/22 90/72/22
f 90/72/22 7/39/22 46/38/22
f 90/72/22 46/38/22 91/73/22
f 91/73/22 46/38/22 92/74/22
f 92/74/22 46/38/22 52/36/22
f 92/74/22 52/36/22 93/75/22
f 93/75/22 52/36/22 36/37/22
f 36/37/22 52/36/22 38/35/22
f 38/35/22 52/36/22 14/34/22
f 38/35/22 14/34/22 16/33/22
f 36/37/22 94/76/22 93/75/22
f 36/37/22 95/77/22 94/76/22
f 4/7/22 95/77/22 36/37/22
f 4/7/22 96/78/22 95/77/22
f 4/7/22 97/79/22 96/78/22
f 3/8/22 97/79/22 4/7/22
f 3/8/22 98/80/22 97/79/22
f 3/8/22 99/81/22 98/80/22
f 43/41/22 99/81/22 3/8/22
f 43/41/22 100/82/22 99/81/22
f 43/41/22 85/67/22 100/82/22
f 43/41/22 40/42/22 85/67/22
f 41/43/22 40/42/22 43/41/22
f 41/43/22 33/44/22 40/42/22
f 11/45/22 33/44/22 41/43/22
f 33/44/22 11/45/22 9/46/22
f 103/85/22 102/84/22 101/83/22
f 102/84/22 103/85/22 104/86/22
f 50/37/21 106/76/21 105/75/21
f 106/76/21 50/37/21 17/7/21
f 106/76/21 17/7/21 107/77/21
f 107/77/21 17/7/21 108/78/21
f 108/78/21 17/7/21 18/8/21
f 108/78/21 18/8/21 109/87/21
f 109/87/21 18/8/21 110/88/21
f 110/88/21 18/8/21 111/79/21
f 111/79/21 18/8/21 112/80/21
f 112/80/21 18/8/21 59/41/21
f 112/80/21 59/41/21 113/81/21
f 113/81/21 59/41/21 114/82/21
f 114/82/21 59/41/21 53/43/21
f 114/82/21 53/43/21 115/67/21
f 115/67/21 53/43/21 63/42/21
f 63/42/21 53/43/21 61/44/21
f 61/44/21 53/43/21 31/45/21
f 61/44/21 31/45/21 29/46/21
f 63/42/21 116/68/21 115/67/21
f 63/42/21 117/69/21 116/68/21
f 25/40/21 117/69/21 63/42/21
f 25/40/21 118/70/21 117/69/21
f 25/40/21 119/71/21 118/70/21
f 26/39/21 119/71/21 25/40/21
f 26/39/21 120/72/21 119/71/21
f 26/39/21 121/73/21 120/72/21
f 55/38/21 121/73/21 26/39/21
f 55/38/21 122/74/21 121/73/21
f 55/38/21 105/75/21 122/74/21
f 55/38/21 50/37/21 105/75/21
f 58/36/21 50/37/21 55/38/21
f 58/36/21 48/35/21 50/37/21
f 22/34/21 48/35/21 58/36/21
f 48/35/21 22/34/21 24/33/21
f 123/91/1 109/90/1 108/89/1
f 109/90/1 123/91/1 124/92/1
f 125/95/14 108/94/18 107/93/14
f 108/94/18 125/95/14 123/96/18
f 125/99/14 106/98/13 126/97/13
f 106/98/13 125/99/14 107/100/14
f 126/103/13 105/102/15 127/101/15
f 105/102/15 126/103/13 106/104/13
f 127/105/3 122/89/3 128/91/3
f 122/89/3 127/105/3 105/106/3
f 128/96/6 121/93/5 129/95/5
f 121/93/5 128/96/6 122/94/6
f 129/99/5 120/98/11 130/97/11
f 120/98/11 129/99/5 121/100/5
f 131/101/12 120/104/11 119/102/12
f 120/104/11 131/101/12 130/103/11
f 132/91/2 119/106/2 118/89/2
f 119/106/2 132/91/2 131/105/2
f 133/95/16 118/94/17 117/93/16
f 118/94/17 133/95/16 132/96/17
f 116/98/19 133/99/16 117/100/16
f 133/99/16 116/98/19 134/97/19
f 115/102/20 134/103/19 116/104/19
f 134/103/19 115/102/20 135/101/20
f 114/89/4 135/105/4 115/106/4
f 135/105/4 114/89/4 136/91/4
f 113/93/9 136/96/10 114/94/10
f 136/96/10 113/93/9 137/95/9
f 112/98/7 137/99/9 113/100/9
f 137/99/9 112/98/7 138/97/7
f 139/101/8 112/104/7 111/102/8
f 112/104/7 139/101/8 138/103/7
f 140/108/1 111/106/1 110/107/1
f 111/106/1 140/108/1 139/105/1

usemtl wood

f 124/92/1 110/107/1 109/90/1
f 110/107/1 124/92/1 140/108/1
f 111/106/1 109/90/1 110/107/1
f 111/106/1 108/89/1 109/90/1
f 96/109/1 108/89/1 111/106/1
f 108/89/1 96/109/1 97/110/1
f 107/93/14 97/112/18 98/111/14
f 97/112/18 107/93/14 108/94/18
f 107/100/14 99/113/13 106/98/13
f 99/113/13 107/100/14 98/114/14
f 106/104/13 100/115/15 105/102/15
f 100/115/15 106/104/13 99/116/13
f 105/106/3 85/110/3 122/89/3
f 85/110/3 105/106/3 100/109/3
f 122/94/6 86/111/5 121/93/5
f 86/111/5 122/94/6 85/112/6
f 121/100/5 87/113/11 120/98/11
f 87/113/11 121/100/5 86/114/5
f 119/102/12 87/116/11 88/115/12
f 87/116/11 119/102/12 120/104/11
f 118/89/2 88/109/2 89/110/2
f 88/109/2 118/89/2 119/106/2
f 117/93/16 89/112/17 90/111/16
f 89/112/17 117/93/16 118/94/17
f 91/113/19 117/100/16 90/114/16
f 117/100/16 91/113/19 116/98/19
f 92/115/20 116/104/19 91/116/19
f 116/104/19 92/115/20 115/102/20
f 93/110/4 115/106/4 92/109/4
f 115/106/4 93/110/4 114/89/4
f 94/111/9 114/94/10 93/112/10
f 114/94/10 94/111/9 113/93/9
f 95/113/7 113/100/9 94/114/9
f 113/100/9 95/113/7 112/98/7
f 111/102/8 95/116/7 96/115/8
f 95/116/7 111/102/8 112/104/7
f 72/54/22 69/51/22 70/52/22
f 69/51/22 72/54/22 65/47/22
f 65/47/22 72/54/22 74/56/22
f 65/47/22 74/56/22 67/49/22
f 67/49/22 74/56/22 101/83/22
f 101/83/22 74/56/22 75/57/22
f 101/83/22 75/57/22 103/85/22
f 103/85/22 75/57/22 104/86/22
f 102/84/22 67/49/22 101/83/22
f 67/49/22 102/84/22 84/66/22
f 84/66/22 102/84/22 104/86/22
f 84/66/22 104/86/22 75/57/22
f 84/66/22 75/57/22 79/61/22
f 84/66/22 79/61/22 82/64/22
f 82/64/22 79/61/22 78/60/22
f 82/64/22 78/60/22 80/62/22

usemtl _defaultMat

f 126/116/21 128/102/21 127/104/21
f 128/116/21 126/102/21 129/104/21
f 129/116/21 126/102/21 125/104/21
f 129/116/21 125/102/21 130/104/21
f 130/116/21 125/102/21 123/104/21
f 130/116/21 123/102/21 131/104/21
f 131/116/21 123/102/21 132/104/21
f 132/116/21 123/102/21 124/104/21
f 132/116/21 124/102/21 140/104/21
f 132/116/21 140/102/21 139/104/21
f 132/116/21 139/102/21 138/104/21
f 132/116/21 138/102/21 133/104/21
f 133/116/21 138/102/21 137/104/21
f 133/116/21 137/102/21 134/104/21
f 134/116/21 137/102/21 136/104/21
f 134/116/21 136/102/21 135/104/21

