# Created by Kenney (www.kenney.nl)

mtllib blockSlope.mtl

g blockSlope

v -0.5 0 -0.5
v 0.5 0 -0.5
v -0.5 1 -0.5
v 0.5 1 -0.5
v 0.5 -1.371632E-14 0.5
v -0.5 -1.425775E-14 0.5
v 0.4166666 -0.2304112 0.633028
v 0.3333333 -0.1585069 0.591514
v 0.5 -0.1585069 0.591514
v 0.1666667 -0.1585069 0.591514
v 0 -0.1585069 0.591514
v -0.1666667 -0.1585069 0.591514
v -0.3333333 -0.1585069 0.591514
v -0.5 -0.1585069 0.591514
v -0.4166666 -0.2304112 0.633028
v -0.25 -0.2304112 0.633028
v -0.08333331 -0.2304112 0.633028
v 0.08333325 -0.2304112 0.633028
v 0.25 -0.2304112 0.633028
v 0.591514 0.8414931 -0.5
v 0.591514 0.7164931 -0.375
v 0.633028 0.7070888 -0.4375
v 0.591514 0.5914931 -0.25
v 0.633028 0.5820887 -0.3125
v 0.591514 0.4664931 -0.125
v 0.633028 0.4570888 -0.1875
v 0.591514 0.3414931 0
v 0.633028 0.3320887 -0.0625
v 0.591514 0.2164931 0.125
v 0.633028 0.2070887 0.0625
v 0.591514 0.09149311 0.25
v 0.633028 0.08208875 0.1875
v 0.633028 -0.04291125 0.3125
v 0.591514 -0.0335069 0.375
v 0.633028 -0.1679112 0.4375001
v 0.591514 -0.1585069 0.5
v -0.591514 -0.1585069 0.5
v -0.591514 0.8414931 -0.5
v -0.5 0.8414931 -0.591514
v -0.633028 0.7070888 -0.4375
v -0.591514 0.7164931 -0.375
v -0.591514 0.5914931 -0.25
v -0.633028 0.5820887 -0.3125
v -0.591514 0.4664931 -0.125
v -0.633028 0.4570888 -0.1875
v -0.591514 0.3414931 0
v -0.633028 0.3320887 -0.0625
v -0.591514 0.2164931 0.125
v -0.633028 0.2070887 0.0625
v -0.591514 0.09149311 0.25
v -0.633028 0.08208875 0.1875
v -0.633028 -0.04291125 0.3125
v -0.591514 -0.0335069 0.375
v -0.633028 -0.1679112 0.4375001
v -0.4166666 0.7695886 -0.633028
v -0.3333333 0.8414931 -0.591514
v -0.1666667 0.8414931 -0.591514
v 0 0.8414931 -0.591514
v 0.1666667 0.8414931 -0.591514
v 0.3333333 0.8414931 -0.591514
v 0.5 0.8414931 -0.591514
v 0.4166666 0.7695886 -0.633028
v 0.25 0.7695886 -0.633028
v 0.08333325 0.7695886 -0.633028
v -0.08333331 0.7695886 -0.633028
v -0.25 0.7695886 -0.633028

vn 0 0 -1
vn 0 -1 0
vn -1 0 0
vn 1 0 0
vn 0 0.5000001 0.8660253
vn 0 -0.5000001 -0.8660253
vn 0.7745966 0.4472136 0.4472136
vn -0.7745966 -0.4472136 -0.4472136
vn -0.6546537 0.3779645 0.6546537
vn 0.6546537 -0.3779645 -0.6546537
vn 0 0.7071068 0.7071068
vn -0.6546537 0.3779645 -0.6546535
vn 0.6546537 -0.3779645 0.6546535
vn -0.7745966 0.4472136 0.4472136
vn 0.7745966 -0.4472136 -0.4472136
vn 0 0.4999999 -0.8660254
vn 0 -0.4999999 0.8660254
vn 0.6546535 0.3779645 0.6546537
vn -0.6546535 -0.3779645 -0.6546537
vn 0.6546537 0.3779645 -0.6546537
vn -0.6546537 -0.3779645 0.6546537

vt 19.68504 -3.552714E-15
vt -19.68504 -3.552714E-15
vt 19.68504 39.37008
vt -19.68504 39.37008
vt 19.68504 19.68504
vt 19.68504 -19.68504
vt -19.68504 19.68504
vt -19.68504 -19.68504
vt -19.68504 0
vt 19.68504 -5.613288E-13
vt 19.68504 -3.253215E-28
vt -19.68504 -5.400125E-13
vt 16.4042 -20.31717
vt 13.12336 -17.04835
vt 19.68504 -17.04835
vt 19.68504 -9.842522
vt 6.561681 -17.04835
vt 6.676175E-14 -17.04835
vt -6.561681 -17.04835
vt -13.12336 -17.04835
vt -19.68504 -17.04835
vt -19.68504 -9.842522
vt -16.4042 -20.31717
vt -9.84252 -20.31717
vt -3.280838 -20.31717
vt 3.280838 -20.31717
vt 9.84252 -20.31717
vt 26.89026 31.99139
vt 28.69172 25.01438
vt -7.205224 -12.02569
vt 24.42978 19.51225
vt 27.37796 19.0983
vt 20.16785 14.01011
vt 23.11602 13.59616
vt 15.90591 8.507975
vt 18.85409 8.094025
vt 11.64398 3.005839
vt 14.59215 2.591885
vt 7.382041 -2.496297
vt 10.33021 -2.91025
vt 3.120105 -7.998432
vt 6.068277 -8.412385
vt 1.806342 -13.91452
vt -1.141831 -13.50057
vt -2.455598 -19.41665
vt -5.403767 -19.0027
vt -2.547644 -17.26253
vt 7.057466E-12 -10.5221
vt 2.547644 -17.26253
vt -19.68504 -13.91943
vt -19.68504 41.75827
vt 19.68504 -13.91943
vt 19.68504 41.75827
vt 2.547643 19.18708
vt -2.547647 19.18708
vt -1.521009E-06 25.92751
vt -28.69172 25.01438
vt -26.89026 31.99139
vt -27.37796 19.0983
vt -24.42978 19.51225
vt 7.205224 -12.02569
vt -20.16785 14.01011
vt -23.11602 13.59616
vt -15.90591 8.507975
vt -18.85409 8.094025
vt -11.64398 3.005839
vt -14.59215 2.591885
vt -7.382041 -2.496297
vt -10.33021 -2.910251
vt -3.120105 -7.998432
vt -6.068278 -8.412385
vt -1.806342 -13.91452
vt 1.141831 -13.50057
vt 2.455598 -19.41665
vt 5.403767 -19.0027
vt 16.4042 13.77833
vt 13.12336 17.04715
vt 19.68504 17.04715
vt 19.68504 24.25297
vt 6.561681 17.04715
vt -5.017966E-14 17.04715
vt -6.561681 17.04715
vt -13.12336 17.04715
vt -19.68504 17.04715
vt -19.68504 24.25297
vt -16.4042 13.77833
vt -9.84252 13.77833
vt -3.280838 13.77833
vt 3.280838 13.77833
vt 9.84252 13.77833
vt 2.547647 -17.26253
vt -2.547643 -17.26253
vt 1.521006E-06 -10.5221
vt 7.858958E-11 25.92751
vt 2.547645 19.18708
vt -2.547645 19.18708

usemtl dirt

f 3/3/1 2/2/1 1/1/1
f 2/2/1 3/3/1 4/4/1
f 6/7/2 2/6/2 5/5/2
f 2/6/2 6/7/2 1/8/2
f 6/10/3 3/4/3 1/9/3
f 5/12/4 2/11/4 4/3/4

usemtl grass

f 9/15/5 8/14/5 7/13/5
f 8/14/5 9/15/5 5/16/5
f 8/14/5 5/16/5 10/17/5
f 10/17/5 5/16/5 11/18/5
f 11/18/5 5/16/5 12/19/5
f 12/19/5 5/16/5 13/20/5
f 13/20/5 5/16/5 14/21/5
f 14/21/5 5/16/5 6/22/5
f 14/21/5 15/23/5 13/20/5
f 13/20/5 16/24/5 12/19/5
f 12/19/5 17/25/5 11/18/5
f 11/18/5 18/26/5 10/17/5
f 10/17/5 19/27/5 8/14/5
f 7/13/6 8/14/6 9/15/6
f 5/16/6 9/15/6 8/14/6
f 10/17/6 5/16/6 8/14/6
f 11/18/6 5/16/6 10/17/6
f 12/19/6 5/16/6 11/18/6
f 13/20/6 5/16/6 12/19/6
f 14/21/6 5/16/6 13/20/6
f 6/22/6 5/16/6 14/21/6
f 13/20/6 15/23/6 14/21/6
f 12/19/6 16/24/6 13/20/6
f 11/18/6 17/25/6 12/19/6
f 10/17/6 18/26/6 11/18/6
f 8/14/6 19/27/6 10/17/6
f 5/30/7 20/29/7 4/28/7
f 20/29/7 5/30/7 21/31/7
f 20/29/7 21/31/7 22/32/7
f 21/31/7 5/30/7 23/33/7
f 21/31/7 23/33/7 24/34/7
f 23/33/7 5/30/7 25/35/7
f 23/33/7 25/35/7 26/36/7
f 25/35/7 5/30/7 27/37/7
f 25/35/7 27/37/7 28/38/7
f 27/37/7 5/30/7 29/39/7
f 27/37/7 29/39/7 30/40/7
f 29/39/7 5/30/7 31/41/7
f 29/39/7 31/41/7 32/42/7
f 31/41/7 5/30/7 33/43/7
f 33/43/7 5/30/7 34/44/7
f 34/44/7 5/30/7 35/45/7
f 35/45/7 5/30/7 36/46/7
f 4/28/8 20/29/8 5/30/8
f 21/31/8 5/30/8 20/29/8
f 22/32/8 21/31/8 20/29/8
f 23/33/8 5/30/8 21/31/8
f 24/34/8 23/33/8 21/31/8
f 25/35/8 5/30/8 23/33/8
f 26/36/8 25/35/8 23/33/8
f 27/37/8 5/30/8 25/35/8
f 28/38/8 27/37/8 25/35/8
f 29/39/8 5/30/8 27/37/8
f 30/40/8 29/39/8 27/37/8
f 31/41/8 5/30/8 29/39/8
f 32/42/8 31/41/8 29/39/8
f 33/43/8 5/30/8 31/41/8
f 34/44/8 5/30/8 33/43/8
f 35/45/8 5/30/8 34/44/8
f 36/46/8 5/30/8 35/45/8
f 14/49/9 6/48/9 37/47/9
f 37/47/10 6/48/10 14/49/10
f 5/52/11 3/51/11 6/50/11
f 3/51/11 5/52/11 4/53/11
f 3/56/12 39/55/12 38/54/12
f 38/54/13 39/55/13 3/56/13
f 40/59/14 3/58/14 38/57/14
f 3/58/14 40/59/14 41/60/14
f 3/58/14 41/60/14 6/61/14
f 6/61/14 41/60/14 42/62/14
f 42/62/14 41/60/14 43/63/14
f 6/61/14 42/62/14 44/64/14
f 44/64/14 42/62/14 45/65/14
f 6/61/14 44/64/14 46/66/14
f 46/66/14 44/64/14 47/67/14
f 6/61/14 46/66/14 48/68/14
f 48/68/14 46/66/14 49/69/14
f 6/61/14 48/68/14 50/70/14
f 50/70/14 48/68/14 51/71/14
f 6/61/14 50/70/14 52/72/14
f 6/61/14 52/72/14 53/73/14
f 6/61/14 53/73/14 54/74/14
f 6/61/14 54/74/14 37/75/14
f 38/57/15 3/58/15 40/59/15
f 41/60/15 40/59/15 3/58/15
f 6/61/15 41/60/15 3/58/15
f 42/62/15 41/60/15 6/61/15
f 43/63/15 41/60/15 42/62/15
f 44/64/15 42/62/15 6/61/15
f 45/65/15 42/62/15 44/64/15
f 46/66/15 44/64/15 6/61/15
f 47/67/15 44/64/15 46/66/15
f 48/68/15 46/66/15 6/61/15
f 49/69/15 46/66/15 48/68/15
f 50/70/15 48/68/15 6/61/15
f 51/71/15 48/68/15 50/70/15
f 52/72/15 50/70/15 6/61/15
f 53/73/15 52/72/15 6/61/15
f 54/74/15 53/73/15 6/61/15
f 37/75/15 54/74/15 6/61/15
f 39/78/16 56/77/16 55/76/16
f 56/77/16 39/78/16 3/79/16
f 56/77/16 3/79/16 57/80/16
f 57/80/16 3/79/16 58/81/16
f 58/81/16 3/79/16 59/82/16
f 59/82/16 3/79/16 60/83/16
f 60/83/16 3/79/16 61/84/16
f 61/84/16 3/79/16 4/85/16
f 61/84/16 62/86/16 60/83/16
f 60/83/16 63/87/16 59/82/16
f 59/82/16 64/88/16 58/81/16
f 58/81/16 65/89/16 57/80/16
f 57/80/16 66/90/16 56/77/16
f 55/76/17 56/77/17 39/78/17
f 3/79/17 39/78/17 56/77/17
f 57/80/17 3/79/17 56/77/17
f 58/81/17 3/79/17 57/80/17
f 59/82/17 3/79/17 58/81/17
f 60/83/17 3/79/17 59/82/17
f 61/84/17 3/79/17 60/83/17
f 4/85/17 3/79/17 61/84/17
f 60/83/17 62/86/17 61/84/17
f 59/82/17 63/87/17 60/83/17
f 58/81/17 64/88/17 59/82/17
f 57/80/17 65/89/17 58/81/17
f 56/77/17 66/90/17 57/80/17
f 5/93/18 9/92/18 36/91/18
f 36/91/19 9/92/19 5/93/19
f 20/96/20 61/95/20 4/94/20
f 4/94/21 61/95/21 20/96/21

