# Created by Kenney (www.kenney.nl)

mtllib blockRounded.mtl

g blockRounded

v -0.4 0.9866025 -0.45
v -0.4 1 -0.4
v -0.425 0.9866025 -0.4433013
v -0.475 0.9499999 0.4433013
v -0.4433013 0.9499999 0.475
v -0.4866025 0.9 0.45
v -0.45 0.9 0.4866025
v -0.4433013 0.9866025 -0.425
v 0.4749999 0.9499999 0.4433013
v 0.4433013 0.9499999 0.475
v 0.4433013 0.9866025 0.425
v 0.425 0.9866025 0.4433013
v 0.4866025 0.9499999 0.4
v 0.5 0.9 0.4
v 0.4866025 0.9 0.45
v 0.45 0.9866025 0.4
v -0.4866025 0.9499999 0.4
v -0.45 0.9866025 0.4
v -0.4433013 0.9866025 0.425
v -0.4 1 0.4
v -0.425 0.9866025 0.4433013
v 0.45 0.9 0.4866025
v 0.4 0.9 0.5
v 0.4 0.9499999 0.4866025
v -0.5 0.9 0.4
v 0.4 1 0.4
v 0.4 0.9866025 0.45
v -0.4 0.9 0.5
v -0.4 0.9499999 0.4866025
v -0.4433013 0.9499999 -0.475
v -0.4 0.9499999 -0.4866025
v -0.4 0.9866025 0.45
v -0.45 0.9866025 -0.4
v -0.475 0.9499999 -0.4433013
v -0.4866025 0.9499999 -0.4
v 0.4866025 0.9499999 -0.4
v 0.45 0.9866025 -0.4
v 0.4749999 0.9499999 -0.4433013
v 0.4433013 0.9866025 -0.425
v 0.4 0.9866025 -0.45
v 0.425 0.9866025 -0.4433013
v 0.4 1 -0.4
v 0.4433013 0.9499999 -0.475
v -0.4866025 0.9 -0.45
v -0.5 0.9 -0.4
v 0.4866025 0.9 -0.45
v 0.5 0.9 -0.4
v 0.45 0.9 -0.4866025
v 0.4 0.9499999 -0.4866025
v -0.45 0.9 -0.4866025
v -0.4 0.9 -0.5
v 0.4 0.9 -0.5
v -0.5 0.7 -0.4
v -0.5 0.7 0.4
v 0.4 0.7 0.5
v -0.4 0.7 0.5
v 0.5 0.7 -0.4
v 0.5 0.7 0.4
v -0.4 0.7 -0.5
v 0.4 0.7 -0.5
v -0.4866025 0.7 0.45
v -0.45 0.7 0.4866025
v 0.45 0.7 0.4866025
v 0.4866025 0.7 0.45
v -0.4866025 0.7 -0.45
v -0.45 0.7 -0.4866025
v 0.45 0.7 -0.4866025
v 0.4866025 0.7 -0.45
v 0.4433013 0.05 -0.475
v 0.4749999 0.05 -0.4433013
v 0.45 0.1 -0.4866025
v 0.4866025 0.1 -0.45
v 0.5 0.1 -0.4
v 0.4866025 0.05 -0.4
v 0.4433013 0.01339746 -0.425
v 0.425 0.01339746 -0.4433013
v 0.4 0 -0.4
v 0.45 0.01339746 -0.4
v -0.45 0.1 -0.4866025
v -0.4866025 0.1 -0.45
v -0.4433013 0.05 -0.475
v -0.475 0.05 -0.4433013
v 0.4 0.01339746 -0.45
v 0.4 0.05 -0.4866025
v 0.4 0.1 -0.5
v -0.4 0.05 -0.4866025
v -0.4 0.1 -0.5
v -0.5 0.1 -0.4
v -0.4866025 0.05 -0.4
v 0.4 0.1 0.5
v -0.4 0.1 0.5
v -0.5 0.1 0.4
v 0.5 0.1 0.4
v 0.4 0.01339746 0.45
v 0.4 0 0.4
v -0.4 0.01339746 0.45
v -0.4 0 0.4
v 0.4 0.05 0.4866025
v -0.4 0.05 0.4866025
v 0.45 0.01339746 0.4
v -0.4 0 -0.4
v -0.45 0.01339746 0.4
v -0.45 0.01339746 -0.4
v -0.4 0.01339746 -0.45
v 0.4866025 0.05 0.4
v -0.4866025 0.05 0.4
v -0.45 0.1 0.4866025
v 0.45 0.1 0.4866025
v 0.4866025 0.1 0.45
v -0.4866025 0.1 0.45
v 0.425 0.01339746 0.4433013
v 0.4433013 0.01339746 0.425
v 0.4749999 0.05 0.4433013
v 0.4433013 0.05 0.475
v -0.425 0.01339746 0.4433013
v -0.4433013 0.05 0.475
v -0.4433013 0.01339746 0.425
v -0.475 0.05 0.4433013
v -0.4433013 0.01339746 -0.425
v -0.425 0.01339746 -0.4433013

vn -0.1408363 0.8389881 -0.5256083
vn -0.1731918 0.9695407 -0.1731918
vn -0.2654499 0.8474345 -0.4597727
vn -0.7586237 0.4823416 0.4379916
vn -0.4379916 0.4823416 0.7586237
vn -0.8365163 0.258819 0.4829629
vn -0.4829629 0.258819 0.8365163
vn -0.4597727 0.8474345 -0.2654499
vn 0.7586237 0.4823416 0.4379916
vn 0.4379916 0.4823416 0.7586237
vn 0.4597727 0.8474345 0.2654499
vn 0.2654499 0.8474345 0.4597727
vn 0.8528062 0.4695798 0.2285087
vn 0.9351131 0.2505628 0.2505628
vn 0.8365163 0.258819 0.4829629
vn 0.5256083 0.8389881 0.1408363
vn -0.8528062 0.4695798 0.2285087
vn -0.5256083 0.8389881 0.1408363
vn -0.4597727 0.8474345 0.2654499
vn -0.1731918 0.9695407 0.1731918
vn -0.2654499 0.8474345 0.4597727
vn 0.4829629 0.258819 0.8365163
vn 0.2505628 0.2505628 0.9351131
vn 0.2285087 0.4695798 0.8528062
vn -0.9351131 0.2505628 0.2505628
vn 0.1731918 0.9695407 0.1731918
vn 0.1408363 0.8389881 0.5256083
vn -0.2505628 0.2505628 0.9351131
vn -0.2285087 0.4695798 0.8528062
vn -0.4379916 0.4823416 -0.7586237
vn -0.2285087 0.4695798 -0.8528062
vn -0.1408363 0.8389881 0.5256083
vn -0.5256083 0.8389881 -0.1408363
vn -0.7586237 0.4823416 -0.4379916
vn -0.8528062 0.4695798 -0.2285087
vn 0.8528062 0.4695798 -0.2285087
vn 0.5256083 0.8389881 -0.1408363
vn 0.7586237 0.4823416 -0.4379916
vn 0.4597727 0.8474345 -0.2654499
vn 0.1408363 0.8389881 -0.5256083
vn 0.2654499 0.8474345 -0.4597727
vn 0.1731918 0.9695407 -0.1731918
vn 0.4379916 0.4823416 -0.7586237
vn -0.8365163 0.258819 -0.4829629
vn -0.9351131 0.2505628 -0.2505628
vn 0.8365163 0.258819 -0.4829629
vn 0.9351131 0.2505628 -0.2505628
vn 0.4829629 0.258819 -0.8365163
vn 0.2285087 0.4695798 -0.8528062
vn -0.4829629 0.258819 -0.8365163
vn -0.2505628 0.2505628 -0.9351131
vn 0.2505628 0.2505628 -0.9351131
vn -1 0 0
vn 0 1 0
vn 0 0 1
vn 1 0 0
vn 0 0 -1
vn 0 0.5 0.8660254
vn 0 0.8660254 0.5
vn -0.9659258 0 0.258819
vn -0.8660254 0 0.5
vn 0 0.258819 0.9659258
vn -0.258819 0 0.9659258
vn -0.5 0 0.8660254
vn 0.5 0 0.8660254
vn 0.258819 0 0.9659258
vn 0.8660254 0 0.5
vn 0.9659258 0 0.258819
vn 0 0.9659258 0.258819
vn 0 0.5 -0.8660254
vn 0 0.8660254 -0.5
vn -0.8660254 0.5 0
vn -0.5 0.8660254 0
vn -0.9659258 0.258819 0
vn 0.5 0.8660254 0
vn 0.8660254 0.5 0
vn -0.8660254 0 -0.5
vn -0.5 0 -0.8660254
vn 0.5 0 -0.8660254
vn 0.8660254 0 -0.5
vn 0 0.9659258 -0.258819
vn 0.9659258 0 -0.258819
vn 0.9659258 0.258819 0
vn 0.258819 0.9659258 0
vn -0.258819 0.9659258 0
vn -0.258819 0 -0.9659258
vn -0.9659258 0 -0.258819
vn 0.258819 0 -0.9659258
vn 0 0.258819 -0.9659258
vn 0.4379916 -0.4823416 -0.7586237
vn 0.7586237 -0.4823416 -0.4379916
vn 0.4958982 -0.1278264 -0.858921
vn 0.858921 -0.1278264 -0.4958982
vn 0.9702645 -0.1711532 -0.1711532
vn 0.865321 -0.4883322 -0.1129214
vn 0.4597727 -0.8474345 -0.2654499
vn 0.2654499 -0.8474345 -0.4597727
vn 0.1731918 -0.9695407 -0.1731918
vn 0.5140254 -0.8549294 -0.06981172
vn -0.4829629 -0.258819 -0.8365163
vn -0.8365163 -0.258819 -0.4829629
vn -0.4379916 -0.4823416 -0.7586237
vn -0.7586237 -0.4823416 -0.4379916
vn 0.1408363 -0.8389881 -0.5256083
vn 0.2285087 -0.4695798 -0.8528062
vn 0.2505628 -0.2505628 -0.9351131
vn -0.2285087 -0.4695798 -0.8528062
vn -0.2505628 -0.2505628 -0.9351131
vn -0.9351131 -0.2505628 -0.2505628
vn -0.865321 -0.4883322 -0.1129214
vn 0 -0.8660254 0.5
vn 0 -0.9659258 0.258819
vn -0.06981172 -0.8549294 0.5140254
vn -0.1453179 -0.9786549 0.1453179
vn 0 -0.5 0.8660254
vn -0.1129214 -0.4883322 0.865321
vn 0 -0.258819 0.9659258
vn 0.5140254 -0.8549294 0.06981172
vn 0.258819 -0.9659258 0
vn 0 -0.5 -0.8660254
vn 0 -0.258819 -0.9659258
vn -0.2179146 -0.9722424 -0.08519387
vn -0.5140254 -0.8549294 0.06981172
vn -0.5140254 -0.8549294 -0.06981172
vn 0 -0.8660254 -0.5
vn 0.9702645 -0.1711532 0.1711532
vn 0.865321 -0.4883322 0.1129214
vn -0.865321 -0.4883322 0.1129214
vn -0.9659258 -0.258819 0
vn 0 -0.9659258 -0.258819
vn 0.4958982 -0.1278264 0.858921
vn 0.2568364 -0.1235385 0.9585266
vn 0.858921 -0.1278264 0.4958982
vn 0.2654499 -0.8474345 0.4597727
vn 0.4597727 -0.8474345 0.2654499
vn 0.1731918 -0.9695407 0.1731918
vn 0.7586237 -0.4823416 0.4379916
vn 0.4379916 -0.4823416 0.7586237
vn 0.1408363 -0.8389881 0.5256083
vn 0.2285087 -0.4695798 0.8528062
vn -0.2654499 -0.8474345 0.4597727
vn -0.4379916 -0.4823416 0.7586237
vn -0.4597727 -0.8474345 0.2654499
vn -0.7586237 -0.4823416 0.4379916
vn -0.2505628 -0.2505628 0.9351131
vn -0.4829629 -0.258819 0.8365163
vn -0.8365163 -0.258819 0.4829629
vn -0.9351131 -0.2505628 0.2505628
vn -0.4597727 -0.8474345 -0.2654499
vn -0.2654499 -0.8474345 -0.4597727
vn -0.1408363 -0.8389881 -0.5256083
vn 0 -1 0

vt 10.62605 -10.03481
vt 11.13554 -8.061578
vt 11.64503 -10.03481
vt -0.8824562 29.80298
vt 0.8824562 29.80298
vt -1.018973 27.76961
vt 1.018973 27.76961
vt -0.5094863 -12.90999
vt -2.149392E-13 -10.93676
vt 0.5094863 -12.90999
vt 0.8824562 9.140439
vt -0.8824562 9.140439
vt 0.5094863 11.14396
vt -0.5094863 11.14396
vt -10.25308 30.5506
vt -10.11657 28.51723
vt -12.018 30.5506
vt -12.15451 28.51723
vt -10.25308 11.2134
vt -12.018 11.2134
vt -10.62605 13.21692
vt -11.64503 13.21692
vt 10.25308 11.2134
vt 10.62605 13.21692
vt 12.018 11.2134
vt 11.64503 13.21692
vt 2.04281E-13 -10.93676
vt 12.15451 28.51723
vt 10.11657 28.51723
vt 12.018 30.5506
vt 10.25308 30.5506
vt -2.087219E-13 -10.93676
vt -11.13554 -8.061578
vt -10.62605 -10.03481
vt -11.64503 -10.03481
vt -15.74803 27.55906
vt -15.74803 35.43307
vt 15.74803 27.55906
vt 15.74803 35.43307
vt -15.74803 -15.74803
vt -15.74803 15.74803
vt 15.74803 -15.74803
vt 15.74803 15.74803
vt 15.74803 12.90045
vt -15.74803 12.90045
vt 15.74803 14.9384
vt -15.74803 14.9384
vt 10.11657 27.55906
vt 10.11657 35.43307
vt 12.15451 27.55906
vt 12.15451 35.43307
vt 15.74803 29.13086
vt -15.74803 29.13086
vt 15.74803 31.1688
vt -15.74803 31.1688
vt -10.11657 27.55906
vt -12.15451 27.55906
vt -10.11657 35.43307
vt -12.15451 35.43307
vt 1.018973 27.55906
vt -1.018973 27.55906
vt 1.018973 35.43307
vt -1.018973 35.43307
vt 15.74803 -5.021704
vt 15.74803 -7.059649
vt -15.74803 -5.021704
vt -15.74803 -7.059649
vt 0.8824562 8.31121
vt -0.8824562 8.31121
vt 1.018973 10.34458
vt -1.018973 10.34458
vt 12.15451 9.596958
vt 12.018 7.563591
vt 10.11657 9.596958
vt 10.25308 7.563591
vt -0.5094863 23.4339
vt 0.5094863 23.4339
vt 2.079448E-13 21.46067
vt -0.8824562 19.17667
vt 0.8824562 19.17667
vt -0.5094863 17.17315
vt 0.5094863 17.17315
vt 10.62605 20.55871
vt 11.64503 20.55871
vt 11.13554 18.58548
vt -11.13554 18.58548
vt -11.64503 20.55871
vt -10.62605 20.55871
vt 10.25308 17.10371
vt 12.018 17.10371
vt 10.62605 15.10019
vt 11.64503 15.10019
vt -10.25308 7.563591
vt -12.018 7.563591
vt -10.11657 9.596958
vt -12.15451 9.596958
vt -10.62605 15.10019
vt -11.64503 15.10019
vt -10.25308 17.10371
vt -12.018 17.10371
vt 15.74803 3.937008
vt -15.74803 3.937008
vt 15.74803 17.24938
vt 15.74803 15.21143
vt -15.74803 17.24938
vt -15.74803 15.21143
vt 15.74803 6.859776
vt -15.74803 6.859776
vt 15.74803 8.89772
vt -15.74803 8.89772
vt -12.15451 3.937008
vt -10.11657 3.937008
vt 12.15451 3.937008
vt 10.11657 3.937008
vt 1.018973 3.937008
vt -1.018973 3.937008
vt -2.0417E-13 21.46067
vt 2.043921E-13 21.46067
vt -1.900702E-13 21.46067

usemtl grass

f 3/3/3 2/2/2 1/1/1
f 6/6/6 5/5/5 4/4/4
f 5/5/5 6/6/6 7/7/7
f 8/10/8 2/9/2 3/8/3
f 11/13/11 10/12/10 9/11/9
f 10/12/10 11/13/11 12/14/12
f 9/17/9 14/16/14 13/15/13
f 14/16/14 9/17/9 15/18/15
f 16/21/16 9/20/9 13/19/13
f 9/20/9 16/21/16 11/22/11
f 4/25/4 18/24/18 17/23/17
f 18/24/18 4/25/4 19/26/19
f 19/8/19 21/10/21 20/27/20
f 10/30/10 23/29/23 22/28/22
f 23/29/23 10/30/10 24/31/24
f 9/5/9 22/6/22 15/7/15
f 22/6/22 9/5/9 10/4/10
f 6/28/6 17/31/17 25/29/25
f 17/31/17 6/28/6 4/30/4
f 19/14/19 5/11/5 21/13/21
f 5/11/5 19/14/19 4/12/4
f 26/32/26 12/8/12 11/10/11
f 27/1/27 12/3/12 26/2/26
f 29/15/29 7/18/7 28/16/28
f 7/18/7 29/15/29 5/17/5
f 3/26/3 31/23/31 30/25/30
f 31/23/31 3/26/3 1/24/1
f 12/26/12 24/23/24 10/25/10
f 24/23/24 12/26/12 27/24/27
f 18/1/18 19/3/19 20/2/20
f 32/21/32 5/20/5 29/19/29
f 5/20/5 32/21/32 21/22/21
f 21/35/21 32/34/32 20/33/20
f 26/33/26 11/35/11 16/34/16
f 33/34/33 2/33/2 8/35/8
f 35/19/35 8/22/8 34/20/34
f 8/22/8 35/19/35 33/21/33
f 38/25/38 37/24/37 36/23/36
f 37/24/37 38/25/38 39/26/39
f 42/33/42 41/35/41 40/34/40
f 42/27/42 39/8/39 41/10/41
f 43/11/43 39/14/39 38/12/38
f 39/14/39 43/11/43 41/13/41
f 45/16/45 34/17/34 44/18/44
f 34/17/34 45/16/45 35/15/35
f 38/30/38 47/29/47 46/28/46
f 47/29/47 38/30/38 36/31/36
f 43/5/43 46/6/46 48/7/48
f 46/6/46 43/5/43 38/4/38
f 42/2/42 37/1/37 39/3/39
f 40/21/40 43/20/43 49/19/49
f 43/20/43 40/21/40 41/22/41
f 30/30/30 51/29/51 50/28/50
f 51/29/51 30/30/30 31/31/31
f 34/5/34 50/6/50 44/7/44
f 50/6/50 34/5/34 30/4/30
f 49/15/49 48/18/48 52/16/52
f 48/18/48 49/15/49 43/17/43
f 30/12/30 8/13/8 3/14/3
f 8/13/8 30/12/30 34/11/34
f 54/38/53 45/37/53 53/36/53
f 45/37/53 54/38/53 25/39/53
f 2/42/54 26/41/54 42/40/54
f 26/41/54 2/42/54 20/43/54
f 23/39/55 56/36/55 55/38/55
f 56/36/55 23/39/55 28/37/55
f 14/37/56 57/38/56 47/39/56
f 57/38/56 14/37/56 58/36/56
f 51/39/57 60/36/57 59/38/57
f 60/36/57 51/39/57 52/37/57
f 27/46/59 29/45/58 24/44/58
f 29/45/58 27/46/59 32/47/59
f 61/50/61 25/49/60 54/48/60
f 25/49/60 61/50/61 6/51/61
f 24/54/58 28/53/62 23/52/62
f 28/53/62 24/54/58 29/55/58
f 28/58/63 62/57/64 56/56/63
f 62/57/64 28/58/63 7/59/64
f 22/51/65 55/48/66 63/50/65
f 55/48/66 22/51/65 23/49/66
f 15/62/67 63/61/65 64/60/67
f 63/61/65 15/62/67 22/63/65
f 62/60/64 6/63/61 61/61/61
f 6/63/61 62/60/64 7/62/64
f 15/59/67 58/56/68 14/58/68
f 58/56/68 15/59/67 64/57/67
f 20/66/69 27/65/59 26/64/69
f 27/65/59 20/66/69 32/67/59
f 1/46/71 49/45/70 31/44/70
f 49/45/70 1/46/71 40/47/71
f 17/44/72 33/47/73 35/45/72
f 33/47/73 17/44/72 18/46/73
f 25/52/74 35/55/72 45/53/74
f 35/55/72 25/52/74 17/54/72
f 16/47/75 36/44/76 37/46/75
f 36/44/76 16/47/75 13/45/76
f 44/62/77 66/61/78 65/60/77
f 66/61/78 44/62/77 50/63/78
f 48/62/79 68/61/80 67/60/79
f 68/61/80 48/62/79 46/63/80
f 1/65/71 42/66/81 40/67/71
f 42/66/81 1/65/71 2/64/81
f 47/49/82 68/50/80 46/51/80
f 68/50/80 47/49/82 57/48/82
f 13/55/76 47/52/83 36/54/76
f 47/52/83 13/55/76 14/53/83
f 42/64/84 16/67/75 37/65/75
f 16/67/75 42/64/84 26/66/84
f 33/67/73 20/64/85 2/66/85
f 20/64/85 33/67/73 18/65/73
f 50/51/78 59/48/86 66/50/78
f 59/48/86 50/51/78 51/49/86
f 53/56/87 44/59/77 65/57/77
f 44/59/77 53/56/87 45/58/87
f 52/58/88 67/57/79 60/56/88
f 67/57/79 52/58/88 48/59/79
f 31/54/70 52/53/89 51/52/89
f 52/53/89 31/54/70 49/55/70

usemtl dirt

f 71/70/92 70/69/91 69/68/90
f 70/69/91 71/70/92 72/71/93
f 73/74/94 70/73/91 72/72/93
f 70/73/91 73/74/94 74/75/95
f 77/78/98 76/77/97 75/76/96
f 75/81/96 69/80/90 70/79/91
f 69/80/90 75/81/96 76/82/97
f 77/85/98 75/84/96 78/83/99
f 81/69/102 80/70/101 79/71/100
f 80/70/101 81/69/102 82/68/103
f 83/88/104 76/87/97 77/86/98
f 78/91/99 70/90/91 74/89/95
f 70/90/91 78/91/99 75/92/96
f 85/95/106 69/94/90 84/93/105
f 69/94/90 85/95/106 71/96/92
f 79/72/100 86/75/107 81/73/102
f 86/75/107 79/72/100 87/74/108
f 84/99/105 76/98/97 83/97/104
f 76/98/97 84/99/105 69/100/90
f 82/94/103 88/95/109 80/96/101
f 88/95/109 82/94/103 89/93/110
f 55/38/55 91/102/55 90/101/55
f 91/102/55 55/38/55 56/36/55
f 92/101/53 53/36/53 88/102/53
f 53/36/53 92/101/53 54/38/53
f 58/36/56 73/101/56 57/38/56
f 73/101/56 58/36/56 93/102/56
f 96/105/113 95/104/112 94/103/111
f 95/104/112 96/105/113 97/106/114
f 59/38/57 85/102/57 87/101/57
f 85/102/57 59/38/57 60/36/57
f 98/46/115 96/45/113 94/44/111
f 96/45/113 98/46/115 99/47/116
f 90/109/117 99/108/116 98/107/115
f 99/108/116 90/109/117 91/110/117
f 95/106/119 78/103/99 100/105/118
f 78/103/99 95/106/119 77/104/119
f 87/109/121 84/108/120 86/107/120
f 84/108/120 87/109/121 85/110/121
f 102/103/123 101/106/122 97/104/114
f 101/106/122 102/103/123 103/105/124
f 86/46/120 83/45/125 104/44/125
f 83/45/125 86/46/120 84/47/120
f 93/110/126 74/107/95 73/109/94
f 74/107/95 93/110/126 105/108/127
f 100/45/118 74/46/95 105/47/127
f 74/46/95 100/45/118 78/44/99
f 102/44/123 89/47/110 103/45/124
f 89/47/110 102/44/123 106/46/128
f 106/107/128 88/110/129 89/108/110
f 88/110/129 106/107/128 92/109/129
f 101/104/130 83/105/125 77/106/130
f 83/105/125 101/104/130 104/103/125
f 88/112/87 65/57/77 80/111/77
f 65/57/77 88/112/87 53/56/87
f 56/56/63 107/111/64 91/112/63
f 107/111/64 56/56/63 62/57/64
f 66/50/78 87/114/86 79/113/78
f 87/114/86 66/50/78 59/48/86
f 63/50/65 90/114/132 108/113/131
f 90/114/132 63/50/65 55/48/66
f 64/57/67 93/112/126 58/56/68
f 93/112/126 64/57/67 109/111/133
f 67/60/79 72/116/93 71/115/92
f 72/116/93 67/60/79 68/61/80
f 62/60/64 110/116/61 107/115/64
f 110/116/61 62/60/64 61/61/61
f 65/60/77 79/116/78 80/115/77
f 79/116/78 65/60/77 66/61/78
f 110/113/61 54/48/60 92/114/60
f 54/48/60 110/113/61 61/50/61
f 64/60/67 108/116/131 109/115/133
f 108/116/131 64/60/67 63/61/65
f 60/56/88 71/111/92 85/112/88
f 71/111/92 60/56/88 67/57/79
f 57/48/82 72/113/93 68/50/80
f 72/113/93 57/48/82 73/114/94
f 95/117/136 112/77/135 111/76/134
f 114/79/138 112/82/135 113/80/137
f 112/82/135 114/79/138 111/81/134
f 114/90/138 94/91/139 111/92/134
f 94/91/139 114/90/138 98/89/140
f 113/100/137 100/97/118 105/99/127
f 100/97/118 113/100/137 112/98/135
f 109/70/133 114/69/138 113/68/137
f 114/69/138 109/70/133 108/71/131
f 109/96/133 105/93/127 93/95/126
f 105/93/127 109/96/133 113/94/137
f 108/72/131 98/75/140 114/73/138
f 98/75/140 108/72/131 90/74/132
f 115/87/141 97/86/114 96/88/113
f 95/85/136 111/84/134 94/83/139
f 95/86/136 100/88/118 112/87/135
f 99/99/116 115/98/141 96/97/113
f 115/98/141 99/99/116 116/100/142
f 116/80/142 117/81/143 115/82/141
f 117/81/143 116/80/142 118/79/144
f 102/83/123 97/85/114 117/84/143
f 117/92/143 106/89/128 102/91/123
f 106/89/128 117/92/143 118/90/144
f 91/95/145 116/94/142 99/93/116
f 116/94/142 91/95/145 107/96/146
f 107/70/146 118/69/144 116/68/142
f 118/69/144 107/70/146 110/71/147
f 118/73/144 92/74/148 106/75/128
f 92/74/148 118/73/144 110/72/147
f 117/76/143 97/118/114 115/77/141
f 103/88/124 119/87/149 101/86/122
f 119/77/149 120/76/150 101/119/122
f 119/98/149 89/99/110 82/100/103
f 89/99/110 119/98/149 103/97/124
f 119/82/149 81/79/102 120/81/150
f 81/79/102 119/82/149 82/80/103
f 120/84/150 104/83/151 101/85/122
f 81/90/102 104/91/151 120/92/150
f 104/91/151 81/90/102 86/89/107
f 97/41/152 77/42/152 95/43/152
f 77/42/152 97/41/152 101/40/152

