# Created by Kenney (www.kenney.nl)

mtllib blockQuarter.mtl

g blockQuarter

v -0.341514 0.8414931 0.25
v -0.25 1 0.25
v -0.25 0.8414931 0.341514
v -0.341514 0.8414931 -0.25
v -0.25 0.8414931 -0.341514
v -0.25 1 -0.25
v 0.341514 0.8414931 -0.25
v 0.383028 0.7695886 -0.1666666
v 0.25 1 -0.25
v 0.341514 0.8414931 -0.08333331
v 0.25 1 0.25
v 0.383028 0.7695886 0
v 0.341514 0.8414931 0.08333331
v 0.383028 0.7695886 0.1666667
v 0.341514 0.8414931 0.25
v 0.1666666 0.7695886 0.383028
v 0.08333325 0.8414931 0.341514
v 0.25 0.8414931 0.341514
v -0.08333331 0.8414931 0.341514
v -0.1666667 0.7695886 0.383028
v 0 0.7695886 0.383028
v 0.25 0.8414931 -0.341514
v -0.1666667 0.7695886 -0.383028
v -0.08333331 0.8414931 -0.341514
v 0.08333325 0.8414931 -0.341514
v 0.1666666 0.7695886 -0.383028
v 0 0.7695886 -0.383028
v -0.383028 0.7695886 -0.1666666
v -0.341514 0.8414931 -0.08333331
v -0.383028 0.7695886 0
v -0.341514 0.8414931 0.08333331
v -0.383028 0.7695886 0.1666667
v 0.25 0 0.25
v 0.25 0 -0.25
v -0.25 0 0.25
v -0.25 0 -0.25

vn -0.6546537 0.3779645 0.6546537
vn 0.6546537 -0.3779645 -0.6546537
vn -0.6546537 0.3779645 -0.6546535
vn 0.6546537 -0.3779645 0.6546535
vn 0.8660254 0.5 0
vn -0.8660254 -0.5 0
vn 0 0.5 0.8660254
vn 0 -0.5 -0.8660254
vn 0.6546537 0.3779645 -0.6546537
vn -0.6546537 -0.3779645 0.6546537
vn 0 0.5 -0.8660254
vn 0 -0.5 0.8660254
vn 0.6546535 0.3779645 0.6546537
vn -0.6546535 -0.3779645 -0.6546537
vn 0 1 0
vn -0.8660254 0.5 0
vn 0.8660254 -0.5 0
vn 0 -1 0
vn 0 0 1
vn 0 0 -1
vn 1 0 0
vn -1 0 0

vt -2.547644 24.44813
vt 7.029044E-12 31.18856
vt 2.547644 24.44813
vt 2.547644 24.44813
vt -2.547646 24.44813
vt -7.604998E-07 31.18856
vt 9.84252 21.9684
vt 6.561679 18.69958
vt 9.84252 29.17423
vt 3.280838 21.9684
vt -9.84252 29.17423
vt -1.050163E-11 18.69958
vt -3.280838 21.9684
vt -6.561681 18.69958
vt -9.84252 21.9684
vt 3.681358E-14 18.69958
vt 2.547645 24.44813
vt -2.547645 24.44813
vt -1.012967E-11 31.18856
vt 6.561681 18.69958
vt -6.561679 18.69958
vt -5.235143E-13 18.69958
vt 2.547646 24.44813
vt -2.547644 24.44813
vt 7.605009E-07 31.18856
vt -9.84252 9.84252
vt 9.84252 9.84252
vt -9.84252 -9.84252
vt 9.84252 -9.84252
vt 1.001711E-11 18.69958
vt 9.84252 0
vt -9.84252 0
vt 9.84252 39.37008
vt -9.84252 39.37008
vt 9.84252 -2.060574E-13
vt -9.84252 -2.060574E-13
vt 9.84252 -2.042811E-13
vt -9.84252 -2.042811E-13

usemtl grass

f 3/3/1 2/2/1 1/1/1
f 1/1/2 2/2/2 3/3/2
f 6/6/3 5/5/3 4/4/3
f 4/4/4 5/5/4 6/6/4
f 9/9/5 8/8/5 7/7/5
f 8/8/5 9/9/5 10/10/5
f 10/10/5 9/9/5 11/11/5
f 10/10/5 11/11/5 12/12/5
f 12/12/5 11/11/5 13/13/5
f 13/13/5 11/11/5 14/14/5
f 14/14/5 11/11/5 15/15/5
f 7/7/6 8/8/6 9/9/6
f 10/10/6 9/9/6 8/8/6
f 11/11/6 9/9/6 10/10/6
f 12/12/6 11/11/6 10/10/6
f 13/13/6 11/11/6 12/12/6
f 14/14/6 11/11/6 13/13/6
f 15/15/6 11/11/6 14/14/6
f 18/7/7 17/10/7 16/8/7
f 17/10/7 18/7/7 11/9/7
f 17/10/7 11/9/7 19/13/7
f 19/13/7 11/9/7 3/15/7
f 3/15/7 11/9/7 2/11/7
f 3/15/7 20/14/7 19/13/7
f 19/13/7 21/16/7 17/10/7
f 16/8/8 17/10/8 18/7/8
f 11/9/8 18/7/8 17/10/8
f 19/13/8 11/9/8 17/10/8
f 3/15/8 11/9/8 19/13/8
f 2/11/8 11/9/8 3/15/8
f 19/13/8 20/14/8 3/15/8
f 17/10/8 21/16/8 19/13/8
f 9/19/9 7/18/9 22/17/9
f 22/17/10 7/18/10 9/19/10
f 5/7/11 24/10/11 23/20/11
f 24/10/11 5/7/11 6/9/11
f 24/10/11 6/9/11 25/13/11
f 25/13/11 6/9/11 22/15/11
f 22/15/11 6/9/11 9/11/11
f 22/15/11 26/21/11 25/13/11
f 25/13/11 27/22/11 24/10/11
f 23/20/12 24/10/12 5/7/12
f 6/9/12 5/7/12 24/10/12
f 25/13/12 6/9/12 24/10/12
f 22/15/12 6/9/12 25/13/12
f 9/11/12 6/9/12 22/15/12
f 25/13/12 26/21/12 22/15/12
f 24/10/12 27/22/12 25/13/12
f 11/25/13 18/24/13 15/23/13
f 15/23/14 18/24/14 11/25/14
f 9/28/15 2/27/15 11/26/15
f 2/27/15 9/28/15 6/29/15
f 28/21/16 6/11/16 4/15/16
f 6/11/16 28/21/16 29/13/16
f 6/11/16 29/13/16 2/9/16
f 2/9/16 29/13/16 30/30/16
f 2/9/16 30/30/16 31/10/16
f 2/9/16 31/10/16 32/20/16
f 2/9/16 32/20/16 1/7/16
f 4/15/17 6/11/17 28/21/17
f 29/13/17 28/21/17 6/11/17
f 2/9/17 29/13/17 6/11/17
f 30/30/17 29/13/17 2/9/17
f 31/10/17 30/30/17 2/9/17
f 32/20/17 31/10/17 2/9/17
f 1/7/17 32/20/17 2/9/17

usemtl dirt

f 35/26/18 34/29/18 33/27/18
f 34/29/18 35/26/18 36/28/18
f 11/33/19 35/32/19 33/31/19
f 35/32/19 11/33/19 2/34/19
f 6/33/20 34/36/20 36/35/20
f 34/36/20 6/33/20 9/34/20
f 9/33/21 33/38/21 34/37/21
f 33/38/21 9/33/21 11/34/21
f 35/31/22 6/34/22 36/32/22
f 6/34/22 35/31/22 2/33/22

