# Created by Kenney (www.kenney.nl)

mtllib blockLong.mtl

g blockLong

v -0.5 0.8414931 1.091514
v -0.591514 0.8414931 1
v -0.5 1 1
v -0.591514 0.8414931 -1
v -0.5 1 -1
v -0.633028 0.7695886 -0.9166666
v -0.591514 0.8414931 -0.8333333
v -0.591514 0.8414931 -0.6666667
v -0.633028 0.7695886 -0.75
v -0.591514 0.8414931 -0.5
v -0.633028 0.7695886 -0.5833333
v -0.591514 0.8414931 -0.3333333
v -0.633028 0.7695886 -0.4166667
v -0.591514 0.8414931 -0.1666667
v -0.633028 0.7695886 -0.25
v -0.591514 0.8414931 0
v -0.633028 0.7695886 -0.08333337
v -0.591514 0.8414931 0.1666667
v -0.633028 0.7695886 0.08333334
v -0.591514 0.8414931 0.3333333
v -0.633028 0.7695886 0.25
v -0.591514 0.8414931 0.5
v -0.633028 0.7695886 0.4166667
v -0.591514 0.8414931 0.6666667
v -0.633028 0.7695886 0.5833333
v -0.633028 0.7695886 0.75
v -0.591514 0.8414931 0.8333333
v -0.633028 0.7695886 0.9166666
v 0.4166666 0.7695886 1.133028
v 0.3333333 0.8414931 1.091514
v 0.5 0.8414931 1.091514
v 0.5 1 1
v 0.1666667 0.8414931 1.091514
v 0 0.8414931 1.091514
v -0.1666667 0.8414931 1.091514
v -0.3333333 0.8414931 1.091514
v -0.4166666 0.7695886 1.133028
v -0.25 0.7695886 1.133028
v -0.08333331 0.7695886 1.133028
v 0.08333325 0.7695886 1.133028
v 0.25 0.7695886 1.133028
v 0.591514 0.8414931 1
v -0.5 0.8414931 -1.091514
v 0.5 1 -1
v 0.5 0.8414931 -1.091514
v 0.591514 0.8414931 -1
v -0.4166666 0.7695886 -1.133028
v -0.3333333 0.8414931 -1.091514
v -0.1666667 0.8414931 -1.091514
v 0 0.8414931 -1.091514
v 0.1666667 0.8414931 -1.091514
v 0.3333333 0.8414931 -1.091514
v 0.4166666 0.7695886 -1.133028
v 0.25 0.7695886 -1.133028
v 0.08333325 0.7695886 -1.133028
v -0.08333331 0.7695886 -1.133028
v -0.25 0.7695886 -1.133028
v 0.633028 0.7695886 -0.9166666
v 0.591514 0.8414931 -0.8333333
v 0.591514 0.8414931 -0.6666667
v 0.633028 0.7695886 -0.75
v 0.591514 0.8414931 -0.5
v 0.633028 0.7695886 -0.5833333
v 0.591514 0.8414931 -0.3333333
v 0.633028 0.7695886 -0.4166667
v 0.591514 0.8414931 -0.1666667
v 0.633028 0.7695886 -0.25
v 0.591514 0.8414931 0
v 0.633028 0.7695886 -0.08333337
v 0.591514 0.8414931 0.1666667
v 0.633028 0.7695886 0.08333334
v 0.591514 0.8414931 0.3333333
v 0.633028 0.7695886 0.25
v 0.591514 0.8414931 0.5
v 0.633028 0.7695886 0.4166667
v 0.591514 0.8414931 0.6666667
v 0.633028 0.7695886 0.5833333
v 0.633028 0.7695886 0.75
v 0.591514 0.8414931 0.8333333
v 0.633028 0.7695886 0.9166666
v 0.5 0 1
v -0.5 0 1
v 0.5 0 -1
v -0.5 0 -1

vn -0.6546537 0.3779645 0.6546537
vn 0.6546537 -0.3779645 -0.6546537
vn -0.8660254 0.4999999 0
vn 0.8660254 -0.4999999 0
vn 0 0.4999999 0.8660254
vn 0 -0.4999999 -0.8660254
vn 0.6546535 0.3779645 0.6546537
vn -0.6546535 -0.3779645 -0.6546537
vn -0.6546537 0.3779645 -0.6546535
vn 0.6546537 -0.3779645 0.6546535
vn 0 1 0
vn 0.6546537 0.3779645 -0.6546537
vn -0.6546537 -0.3779645 0.6546537
vn 0 0.4999999 -0.8660254
vn 0 -0.4999999 0.8660254
vn 0.8660254 0.4999999 0
vn -0.8660254 -0.4999999 0
vn 0 0 1
vn 1 0 0
vn -1 0 0
vn 0 0 -1
vn 0 -1 0

vt 16.46707 13.92603
vt 11.37178 13.92603
vt 13.91943 20.66647
vt -39.37008 17.04715
vt -39.37008 24.25297
vt -36.08924 13.77833
vt -32.8084 17.04715
vt 39.37008 24.25297
vt -26.24672 17.04715
vt -29.52756 13.77833
vt -19.68504 17.04715
vt -22.96588 13.77833
vt -13.12336 17.04715
vt -16.4042 13.77833
vt -6.561681 17.04715
vt -9.84252 13.77833
vt 4.429805E-14 17.04715
vt -3.280843 13.77833
vt 6.561681 17.04715
vt 3.28084 13.77833
vt 13.12336 17.04715
vt 9.84252 13.77833
vt 19.68504 17.04715
vt 16.4042 13.77833
vt 26.24672 17.04715
vt 22.96588 13.77833
vt 29.52756 13.77833
vt 32.8084 17.04715
vt 36.08924 13.77833
vt 39.37008 17.04715
vt 16.4042 3.935807
vt 13.12336 7.204627
vt 19.68504 7.204627
vt 19.68504 14.41045
vt 6.561681 7.204627
vt -9.955304E-15 7.204627
vt -6.561681 7.204627
vt -13.12336 7.204627
vt -19.68504 7.204627
vt -19.68504 14.41045
vt -16.4042 3.935807
vt -9.84252 3.935807
vt -3.280838 3.935807
vt 3.280838 3.935807
vt 9.84252 3.935807
vt -11.37178 13.92603
vt -16.46707 13.92603
vt -13.91942 20.66647
vt -11.37178 13.92603
vt -16.46707 13.92603
vt -13.91943 20.66647
vt -19.68504 39.37008
vt 19.68504 39.37008
vt -19.68504 -39.37008
vt 19.68504 -39.37008
vt 16.46707 13.92603
vt 11.37178 13.92603
vt 13.91943 20.66646
vt 16.4042 3.935807
vt -6.15691E-12 7.204627
vt -16.4042 3.935807
vt -9.84252 3.935807
vt -3.280838 3.935807
vt 3.280838 3.935807
vt 9.84252 3.935807
vt 36.08924 13.77833
vt 39.37008 24.25297
vt -39.37008 24.25297
vt 29.52756 13.77833
vt 22.96588 13.77833
vt 16.4042 13.77833
vt 9.84252 13.77833
vt 2.062419E-11 17.04715
vt 3.280843 13.77833
vt -3.28084 13.77833
vt -9.84252 13.77833
vt -16.4042 13.77833
vt -22.96588 13.77833
vt -29.52756 13.77833
vt -36.08924 13.77833
vt 19.68504 0
vt -19.68504 0
vt 39.37008 39.37008
vt 39.37008 -6.139089E-12
vt -39.37008 39.37008
vt -39.37008 -6.139089E-12
vt -39.37008 0
vt 39.37008 0
vt 19.68504 9.947598E-12
vt -19.68504 9.947598E-12

usemtl grass

f 3/3/1 2/2/1 1/1/1
f 1/1/2 2/2/2 3/3/2
f 6/6/3 5/5/3 4/4/3
f 5/5/3 6/6/3 7/7/3
f 5/5/3 7/7/3 3/8/3
f 3/8/3 7/7/3 8/9/3
f 8/9/3 7/7/3 9/10/3
f 3/8/3 8/9/3 10/11/3
f 10/11/3 8/9/3 11/12/3
f 3/8/3 10/11/3 12/13/3
f 12/13/3 10/11/3 13/14/3
f 3/8/3 12/13/3 14/15/3
f 14/15/3 12/13/3 15/16/3
f 3/8/3 14/15/3 16/17/3
f 16/17/3 14/15/3 17/18/3
f 3/8/3 16/17/3 18/19/3
f 18/19/3 16/17/3 19/20/3
f 3/8/3 18/19/3 20/21/3
f 20/21/3 18/19/3 21/22/3
f 3/8/3 20/21/3 22/23/3
f 22/23/3 20/21/3 23/24/3
f 3/8/3 22/23/3 24/25/3
f 24/25/3 22/23/3 25/26/3
f 3/8/3 24/25/3 26/27/3
f 3/8/3 26/27/3 27/28/3
f 3/8/3 27/28/3 28/29/3
f 3/8/3 28/29/3 2/30/3
f 4/4/4 5/5/4 6/6/4
f 7/7/4 6/6/4 5/5/4
f 3/8/4 7/7/4 5/5/4
f 8/9/4 7/7/4 3/8/4
f 9/10/4 7/7/4 8/9/4
f 10/11/4 8/9/4 3/8/4
f 11/12/4 8/9/4 10/11/4
f 12/13/4 10/11/4 3/8/4
f 13/14/4 10/11/4 12/13/4
f 14/15/4 12/13/4 3/8/4
f 15/16/4 12/13/4 14/15/4
f 16/17/4 14/15/4 3/8/4
f 17/18/4 14/15/4 16/17/4
f 18/19/4 16/17/4 3/8/4
f 19/20/4 16/17/4 18/19/4
f 20/21/4 18/19/4 3/8/4
f 21/22/4 18/19/4 20/21/4
f 22/23/4 20/21/4 3/8/4
f 23/24/4 20/21/4 22/23/4
f 24/25/4 22/23/4 3/8/4
f 25/26/4 22/23/4 24/25/4
f 26/27/4 24/25/4 3/8/4
f 27/28/4 26/27/4 3/8/4
f 28/29/4 27/28/4 3/8/4
f 2/30/4 28/29/4 3/8/4
f 31/33/5 30/32/5 29/31/5
f 30/32/5 31/33/5 32/34/5
f 30/32/5 32/34/5 33/35/5
f 33/35/5 32/34/5 34/36/5
f 34/36/5 32/34/5 35/37/5
f 35/37/5 32/34/5 36/38/5
f 36/38/5 32/34/5 1/39/5
f 1/39/5 32/34/5 3/40/5
f 1/39/5 37/41/5 36/38/5
f 36/38/5 38/42/5 35/37/5
f 35/37/5 39/43/5 34/36/5
f 34/36/5 40/44/5 33/35/5
f 33/35/5 41/45/5 30/32/5
f 29/31/6 30/32/6 31/33/6
f 32/34/6 31/33/6 30/32/6
f 33/35/6 32/34/6 30/32/6
f 34/36/6 32/34/6 33/35/6
f 35/37/6 32/34/6 34/36/6
f 36/38/6 32/34/6 35/37/6
f 1/39/6 32/34/6 36/38/6
f 3/40/6 32/34/6 1/39/6
f 36/38/6 37/41/6 1/39/6
f 35/37/6 38/42/6 36/38/6
f 34/36/6 39/43/6 35/37/6
f 33/35/6 40/44/6 34/36/6
f 30/32/6 41/45/6 33/35/6
f 32/48/7 31/47/7 42/46/7
f 42/46/8 31/47/8 32/48/8
f 5/51/9 43/50/9 4/49/9
f 4/49/10 43/50/10 5/51/10
f 44/54/11 3/53/11 32/52/11
f 3/53/11 44/54/11 5/55/11
f 44/58/12 46/57/12 45/56/12
f 45/56/13 46/57/13 44/58/13
f 43/33/14 48/32/14 47/59/14
f 48/32/14 43/33/14 5/34/14
f 48/32/14 5/34/14 49/35/14
f 49/35/14 5/34/14 50/60/14
f 50/60/14 5/34/14 51/37/14
f 51/37/14 5/34/14 52/38/14
f 52/38/14 5/34/14 45/39/14
f 45/39/14 5/34/14 44/40/14
f 45/39/14 53/61/14 52/38/14
f 52/38/14 54/62/14 51/37/14
f 51/37/14 55/63/14 50/60/14
f 50/60/14 56/64/14 49/35/14
f 49/35/14 57/65/14 48/32/14
f 47/59/15 48/32/15 43/33/15
f 5/34/15 43/33/15 48/32/15
f 49/35/15 5/34/15 48/32/15
f 50/60/15 5/34/15 49/35/15
f 51/37/15 5/34/15 50/60/15
f 52/38/15 5/34/15 51/37/15
f 45/39/15 5/34/15 52/38/15
f 44/40/15 5/34/15 45/39/15
f 52/38/15 53/61/15 45/39/15
f 51/37/15 54/62/15 52/38/15
f 50/60/15 55/63/15 51/37/15
f 49/35/15 56/64/15 50/60/15
f 48/32/15 57/65/15 49/35/15
f 44/67/16 58/66/16 46/30/16
f 58/66/16 44/67/16 59/28/16
f 59/28/16 44/67/16 32/68/16
f 59/28/16 32/68/16 60/25/16
f 59/28/16 60/25/16 61/69/16
f 60/25/16 32/68/16 62/23/16
f 60/25/16 62/23/16 63/70/16
f 62/23/16 32/68/16 64/21/16
f 62/23/16 64/21/16 65/71/16
f 64/21/16 32/68/16 66/19/16
f 64/21/16 66/19/16 67/72/16
f 66/19/16 32/68/16 68/73/16
f 66/19/16 68/73/16 69/74/16
f 68/73/16 32/68/16 70/15/16
f 68/73/16 70/15/16 71/75/16
f 70/15/16 32/68/16 72/13/16
f 70/15/16 72/13/16 73/76/16
f 72/13/16 32/68/16 74/11/16
f 72/13/16 74/11/16 75/77/16
f 74/11/16 32/68/16 76/9/16
f 74/11/16 76/9/16 77/78/16
f 76/9/16 32/68/16 78/79/16
f 78/79/16 32/68/16 79/7/16
f 79/7/16 32/68/16 80/80/16
f 80/80/16 32/68/16 42/4/16
f 46/30/17 58/66/17 44/67/17
f 59/28/17 44/67/17 58/66/17
f 32/68/17 44/67/17 59/28/17
f 60/25/17 32/68/17 59/28/17
f 61/69/17 60/25/17 59/28/17
f 62/23/17 32/68/17 60/25/17
f 63/70/17 62/23/17 60/25/17
f 64/21/17 32/68/17 62/23/17
f 65/71/17 64/21/17 62/23/17
f 66/19/17 32/68/17 64/21/17
f 67/72/17 66/19/17 64/21/17
f 68/73/17 32/68/17 66/19/17
f 69/74/17 68/73/17 66/19/17
f 70/15/17 32/68/17 68/73/17
f 71/75/17 70/15/17 68/73/17
f 72/13/17 32/68/17 70/15/17
f 73/76/17 72/13/17 70/15/17
f 74/11/17 32/68/17 72/13/17
f 75/77/17 74/11/17 72/13/17
f 76/9/17 32/68/17 74/11/17
f 77/78/17 76/9/17 74/11/17
f 78/79/17 32/68/17 76/9/17
f 79/7/17 32/68/17 78/79/17
f 80/80/17 32/68/17 79/7/17
f 42/4/17 32/68/17 80/80/17

usemtl dirt

f 32/53/18 82/82/18 81/81/18
f 82/82/18 32/53/18 3/52/18
f 32/85/19 83/84/19 44/83/19
f 83/84/19 32/85/19 81/86/19
f 82/88/20 5/85/20 84/87/20
f 5/85/20 82/88/20 3/83/20
f 5/53/21 83/90/21 84/89/21
f 83/90/21 5/53/21 44/52/21
f 82/52/22 83/55/22 81/53/22
f 83/55/22 82/52/22 84/54/22

