# Created by Kenney (www.kenney.nl)

mtllib blockCornerSmall.mtl

g blockCornerSmall

v -0.591514 0.8414931 -0.5
v -0.5 0.8414931 -0.591514
v -0.5 1 -0.5
v 0.5 1 0.5
v 0 1 0.5
v 0.5 1 -0.5
v -0.5 1 0
v -0.156565 0.7695886 0.531565
v -0.1897101 0.8414931 0.4397101
v -0.06471008 0.8414931 0.56471
v -0.3147101 0.8414931 0.3147101
v -0.4397101 0.8414931 0.1897101
v -0.56471 0.8414931 0.06471011
v -0.531565 0.7695886 0.156565
v -0.406565 0.7695886 0.281565
v -0.281565 0.7695886 0.406565
v 0.591514 0.8414931 -0.5
v 0.633028 0.7695886 -0.4166666
v 0.591514 0.8414931 -0.3333333
v 0.591514 0.8414931 -0.1666667
v 0.633028 0.7695886 -0.25
v 0.591514 0.8414931 0
v 0.633028 0.7695886 -0.08333331
v 0.591514 0.8414931 0.1666667
v 0.633028 0.7695886 0.08333331
v 0.633028 0.7695886 0.25
v 0.591514 0.8414931 0.3333333
v 0.633028 0.7695886 0.4166666
v 0.591514 0.8414931 0.5
v -0.591514 0.8414931 0
v 0.4166666 0.7695886 0.633028
v 0.3333333 0.8414931 0.591514
v 0.5 0.8414931 0.591514
v 0.1666667 0.8414931 0.591514
v 0 0.8414931 0.591514
v 0.08333325 0.7695886 0.633028
v 0.25 0.7695886 0.633028
v 0.5 0.8414931 -0.591514
v -0.4166666 0.7695886 -0.633028
v -0.3333333 0.8414931 -0.591514
v -0.1666667 0.8414931 -0.591514
v 0 0.8414931 -0.591514
v 0.1666667 0.8414931 -0.591514
v 0.3333333 0.8414931 -0.591514
v 0.4166666 0.7695886 -0.633028
v 0.25 0.7695886 -0.633028
v 0.08333325 0.7695886 -0.633028
v -0.08333331 0.7695886 -0.633028
v -0.25 0.7695886 -0.633028
v -0.633028 0.7695886 -0.4166666
v -0.591514 0.8414931 -0.3333333
v -0.633028 0.7695886 -0.25
v -0.591514 0.8414931 -0.1666667
v -0.633028 0.7695886 -0.08333331
v -0.5 0 -0.5
v 0.5 0 -0.5
v 0.5 0 0.5
v 0 0 0.5
v -0.5 0 0

vn -0.6546537 0.3779645 -0.6546535
vn 0.6546537 -0.3779645 0.6546535
vn 0 1 0
vn -0.6123725 0.4999999 0.6123725
vn 0.6123725 -0.4999999 -0.6123725
vn 0.8660254 0.4999999 0
vn -0.8660254 -0.4999999 0
vn -0.8151639 0.4706351 0.3376544
vn 0.8151639 -0.4706351 -0.3376544
vn 0 0.5 0.8660254
vn 0 -0.5 -0.8660254
vn 0.6546537 0.3779645 -0.6546537
vn -0.6546537 -0.3779645 0.6546537
vn 0 0.4999999 -0.8660254
vn 0 -0.4999999 0.8660254
vn 0.6546535 0.3779645 0.6546537
vn -0.6546535 -0.3779645 -0.6546537
vn -0.8660254 0.5 0
vn 0.8660254 -0.5 0
vn -0.3376544 0.4706351 0.8151639
vn 0.3376544 -0.4706351 -0.8151639
vn 0 0 -1
vn 0 0 1
vn -0.7071068 0 0.7071068
vn 1 0 0
vn 0 -1 0
vn -1 0 0

vt 2.547643 19.18708
vt -2.547647 19.18708
vt -1.521016E-06 25.92751
vt -19.68504 19.68504
vt 2.842171E-14 19.68504
vt -19.68504 -19.68504
vt 19.68504 -19.68504
vt 19.68504 1.421085E-14
vt 10.43957 16.66113
vt 6.959713 19.92995
vt 13.91942 19.92996
vt 13.91943 27.13578
vt -9.432455E-13 19.92995
vt -6.959713 19.92995
vt -13.91942 19.92996
vt -13.91943 27.13578
vt -10.43957 16.66113
vt -3.479856 16.66113
vt 3.479856 16.66113
vt 19.68504 17.04715
vt 16.4042 13.77833
vt 19.68504 24.25297
vt 13.12336 17.04715
vt -19.68504 24.25297
vt 6.561681 17.04715
vt 9.84252 13.77833
vt -3.111162E-12 17.04715
vt 3.280838 13.77833
vt -6.561681 17.04715
vt -3.280838 13.77833
vt -9.84252 13.77833
vt -13.12336 17.04715
vt -16.4042 13.77833
vt -19.68504 17.04715
vt -8.91197 19.10539
vt -7.533186 26.17808
vt -6.154419 19.10539
vt 16.4042 13.77832
vt 13.12336 17.04714
vt 19.68504 17.04714
vt 6.561681 17.04714
vt -4.225146E-15 17.04714
vt -7.968632E-15 24.25297
vt 3.280838 13.77832
vt 9.84252 13.77832
vt 2.547645 19.18708
vt -2.547645 19.18708
vt -4.217249E-11 25.92751
vt 16.4042 13.77833
vt -3.307987E-12 17.04715
vt -16.4042 13.77833
vt 2.547647 19.18708
vt -2.547643 19.18708
vt 1.521009E-06 25.92751
vt -19.68504 17.04714
vt -16.4042 13.77832
vt -13.12336 17.04714
vt -6.546751E-15 24.25297
vt -9.84252 13.77832
vt -6.561681 17.04714
vt -3.280838 13.77832
vt -1.034597E-14 17.04714
vt 8.91197 19.10539
vt 6.154419 19.10539
vt 7.533186 26.17808
vt 19.68504 4.973799E-12
vt -19.68504 4.973799E-12
vt 19.68504 39.37008
vt -19.68504 39.37008
vt 19.68504 0
vt -2.842171E-14 0
vt -2.842171E-14 39.37008
vt -13.91943 0
vt -13.91943 39.37008
vt 13.91943 0
vt 13.91943 39.37008
vt 19.68504 -4.604317E-12
vt -19.68504 -4.604317E-12
vt 19.68504 19.68504
vt -2.842171E-14 19.68504
vt -19.68504 1.421085E-14
vt -19.68504 0
vt 1.421085E-14 0
vt 1.421085E-14 39.37008

usemtl grass

f 3/3/1 2/2/1 1/1/1
f 1/1/2 2/2/2 3/3/2
f 6/6/3 5/5/3 4/4/3
f 5/5/3 6/6/3 3/7/3
f 5/5/3 3/7/3 7/8/3
f 10/11/4 9/10/4 8/9/4
f 9/10/4 10/11/4 5/12/4
f 9/10/4 5/12/4 11/13/4
f 11/13/4 5/12/4 12/14/4
f 12/14/4 5/12/4 13/15/4
f 13/15/4 5/12/4 7/16/4
f 13/15/4 14/17/4 12/14/4
f 12/14/4 15/18/4 11/13/4
f 11/13/4 16/19/4 9/10/4
f 8/9/5 9/10/5 10/11/5
f 5/12/5 10/11/5 9/10/5
f 11/13/5 5/12/5 9/10/5
f 12/14/5 5/12/5 11/13/5
f 13/15/5 5/12/5 12/14/5
f 7/16/5 5/12/5 13/15/5
f 12/14/5 14/17/5 13/15/5
f 11/13/5 15/18/5 12/14/5
f 9/10/5 16/19/5 11/13/5
f 6/22/6 18/21/6 17/20/6
f 18/21/6 6/22/6 19/23/6
f 19/23/6 6/22/6 4/24/6
f 19/23/6 4/24/6 20/25/6
f 19/23/6 20/25/6 21/26/6
f 20/25/6 4/24/6 22/27/6
f 20/25/6 22/27/6 23/28/6
f 22/27/6 4/24/6 24/29/6
f 22/27/6 24/29/6 25/30/6
f 24/29/6 4/24/6 26/31/6
f 26/31/6 4/24/6 27/32/6
f 27/32/6 4/24/6 28/33/6
f 28/33/6 4/24/6 29/34/6
f 17/20/7 18/21/7 6/22/7
f 19/23/7 6/22/7 18/21/7
f 4/24/7 6/22/7 19/23/7
f 20/25/7 4/24/7 19/23/7
f 21/26/7 20/25/7 19/23/7
f 22/27/7 4/24/7 20/25/7
f 23/28/7 22/27/7 20/25/7
f 24/29/7 4/24/7 22/27/7
f 25/30/7 24/29/7 22/27/7
f 26/31/7 4/24/7 24/29/7
f 27/32/7 4/24/7 26/31/7
f 28/33/7 4/24/7 27/32/7
f 29/34/7 4/24/7 28/33/7
f 13/37/8 7/36/8 30/35/8
f 30/35/9 7/36/9 13/37/9
f 33/40/10 32/39/10 31/38/10
f 32/39/10 33/40/10 4/22/10
f 32/39/10 4/22/10 34/41/10
f 34/41/10 4/22/10 35/42/10
f 35/42/10 4/22/10 5/43/10
f 35/42/10 36/44/10 34/41/10
f 34/41/10 37/45/10 32/39/10
f 31/38/11 32/39/11 33/40/11
f 4/22/11 33/40/11 32/39/11
f 34/41/11 4/22/11 32/39/11
f 35/42/11 4/22/11 34/41/11
f 5/43/11 4/22/11 35/42/11
f 34/41/11 36/44/11 35/42/11
f 32/39/11 37/45/11 34/41/11
f 6/48/12 17/47/12 38/46/12
f 38/46/13 17/47/13 6/48/13
f 2/20/14 40/23/14 39/49/14
f 40/23/14 2/20/14 3/22/14
f 40/23/14 3/22/14 41/25/14
f 41/25/14 3/22/14 42/50/14
f 42/50/14 3/22/14 43/29/14
f 43/29/14 3/22/14 44/32/14
f 44/32/14 3/22/14 38/34/14
f 38/34/14 3/22/14 6/24/14
f 38/34/14 45/51/14 44/32/14
f 44/32/14 46/31/14 43/29/14
f 43/29/14 47/30/14 42/50/14
f 42/50/14 48/28/14 41/25/14
f 41/25/14 49/26/14 40/23/14
f 39/49/15 40/23/15 2/20/15
f 3/22/15 2/20/15 40/23/15
f 41/25/15 3/22/15 40/23/15
f 42/50/15 3/22/15 41/25/15
f 43/29/15 3/22/15 42/50/15
f 44/32/15 3/22/15 43/29/15
f 38/34/15 3/22/15 44/32/15
f 6/24/15 3/22/15 38/34/15
f 44/32/15 45/51/15 38/34/15
f 43/29/15 46/31/15 44/32/15
f 42/50/15 47/30/15 43/29/15
f 41/25/15 48/28/15 42/50/15
f 40/23/15 49/26/15 41/25/15
f 4/54/16 33/53/16 29/52/16
f 29/52/17 33/53/17 4/54/17
f 50/56/18 3/24/18 1/55/18
f 3/24/18 50/56/18 51/57/18
f 3/24/18 51/57/18 7/58/18
f 7/58/18 51/57/18 52/59/18
f 7/58/18 52/59/18 53/60/18
f 7/58/18 53/60/18 54/61/18
f 7/58/18 54/61/18 30/62/18
f 1/55/19 3/24/19 50/56/19
f 51/57/19 50/56/19 3/24/19
f 7/58/19 51/57/19 3/24/19
f 52/59/19 51/57/19 7/58/19
f 53/60/19 52/59/19 7/58/19
f 54/61/19 53/60/19 7/58/19
f 30/62/19 54/61/19 7/58/19
f 5/65/20 10/64/20 35/63/20
f 35/63/21 10/64/21 5/65/21

usemtl dirt

f 3/68/22 56/67/22 55/66/22
f 56/67/22 3/68/22 6/69/22
f 4/68/23 58/71/23 57/70/23
f 58/71/23 4/68/23 5/72/23
f 58/75/24 7/74/24 59/73/24
f 7/74/24 58/75/24 5/76/24
f 4/69/25 56/77/25 6/68/25
f 56/77/25 4/69/25 57/78/25
f 58/80/26 56/7/26 57/79/26
f 56/7/26 58/80/26 55/6/26
f 55/6/26 58/80/26 59/81/26
f 59/83/27 3/69/27 55/82/27
f 3/69/27 59/83/27 7/84/27

