# Created by Kenney (www.kenney.nl)

mtllib blockSnowRoundedLarge.mtl

g blockSnowRoundedLarge

v 0.9 0.7 1
v -0.9 0.7 1
v 0.9 0.9 1
v -0.9 0.9 1
v 1 0.9 -0.9
v 1 0.7 -0.9
v 1 0.9 0.9
v 1 0.7 0.9
v -0.9 0.7 -1
v 0.9 0.7 -1
v -0.9 0.9 -1
v 0.9 0.9 -1
v -1 0.7 -0.9
v -1 0.9 -0.9
v -1 0.7 0.9
v -1 0.9 0.9
v 0.9 1 -0.9
v 0.9 1 0.9
v -0.9 1 -0.9
v -0.9 1 0.9
v 0.9 0.9499999 0.9866025
v -0.9 0.9499999 0.9866025
v 0.9 0.9866025 0.9499999
v -0.9 0.9866025 0.9499999
v 0.9499999 0.9866025 -0.9
v 0.9499999 0.9866025 0.9
v 0.9866025 0.9499999 -0.9
v 0.9866025 0.9499999 0.9
v -0.9499999 0.7 0.9866025
v -0.9866025 0.7 0.9499999
v -0.9499999 0.9 0.9866025
v -0.9866025 0.9 0.9499999
v 0.9 0.9499999 -0.9866025
v 0.9 0.9866025 -0.9499999
v -0.9 0.9499999 -0.9866025
v -0.9 0.9866025 -0.9499999
v -0.9866025 0.9499999 -0.9
v -0.9866025 0.9499999 0.9
v -0.9499999 0.9866025 -0.9
v -0.9499999 0.9866025 0.9
v 0.9866025 0.9 0.9499999
v 0.9866025 0.7 0.9499999
v 0.9866025 0.9 -0.9499999
v 0.9866025 0.7 -0.9499999
v -0.9499999 0.7 -0.9866025
v -0.9499999 0.9 -0.9866025
v -0.9866025 0.7 -0.9499999
v -0.9866025 0.9 -0.9499999
v 0.9499999 0.7 -0.9866025
v 0.9499999 0.9 -0.9866025
v 0.9499999 0.7 0.9866025
v 0.9499999 0.9 0.9866025
v 0.9433012 0.9499999 -0.9749999
v 0.925 0.9866025 0.9433012
v 0.9749999 0.9499999 0.9433012
v 0.9433012 0.9499999 0.975
v -0.925 0.9866025 0.9433012
v 0.9433012 0.9866025 0.925
v 0.9749999 0.9499999 -0.9433012
v 0.9433012 0.9866025 -0.925
v 0.925 0.9866025 -0.9433012
v -0.9433012 0.9499999 0.975
v -0.9433012 0.9866025 0.925
v -0.975 0.9499999 0.9433012
v -0.925 0.9866025 -0.9433012
v -0.9433012 0.9866025 -0.925
v -0.9433012 0.9499999 -0.9749999
v -0.975 0.9499999 -0.9433012
v 0.9 0 0.9
v 0.9 0 -0.9
v -0.9 0 0.9
v -0.9 0 -0.9
v -0.9 0.1 -1
v 0.9 0.1 -1
v 1 0.1 -0.9
v 1 0.1 0.9
v 0.9 0.1 1
v -0.9 0.1 1
v -1 0.1 -0.9
v -1 0.1 0.9
v 0.9499999 0.01339746 0.9
v 0.9499999 0.01339746 -0.9
v -0.9499999 0.01339746 0.9
v -0.9499999 0.01339746 -0.9
v -0.9866025 0.05 0.9
v -0.9866025 0.05 -0.9
v 0.9 0.01339746 -0.9499999
v -0.9 0.01339746 -0.9499999
v 0.9 0.05 -0.9866025
v -0.9 0.05 -0.9866025
v 0.9 0.05 0.9866025
v -0.9 0.05 0.9866025
v 0.9 0.01339746 0.9499999
v -0.9 0.01339746 0.9499999
v 0.9866025 0.05 -0.9
v 0.9866025 0.05 0.9
v 0.9499999 0.1 -0.9866025
v 0.9866025 0.1 -0.9499999
v -0.9499999 0.1 -0.9866025
v -0.9866025 0.1 -0.9499999
v 0.9499999 0.1 0.9866025
v 0.9866025 0.1 0.9499999
v -0.9499999 0.1 0.9866025
v 0.925 0.01339746 0.9433012
v -0.9866025 0.1 0.9499999
v 0.9433012 0.01339746 0.925
v 0.9749999 0.05 0.9433012
v 0.9433012 0.05 0.975
v -0.925 0.01339746 0.9433012
v -0.9433012 0.05 0.975
v -0.9433012 0.01339746 0.925
v -0.975 0.05 0.9433012
v -0.9433012 0.01339746 -0.925
v -0.925 0.01339746 -0.9433012
v -0.975 0.05 -0.9433012
v -0.9433012 0.05 -0.9749999
v 0.9433012 0.01339746 -0.925
v 0.925 0.01339746 -0.9433012
v 0.9749999 0.05 -0.9433012
v 0.9433012 0.05 -0.9749999

vn 0 0 1
vn 1 0 0
vn 0 0 -1
vn -1 0 0
vn 0 1 0
vn 0.1129214 0.4883322 0.865321
vn -0.1129214 0.4883322 0.865321
vn 0.06981172 0.8549294 0.5140254
vn -0.06981172 0.8549294 0.5140254
vn 0.5140254 0.8549294 -0.06981172
vn 0.5140254 0.8549294 0.06981172
vn 0.2179146 0.9722424 -0.08519387
vn 0.1453179 0.9786549 0.1453179
vn 0.865321 0.4883322 -0.1129214
vn 0.865321 0.4883322 0.1129214
vn 0.9585266 0.2568364 -0.1235385
vn 0.9585266 0.2568364 0.1235385
vn -0.08519387 0.9722424 0.2179146
vn 0.1235385 0.2568364 0.9585266
vn -0.1235385 0.2568364 0.9585266
vn -0.5 0 0.8660254
vn -0.8660254 0 0.5
vn 0 0.5 -0.8660254
vn 0 0.8660254 -0.5
vn -0.9659258 0.258819 0
vn -0.8660254 0.5 0
vn 0 0.258819 -0.9659258
vn -0.5 0.8660254 0
vn -0.258819 0 0.9659258
vn 0 0.9659258 -0.258819
vn -0.258819 0.9659258 0
vn -0.9659258 0 0.258819
vn 0.9659258 0 0.258819
vn 0.8660254 0 0.5
vn 0.8660254 0 -0.5
vn 0.9659258 0 -0.258819
vn -0.5 0 -0.8660254
vn -0.8660254 0 -0.5
vn -0.258819 0 -0.9659258
vn -0.9659258 0 -0.258819
vn 0.258819 0 -0.9659258
vn 0.5 0 -0.8660254
vn 0.5 0 0.8660254
vn 0.258819 0 0.9659258
vn 0.2505628 0.2505628 -0.9351131
vn 0.4829629 0.258819 -0.8365163
vn 0.2285087 0.4695798 -0.8528062
vn 0.4379916 0.4823416 -0.7586237
vn 0.2654499 0.8474345 0.4597727
vn 0.8365163 0.258819 0.4829629
vn 0.4829629 0.258819 0.8365163
vn 0.7586237 0.4823416 0.4379916
vn 0.4379916 0.4823416 0.7586237
vn -0.2654499 0.8474345 0.4597727
vn 0.4597727 0.8474345 0.2654499
vn 0.7586237 0.4823416 -0.4379916
vn 0.4597727 0.8474345 -0.2654499
vn 0.1408363 0.8389881 -0.5256083
vn 0.2654499 0.8474345 -0.4597727
vn 0.8365163 0.258819 -0.4829629
vn -0.4379916 0.4823416 0.7586237
vn -0.4597727 0.8474345 0.2654499
vn -0.7586237 0.4823416 0.4379916
vn -0.5256083 0.8389881 0.1408363
vn -0.8528062 0.4695798 0.2285087
vn -0.2654499 0.8474345 -0.4597727
vn -0.1731918 0.9695407 -0.1731918
vn -0.4597727 0.8474345 -0.2654499
vn -0.4829629 0.258819 0.8365163
vn -0.4829629 0.258819 -0.8365163
vn -0.2505628 0.2505628 -0.9351131
vn -0.4379916 0.4823416 -0.7586237
vn -0.2285087 0.4695798 -0.8528062
vn -0.1408363 0.8389881 -0.5256083
vn -0.5256083 0.8389881 -0.1408363
vn -0.9351131 0.2505628 0.2505628
vn -0.8365163 0.258819 0.4829629
vn -0.8365163 0.258819 -0.4829629
vn -0.7586237 0.4823416 -0.4379916
vn -0.8528062 0.4695798 -0.2285087
vn -0.9351131 0.2505628 -0.2505628
vn 0 -1 0
vn 0.5140254 -0.8549294 0.06981172
vn 0.5140254 -0.8549294 -0.06981172
vn 0.1453179 -0.9786549 0.1453179
vn 0.1453179 -0.9786549 -0.1453179
vn -0.5140254 -0.8549294 0.06981172
vn -0.5140254 -0.8549294 -0.06981172
vn -0.865321 -0.4883322 0.1129214
vn -0.865321 -0.4883322 -0.1129214
vn -0.9702645 -0.1711532 -0.1711532
vn -0.9585266 -0.2568364 0.1235385
vn 0.06981172 -0.8549294 -0.5140254
vn -0.1453179 -0.9786549 -0.1453179
vn -0.06981172 -0.8549294 -0.5140254
vn 0.1129214 -0.4883322 -0.865321
vn -0.1129214 -0.4883322 -0.865321
vn 0.1129214 -0.4883322 0.865321
vn -0.1129214 -0.4883322 0.865321
vn 0.1235385 -0.2568364 0.9585266
vn -0.1235385 -0.2568364 0.9585266
vn -0.1235385 -0.2568364 -0.9585266
vn 0.1711532 -0.1711532 -0.9702645
vn 0.06981172 -0.8549294 0.5140254
vn -0.06981172 -0.8549294 0.5140254
vn -0.1453179 -0.9786549 0.1453179
vn 0.865321 -0.4883322 -0.1129214
vn 0.865321 -0.4883322 0.1129214
vn 0.9702645 -0.1711532 -0.1711532
vn 0.9585266 -0.2568364 0.1235385
vn 0.4958982 -0.1278264 -0.858921
vn 0.858921 -0.1278264 -0.4958982
vn -0.858921 -0.1278264 -0.4958982
vn 0.2654499 -0.8474345 0.4597727
vn 0.4597727 -0.8474345 0.2654499
vn 0.7586237 -0.4823416 0.4379916
vn 0.4379916 -0.4823416 0.7586237
vn 0.4829629 -0.258819 0.8365163
vn 0.8365163 -0.258819 0.4829629
vn -0.2654499 -0.8474345 0.4597727
vn -0.4379916 -0.4823416 0.7586237
vn -0.4597727 -0.8474345 0.2654499
vn -0.7586237 -0.4823416 0.4379916
vn -0.4829629 -0.258819 0.8365163
vn -0.8365163 -0.258819 0.4829629
vn -0.4597727 -0.8474345 -0.2654499
vn -0.2654499 -0.8474345 -0.4597727
vn -0.7586237 -0.4823416 -0.4379916
vn -0.4829629 -0.258819 -0.8365163
vn -0.4379916 -0.4823416 -0.7586237
vn 0.4597727 -0.8474345 -0.2654499
vn 0.2654499 -0.8474345 -0.4597727
vn 0.7586237 -0.4823416 -0.4379916
vn 0.4379916 -0.4823416 -0.7586237

vt 35.43307 27.55906
vt -35.43307 27.55906
vt 35.43307 35.43307
vt -35.43307 35.43307
vt -35.43307 -35.43307
vt 35.43307 -35.43307
vt 35.43307 -1.018973
vt -35.43307 -1.018973
vt 35.43307 1.018973
vt -35.43307 1.018973
vt 35.43307 -26.07394
vt -35.43307 -26.07394
vt 35.43307 -24.03599
vt -35.43307 -24.03599
vt 35.43307 26.07394
vt 35.43307 24.03599
vt -35.43307 26.07394
vt -35.43307 24.03599
vt 1.018973 27.55906
vt -1.018973 27.55906
vt 1.018973 35.43307
vt -1.018973 35.43307
vt -24.03599 27.55906
vt -26.07394 27.55906
vt -24.03599 35.43307
vt -26.07394 35.43307
vt 24.03599 27.55906
vt 24.03599 35.43307
vt 26.07394 27.55906
vt 26.07394 35.43307
vt -24.03599 22.47637
vt -26.07394 22.47637
vt -24.17251 24.50974
vt -25.93742 24.50974
vt 25.05496 -31.29343
vt 25.56445 -33.26666
vt 24.54548 -33.26666
vt 1.018973 20.79423
vt -1.018973 20.79423
vt 0.8824562 22.8276
vt -0.8824562 22.8276
vt -25.05496 -31.29343
vt -24.54548 -33.26666
vt -25.56445 -33.26666
vt 26.07394 22.47637
vt 24.03599 22.47637
vt 25.93742 24.50974
vt 24.17251 24.50974
vt 0.8824562 -10.20051
vt -0.8824562 -10.20051
vt 0.5094863 -8.196981
vt -0.5094863 -8.196981
vt 25.93742 -5.536355
vt 24.17251 -5.536355
vt 25.56445 -3.532829
vt 24.54548 -3.532829
vt -24.54548 -3.532829
vt -24.17251 -5.536355
vt -25.56445 -3.532829
vt -25.93742 -5.536355
vt 0.5094863 -39.73582
vt -0.5094863 -39.73582
vt 1.46283E-12 -37.76259
vt -4.769518E-13 -37.76259
vt -1.466383E-12 -37.76259
vt 4.760636E-13 -37.76259
vt 35.43307 3.937008
vt -35.43307 3.937008
vt -35.43307 36.26366
vt 35.43307 36.26366
vt -35.43307 34.22572
vt 35.43307 34.22572
vt 35.43307 26.81988
vt -35.43307 26.81988
vt 35.43307 28.85782
vt -35.43307 28.85782
vt -35.43307 11.95464
vt -35.43307 13.99258
vt 35.43307 11.95464
vt 35.43307 13.99258
vt -24.03599 3.937008
vt -26.07394 3.937008
vt 1.018973 3.937008
vt -1.018973 3.937008
vt 26.07394 3.937008
vt 24.03599 3.937008
vt 24.54548 43.79057
vt 25.56445 43.79057
vt 25.05496 41.81733
vt -0.5094863 50.25973
vt 0.5094863 50.25973
vt -4.618528E-13 48.2865
vt 0.8824562 38.51762
vt 0.5094863 36.51409
vt -0.8824562 38.51762
vt -0.5094863 36.51409
vt 25.93742 13.60445
vt 24.17251 13.60445
vt 26.07394 15.63782
vt 24.03599 15.63782
vt 0.8824562 15.28659
vt -0.8824562 15.28659
vt 1.018973 17.31996
vt -1.018973 17.31996
vt -24.03599 15.63782
vt -24.17251 13.60445
vt -26.07394 15.63782
vt -25.93742 13.60445
vt -24.54548 31.84994
vt -25.56445 31.84994
vt -24.17251 33.85347
vt -25.93742 33.85347
vt 4.616307E-13 48.2865
vt 25.56445 31.84994
vt 24.54548 31.84994
vt 25.93742 33.85347
vt 24.17251 33.85347
vt -25.56445 43.79057
vt -24.54548 43.79057
vt -25.05496 41.81733
vt 1.45306E-12 48.2865
vt -1.435518E-12 48.2865

usemtl snow

f 3/3/1 2/2/1 1/1/1
f 2/2/1 3/3/1 4/4/1
f 7/4/2 6/1/2 5/3/2
f 6/1/2 7/4/2 8/2/2
f 11/3/3 10/2/3 9/1/3
f 10/2/3 11/3/3 12/4/3
f 15/1/4 14/4/4 13/2/4
f 14/4/4 15/1/4 16/3/4
f 19/6/5 18/4/5 17/5/5
f 18/4/5 19/6/5 20/3/5
f 23/9/8 22/8/7 21/7/6
f 22/8/7 23/9/8 24/10/9
f 17/13/12 26/12/11 25/11/10
f 26/12/11 17/13/12 18/14/13
f 26/10/11 27/7/14 25/9/10
f 27/7/14 26/10/11 28/8/15
f 28/17/15 5/16/16 27/15/14
f 5/16/16 28/17/15 7/18/17
f 20/14/18 23/11/8 18/13/13
f 23/11/8 20/14/18 24/12/9
f 21/15/6 4/18/20 3/16/19
f 4/18/20 21/15/6 22/17/7
f 31/21/21 30/20/22 29/19/21
f 30/20/22 31/21/21 32/22/22
f 35/7/23 34/10/24 33/8/23
f 34/10/24 35/7/23 36/9/24
f 16/16/25 37/17/26 14/18/25
f 37/17/26 16/16/25 38/15/26
f 35/15/23 12/18/27 11/16/27
f 12/18/27 35/15/23 33/17/23
f 38/7/26 39/10/28 37/8/26
f 39/10/28 38/7/26 40/9/28
f 4/25/29 29/24/21 2/23/29
f 29/24/21 4/25/29 31/26/21
f 36/11/24 17/14/30 34/12/24
f 17/14/30 36/11/24 19/13/30
f 39/12/28 20/13/31 19/14/31
f 20/13/31 39/12/28 40/11/28
f 30/29/22 16/28/32 15/27/32
f 16/28/32 30/29/22 32/30/22
f 41/26/34 8/23/33 7/25/33
f 8/23/33 41/26/34 42/24/34
f 5/28/36 44/29/35 43/30/35
f 44/29/35 5/28/36 6/27/36
f 47/19/38 46/22/37 45/20/37
f 46/22/37 47/19/38 48/21/38
f 46/30/37 9/27/39 45/29/37
f 9/27/39 46/30/37 11/28/39
f 13/23/40 48/26/38 47/24/38
f 48/26/38 13/23/40 14/25/40
f 12/25/41 49/24/42 10/23/41
f 49/24/42 12/25/41 50/26/42
f 41/21/34 51/20/43 42/19/34
f 51/20/43 41/21/34 52/22/43
f 43/22/35 49/19/42 50/21/42
f 49/19/42 43/22/35 44/20/35
f 52/30/43 1/27/44 51/29/43
f 1/27/44 52/30/43 3/28/44
f 33/33/47 50/32/46 12/31/45
f 50/32/46 33/33/47 53/34/48
f 23/37/8 54/36/49 18/35/13
f 55/40/52 52/39/51 41/38/50
f 52/39/51 55/40/52 56/41/53
f 57/44/54 24/43/9 20/42/18
f 56/47/53 3/46/19 52/45/51
f 3/46/19 56/47/53 21/48/6
f 58/51/55 56/50/53 55/49/52
f 56/50/53 58/51/55 54/52/49
f 18/42/13 58/44/55 26/43/11
f 60/55/57 27/54/14 59/53/56
f 27/54/14 60/55/57 25/56/10
f 58/59/55 28/58/15 26/57/11
f 28/58/15 58/59/55 55/60/52
f 17/42/12 61/44/59 34/43/58
f 17/63/12 60/62/57 61/61/59
f 53/40/48 43/39/60 50/38/46
f 43/39/60 53/40/48 59/41/56
f 34/57/58 53/60/48 33/58/47
f 53/60/48 34/57/58 61/59/59
f 59/47/56 5/46/16 43/45/60
f 5/46/16 59/47/56 27/48/14
f 53/49/48 60/52/57 59/50/56
f 60/52/57 53/49/48 61/51/59
f 18/64/13 54/62/49 58/61/55
f 24/57/9 62/60/61 22/58/7
f 62/60/61 24/57/9 57/59/54
f 17/35/12 25/37/10 60/36/57
f 54/55/49 21/54/6 56/53/53
f 21/54/6 54/55/49 23/56/8
f 55/34/52 7/31/17 28/33/15
f 7/31/17 55/34/52 41/32/50
f 40/56/64 64/53/63 63/55/62
f 64/53/63 40/56/64 38/54/65
f 66/61/68 19/65/67 65/62/66
f 22/33/7 31/32/69 4/31/20
f 31/32/69 22/33/7 62/34/61
f 67/47/72 11/46/71 46/45/70
f 11/46/71 67/47/72 35/48/73
f 40/37/64 63/36/62 20/35/18
f 65/36/66 19/35/67 36/37/74
f 39/43/75 19/42/67 66/44/68
f 32/45/77 38/48/65 16/46/76
f 38/48/65 32/45/77 64/47/63
f 63/62/62 57/61/54 20/66/18
f 48/38/78 67/41/72 46/39/70
f 67/41/72 48/38/78 68/40/79
f 67/50/72 66/51/68 65/52/66
f 66/51/68 67/50/72 68/49/79
f 65/55/66 35/54/73 67/53/72
f 35/54/73 65/55/66 36/56/74
f 37/58/80 66/59/68 68/60/79
f 66/59/68 37/58/80 39/57/75
f 62/40/61 32/39/77 31/38/69
f 32/39/77 62/40/61 64/41/63
f 14/31/81 68/34/79 48/32/78
f 68/34/79 14/31/81 37/33/80
f 63/52/62 62/49/61 57/51/54
f 62/49/61 63/52/62 64/50/63

usemtl dirt

f 71/4/82 70/6/82 69/3/82
f 70/6/82 71/4/82 72/5/82
f 9/1/3 74/68/3 73/67/3
f 74/68/3 9/1/3 10/2/3
f 8/2/2 75/67/2 6/1/2
f 75/67/2 8/2/2 76/68/2
f 1/1/1 78/68/1 77/67/1
f 78/68/1 1/1/1 2/2/1
f 80/67/4 13/2/4 79/68/4
f 13/2/4 80/67/4 15/1/4
f 69/71/85 82/70/84 81/69/83
f 82/70/84 69/71/85 70/72/86
f 85/75/89 84/74/88 83/73/87
f 84/74/88 85/75/89 86/76/90
f 85/79/89 79/78/91 86/77/90
f 79/78/91 85/79/89 80/80/92
f 72/72/94 87/69/93 70/71/86
f 87/69/93 72/72/94 88/70/95
f 88/73/95 89/76/96 87/74/93
f 89/76/96 88/73/95 90/75/97
f 77/80/100 92/77/99 91/79/98
f 92/77/99 77/80/100 78/78/101
f 73/80/102 89/77/96 90/79/97
f 89/77/96 73/80/102 74/78/103
f 94/69/105 69/72/85 93/70/104
f 69/72/85 94/69/105 71/71/106
f 83/70/87 72/71/94 71/72/106
f 72/71/94 83/70/87 84/69/88
f 91/75/98 94/74/105 93/73/104
f 94/74/105 91/75/98 92/76/99
f 96/76/108 82/73/84 95/75/107
f 82/73/84 96/76/108 81/74/83
f 76/78/110 95/79/107 75/80/109
f 95/79/107 76/78/110 96/77/108
f 10/23/41 97/82/111 74/81/103
f 97/82/111 10/23/41 49/24/42
f 44/20/35 97/83/111 49/19/42
f 97/83/111 44/20/35 98/84/112
f 6/27/36 98/85/112 44/29/35
f 98/85/112 6/27/36 75/86/109
f 100/83/113 45/20/37 99/84/37
f 45/20/37 100/83/113 47/19/38
f 79/81/91 47/24/38 100/82/113
f 47/24/38 79/81/91 13/23/40
f 45/29/37 73/86/39 99/85/37
f 73/86/39 45/29/37 9/27/39
f 51/29/43 77/86/44 101/85/43
f 77/86/44 51/29/43 1/27/44
f 42/19/34 101/84/43 102/83/34
f 101/84/43 42/19/34 51/20/43
f 42/24/34 76/81/33 8/23/33
f 76/81/33 42/24/34 102/82/34
f 2/23/29 103/82/21 78/81/29
f 103/82/21 2/23/29 29/24/21
f 69/89/85 104/88/114 93/87/104
f 105/85/22 15/27/32 80/86/32
f 15/27/32 105/85/22 30/29/22
f 69/92/85 106/91/115 104/90/114
f 108/95/117 106/94/115 107/93/116
f 106/94/115 108/95/117 104/96/114
f 101/99/118 91/98/98 108/97/117
f 91/98/98 101/99/118 77/100/100
f 102/103/119 108/102/117 107/101/116
f 108/102/117 102/103/119 101/104/118
f 102/107/119 96/106/108 76/105/110
f 96/106/108 102/107/119 107/108/116
f 92/111/99 109/110/120 94/109/105
f 109/110/120 92/111/99 110/112/121
f 111/90/122 71/113/106 109/91/120
f 110/93/121 111/96/122 109/94/120
f 111/96/122 110/93/121 112/95/123
f 112/116/123 83/115/87 111/114/122
f 83/115/87 112/116/123 85/117/89
f 108/116/117 93/115/104 104/114/114
f 93/115/104 108/116/117 91/117/98
f 69/120/85 81/119/83 106/118/115
f 107/112/116 81/109/83 96/111/108
f 81/109/83 107/112/116 106/110/115
f 29/19/21 105/84/22 103/83/21
f 105/84/22 29/19/21 30/20/22
f 78/105/101 110/108/121 92/106/99
f 110/108/121 78/105/101 103/107/124
f 103/103/124 112/102/123 110/101/121
f 112/102/123 103/103/124 105/104/125
f 112/97/123 80/100/92 85/98/89
f 80/100/92 112/97/123 105/99/125
f 83/87/87 71/89/106 111/88/122
f 84/119/88 113/118/126 72/120/94
f 109/118/120 71/120/106 94/119/105
f 114/88/127 88/87/95 72/89/94
f 115/108/128 79/105/91 100/107/113
f 79/105/91 115/108/128 86/106/90
f 116/102/130 100/103/113 99/104/129
f 100/103/113 116/102/130 115/101/128
f 113/110/126 86/111/90 115/112/128
f 86/111/90 113/110/126 84/109/88
f 99/99/129 90/98/97 116/97/130
f 90/98/97 99/99/129 73/100/102
f 70/121/86 118/91/132 117/90/131
f 113/94/126 116/95/130 114/96/127
f 116/95/130 113/94/126 115/93/128
f 117/96/131 120/93/134 119/95/133
f 120/93/134 117/96/131 118/94/132
f 89/111/96 118/110/132 87/109/93
f 118/110/132 89/111/96 120/112/134
f 116/116/130 88/115/95 114/114/127
f 88/115/95 116/116/130 90/117/97
f 70/89/86 117/88/131 82/87/84
f 87/119/93 118/118/132 70/120/86
f 95/117/107 117/114/131 119/116/133
f 117/114/131 95/117/107 82/115/84
f 113/91/126 114/90/127 72/122/94
f 75/100/109 119/97/133 98/99/112
f 119/97/133 75/100/109 95/98/107
f 74/105/103 120/108/134 89/106/96
f 120/108/134 74/105/103 97/107/111
f 98/104/112 120/101/134 97/103/111
f 120/101/134 98/104/112 119/102/133

