# Created by Kenney (www.kenney.nl)

mtllib blockSnowCurveLow.mtl

g blockSnowCurveLow

v -0.7892927 5.639933E-18 -0.5
v -0.7071068 0.1071068 -0.5
v -0.7892927 5.639933E-18 0.5
v -0.7071068 0.1071068 0.5
v -0.6010408 0.001040764 -0.5
v -0.6018394 8.812395E-20 -0.5
v -0.6010408 0.001040764 -0.4
v -0.6018394 2.156419E-18 -0.4
v -0.6018394 0 0.5
v -0.6018394 3.648651E-18 0.4
v 0.7071068 0.1071068 -0.5
v 0.7071068 0.1071068 0.5
v 0.5 0.2660254 -0.5
v 0.5 0.2660254 0.5
v 0.425 0.1361216 0.5
v 0.425 0.1361216 0.4
v 0.2199962 0.2210369 0.5
v 0.2199962 0.2210369 0.4
v 0 0.25 0.5
v 0 0.25 0.4
v -0.2199962 0.2210369 0.5
v -0.2199962 0.2210369 0.4
v -0.425 0.1361216 0.5
v -0.425 0.1361216 0.4
v -0.6010408 0.001040764 0.5
v -0.6010408 0.001040764 0.4
v -0.5 0.2660254 -0.5
v -0.5 0.2660254 0.5
v -0.258819 0.3659258 -0.5
v -0.258819 0.3659258 0.5
v 0 0.4 -0.5
v 0 0.4 0.5
v 0.2588191 0.3659258 -0.5
v 0.2588191 0.3659258 0.5
v 0.7892927 0 -0.5
v 0.7892927 0 0.5
v 0.6018393 5.378179E-18 0.4
v 0.6010408 0.001040764 0.4
v 0.6018393 2.255973E-17 0.5
v 0.6010408 0.001040764 0.5
v 0.425 0.1361216 -0.4
v 0.425 0.1361216 -0.5
v 0.2199962 0.2210369 -0.4
v 0.2199962 0.2210369 -0.5
v -0.425 0.1361216 -0.4
v -0.425 0.1361216 -0.5
v 0.6018393 1.127987E-17 -0.5
v 0.6010408 0.001040764 -0.5
v 0.6018393 3.885947E-18 -0.4
v 0.6010408 0.001040764 -0.4
v 0 0.25 -0.4
v 0 0.25 -0.5
v -0.2199962 0.2210369 -0.4
v -0.2199962 0.2210369 -0.5

vn -0.7933533 0.6087614 0
vn -0.7071068 0.7071068 0
vn 0.7071068 -0.7071068 0
vn 0.7933533 -0.6087614 0
vn 0 -1 0
vn 0.7071068 0.7071068 0
vn 0.5 0.8660254 0
vn -0.5 -0.8660254 0
vn -0.258819 -0.9659258 0
vn 0.258819 -0.9659258 0
vn 0.5 -0.8660254 0
vn -0.5 0.8660254 0
vn -0.258819 0.9659258 0
vn 0 1 0
vn 0.258819 0.9659258 0
vn 0.7933533 0.6087614 0
vn -0.7933533 -0.6087614 0
vn -0.7071068 -0.7071068 0
vn 0 0 -1
vn 0 0 1

vt -19.68504 -18.91697
vt -19.68504 -13.6018
vt 19.68504 -18.91697
vt 19.68504 -13.6018
vt 19.68504 -14.37263
vt 19.68504 -14.42428
vt 15.74803 -14.37263
vt 15.74803 -14.42428
vt -23.69446 19.68504
vt -23.69446 15.74803
vt -31.07452 19.68504
vt -23.69446 -15.74803
vt -31.07452 -19.68504
vt -23.69446 -19.68504
vt 19.68504 -19.51902
vt -19.68504 -19.51902
vt 19.68504 -9.241364
vt -19.68504 -9.241364
vt 19.68504 -13.40777
vt 15.74803 -13.40777
vt 19.68504 -4.671763
vt 15.74803 -4.671763
vt 19.68504 -7.451298
vt 15.74803 -7.451298
vt 19.68504 1.284707
vt 15.74803 1.284707
vt -19.68504 1.284707
vt -15.74803 1.284707
vt -19.68504 -7.451298
vt -15.74803 -7.451298
vt -19.68504 -4.671763
vt -15.74803 -4.671763
vt -19.68504 -13.40777
vt -15.74803 -13.40777
vt -19.68504 -10.01219
vt -15.74803 -10.01219
vt -19.68504 -18.74819
vt -15.74803 -18.74819
vt -15.74803 -14.37263
vt -15.74803 -14.42428
vt -19.68504 -14.37263
vt -19.68504 -14.42428
vt -19.68504 -3.90094
vt 19.68504 -3.90094
vt -19.68504 -14.17859
vt 19.68504 -14.17859
vt -19.68504 2.055531
vt 19.68504 2.055531
vt -19.68504 -8.222122
vt 19.68504 -8.222122
vt 19.68504 -18.74819
vt 15.74803 -18.74819
vt 19.68504 -10.01219
vt 15.74803 -10.01219
vt 23.69446 3.469447E-18
vt 23.66302 0.04097496
vt 31.07452 2.220446E-16
vt 27.83885 4.216803
vt 16.73228 5.359118
vt 19.68504 10.47344
vt 8.661267 8.702242
vt 0 9.84252
vt -19.68504 10.47344
vt -8.661267 8.702242
vt -16.73228 5.359118
vt -27.83885 4.216803
vt -23.66302 0.04097496
vt -23.69446 4.440892E-16
vt -31.07452 0
vt 10.18973 14.40653
vt -10.18973 14.40653
vt 0 15.74803
vt 31.07452 19.68504
vt 31.07452 -19.68504
vt 23.69446 19.68504
vt 23.69446 -19.68504
vt 23.69446 15.74803
vt 23.69446 -15.74803
vt 31.07452 0
vt 23.69446 8.881784E-16
vt -31.07452 2.220446E-16
vt -23.69446 0
vt -23.69446 1.436477E-16
vt 23.69446 2.117393E-16
vt 23.69446 8.489838E-17
vt -23.69446 1.5299E-16

usemtl snow

f 3/3/1 2/2/2 1/1/1
f 2/2/2 3/3/1 4/4/2
f 7/7/3 6/6/4 5/5/3
f 6/6/4 7/7/3 8/8/4
f 3/11/5 10/10/5 9/9/5
f 10/10/5 3/11/5 8/12/5
f 1/13/5 8/12/5 3/11/5
f 8/12/5 1/13/5 6/14/5
f 13/17/7 12/16/6 11/15/6
f 12/16/6 13/17/7 14/18/7
f 17/21/9 16/20/8 15/19/8
f 16/20/8 17/21/9 18/22/9
f 19/25/5 18/24/9 17/23/9
f 18/24/9 19/25/5 20/26/5
f 21/29/10 20/28/5 19/27/5
f 20/28/5 21/29/10 22/30/10
f 23/33/11 22/32/10 21/31/10
f 22/32/10 23/33/11 24/34/11
f 25/37/3 24/36/11 23/35/11
f 24/36/11 25/37/3 26/38/3
f 25/41/3 10/40/4 26/39/3
f 10/40/4 25/41/3 9/42/4
f 2/16/2 28/17/12 27/18/12
f 28/17/12 2/16/2 4/15/2
f 27/45/12 30/44/13 29/43/13
f 30/44/13 27/45/12 28/46/12
f 29/49/13 32/48/14 31/47/14
f 32/48/14 29/49/13 30/50/13
f 31/48/14 34/49/15 33/50/15
f 34/49/15 31/48/14 32/47/14
f 12/2/6 35/3/16 11/4/6
f 35/3/16 12/2/6 36/1/16
f 33/44/15 14/45/7 13/46/7
f 14/45/7 33/44/15 34/43/15
f 39/6/17 38/7/18 37/8/17
f 38/7/18 39/6/17 40/5/18
f 15/53/8 38/52/18 40/51/18
f 38/52/18 15/53/8 16/54/8
f 43/32/9 42/33/8 41/34/8
f 42/33/8 43/32/9 44/31/9
f 7/52/3 46/53/11 45/54/11
f 46/53/11 7/52/3 5/51/3
f 49/40/17 48/41/18 47/42/17
f 48/41/18 49/40/17 50/39/18
f 51/28/5 44/29/9 43/30/9
f 44/29/9 51/28/5 52/27/5
f 45/20/11 54/21/10 53/22/10
f 54/21/10 45/20/11 46/19/11
f 41/36/8 48/37/18 50/38/18
f 48/37/18 41/36/8 42/35/8
f 53/24/10 52/25/5 51/26/5
f 52/25/5 53/24/10 54/23/10
f 1/57/19 5/56/19 6/55/19
f 5/56/19 1/57/19 2/58/19
f 5/56/19 2/58/19 46/59/19
f 46/59/19 2/58/19 27/60/19
f 46/59/19 27/60/19 54/61/19
f 54/61/19 27/60/19 52/62/19
f 13/63/19 52/62/19 27/60/19
f 13/63/19 44/64/19 52/62/19
f 13/63/19 42/65/19 44/64/19
f 11/66/19 42/65/19 13/63/19
f 11/66/19 48/67/19 42/65/19
f 11/66/19 47/68/19 48/67/19
f 47/68/19 11/66/19 35/69/19
f 13/63/19 27/60/19 29/70/19
f 13/63/19 29/70/19 33/71/19
f 33/71/19 29/70/19 31/72/19
f 39/75/5 35/74/5 36/73/5
f 35/74/5 39/75/5 47/76/5
f 47/76/5 39/75/5 37/77/5
f 47/76/5 37/77/5 49/78/5
f 12/58/20 39/80/20 36/79/20
f 39/80/20 12/58/20 40/56/20
f 40/56/20 12/58/20 15/59/20
f 15/59/20 12/58/20 14/60/20
f 15/59/20 14/60/20 17/61/20
f 17/61/20 14/60/20 19/62/20
f 19/62/20 14/60/20 28/63/20
f 28/63/20 14/60/20 30/71/20
f 30/71/20 14/60/20 34/70/20
f 30/71/20 34/70/20 32/72/20
f 28/63/20 21/64/20 19/62/20
f 28/63/20 23/65/20 21/64/20
f 4/66/20 23/65/20 28/63/20
f 4/66/20 25/67/20 23/65/20
f 3/81/20 25/67/20 4/66/20
f 25/67/20 3/81/20 9/82/20

usemtl dirt

f 37/84/20 26/67/20 10/83/20
f 26/67/20 37/84/20 38/56/20
f 26/67/20 38/56/20 16/59/20
f 26/67/20 16/59/20 24/65/20
f 24/65/20 16/59/20 22/64/20
f 22/64/20 16/59/20 18/61/20
f 22/64/20 18/61/20 20/62/20
f 10/10/5 49/78/5 37/77/5
f 49/78/5 10/10/5 8/12/5
f 7/56/19 49/86/19 8/85/19
f 49/86/19 7/56/19 50/67/19
f 50/67/19 7/56/19 41/65/19
f 41/65/19 7/56/19 45/59/19
f 41/65/19 45/59/19 53/61/19
f 41/65/19 53/61/19 43/64/19
f 43/64/19 53/61/19 51/62/19

