# Created by Kenney (www.kenney.nl)

mtllib blockSnowLong.mtl

g blockSnowLong

v 0.591514 0.8414931 -1
v 0.5990837 0.828382 -0.9600084
v 0.5 1 -1
v 0.5 1 1
v 0.569324 0.8799272 -0.3352914
v 0.6053224 0.8175765 -0.9191079
v 0.6102027 0.8091233 -0.8774755
v 0.5728252 0.8738629 -0.3774755
v 0.613704 0.803059 -0.8352914
v 0.6158106 0.79941 -0.7927382
v 0.5777057 0.8654098 -0.4191079
v 0.616514 0.7981918 -0.75
v 0.6158106 0.79941 -0.7072618
v 0.613704 0.803059 -0.6647086
v 0.5839443 0.8546042 -0.4600084
v 0.6102027 0.8091233 -0.6225245
v 0.6053224 0.8175765 -0.5808921
v 0.5990837 0.828382 -0.5399916
v 0.591514 0.8414931 -0.5
v 0.5672172 0.8835763 -0.2927382
v 0.566514 0.8847944 -0.25
v 0.5672172 0.8835763 -0.2072618
v 0.569324 0.8799272 -0.1647087
v 0.5728252 0.8738629 -0.1225245
v 0.5777057 0.8654098 -0.08089209
v 0.5839443 0.8546042 -0.03999168
v 0.5990837 0.828382 0.03999162
v 0.6053224 0.8175765 0.08089212
v 0.6102027 0.8091233 0.1225245
v 0.613704 0.803059 0.1647086
v 0.6158106 0.79941 0.2072618
v 0.616514 0.7981918 0.25
v 0.6158106 0.79941 0.2927382
v 0.613704 0.803059 0.3352914
v 0.6102027 0.8091233 0.3774755
v 0.6053224 0.8175765 0.4191079
v 0.5839443 0.8546042 0.5399916
v 0.5990837 0.828382 0.4600084
v 0.591514 0.8414931 0.5
v 0.5777057 0.8654098 0.5808921
v 0.5728252 0.8738629 0.6225245
v 0.569324 0.8799272 0.6647086
v 0.5672172 0.8835763 0.7072618
v 0.566514 0.8847944 0.75
v 0.5672172 0.8835763 0.7927382
v 0.569324 0.8799272 0.8352913
v 0.5728252 0.8738629 0.8774755
v 0.5777057 0.8654098 0.9191079
v 0.5839443 0.8546042 0.9600083
v 0.591514 0.8414931 1
v -0.591514 0.8414931 -1
v -0.5 1 -1
v -0.583944 0.8546042 -0.9600084
v -0.577706 0.8654098 -0.9191079
v -0.572825 0.8738629 -0.8774755
v -0.569324 0.8799272 -0.8352914
v -0.567217 0.8835763 -0.7927382
v -0.5 1 1
v -0.566514 0.8847944 -0.75
v -0.567217 0.8835763 -0.7072618
v -0.569324 0.8799272 -0.6647086
v -0.572825 0.8738629 -0.6225245
v -0.577706 0.8654098 -0.5808921
v -0.583944 0.8546042 -0.5399916
v -0.599084 0.828382 -0.4600084
v -0.605322 0.8175765 -0.4191079
v -0.610203 0.8091233 -0.3774755
v -0.569324 0.8799272 0.1647086
v -0.572825 0.8738629 0.1225245
v -0.613704 0.803059 -0.3352914
v -0.615811 0.79941 -0.2927382
v -0.577706 0.8654098 0.08089212
v -0.616514 0.7981918 -0.25
v -0.615811 0.79941 -0.2072618
v -0.613704 0.803059 -0.1647087
v -0.583944 0.8546042 0.03999162
v -0.610203 0.8091233 -0.1225245
v -0.605322 0.8175765 -0.08089209
v -0.599084 0.828382 -0.03999168
v -0.567217 0.8835763 0.2072618
v -0.566514 0.8847944 0.25
v -0.567217 0.8835763 0.2927382
v -0.569324 0.8799272 0.3352914
v -0.572825 0.8738629 0.3774755
v -0.577706 0.8654098 0.4191079
v -0.583944 0.8546042 0.4600084
v -0.599084 0.828382 0.5399916
v -0.605322 0.8175765 0.5808921
v -0.610203 0.8091233 0.6225245
v -0.613704 0.803059 0.6647086
v -0.615811 0.79941 0.7072618
v -0.616514 0.7981918 0.75
v -0.615811 0.79941 0.7927382
v -0.613704 0.803059 0.8352913
v -0.610203 0.8091233 0.8774755
v -0.605322 0.8175765 0.9191079
v -0.599084 0.828382 0.9600083
v -0.591514 0.8414931 1
v 0.25 0.7981918 1.116514
v 0.2072618 0.79941 1.115811
v 0.2927382 0.79941 1.115811
v 0.3352914 0.803059 1.113704
v 0.1647086 0.803059 1.113704
v 0.3774755 0.8091233 1.110203
v 0.1225245 0.8091233 1.110203
v 0.4191079 0.8175765 1.105322
v 0.08089209 0.8175765 1.105322
v 0.4600084 0.828382 1.099084
v 0.03999162 0.828382 1.099084
v 0.5 0.8414931 1.091514
v -0.03999162 0.8546042 1.083944
v -0.08089209 0.8654098 1.077706
v -0.1225245 0.8738629 1.072825
v -0.1647086 0.8799272 1.069324
v -0.2072618 0.8835763 1.067217
v -0.25 0.8847944 1.066514
v -0.2927382 0.8835763 1.067217
v -0.3352913 0.8799272 1.069324
v -0.3774755 0.8738629 1.072825
v -0.4191079 0.8654098 1.077706
v -0.4600083 0.8546042 1.083944
v -0.5 0.8414931 1.091514
v -0.25 0.7981918 -1.116514
v -0.2072618 0.79941 -1.115811
v -0.2927382 0.79941 -1.115811
v -0.3352913 0.803059 -1.113704
v -0.1647086 0.803059 -1.113704
v -0.3774755 0.8091233 -1.110203
v -0.1225245 0.8091233 -1.110203
v -0.4191079 0.8175765 -1.105322
v -0.08089209 0.8175765 -1.105322
v -0.4600083 0.828382 -1.099084
v -0.03999162 0.828382 -1.099084
v -0.5 0.8414931 -1.091514
v 0.03999162 0.8546042 -1.083944
v 0.08089209 0.8654098 -1.077706
v 0.1225245 0.8738629 -1.072825
v 0.1647086 0.8799272 -1.069324
v 0.2072618 0.8835763 -1.067217
v 0.25 0.8847944 -1.066514
v 0.2927382 0.8835763 -1.067217
v 0.3352914 0.8799272 -1.069324
v 0.3774755 0.8738629 -1.072825
v 0.4191079 0.8654098 -1.077706
v 0.4600084 0.8546042 -1.083944
v 0.5 0.8414931 -1.091514
v -0.5 0 -1
v 0.5 0 -1
v 0.5 0 1
v -0.5 0 1

vn 0.8660254 0.5 0
vn -0.8660254 -0.5 0
vn -0.8660249 0.5000008 0
vn 0.8660249 -0.5000008 0
vn 0 0.5000005 0.8660251
vn 0 -0.5000005 -0.8660251
vn 0 0.5 -0.8660254
vn 0 -0.5 0.8660254
vn 0.6546537 0.3779645 -0.6546537
vn -0.6546537 -0.3779645 0.6546537
vn 0 1 0
vn 0.6546536 0.3779645 0.6546537
vn -0.6546536 -0.3779645 -0.6546537
vn -0.6546537 0.3779645 -0.6546535
vn 0.6546537 -0.3779645 0.6546535
vn -0.6546537 0.3779645 0.6546537
vn 0.6546537 -0.3779645 -0.6546537
vn 0 0 -1
vn 0 -1 0
vn 0 0 1
vn -1 0 0
vn 1 0 0

vt 39.37008 17.04714
vt 37.7956 16.45111
vt 39.37008 24.25297
vt -39.37008 24.25297
vt 13.20045 18.79438
vt 36.18535 15.95988
vt 34.54628 15.57559
vt 14.86124 18.5187
vt 32.88549 15.29991
vt 31.21017 15.13402
vt 16.50031 18.13441
vt 29.52756 15.07864
vt 27.84495 15.13402
vt 26.16963 15.29991
vt 18.11057 17.64318
vt 24.50884 15.57559
vt 22.86977 15.95988
vt 21.25951 16.45111
vt 19.68504 17.04714
vt 11.52513 18.96027
vt 9.84252 19.01565
vt 8.159913 18.96027
vt 6.484594 18.79438
vt 4.823799 18.5187
vt 3.184728 18.13441
vt 1.574476 17.64318
vt -1.574473 16.45111
vt -3.184729 15.95988
vt -4.823799 15.57559
vt -6.484591 15.29991
vt -8.159913 15.13402
vt -9.84252 15.07864
vt -11.52513 15.13402
vt -13.20045 15.29991
vt -14.86124 15.57559
vt -16.50031 15.95988
vt -21.25951 17.64318
vt -18.11057 16.45111
vt -19.68504 17.04714
vt -22.86977 18.13441
vt -24.50884 18.5187
vt -26.16963 18.79438
vt -27.84495 18.96027
vt -29.52756 19.01565
vt -31.21017 18.96027
vt -32.88548 18.79438
vt -34.54628 18.5187
vt -36.18535 18.13441
vt -37.7956 17.64318
vt -39.37008 17.04714
vt -39.37008 17.04711
vt -39.37008 24.25293
vt -37.7956 17.64315
vt -36.18535 18.13437
vt -34.54628 18.51866
vt -32.88549 18.79435
vt -31.21017 18.96024
vt 39.37008 24.25294
vt -29.52756 19.01561
vt -27.84495 18.96024
vt -26.16963 18.79435
vt -24.50884 18.51866
vt -22.86977 18.13437
vt -21.25951 17.64315
vt -18.11057 16.45106
vt -16.50031 15.95985
vt -14.86124 15.57555
vt 6.484591 18.79435
vt 4.8238 18.51867
vt -13.20045 15.29987
vt -11.52512 15.13398
vt 3.18473 18.13437
vt -9.842519 15.0786
vt -8.159912 15.13398
vt -6.484593 15.29987
vt 1.574474 17.64315
vt -4.823798 15.57555
vt -3.184727 15.95985
vt -1.574475 16.45106
vt 8.159914 18.96024
vt 9.842521 19.01561
vt 11.52513 18.96024
vt 13.20045 18.79435
vt 14.86124 18.51867
vt 16.50031 18.13437
vt 18.11057 17.64315
vt 21.25951 16.45106
vt 22.86977 15.95985
vt 24.50884 15.57555
vt 26.16963 15.29987
vt 27.84495 15.13398
vt 29.52756 15.0786
vt 31.21017 15.13398
vt 32.88549 15.29987
vt 34.54628 15.57555
vt 36.18535 15.95985
vt 37.7956 16.45106
vt 39.37008 17.04711
vt 9.842527 5.236088
vt 8.159922 5.291462
vt 11.52513 5.291462
vt 13.20046 5.457353
vt 6.484599 5.457353
vt 14.86125 5.733036
vt 4.823807 5.733035
vt 16.50032 6.117335
vt 3.184736 6.117333
vt 18.11057 6.608549
vt 1.574481 6.608547
vt 19.68505 7.204594
vt -1.574465 7.800637
vt 19.68505 14.41042
vt -3.184721 8.291855
vt -4.823792 8.676149
vt -6.484583 8.951832
vt -8.159905 9.117726
vt -9.842512 9.173097
vt -19.68503 14.41042
vt -11.52512 9.117726
vt -13.20044 8.951832
vt -14.86123 8.676148
vt -16.5003 8.291853
vt -18.11056 7.800636
vt -19.68503 7.20459
vt 9.842519 5.236118
vt 8.159913 5.291498
vt 11.52513 5.291498
vt 13.20044 5.457385
vt 6.48459 5.457385
vt 14.86124 5.733071
vt 4.823799 5.733072
vt 16.50031 6.117358
vt 3.184728 6.117359
vt 18.11056 6.608584
vt 1.574472 6.608584
vt 19.68504 7.204623
vt -1.574473 7.800663
vt 19.68504 14.41045
vt -3.184729 8.291891
vt -4.8238 8.676176
vt -6.484591 8.951862
vt -8.159914 9.117753
vt -9.842521 9.173128
vt -19.68504 14.41045
vt -11.52513 9.117753
vt -13.20045 8.951862
vt -14.86124 8.676176
vt -16.50031 8.291892
vt -18.11057 7.800663
vt -19.68504 7.204624
vt 16.46707 13.92603
vt 11.37178 13.92603
vt 13.91943 20.66646
vt -19.68504 39.37008
vt 19.68504 39.37008
vt -19.68504 -39.37008
vt 19.68504 -39.37008
vt -11.37178 13.92603
vt -16.46707 13.92603
vt -13.91942 20.66647
vt -11.37178 13.92603
vt -16.46707 13.92603
vt -13.91943 20.66647
vt 16.46707 13.92603
vt 11.37178 13.92603
vt 13.91943 20.66647
vt 19.68504 9.919177E-12
vt -19.68504 9.919177E-12
vt 19.68504 0
vt -19.68504 0
vt -39.37008 2.026255E-27
vt -39.37008 39.37008
vt 39.37008 2.026255E-27
vt 39.37008 39.37008
vt 39.37008 -3.069545E-12
vt -39.37008 -3.069545E-12

usemtl snow

f 3/3/1 2/2/1 1/1/1
f 2/2/1 3/3/1 4/4/1
f 2/2/1 4/4/1 5/5/1
f 2/2/1 5/5/1 6/6/1
f 6/6/1 5/5/1 7/7/1
f 7/7/1 5/5/1 8/8/1
f 7/7/1 8/8/1 9/9/1
f 9/9/1 8/8/1 10/10/1
f 10/10/1 8/8/1 11/11/1
f 10/10/1 11/11/1 12/12/1
f 12/12/1 11/11/1 13/13/1
f 13/13/1 11/11/1 14/14/1
f 14/14/1 11/11/1 15/15/1
f 14/14/1 15/15/1 16/16/1
f 16/16/1 15/15/1 17/17/1
f 17/17/1 15/15/1 18/18/1
f 18/18/1 15/15/1 19/19/1
f 5/5/1 4/4/1 20/20/1
f 20/20/1 4/4/1 21/21/1
f 21/21/1 4/4/1 22/22/1
f 22/22/1 4/4/1 23/23/1
f 23/23/1 4/4/1 24/24/1
f 24/24/1 4/4/1 25/25/1
f 25/25/1 4/4/1 26/26/1
f 26/26/1 4/4/1 27/27/1
f 27/27/1 4/4/1 28/28/1
f 28/28/1 4/4/1 29/29/1
f 29/29/1 4/4/1 30/30/1
f 30/30/1 4/4/1 31/31/1
f 31/31/1 4/4/1 32/32/1
f 32/32/1 4/4/1 33/33/1
f 33/33/1 4/4/1 34/34/1
f 34/34/1 4/4/1 35/35/1
f 35/35/1 4/4/1 36/36/1
f 36/36/1 4/4/1 37/37/1
f 36/36/1 37/37/1 38/38/1
f 38/38/1 37/37/1 39/39/1
f 37/37/1 4/4/1 40/40/1
f 40/40/1 4/4/1 41/41/1
f 41/41/1 4/4/1 42/42/1
f 42/42/1 4/4/1 43/43/1
f 43/43/1 4/4/1 44/44/1
f 44/44/1 4/4/1 45/45/1
f 45/45/1 4/4/1 46/46/1
f 46/46/1 4/4/1 47/47/1
f 47/47/1 4/4/1 48/48/1
f 48/48/1 4/4/1 49/49/1
f 49/49/1 4/4/1 50/50/1
f 1/1/2 2/2/2 3/3/2
f 4/4/2 3/3/2 2/2/2
f 5/5/2 4/4/2 2/2/2
f 6/6/2 5/5/2 2/2/2
f 7/7/2 5/5/2 6/6/2
f 8/8/2 5/5/2 7/7/2
f 9/9/2 8/8/2 7/7/2
f 10/10/2 8/8/2 9/9/2
f 11/11/2 8/8/2 10/10/2
f 12/12/2 11/11/2 10/10/2
f 13/13/2 11/11/2 12/12/2
f 14/14/2 11/11/2 13/13/2
f 15/15/2 11/11/2 14/14/2
f 16/16/2 15/15/2 14/14/2
f 17/17/2 15/15/2 16/16/2
f 18/18/2 15/15/2 17/17/2
f 19/19/2 15/15/2 18/18/2
f 20/20/2 4/4/2 5/5/2
f 21/21/2 4/4/2 20/20/2
f 22/22/2 4/4/2 21/21/2
f 23/23/2 4/4/2 22/22/2
f 24/24/2 4/4/2 23/23/2
f 25/25/2 4/4/2 24/24/2
f 26/26/2 4/4/2 25/25/2
f 27/27/2 4/4/2 26/26/2
f 28/28/2 4/4/2 27/27/2
f 29/29/2 4/4/2 28/28/2
f 30/30/2 4/4/2 29/29/2
f 31/31/2 4/4/2 30/30/2
f 32/32/2 4/4/2 31/31/2
f 33/33/2 4/4/2 32/32/2
f 34/34/2 4/4/2 33/33/2
f 35/35/2 4/4/2 34/34/2
f 36/36/2 4/4/2 35/35/2
f 37/37/2 4/4/2 36/36/2
f 38/38/2 37/37/2 36/36/2
f 39/39/2 37/37/2 38/38/2
f 40/40/2 4/4/2 37/37/2
f 41/41/2 4/4/2 40/40/2
f 42/42/2 4/4/2 41/41/2
f 43/43/2 4/4/2 42/42/2
f 44/44/2 4/4/2 43/43/2
f 45/45/2 4/4/2 44/44/2
f 46/46/2 4/4/2 45/45/2
f 47/47/2 4/4/2 46/46/2
f 48/48/2 4/4/2 47/47/2
f 49/49/2 4/4/2 48/48/2
f 50/50/2 4/4/2 49/49/2
f 53/53/3 52/52/3 51/51/3
f 52/52/3 53/53/3 54/54/3
f 52/52/3 54/54/3 55/55/3
f 52/52/3 55/55/3 56/56/3
f 52/52/3 56/56/3 57/57/3
f 52/52/3 57/57/3 58/58/3
f 58/58/3 57/57/3 59/59/3
f 58/58/3 59/59/3 60/60/3
f 58/58/3 60/60/3 61/61/3
f 58/58/3 61/61/3 62/62/3
f 58/58/3 62/62/3 63/63/3
f 58/58/3 63/63/3 64/64/3
f 58/58/3 64/64/3 65/65/3
f 58/58/3 65/65/3 66/66/3
f 58/58/3 66/66/3 67/67/3
f 58/58/3 67/67/3 68/68/3
f 68/68/3 67/67/3 69/69/3
f 69/69/3 67/67/3 70/70/3
f 69/69/3 70/70/3 71/71/3
f 69/69/3 71/71/3 72/72/3
f 72/72/3 71/71/3 73/73/3
f 72/72/3 73/73/3 74/74/3
f 72/72/3 74/74/3 75/75/3
f 72/72/3 75/75/3 76/76/3
f 76/76/3 75/75/3 77/77/3
f 76/76/3 77/77/3 78/78/3
f 76/76/3 78/78/3 79/79/3
f 58/58/3 68/68/3 80/80/3
f 58/58/3 80/80/3 81/81/3
f 58/58/3 81/81/3 82/82/3
f 58/58/3 82/82/3 83/83/3
f 58/58/3 83/83/3 84/84/3
f 58/58/3 84/84/3 85/85/3
f 58/58/3 85/85/3 86/86/3
f 58/58/3 86/86/3 87/87/3
f 58/58/3 87/87/3 88/88/3
f 58/58/3 88/88/3 89/89/3
f 58/58/3 89/89/3 90/90/3
f 58/58/3 90/90/3 91/91/3
f 58/58/3 91/91/3 92/92/3
f 58/58/3 92/92/3 93/93/3
f 58/58/3 93/93/3 94/94/3
f 58/58/3 94/94/3 95/95/3
f 58/58/3 95/95/3 96/96/3
f 58/58/3 96/96/3 97/97/3
f 58/58/3 97/97/3 98/98/3
f 51/51/4 52/52/4 53/53/4
f 54/54/4 53/53/4 52/52/4
f 55/55/4 54/54/4 52/52/4
f 56/56/4 55/55/4 52/52/4
f 57/57/4 56/56/4 52/52/4
f 58/58/4 57/57/4 52/52/4
f 59/59/4 57/57/4 58/58/4
f 60/60/4 59/59/4 58/58/4
f 61/61/4 60/60/4 58/58/4
f 62/62/4 61/61/4 58/58/4
f 63/63/4 62/62/4 58/58/4
f 64/64/4 63/63/4 58/58/4
f 65/65/4 64/64/4 58/58/4
f 66/66/4 65/65/4 58/58/4
f 67/67/4 66/66/4 58/58/4
f 68/68/4 67/67/4 58/58/4
f 69/69/4 67/67/4 68/68/4
f 70/70/4 67/67/4 69/69/4
f 71/71/4 70/70/4 69/69/4
f 72/72/4 71/71/4 69/69/4
f 73/73/4 71/71/4 72/72/4
f 74/74/4 73/73/4 72/72/4
f 75/75/4 74/74/4 72/72/4
f 76/76/4 75/75/4 72/72/4
f 77/77/4 75/75/4 76/76/4
f 78/78/4 77/77/4 76/76/4
f 79/79/4 78/78/4 76/76/4
f 80/80/4 68/68/4 58/58/4
f 81/81/4 80/80/4 58/58/4
f 82/82/4 81/81/4 58/58/4
f 83/83/4 82/82/4 58/58/4
f 84/84/4 83/83/4 58/58/4
f 85/85/4 84/84/4 58/58/4
f 86/86/4 85/85/4 58/58/4
f 87/87/4 86/86/4 58/58/4
f 88/88/4 87/87/4 58/58/4
f 89/89/4 88/88/4 58/58/4
f 90/90/4 89/89/4 58/58/4
f 91/91/4 90/90/4 58/58/4
f 92/92/4 91/91/4 58/58/4
f 93/93/4 92/92/4 58/58/4
f 94/94/4 93/93/4 58/58/4
f 95/95/4 94/94/4 58/58/4
f 96/96/4 95/95/4 58/58/4
f 97/97/4 96/96/4 58/58/4
f 98/98/4 97/97/4 58/58/4
f 101/101/5 100/100/5 99/99/5
f 100/100/5 101/101/5 102/102/5
f 100/100/5 102/102/5 103/103/5
f 103/103/5 102/102/5 104/104/5
f 103/103/5 104/104/5 105/105/5
f 105/105/5 104/104/5 106/106/5
f 105/105/5 106/106/5 107/107/5
f 107/107/5 106/106/5 108/108/5
f 107/107/5 108/108/5 109/109/5
f 109/109/5 108/108/5 110/110/5
f 109/109/5 110/110/5 111/111/5
f 111/111/5 110/110/5 4/112/5
f 111/111/5 4/112/5 112/113/5
f 112/113/5 4/112/5 113/114/5
f 113/114/5 4/112/5 114/115/5
f 114/115/5 4/112/5 115/116/5
f 115/116/5 4/112/5 116/117/5
f 58/118/5 116/117/5 4/112/5
f 58/118/5 117/119/5 116/117/5
f 58/118/5 118/120/5 117/119/5
f 58/118/5 119/121/5 118/120/5
f 58/118/5 120/122/5 119/121/5
f 58/118/5 121/123/5 120/122/5
f 121/123/5 58/118/5 122/124/5
f 99/99/6 100/100/6 101/101/6
f 102/102/6 101/101/6 100/100/6
f 103/103/6 102/102/6 100/100/6
f 104/104/6 102/102/6 103/103/6
f 105/105/6 104/104/6 103/103/6
f 106/106/6 104/104/6 105/105/6
f 107/107/6 106/106/6 105/105/6
f 108/108/6 106/106/6 107/107/6
f 109/109/6 108/108/6 107/107/6
f 110/110/6 108/108/6 109/109/6
f 111/111/6 110/110/6 109/109/6
f 4/112/6 110/110/6 111/111/6
f 112/113/6 4/112/6 111/111/6
f 113/114/6 4/112/6 112/113/6
f 114/115/6 4/112/6 113/114/6
f 115/116/6 4/112/6 114/115/6
f 116/117/6 4/112/6 115/116/6
f 4/112/6 116/117/6 58/118/6
f 116/117/6 117/119/6 58/118/6
f 117/119/6 118/120/6 58/118/6
f 118/120/6 119/121/6 58/118/6
f 119/121/6 120/122/6 58/118/6
f 120/122/6 121/123/6 58/118/6
f 122/124/6 58/118/6 121/123/6
f 125/127/7 124/126/7 123/125/7
f 124/126/7 125/127/7 126/128/7
f 124/126/7 126/128/7 127/129/7
f 127/129/7 126/128/7 128/130/7
f 127/129/7 128/130/7 129/131/7
f 129/131/7 128/130/7 130/132/7
f 129/131/7 130/132/7 131/133/7
f 131/133/7 130/132/7 132/134/7
f 131/133/7 132/134/7 133/135/7
f 133/135/7 132/134/7 134/136/7
f 133/135/7 134/136/7 135/137/7
f 135/137/7 134/136/7 52/138/7
f 135/137/7 52/138/7 136/139/7
f 136/139/7 52/138/7 137/140/7
f 137/140/7 52/138/7 138/141/7
f 138/141/7 52/138/7 139/142/7
f 139/142/7 52/138/7 140/143/7
f 3/144/7 140/143/7 52/138/7
f 3/144/7 141/145/7 140/143/7
f 3/144/7 142/146/7 141/145/7
f 3/144/7 143/147/7 142/146/7
f 3/144/7 144/148/7 143/147/7
f 3/144/7 145/149/7 144/148/7
f 145/149/7 3/144/7 146/150/7
f 123/125/8 124/126/8 125/127/8
f 126/128/8 125/127/8 124/126/8
f 127/129/8 126/128/8 124/126/8
f 128/130/8 126/128/8 127/129/8
f 129/131/8 128/130/8 127/129/8
f 130/132/8 128/130/8 129/131/8
f 131/133/8 130/132/8 129/131/8
f 132/134/8 130/132/8 131/133/8
f 133/135/8 132/134/8 131/133/8
f 134/136/8 132/134/8 133/135/8
f 135/137/8 134/136/8 133/135/8
f 52/138/8 134/136/8 135/137/8
f 136/139/8 52/138/8 135/137/8
f 137/140/8 52/138/8 136/139/8
f 138/141/8 52/138/8 137/140/8
f 139/142/8 52/138/8 138/141/8
f 140/143/8 52/138/8 139/142/8
f 52/138/8 140/143/8 3/144/8
f 140/143/8 141/145/8 3/144/8
f 141/145/8 142/146/8 3/144/8
f 142/146/8 143/147/8 3/144/8
f 143/147/8 144/148/8 3/144/8
f 144/148/8 145/149/8 3/144/8
f 146/150/8 3/144/8 145/149/8
f 3/153/9 1/152/9 146/151/9
f 146/151/10 1/152/10 3/153/10
f 3/156/11 58/155/11 4/154/11
f 58/155/11 3/156/11 52/157/11
f 4/160/12 110/159/12 50/158/12
f 50/158/13 110/159/13 4/160/13
f 52/163/14 134/162/14 51/161/14
f 51/161/15 134/162/15 52/163/15
f 58/166/16 98/165/16 122/164/16
f 122/164/17 98/165/17 58/166/17

usemtl dirt

f 52/155/18 148/168/18 147/167/18
f 148/168/18 52/155/18 3/154/18
f 150/154/19 148/157/19 149/155/19
f 148/157/19 150/154/19 147/156/19
f 4/155/20 150/170/20 149/169/20
f 150/170/20 4/155/20 58/154/20
f 150/173/21 52/172/21 147/171/21
f 52/172/21 150/173/21 58/174/21
f 4/172/22 148/175/22 3/174/22
f 148/175/22 4/172/22 149/176/22

