# Created by Kenney (www.kenney.nl)

mtllib blockCliffCorner.mtl

g blockCliffCorner

v 0.5 0.25 0
v 0.5 0 -0.5
v 0 0.25 -0.5
v 0.5 1 -0.5
v 0.5 1 0.5
v -0.5 1 -0.5
v 0.591514 0.8414931 -0.5
v 0.633028 0.7695886 -0.4166666
v 0.591514 0.8414931 -0.3333333
v 0.591514 0.8414931 -0.1666667
v 0.633028 0.7695886 -0.25
v 0.591514 0.8414931 0
v 0.633028 0.7695886 -0.08333331
v 0.591514 0.8414931 0.1666667
v 0.633028 0.7695886 0.08333331
v 0.633028 0.7695886 0.25
v 0.591514 0.8414931 0.3333333
v 0.633028 0.7695886 0.4166666
v 0.591514 0.8414931 0.5
v 0.4352899 0.8414931 0.56471
v -0.5 0.8414931 -0.591514
v -0.56471 0.8414931 -0.4352898
v -0.4166666 0.7695886 -0.633028
v -0.3333333 0.8414931 -0.591514
v -0.1666667 0.8414931 -0.591514
v 0 0.8414931 -0.591514
v 0.1666667 0.8414931 -0.591514
v 0.3333333 0.8414931 -0.591514
v 0.5 0.8414931 -0.591514
v 0.4166666 0.7695886 -0.633028
v 0.25 0.7695886 -0.633028
v 0.08333325 0.7695886 -0.633028
v -0.08333331 0.7695886 -0.633028
v -0.25 0.7695886 -0.633028
v 0.343435 0.7695886 0.531565
v 0.3102899 0.8414931 0.4397101
v 0.1852899 0.8414931 0.3147101
v 0.06028974 0.8414931 0.1897101
v -0.06471008 0.8414931 0.06471011
v -0.1897101 0.8414931 -0.0602898
v -0.3147101 0.8414931 -0.1852898
v -0.4397101 0.8414931 -0.3102898
v -0.531565 0.7695886 -0.343435
v -0.406565 0.7695886 -0.218435
v -0.281565 0.7695886 -0.09343499
v -0.156565 0.7695886 0.03156501
v -0.03156501 0.7695886 0.156565
v 0.09343505 0.7695886 0.281565
v 0.218435 0.7695886 0.406565

vn -0.4082483 -0.8164966 0.4082483
vn 1 0 0
vn -0.6396021 -0.4264015 0.6396021
vn 0 0 -1
vn 0.8660254 0.4999999 0
vn -0.8660254 -0.4999999 0
vn 0.3736708 0.2157389 0.9021235
vn -0.3736708 -0.2157389 -0.9021235
vn -0.9021235 0.2157389 -0.3736708
vn 0.9021235 -0.2157389 0.3736708
vn 0 1 0
vn 0 0.4999999 -0.8660254
vn 0 -0.4999999 0.8660254
vn -0.6123725 0.5 0.6123725
vn 0.6123725 -0.5 -0.6123725
vn 0.6546537 0.3779645 -0.6546537
vn -0.6546537 -0.3779645 0.6546537

vt 13.91943 -5.682581
vt -6.147971E-12 -22.73033
vt -13.91943 -5.682581
vt 19.68504 39.37008
vt 19.68504 -3.296918E-12
vt -19.68504 39.37008
vt 3.410605E-13 9.84252
vt 13.91943 2.967631
vt -13.91943 2.967631
vt 27.83885 35.61158
vt -27.83885 35.61158
vt -19.68504 4.282204E-13
vt 2.046932E-11 9.84252
vt 19.68504 17.04715
vt 16.4042 13.77833
vt 19.68504 24.25297
vt 13.12336 17.04715
vt -19.68504 24.25297
vt 6.561681 17.04715
vt 9.84252 13.77833
vt 7.65758E-12 17.04715
vt 3.280838 13.77833
vt -6.561681 17.04715
vt -3.280838 13.77833
vt -9.84252 13.77833
vt -13.12336 17.04715
vt -16.4042 13.77833
vt -19.68504 17.04715
vt 13.98215 26.50328
vt 7.324837 26.50328
vt 10.65349 32.89421
vt -13.98215 26.50328
vt -10.65349 32.89421
vt -7.324835 26.50328
vt -19.68504 -19.68504
vt -19.68504 19.68504
vt 19.68504 -19.68504
vt 16.4042 13.77833
vt 13.12336 17.04715
vt 6.561681 17.04715
vt -2.64033E-07 17.04715
vt -16.4042 13.77833
vt -3.280839 13.77833
vt 3.280838 13.77833
vt 24.35899 23.62084
vt 20.87914 26.88966
vt 27.83884 26.88967
vt 27.83885 34.09549
vt 13.91942 26.88966
vt 6.95971 26.88966
vt -2.049694E-11 26.88966
vt -6.95971 26.88966
vt -13.91942 26.88966
vt -20.87914 26.88966
vt -27.83884 26.88967
vt -27.83885 34.09549
vt -24.35899 23.62084
vt -17.39928 23.62084
vt -10.43957 23.62084
vt -3.479856 23.62084
vt 3.479856 23.62084
vt 10.43957 23.62084
vt 17.39928 23.62084
vt 2.547644 19.18708
vt -2.547645 19.18708
vt -4.148E-07 25.92751

usemtl dirt

f 3/3/1 2/2/1 1/1/1
f 5/6/2 2/5/2 4/4/2
f 2/5/2 5/6/2 1/7/2
f 5/10/3 3/9/3 1/8/3
f 3/9/3 5/10/3 6/11/3
f 3/13/4 4/6/4 2/12/4
f 4/6/4 3/13/4 6/4/4

usemtl grass

f 4/16/5 8/15/5 7/14/5
f 8/15/5 4/16/5 9/17/5
f 9/17/5 4/16/5 5/18/5
f 9/17/5 5/18/5 10/19/5
f 9/17/5 10/19/5 11/20/5
f 10/19/5 5/18/5 12/21/5
f 10/19/5 12/21/5 13/22/5
f 12/21/5 5/18/5 14/23/5
f 12/21/5 14/23/5 15/24/5
f 14/23/5 5/18/5 16/25/5
f 16/25/5 5/18/5 17/26/5
f 17/26/5 5/18/5 18/27/5
f 18/27/5 5/18/5 19/28/5
f 7/14/6 8/15/6 4/16/6
f 9/17/6 4/16/6 8/15/6
f 5/18/6 4/16/6 9/17/6
f 10/19/6 5/18/6 9/17/6
f 11/20/6 10/19/6 9/17/6
f 12/21/6 5/18/6 10/19/6
f 13/22/6 12/21/6 10/19/6
f 14/23/6 5/18/6 12/21/6
f 15/24/6 14/23/6 12/21/6
f 16/25/6 5/18/6 14/23/6
f 17/26/6 5/18/6 16/25/6
f 18/27/6 5/18/6 17/26/6
f 19/28/6 5/18/6 18/27/6
f 5/31/7 20/30/7 19/29/7
f 19/29/8 20/30/8 5/31/8
f 22/34/9 6/33/9 21/32/9
f 21/32/10 6/33/10 22/34/10
f 6/37/11 5/36/11 4/35/11
f 21/14/12 24/39/12 23/38/12
f 24/39/12 21/14/12 6/16/12
f 24/39/12 6/16/12 25/40/12
f 25/40/12 6/16/12 26/41/12
f 26/41/12 6/16/12 27/23/12
f 27/23/12 6/16/12 28/26/12
f 28/26/12 6/16/12 29/28/12
f 29/28/12 6/16/12 4/18/12
f 29/28/12 30/42/12 28/26/12
f 28/26/12 31/25/12 27/23/12
f 27/23/12 32/43/12 26/41/12
f 26/41/12 33/44/12 25/40/12
f 25/40/12 34/20/12 24/39/12
f 23/38/13 24/39/13 21/14/13
f 6/16/13 21/14/13 24/39/13
f 25/40/13 6/16/13 24/39/13
f 26/41/13 6/16/13 25/40/13
f 27/23/13 6/16/13 26/41/13
f 28/26/13 6/16/13 27/23/13
f 29/28/13 6/16/13 28/26/13
f 4/18/13 6/16/13 29/28/13
f 28/26/13 30/42/13 29/28/13
f 27/23/13 31/25/13 28/26/13
f 26/41/13 32/43/13 27/23/13
f 25/40/13 33/44/13 26/41/13
f 24/39/13 34/20/13 25/40/13
f 20/47/14 36/46/14 35/45/14
f 36/46/14 20/47/14 5/48/14
f 36/46/14 5/48/14 37/49/14
f 37/49/14 5/48/14 38/50/14
f 38/50/14 5/48/14 39/51/14
f 39/51/14 5/48/14 40/52/14
f 40/52/14 5/48/14 41/53/14
f 41/53/14 5/48/14 42/54/14
f 42/54/14 5/48/14 22/55/14
f 22/55/14 5/48/14 6/56/14
f 22/55/14 43/57/14 42/54/14
f 42/54/14 44/58/14 41/53/14
f 41/53/14 45/59/14 40/52/14
f 40/52/14 46/60/14 39/51/14
f 39/51/14 47/61/14 38/50/14
f 38/50/14 48/62/14 37/49/14
f 37/49/14 49/63/14 36/46/14
f 35/45/15 36/46/15 20/47/15
f 5/48/15 20/47/15 36/46/15
f 37/49/15 5/48/15 36/46/15
f 38/50/15 5/48/15 37/49/15
f 39/51/15 5/48/15 38/50/15
f 40/52/15 5/48/15 39/51/15
f 41/53/15 5/48/15 40/52/15
f 42/54/15 5/48/15 41/53/15
f 22/55/15 5/48/15 42/54/15
f 6/56/15 5/48/15 22/55/15
f 42/54/15 43/57/15 22/55/15
f 41/53/15 44/58/15 42/54/15
f 40/52/15 45/59/15 41/53/15
f 39/51/15 46/60/15 40/52/15
f 38/50/15 47/61/15 39/51/15
f 37/49/15 48/62/15 38/50/15
f 36/46/15 49/63/15 37/49/15
f 4/66/16 7/65/16 29/64/16
f 29/64/17 7/65/17 4/66/17

