# Created by Kenney (www.kenney.nl)

mtllib blockCurve.mtl

g blockCurve

v -1 3.919753E-16 -0.5
v -0.9659258 0.258819 -0.5
v -1 3.919753E-16 0.5
v -0.9659258 0.258819 0.5
v -0.8660254 0.5 -0.5
v -0.8660254 0.5 0.5
v -0.7071068 0.7071068 -0.5
v -0.7071068 0.7071068 0.5
v -0.5 0.8660254 -0.5
v -0.5 0.8660254 0.5
v -0.258819 0.9659258 -0.5
v -0.258819 0.9659258 0.5
v 0 1 -0.5
v 0 1 0.5
v 0.2588191 0.9659258 -0.5
v 0.2588191 0.9659258 0.5
v 0.5 0.8660254 -0.5
v 0.5 0.8660254 0.5
v 0.7071068 0.7071068 -0.5
v 0.7071068 0.7071068 0.5
v 0.8660254 0.5 -0.5
v 0.8660254 0.5 0.5
v 0.9659258 0.258819 -0.5
v 0.9659258 0.258819 0.5
v 1 3.919753E-16 -0.5
v 1 3.919753E-16 0.5
v 0.8499999 2.072675E-15 0.5
v 0.8210371 0.2199962 0.5
v 0.7361217 0.425 0.5
v 0.6010408 0.6010408 0.5
v 0.425 0.7361216 0.5
v 0.2199962 0.821037 0.5
v 0 0.85 0.5
v -0.2199962 0.821037 0.5
v -0.425 0.7361216 0.5
v -0.6010408 0.6010408 0.5
v -0.7361216 0.425 0.5
v -0.821037 0.2199962 0.5
v -0.85 0 0.5
v -0.85 0 0.4
v -0.85 3.919753E-16 -0.4
v -0.85 3.919753E-16 -0.5
v -0.821037 0.2199962 -0.5
v -0.7361216 0.425 -0.5
v -0.6010408 0.6010408 -0.5
v -0.425 0.7361216 -0.5
v -0.2199962 0.821037 -0.5
v 0 0.85 -0.5
v 0.2199962 0.821037 -0.5
v 0.425 0.7361216 -0.5
v 0.6010408 0.6010408 -0.5
v 0.7361217 0.425 -0.5
v 0.8210371 0.2199962 -0.5
v 0.8499999 2.464651E-15 -0.5
v -0.821037 0.2199962 0.4
v 0.8499999 2.072675E-15 0.4
v 0.8210371 0.2199962 0.4
v 0.7361217 0.425 0.4
v 0.6010408 0.6010408 0.4
v 0.425 0.7361216 0.4
v 0.2199962 0.821037 0.4
v 0 0.85 0.4
v -0.2199962 0.821037 0.4
v -0.425 0.7361216 0.4
v -0.6010408 0.6010408 0.4
v -0.7361216 0.425 0.4
v -0.821037 0.2199962 -0.4
v -0.7361216 0.425 -0.4
v -0.6010408 0.6010408 -0.4
v -0.425 0.7361216 -0.4
v -0.2199962 0.821037 -0.4
v 0 0.85 -0.4
v 0.2199962 0.821037 -0.4
v 0.425 0.7361216 -0.4
v 0.6010408 0.6010408 -0.4
v 0.7361217 0.425 -0.4
v 0.8210371 0.2199962 -0.4
v 0.8499999 2.464651E-15 -0.4

vn -0.9914449 0.1305262 0
vn -0.9659258 0.258819 0
vn -0.8660254 0.5 0
vn -0.7071068 0.7071068 0
vn -0.5 0.8660254 0
vn -0.258819 0.9659258 0
vn 0 1 0
vn 0.258819 0.9659258 0
vn 0.5 0.8660254 0
vn 0.7071068 0.7071068 0
vn 0.8660254 0.5 0
vn 0.9659258 0.258819 0
vn 0.9914449 0.1305262 0
vn 0 0 1
vn 0 -1 0
vn 0 0 -1
vn 0.9659258 -0.258819 0
vn 0.9914449 -0.1305262 0
vn -0.9914449 -0.1305262 0
vn -0.9659258 -0.258819 0
vn -0.8660254 -0.5 0
vn -0.7071068 -0.7071068 0
vn -0.5 -0.8660254 0
vn -0.258819 -0.9659258 0
vn 0.258819 -0.9659258 0
vn 0.5 -0.8660254 0
vn 0.7071068 -0.7071068 0
vn 0.8660254 -0.5 0

vt -19.68504 -5.138826
vt -19.68504 5.138826
vt 19.68504 -5.138826
vt 19.68504 5.138826
vt 39.37008 1.54321E-14
vt 33.46457 8.160139E-14
vt 38.02858 10.18973
vt 32.32429 8.661267
vt 28.98116 16.73228
vt 34.09549 19.68504
vt 23.66302 23.66302
vt 27.83885 27.83885
vt 16.73228 28.98116
vt 19.68504 34.09549
vt 8.661267 32.32429
vt 0 33.46457
vt -19.68504 34.09549
vt -10.18973 38.02858
vt 10.18973 38.02858
vt 0 39.37008
vt -8.661267 32.32429
vt -16.73228 28.98116
vt -27.83885 27.83885
vt -23.66302 23.66302
vt -34.09549 19.68504
vt -28.98116 16.73228
vt -38.02858 10.18973
vt -32.32429 8.661267
vt -39.37008 1.54321E-14
vt -33.46457 -3.743773E-30
vt -33.46457 19.68504
vt -33.46457 15.74803
vt -39.37008 19.68504
vt -33.46457 -15.74803
vt -33.46457 -19.68504
vt -39.37008 -19.68504
vt 33.46457 1.54321E-14
vt -33.46457 9.703349E-14
vt -15.74803 4.368002
vt -15.74803 -4.368002
vt -19.68504 4.368002
vt -19.68504 -4.368002
vt 15.74803 -4.368002
vt 15.74803 4.368002
vt 19.68504 -4.368002
vt 19.68504 4.368002
vt 39.37008 19.68504
vt 39.37008 -19.68504
vt 33.46457 19.68504
vt 33.46457 -19.68504
vt 33.46457 15.74803
vt 33.46457 -15.74803
vt -33.46457 0

usemtl grass

f 3/3/1 2/2/2 1/1/1
f 2/2/2 3/3/1 4/4/2
f 4/3/2 5/2/3 2/1/2
f 5/2/3 4/3/2 6/4/3
f 6/3/3 7/2/4 5/1/3
f 7/2/4 6/3/3 8/4/4
f 7/1/4 10/4/5 9/2/5
f 10/4/5 7/1/4 8/3/4
f 9/1/5 12/4/6 11/2/6
f 12/4/6 9/1/5 10/3/5
f 11/1/6 14/4/7 13/2/7
f 14/4/7 11/1/6 12/3/6
f 13/4/7 16/1/8 15/3/8
f 16/1/8 13/4/7 14/2/7
f 15/4/8 18/1/9 17/3/9
f 18/1/9 15/4/8 16/2/8
f 17/4/9 20/1/10 19/3/10
f 20/1/10 17/4/9 18/2/9
f 20/2/10 21/3/11 19/4/10
f 21/3/11 20/2/10 22/1/11
f 22/2/11 23/3/12 21/4/11
f 23/3/12 22/2/11 24/1/12
f 24/2/12 25/3/13 23/4/12
f 25/3/13 24/2/12 26/1/13
f 24/7/14 27/6/14 26/5/14
f 27/6/14 24/7/14 28/8/14
f 28/8/14 24/7/14 29/9/14
f 29/9/14 24/7/14 22/10/14
f 29/9/14 22/10/14 30/11/14
f 30/11/14 22/10/14 20/12/14
f 30/11/14 20/12/14 31/13/14
f 31/13/14 20/12/14 18/14/14
f 31/13/14 18/14/14 32/15/14
f 32/15/14 18/14/14 33/16/14
f 33/16/14 18/14/14 10/17/14
f 10/17/14 18/14/14 12/18/14
f 12/18/14 18/14/14 16/19/14
f 12/18/14 16/19/14 14/20/14
f 10/17/14 34/21/14 33/16/14
f 10/17/14 35/22/14 34/21/14
f 8/23/14 35/22/14 10/17/14
f 8/23/14 36/24/14 35/22/14
f 6/25/14 36/24/14 8/23/14
f 6/25/14 37/26/14 36/24/14
f 4/27/14 37/26/14 6/25/14
f 4/27/14 38/28/14 37/26/14
f 3/29/14 38/28/14 4/27/14
f 38/28/14 3/29/14 39/30/14
f 3/33/15 40/32/15 39/31/15
f 40/32/15 3/33/15 41/34/15
f 41/34/15 3/33/15 42/35/15
f 42/35/15 3/33/15 1/36/15
f 2/7/16 42/37/16 1/5/16
f 42/37/16 2/7/16 43/8/16
f 43/8/16 2/7/16 44/9/16
f 44/9/16 2/7/16 5/10/16
f 44/9/16 5/10/16 45/11/16
f 45/11/16 5/10/16 7/12/16
f 45/11/16 7/12/16 46/13/16
f 46/13/16 7/12/16 9/14/16
f 46/13/16 9/14/16 47/15/16
f 47/15/16 9/14/16 48/16/16
f 17/17/16 48/16/16 9/14/16
f 17/17/16 49/21/16 48/16/16
f 17/17/16 50/22/16 49/21/16
f 19/23/16 50/22/16 17/17/16
f 19/23/16 51/24/16 50/22/16
f 21/25/16 51/24/16 19/23/16
f 21/25/16 52/26/16 51/24/16
f 23/27/16 52/26/16 21/25/16
f 23/27/16 53/28/16 52/26/16
f 23/27/16 54/38/16 53/28/16
f 54/38/16 23/27/16 25/29/16
f 17/17/16 9/14/16 11/19/16
f 17/17/16 11/19/16 15/18/16
f 15/18/16 11/19/16 13/20/16
f 38/41/17 40/40/18 55/39/17
f 40/40/18 38/41/17 39/42/18
f 27/45/19 57/44/20 56/43/19
f 57/44/20 27/45/19 28/46/20
f 28/45/20 58/44/21 57/43/20
f 58/44/21 28/45/20 29/46/21
f 29/45/21 59/44/22 58/43/21
f 59/44/22 29/45/21 30/46/22
f 31/46/23 59/43/22 30/45/22
f 59/43/22 31/46/23 60/44/23
f 32/46/24 60/43/23 31/45/23
f 60/43/23 32/46/24 61/44/24
f 33/46/15 61/43/24 32/45/24
f 61/43/24 33/46/15 62/44/15
f 34/42/25 62/39/15 33/41/15
f 62/39/15 34/42/25 63/40/25
f 35/42/26 63/39/25 34/41/25
f 63/39/25 35/42/26 64/40/26
f 36/42/27 64/39/26 35/41/26
f 64/39/26 36/42/27 65/40/27
f 36/41/27 66/40/28 65/39/27
f 66/40/28 36/41/27 37/42/28
f 37/41/28 55/40/17 66/39/28
f 55/40/17 37/41/28 38/42/17
f 67/44/17 42/45/18 43/46/17
f 42/45/18 67/44/17 41/43/18
f 68/44/28 43/45/17 44/46/28
f 43/45/17 68/44/28 67/43/17
f 69/44/27 44/45/28 45/46/27
f 44/45/28 69/44/27 68/43/28
f 69/43/27 46/46/26 70/44/26
f 46/46/26 69/43/27 45/45/27
f 70/43/26 47/46/25 71/44/25
f 47/46/25 70/43/26 46/45/26
f 71/43/25 48/46/15 72/44/15
f 48/46/15 71/43/25 47/45/25
f 72/39/15 49/42/24 73/40/24
f 49/42/24 72/39/15 48/41/15
f 73/39/24 50/42/23 74/40/23
f 50/42/23 73/39/24 49/41/24
f 74/39/23 51/42/22 75/40/22
f 51/42/22 74/39/23 50/41/23
f 76/40/21 51/41/22 52/42/21
f 51/41/22 76/40/21 75/39/22
f 77/40/20 52/41/21 53/42/20
f 52/41/21 77/40/20 76/39/21
f 78/40/19 53/41/20 54/42/19
f 53/41/20 78/40/19 77/39/20
f 27/49/15 25/48/15 26/47/15
f 25/48/15 27/49/15 54/50/15
f 54/50/15 27/49/15 56/51/15
f 54/50/15 56/51/15 78/52/15

usemtl dirt

f 56/6/14 55/28/14 40/53/14
f 55/28/14 56/6/14 57/8/14
f 55/28/14 57/8/14 58/9/14
f 55/28/14 58/9/14 66/26/14
f 66/26/14 58/9/14 65/24/14
f 65/24/14 58/9/14 59/11/14
f 65/24/14 59/11/14 60/13/14
f 65/24/14 60/13/14 64/22/14
f 64/22/14 60/13/14 63/21/14
f 63/21/14 60/13/14 61/15/14
f 63/21/14 61/15/14 62/16/14
f 67/8/16 78/38/16 41/37/16
f 78/38/16 67/8/16 77/28/16
f 77/28/16 67/8/16 76/26/16
f 76/26/16 67/8/16 68/9/16
f 76/26/16 68/9/16 69/11/16
f 76/26/16 69/11/16 75/24/16
f 75/24/16 69/11/16 74/22/16
f 74/22/16 69/11/16 70/13/16
f 74/22/16 70/13/16 71/15/16
f 74/22/16 71/15/16 73/21/16
f 73/21/16 71/15/16 72/16/16
f 40/32/15 78/52/15 56/51/15
f 78/52/15 40/32/15 41/34/15

