# Created by Kenney (www.kenney.nl)

mtllib blockSnowQuarter.mtl

g blockSnowQuarter

v -0.341514 0.8414931 -0.25
v -0.25 1 -0.25
v -0.3339443 0.8546042 -0.2300042
v -0.3277057 0.8654098 -0.209554
v -0.3228253 0.8738629 -0.1887378
v -0.3193241 0.8799272 -0.1676457
v -0.25 1 0.25
v -0.3172172 0.8835763 -0.1463691
v -0.316514 0.8847944 -0.125
v -0.3172172 0.8835763 -0.1036309
v -0.3193241 0.8799272 -0.08235431
v -0.3228253 0.8738629 -0.06126231
v -0.3277057 0.8654098 -0.0404461
v -0.3339443 0.8546042 -0.01999581
v -0.3490837 0.828382 0.01999581
v -0.3553222 0.8175765 0.04044598
v -0.3602027 0.8091233 0.06126219
v -0.3637038 0.803059 0.08235431
v -0.3658107 0.79941 0.1036309
v -0.366514 0.7981918 0.125
v -0.3658107 0.79941 0.1463691
v -0.3637038 0.803059 0.1676457
v -0.3602027 0.8091233 0.1887378
v -0.3553222 0.8175765 0.2095539
v -0.3490837 0.828382 0.2300042
v -0.341514 0.8414931 0.25
v -0.25 0.8414931 0.341514
v -0.25 0.8414931 -0.341514
v 0.25 1 -0.25
v 0.341514 0.8414931 -0.25
v 0.25 1 0.25
v 0.3490837 0.828382 -0.2300042
v 0.3553224 0.8175765 -0.209554
v 0.3602027 0.8091233 -0.1887378
v 0.3637038 0.803059 -0.1676457
v 0.3658106 0.79941 -0.1463691
v 0.366514 0.7981918 -0.125
v 0.3658106 0.79941 -0.1036309
v 0.3637038 0.803059 -0.08235431
v 0.3602027 0.8091233 -0.06126231
v 0.3553224 0.8175765 -0.0404461
v 0.3339443 0.8546042 0.01999581
v 0.3490837 0.828382 -0.01999581
v 0.3277057 0.8654098 0.04044598
v 0.3228253 0.8738629 0.06126219
v 0.319324 0.8799272 0.08235431
v 0.3172174 0.8835763 0.1036309
v 0.316514 0.8847944 0.125
v 0.3172174 0.8835763 0.1463691
v 0.319324 0.8799272 0.1676457
v 0.3228253 0.8738629 0.1887378
v 0.3277057 0.8654098 0.2095539
v 0.3339443 0.8546042 0.2300042
v 0.341514 0.8414931 0.25
v 0.341514 0.8414931 0
v 0.25 0.8414931 -0.341514
v 0.125 0.7981918 0.366514
v 0.1036309 0.79941 0.3658107
v 0.1463691 0.79941 0.3658107
v 0.1676457 0.803059 0.3637039
v 0.08235431 0.803059 0.3637039
v 0.1887378 0.8091233 0.3602027
v 0.06126225 0.8091233 0.3602027
v 0.209554 0.8175765 0.3553222
v 0.04044604 0.8175765 0.3553222
v 0.2300042 0.828382 0.3490837
v 0.01999581 0.828382 0.3490837
v 0.25 0.8414931 0.341514
v -0.01999581 0.8546042 0.3339443
v -0.04044598 0.8654098 0.3277057
v -0.06126219 0.8738629 0.3228253
v -0.08235431 0.8799272 0.3193241
v -0.1036309 0.8835763 0.3172172
v -0.125 0.8847944 0.316514
v -0.1463691 0.8835763 0.3172172
v -0.1676457 0.8799272 0.3193241
v -0.1887378 0.8738629 0.3228253
v -0.2095539 0.8654098 0.3277057
v -0.2300042 0.8546042 0.3339443
v -0.125 0.7981918 -0.366514
v -0.1036309 0.79941 -0.3658107
v -0.1463691 0.79941 -0.3658107
v -0.1676457 0.803059 -0.3637038
v -0.08235431 0.803059 -0.3637038
v -0.1887378 0.8091233 -0.3602027
v -0.06126219 0.8091233 -0.3602027
v -0.2095539 0.8175765 -0.3553223
v -0.04044598 0.8175765 -0.3553223
v -0.2300042 0.828382 -0.3490837
v -0.01999581 0.828382 -0.3490837
v 0.01999581 0.8546042 -0.3339443
v 0.04044604 0.8654098 -0.3277057
v 0.06126225 0.8738629 -0.3228253
v 0.08235431 0.8799272 -0.3193241
v 0.1036309 0.8835763 -0.3172173
v 0.125 0.8847944 -0.316514
v 0.1463691 0.8835763 -0.3172173
v 0.1676457 0.8799272 -0.3193241
v 0.1887378 0.8738629 -0.3228253
v 0.209554 0.8654098 -0.3277057
v 0.2300042 0.8546042 -0.3339443
v -0.25 0 -0.25
v -0.25 0 0.25
v 0.25 0 -0.25
v 0.25 0 0.25

vn -0.8660254 0.5 0
vn 0.8660254 -0.5 0
vn -0.6546537 0.3779645 0.6546537
vn 0.6546537 -0.3779645 -0.6546537
vn -0.6546537 0.3779645 -0.6546535
vn 0.6546537 -0.3779645 0.6546535
vn 0.8660254 0.5 0
vn -0.8660254 -0.5 0
vn 0.6546537 0.3779645 -0.6546537
vn -0.6546537 -0.3779645 0.6546537
vn 0 1 0
vn 0 0.5 0.8660254
vn 0 -0.5 -0.8660254
vn 0 0.5 -0.8660254
vn 0 -0.5 0.8660254
vn 0.6546537 0.3779644 0.6546536
vn -0.6546537 -0.3779644 -0.6546536
vn -1 0 0
vn 1 0 0
vn 0 -1 0
vn 0 0 -1
vn 0 0 1

vt -9.84252 21.9684
vt -9.84252 29.17423
vt -9.055284 22.56444
vt -8.250155 23.05567
vt -7.430621 23.43995
vt -6.600225 23.71564
vt 9.84252 29.17423
vt -5.762563 23.88153
vt -4.92126 23.93691
vt -4.079957 23.88153
vt -3.242296 23.71564
vt -2.411902 23.43995
vt -1.592367 23.05567
vt -0.7872366 22.56444
vt 0.7872358 21.37236
vt 1.592362 20.88114
vt 2.411897 20.49685
vt 3.242295 20.22116
vt 4.079956 20.05528
vt 4.921259 19.9999
vt 5.762563 20.05528
vt 6.600224 20.22116
vt 7.430622 20.49685
vt 8.250154 20.88114
vt 9.055283 21.37236
vt 9.842519 21.9684
vt -2.547644 24.44813
vt 7.013945E-12 31.18856
vt 2.547644 24.44813
vt 2.547644 24.44813
vt -2.547646 24.44813
vt -7.604033E-07 31.18856
vt 9.84252 21.9684
vt 8.250155 20.88114
vt 7.43062 20.49685
vt 6.600224 20.22116
vt 5.762563 20.05528
vt 4.92126 19.9999
vt 4.079957 20.05528
vt 3.242295 20.22116
vt 2.411901 20.49685
vt 1.592366 20.88114
vt -0.7872363 22.56444
vt 0.7872362 21.37236
vt -1.592362 23.05567
vt -2.411898 23.43995
vt -3.242295 23.71564
vt -4.079957 23.88153
vt -4.92126 23.93691
vt -5.762563 23.88153
vt -6.600224 23.71564
vt -7.430622 23.43995
vt -8.250154 23.05567
vt -9.055284 22.56444
vt -8.547659E-08 21.9684
vt 2.075493E-07 31.18856
vt 2.547645 24.44813
vt -2.547645 24.44813
vt -9.84252 9.84252
vt 9.84252 9.84252
vt -9.84252 -9.84252
vt 9.84252 -9.84252
vt 7.43062 20.49685
vt 2.411901 20.49685
vt 8.250154 20.88114
vt 1.592366 20.88114
vt -1.592363 23.05567
vt -2.411898 23.43995
vt -7.430623 23.43995
vt 4.921259 19.9999
vt 4.079956 20.05528
vt 8.250154 20.88114
vt 1.592362 20.88114
vt 9.055283 21.37236
vt -0.7872366 22.56444
vt 9.84252 29.17423
vt -1.592367 23.05567
vt -3.242296 23.71564
vt -4.079957 23.88153
vt -4.92126 23.93691
vt -9.84252 29.17423
vt -5.762563 23.88153
vt -6.600225 23.71564
vt -8.250155 23.05567
vt -7.604655E-07 31.18856
vt 2.547643 24.44813
vt -2.547645 24.44813
vt -9.84252 0
vt -9.84252 39.37008
vt 9.84252 0
vt 9.84252 39.37008
vt 9.84252 -2.060574E-13
vt -9.84252 -2.060574E-13

usemtl snow

f 3/3/1 2/2/1 1/1/1
f 2/2/1 3/3/1 4/4/1
f 2/2/1 4/4/1 5/5/1
f 2/2/1 5/5/1 6/6/1
f 2/2/1 6/6/1 7/7/1
f 7/7/1 6/6/1 8/8/1
f 7/7/1 8/8/1 9/9/1
f 7/7/1 9/9/1 10/10/1
f 7/7/1 10/10/1 11/11/1
f 7/7/1 11/11/1 12/12/1
f 7/7/1 12/12/1 13/13/1
f 7/7/1 13/13/1 14/14/1
f 7/7/1 14/14/1 15/15/1
f 7/7/1 15/15/1 16/16/1
f 7/7/1 16/16/1 17/17/1
f 7/7/1 17/17/1 18/18/1
f 7/7/1 18/18/1 19/19/1
f 7/7/1 19/19/1 20/20/1
f 7/7/1 20/20/1 21/21/1
f 7/7/1 21/21/1 22/22/1
f 7/7/1 22/22/1 23/23/1
f 7/7/1 23/23/1 24/24/1
f 7/7/1 24/24/1 25/25/1
f 7/7/1 25/25/1 26/26/1
f 1/1/2 2/2/2 3/3/2
f 4/4/2 3/3/2 2/2/2
f 5/5/2 4/4/2 2/2/2
f 6/6/2 5/5/2 2/2/2
f 7/7/2 6/6/2 2/2/2
f 8/8/2 6/6/2 7/7/2
f 9/9/2 8/8/2 7/7/2
f 10/10/2 9/9/2 7/7/2
f 11/11/2 10/10/2 7/7/2
f 12/12/2 11/11/2 7/7/2
f 13/13/2 12/12/2 7/7/2
f 14/14/2 13/13/2 7/7/2
f 15/15/2 14/14/2 7/7/2
f 16/16/2 15/15/2 7/7/2
f 17/17/2 16/16/2 7/7/2
f 18/18/2 17/17/2 7/7/2
f 19/19/2 18/18/2 7/7/2
f 20/20/2 19/19/2 7/7/2
f 21/21/2 20/20/2 7/7/2
f 22/22/2 21/21/2 7/7/2
f 23/23/2 22/22/2 7/7/2
f 24/24/2 23/23/2 7/7/2
f 25/25/2 24/24/2 7/7/2
f 26/26/2 25/25/2 7/7/2
f 27/29/3 7/28/3 26/27/3
f 26/27/4 7/28/4 27/29/4
f 2/32/5 28/31/5 1/30/5
f 1/30/6 28/31/6 2/32/6
f 31/2/7 30/33/7 29/7/7
f 30/33/7 31/2/7 32/25/7
f 32/25/7 31/2/7 33/34/7
f 33/34/7 31/2/7 34/35/7
f 34/35/7 31/2/7 35/36/7
f 35/36/7 31/2/7 36/37/7
f 36/37/7 31/2/7 37/38/7
f 37/38/7 31/2/7 38/39/7
f 38/39/7 31/2/7 39/40/7
f 39/40/7 31/2/7 40/41/7
f 40/41/7 31/2/7 41/42/7
f 41/42/7 31/2/7 42/43/7
f 41/42/7 42/43/7 43/44/7
f 42/43/7 31/2/7 44/45/7
f 44/45/7 31/2/7 45/46/7
f 45/46/7 31/2/7 46/47/7
f 46/47/7 31/2/7 47/48/7
f 47/48/7 31/2/7 48/49/7
f 48/49/7 31/2/7 49/50/7
f 49/50/7 31/2/7 50/51/7
f 50/51/7 31/2/7 51/52/7
f 51/52/7 31/2/7 52/53/7
f 52/53/7 31/2/7 53/54/7
f 53/54/7 31/2/7 54/1/7
f 29/7/8 30/33/8 31/2/8
f 32/25/8 31/2/8 30/33/8
f 33/34/8 31/2/8 32/25/8
f 34/35/8 31/2/8 33/34/8
f 35/36/8 31/2/8 34/35/8
f 36/37/8 31/2/8 35/36/8
f 37/38/8 31/2/8 36/37/8
f 38/39/8 31/2/8 37/38/8
f 39/40/8 31/2/8 38/39/8
f 40/41/8 31/2/8 39/40/8
f 41/42/8 31/2/8 40/41/8
f 42/43/8 31/2/8 41/42/8
f 43/44/8 42/43/8 41/42/8
f 55/55/8 42/43/8 43/44/8
f 44/45/8 31/2/8 42/43/8
f 45/46/8 31/2/8 44/45/8
f 46/47/8 31/2/8 45/46/8
f 47/48/8 31/2/8 46/47/8
f 48/49/8 31/2/8 47/48/8
f 49/50/8 31/2/8 48/49/8
f 50/51/8 31/2/8 49/50/8
f 51/52/8 31/2/8 50/51/8
f 52/53/8 31/2/8 51/52/8
f 53/54/8 31/2/8 52/53/8
f 54/1/8 31/2/8 53/54/8
f 43/44/7 42/43/7 55/55/7
f 30/58/9 56/57/9 29/56/9
f 29/56/10 56/57/10 30/58/10
f 29/61/11 7/60/11 31/59/11
f 7/60/11 29/61/11 2/62/11
f 59/21/12 58/19/12 57/20/12
f 58/19/12 59/21/12 60/22/12
f 58/19/12 60/22/12 61/18/12
f 61/18/12 60/22/12 62/63/12
f 61/18/12 62/63/12 63/64/12
f 63/64/12 62/63/12 64/65/12
f 63/64/12 64/65/12 65/66/12
f 65/66/12 64/65/12 66/25/12
f 65/66/12 66/25/12 67/15/12
f 67/15/12 66/25/12 68/26/12
f 67/15/12 68/26/12 69/14/12
f 69/14/12 68/26/12 31/7/12
f 69/14/12 31/7/12 70/67/12
f 70/67/12 31/7/12 71/68/12
f 71/68/12 31/7/12 72/11/12
f 72/11/12 31/7/12 73/10/12
f 73/10/12 31/7/12 74/9/12
f 7/2/12 74/9/12 31/7/12
f 7/2/12 75/8/12 74/9/12
f 7/2/12 76/6/12 75/8/12
f 7/2/12 77/69/12 76/6/12
f 7/2/12 78/53/12 77/69/12
f 7/2/12 79/3/12 78/53/12
f 79/3/12 7/2/12 27/1/12
f 57/20/13 58/19/13 59/21/13
f 60/22/13 59/21/13 58/19/13
f 61/18/13 60/22/13 58/19/13
f 62/63/13 60/22/13 61/18/13
f 63/64/13 62/63/13 61/18/13
f 64/65/13 62/63/13 63/64/13
f 65/66/13 64/65/13 63/64/13
f 66/25/13 64/65/13 65/66/13
f 67/15/13 66/25/13 65/66/13
f 68/26/13 66/25/13 67/15/13
f 69/14/13 68/26/13 67/15/13
f 31/7/13 68/26/13 69/14/13
f 70/67/13 31/7/13 69/14/13
f 71/68/13 31/7/13 70/67/13
f 72/11/13 31/7/13 71/68/13
f 73/10/13 31/7/13 72/11/13
f 74/9/13 31/7/13 73/10/13
f 31/7/13 74/9/13 7/2/13
f 74/9/13 75/8/13 7/2/13
f 75/8/13 76/6/13 7/2/13
f 76/6/13 77/69/13 7/2/13
f 77/69/13 78/53/13 7/2/13
f 78/53/13 79/3/13 7/2/13
f 27/1/13 7/2/13 79/3/13
f 82/37/14 81/71/14 80/70/14
f 81/71/14 82/37/14 83/22/14
f 81/71/14 83/22/14 84/18/14
f 84/18/14 83/22/14 85/23/14
f 84/18/14 85/23/14 86/17/14
f 86/17/14 85/23/14 87/72/14
f 86/17/14 87/72/14 88/73/14
f 88/73/14 87/72/14 89/74/14
f 88/73/14 89/74/14 90/15/14
f 90/15/14 89/74/14 28/26/14
f 90/15/14 28/26/14 91/75/14
f 91/75/14 28/26/14 2/76/14
f 91/75/14 2/76/14 92/77/14
f 92/77/14 2/76/14 93/12/14
f 93/12/14 2/76/14 94/78/14
f 94/78/14 2/76/14 95/79/14
f 95/79/14 2/76/14 96/80/14
f 29/81/14 96/80/14 2/76/14
f 29/81/14 97/82/14 96/80/14
f 29/81/14 98/83/14 97/82/14
f 29/81/14 99/5/14 98/83/14
f 29/81/14 100/84/14 99/5/14
f 29/81/14 101/54/14 100/84/14
f 101/54/14 29/81/14 56/1/14
f 80/70/15 81/71/15 82/37/15
f 83/22/15 82/37/15 81/71/15
f 84/18/15 83/22/15 81/71/15
f 85/23/15 83/22/15 84/18/15
f 86/17/15 85/23/15 84/18/15
f 87/72/15 85/23/15 86/17/15
f 88/73/15 87/72/15 86/17/15
f 89/74/15 87/72/15 88/73/15
f 90/15/15 89/74/15 88/73/15
f 28/26/15 89/74/15 90/15/15
f 91/75/15 28/26/15 90/15/15
f 2/76/15 28/26/15 91/75/15
f 92/77/15 2/76/15 91/75/15
f 93/12/15 2/76/15 92/77/15
f 94/78/15 2/76/15 93/12/15
f 95/79/15 2/76/15 94/78/15
f 96/80/15 2/76/15 95/79/15
f 2/76/15 96/80/15 29/81/15
f 96/80/15 97/82/15 29/81/15
f 97/82/15 98/83/15 29/81/15
f 98/83/15 99/5/15 29/81/15
f 99/5/15 100/84/15 29/81/15
f 100/84/15 101/54/15 29/81/15
f 56/1/15 29/81/15 101/54/15
f 68/87/16 54/86/16 31/85/16
f 31/85/17 54/86/17 68/87/17

usemtl dirt

f 103/90/18 2/89/18 102/88/18
f 2/89/18 103/90/18 7/91/18
f 29/91/19 105/93/19 104/92/19
f 105/93/19 29/91/19 31/89/19
f 103/59/20 104/62/20 105/60/20
f 104/62/20 103/59/20 102/61/20
f 2/91/21 104/93/21 102/92/21
f 104/93/21 2/91/21 29/89/21
f 31/91/22 103/88/22 105/90/22
f 103/88/22 31/91/22 7/89/22

