# Created by Kenney (www.kenney.nl)

mtllib blockSnowRoundedLong.mtl

g blockSnowRoundedLong

v 0.9 0 -0.4
v -0.9 0 -0.4
v 0.9 0 0.4
v -0.9 0 0.4
v 0.9 0.1 0.5
v -0.9 0.1 0.5
v 0.9 0.7 0.5
v -0.9 0.7 0.5
v -1 0.1 -0.4
v -1 0.7 -0.4
v -1 0.1 0.4
v -1 0.7 0.4
v 1 0.7 -0.4
v 1 0.1 -0.4
v 1 0.7 0.4
v 1 0.1 0.4
v -0.9866025 0.05 -0.4
v -0.9866025 0.05 0.4
v -0.9499999 0.01339746 -0.4
v -0.9499999 0.01339746 0.4
v 0.9 0.05 0.4866025
v 0.9 0.01339746 0.45
v -0.9 0.05 0.4866025
v -0.9 0.01339746 0.45
v 0.9499999 0.01339746 -0.4
v 0.9499999 0.01339746 0.4
v -0.9 0.1 -0.5
v 0.9 0.1 -0.5
v -0.9 0.7 -0.5
v 0.9 0.7 -0.5
v 0.9 0.01339746 -0.45
v 0.9 0.05 -0.4866025
v -0.9 0.01339746 -0.45
v -0.9 0.05 -0.4866025
v 0.9866025 0.05 -0.4
v 0.9866025 0.05 0.4
v -0.9866025 0.1 0.45
v -0.9866025 0.7 0.45
v -0.9499999 0.1 0.4866025
v -0.9499999 0.7 0.4866025
v 0.9866025 0.7 0.45
v 0.9866025 0.1 0.45
v 0.9499999 0.1 0.4866025
v 0.9499999 0.7 0.4866025
v 0.9433012 0.01339746 -0.425
v 0.9866025 0.1 -0.45
v 0.9749999 0.05 -0.4433013
v 0.9433012 0.01339746 0.425
v 0.9499999 0.7 -0.4866025
v 0.9499999 0.1 -0.4866025
v 0.9866025 0.7 -0.45
v 0.925 0.01339746 0.4433013
v 0.9433012 0.05 -0.475
v -0.925 0.01339746 -0.4433013
v -0.9433012 0.05 -0.475
v -0.9433012 0.01339746 -0.425
v -0.975 0.05 -0.4433013
v 0.9749999 0.05 0.4433013
v 0.9433012 0.05 0.475
v -0.9499999 0.1 -0.4866025
v -0.9499999 0.7 -0.4866025
v 0.925 0.01339746 -0.4433013
v -0.9866025 0.1 -0.45
v -0.9866025 0.7 -0.45
v -0.925 0.01339746 0.4433013
v -0.975 0.05 0.4433013
v -0.9433012 0.01339746 0.425
v -0.9433012 0.05 0.475
v -0.9 0.9 -0.5
v 0.9 0.9 -0.5
v 0.9 1 -0.4
v 0.9 1 0.4
v -0.9 1 -0.4
v -0.9 1 0.4
v -1 0.9 -0.4
v -1 0.9 0.4
v 1 0.9 -0.4
v 1 0.9 0.4
v 0.9 0.9 0.5
v -0.9 0.9 0.5
v -0.9 0.9499999 -0.4866025
v 0.9 0.9499999 -0.4866025
v 0.9499999 0.9 -0.4866025
v 0.9866025 0.9 -0.45
v -0.9 0.9866025 -0.45
v 0.9 0.9866025 -0.45
v -0.9499999 0.9 -0.4866025
v 0.9 0.9499999 0.4866025
v -0.9 0.9499999 0.4866025
v 0.9 0.9866025 0.45
v -0.9 0.9866025 0.45
v -0.9866025 0.9499999 -0.4
v -0.9866025 0.9499999 0.4
v -0.9866025 0.9 -0.45
v 0.9866025 0.9499999 -0.4
v 0.9866025 0.9499999 0.4
v 0.9499999 0.9866025 -0.4
v 0.9499999 0.9866025 0.4
v -0.9499999 0.9866025 -0.4
v -0.9499999 0.9866025 0.4
v -0.9866025 0.9 0.45
v 0.9866025 0.9 0.45
v -0.9499999 0.9 0.4866025
v 0.9499999 0.9 0.4866025
v 0.9749999 0.9499999 -0.4433013
v 0.9433012 0.9866025 -0.425
v -0.925 0.9866025 0.4433013
v 0.9433012 0.9499999 -0.475
v 0.925 0.9866025 -0.4433013
v -0.925 0.9866025 -0.4433013
v -0.9433012 0.9866025 -0.425
v -0.9433012 0.9499999 -0.475
v -0.975 0.9499999 -0.4433013
v 0.9433012 0.9499999 0.475
v 0.9749999 0.9499999 0.4433013
v 0.9433012 0.9866025 0.425
v 0.925 0.9866025 0.4433013
v -0.9433012 0.9866025 0.425
v -0.9433012 0.9499999 0.475
v -0.975 0.9499999 0.4433013

vn 0 -1 0
vn 0 0 1
vn -1 0 0
vn 1 0 0
vn -0.865321 -0.4883322 -0.1129214
vn -0.865321 -0.4883322 0.1129214
vn -0.5140254 -0.8549294 -0.06981172
vn -0.5140254 -0.8549294 0.06981172
vn 0.1129214 -0.4883322 0.865321
vn 0.06981172 -0.8549294 0.5140254
vn -0.1129214 -0.4883322 0.865321
vn -0.06981172 -0.8549294 0.5140254
vn 0.5140254 -0.8549294 -0.06981172
vn 0.1453179 -0.9786549 -0.1453179
vn 0.5140254 -0.8549294 0.06981172
vn 0.1453179 -0.9786549 0.1453179
vn 0 0 -1
vn 0.06981172 -0.8549294 -0.5140254
vn 0.1129214 -0.4883322 -0.865321
vn -0.06981172 -0.8549294 -0.5140254
vn -0.1129214 -0.4883322 -0.865321
vn 0.865321 -0.4883322 -0.1129214
vn 0.865321 -0.4883322 0.1129214
vn -0.1453179 -0.9786549 -0.1453179
vn -0.1453179 -0.9786549 0.1453179
vn -0.9585266 -0.2568364 -0.1235385
vn -0.9585266 -0.2568364 0.1235385
vn 0.9585266 -0.2568364 -0.1235385
vn 0.9585266 -0.2568364 0.1235385
vn -0.1235385 -0.2568364 -0.9585266
vn 0.1235385 -0.2568364 -0.9585266
vn 0.1235385 -0.2568364 0.9585266
vn -0.1235385 -0.2568364 0.9585266
vn -0.8660254 0 0.5
vn -0.5 0 0.8660254
vn 0.9659258 0 0.258819
vn 0.8660254 0 0.5
vn 0.5 0 0.8660254
vn 0.258819 0 0.9659258
vn -0.258819 0 0.9659258
vn 0.4597727 -0.8474345 -0.2654499
vn 0.8365163 -0.258819 -0.4829629
vn 0.7586237 -0.4823416 -0.4379916
vn 0.4597727 -0.8474345 0.2654499
vn 0.5 0 -0.8660254
vn 0.8660254 0 -0.5
vn 0.2654499 -0.8474345 0.4597727
vn 0.4829629 -0.258819 -0.8365163
vn 0.4379916 -0.4823416 -0.7586237
vn -0.9659258 0 0.258819
vn -0.2654499 -0.8474345 -0.4597727
vn -0.4379916 -0.4823416 -0.7586237
vn -0.4597727 -0.8474345 -0.2654499
vn -0.7586237 -0.4823416 -0.4379916
vn 0.9659258 0 -0.258819
vn 0.7586237 -0.4823416 0.4379916
vn 0.4379916 -0.4823416 0.7586237
vn 0.8365163 -0.258819 0.4829629
vn 0.4829629 -0.258819 0.8365163
vn -0.5 0 -0.8660254
vn -0.258819 0 -0.9659258
vn 0.2654499 -0.8474345 -0.4597727
vn 0.258819 0 -0.9659258
vn -0.8660254 0 -0.5
vn -0.9659258 0 -0.258819
vn -0.2654499 -0.8474345 0.4597727
vn -0.8365163 -0.258819 -0.4829629
vn -0.4829629 -0.258819 -0.8365163
vn -0.7586237 -0.4823416 0.4379916
vn -0.8365163 -0.258819 0.4829629
vn -0.4597727 -0.8474345 0.2654499
vn -0.4379916 -0.4823416 0.7586237
vn -0.4829629 -0.258819 0.8365163
vn 0 1 0
vn -0.1235385 0.2568364 -0.9585266
vn 0.1235385 0.2568364 -0.9585266
vn -0.1129214 0.4883322 -0.865321
vn 0.1129214 0.4883322 -0.865321
vn -0.06981172 0.8549294 -0.5140254
vn 0.06981172 0.8549294 -0.5140254
vn 0.08519387 0.9722424 -0.2179146
vn -0.08519387 0.9722424 -0.2179146
vn 0 0.5 0.8660254
vn 0 0.8660254 0.5
vn -0.9659258 0.258819 0
vn -0.8660254 0.5 0
vn 0 0.258819 0.9659258
vn 0.8660254 0.5 0
vn 0.5 0.8660254 0
vn -0.5 0.8660254 0
vn 0 0.9659258 0.258819
vn -0.258819 0.9659258 0
vn 0.9659258 0.258819 0
vn 0.258819 0.9659258 0
vn 0.7586237 0.4823416 -0.4379916
vn 0.8528062 0.4695798 -0.2285087
vn 0.4597727 0.8474345 -0.2654499
vn 0.5256083 0.8389881 -0.1408363
vn -0.1731918 0.9695407 0.1731918
vn -0.1408363 0.8389881 0.5256083
vn -0.2654499 0.8474345 0.4597727
vn 0.4379916 0.4823416 -0.7586237
vn 0.2654499 0.8474345 -0.4597727
vn -0.2654499 0.8474345 -0.4597727
vn -0.4597727 0.8474345 -0.2654499
vn -0.4379916 0.4823416 -0.7586237
vn -0.7586237 0.4823416 -0.4379916
vn 0.4829629 0.258819 0.8365163
vn 0.2505628 0.2505628 0.9351131
vn 0.4379916 0.4823416 0.7586237
vn 0.2285087 0.4695798 0.8528062
vn -0.5256083 0.8389881 -0.1408363
vn -0.8528062 0.4695798 -0.2285087
vn 0.4829629 0.258819 -0.8365163
vn 0.8365163 0.258819 -0.4829629
vn -0.8365163 0.258819 -0.4829629
vn -0.4829629 0.258819 -0.8365163
vn 0.8365163 0.258819 0.4829629
vn 0.7586237 0.4823416 0.4379916
vn 0.9351131 0.2505628 -0.2505628
vn 0.4597727 0.8474345 0.2654499
vn 0.2654499 0.8474345 0.4597727
vn -0.9351131 0.2505628 -0.2505628
vn 0.5256083 0.8389881 0.1408363
vn 0.1731918 0.9695407 0.1731918
vn 0.8528062 0.4695798 0.2285087
vn 0.1408363 0.8389881 0.5256083
vn -0.4597727 0.8474345 0.2654499
vn -0.5256083 0.8389881 0.1408363
vn -0.4379916 0.4823416 0.7586237
vn -0.7586237 0.4823416 0.4379916
vn 0.9351131 0.2505628 0.2505628
vn -0.8528062 0.4695798 0.2285087
vn -0.2505628 0.2505628 0.9351131
vn -0.4829629 0.258819 0.8365163
vn -0.2285087 0.4695798 0.8528062
vn -0.9351131 0.2505628 0.2505628
vn -0.8365163 0.258819 0.4829629

vt 35.43307 -15.74803
vt -35.43307 -15.74803
vt 35.43307 15.74803
vt -35.43307 15.74803
vt 35.43307 3.937008
vt -35.43307 3.937008
vt 35.43307 27.55906
vt -35.43307 27.55906
vt -15.74803 3.937008
vt -15.74803 27.55906
vt 15.74803 3.937008
vt 15.74803 27.55906
vt -15.74803 28.85782
vt 15.74803 28.85782
vt -15.74803 26.81988
vt 15.74803 26.81988
vt 35.43307 14.9384
vt 35.43307 12.90045
vt -35.43307 14.9384
vt -35.43307 12.90045
vt 15.74803 36.26366
vt 15.74803 34.22572
vt -15.74803 36.26366
vt -15.74803 34.22572
vt -15.74803 11.95464
vt -15.74803 13.99258
vt 15.74803 11.95464
vt 15.74803 13.99258
vt 35.43307 6.859776
vt -35.43307 6.859776
vt 35.43307 8.89772
vt -35.43307 8.89772
vt -35.43307 17.24938
vt 35.43307 17.24938
vt -35.43307 15.21143
vt 35.43307 15.21143
vt -14.9384 3.937008
vt -14.9384 27.55906
vt -12.90045 3.937008
vt -12.90045 27.55906
vt -5.021704 27.55906
vt -5.021704 3.937008
vt -7.059649 27.55906
vt -7.059649 3.937008
vt 31.1688 3.937008
vt 29.13086 3.937008
vt 31.1688 27.55906
vt 29.13086 27.55906
vt 14.9384 3.937008
vt 12.90045 3.937008
vt 14.9384 27.55906
vt 12.90045 27.55906
vt -29.13086 3.937008
vt -31.1688 3.937008
vt -29.13086 27.55906
vt -31.1688 27.55906
vt 5.53119 38.8811
vt 6.550163 38.8811
vt 6.040677 36.90787
vt 7.059649 14.36123
vt 6.923133 12.32786
vt 5.021704 14.36123
vt 5.158221 12.32786
vt -6.550163 38.8811
vt -5.53119 38.8811
vt -6.040677 36.90787
vt 13.40994 36.84681
vt 14.42891 36.84681
vt 13.91943 34.87358
vt -12.90045 13.83227
vt -13.03697 11.7989
vt -14.9384 13.83227
vt -14.80188 11.7989
vt 5.021704 3.937008
vt 5.021704 27.55906
vt 7.059649 3.937008
vt 7.059649 27.55906
vt 13.40994 26.84362
vt 13.03697 28.84714
vt 14.42891 26.84362
vt 14.80188 28.84714
vt 30.14983 23.49495
vt 29.64034 25.46818
vt 30.65931 25.46818
vt 6.923133 30.31383
vt 6.550163 28.3103
vt 5.158221 30.31383
vt 5.53119 28.3103
vt 30.65931 18.63983
vt 29.64034 18.63983
vt 31.03228 20.64335
vt 29.26737 20.64335
vt -5.158221 12.32786
vt -6.923133 12.32786
vt -5.021704 14.36123
vt -7.059649 14.36123
vt 14.80188 11.7989
vt 13.03697 11.7989
vt 14.9384 13.83227
vt 12.90045 13.83227
vt -14.80188 28.84714
vt -13.03697 28.84714
vt -14.42891 26.84362
vt -13.40994 26.84362
vt -6.550163 28.3103
vt -6.923133 30.31383
vt -5.53119 28.3103
vt -5.158221 30.31383
vt 31.03228 8.840174
vt 29.26737 8.840174
vt 31.1688 10.87354
vt 29.13086 10.87354
vt -29.64034 25.46818
vt -30.14983 23.49495
vt -30.65931 25.46818
vt -14.42891 36.84681
vt -13.40994 36.84681
vt -13.91943 34.87358
vt -31.03228 20.64335
vt -29.26737 20.64335
vt -30.65931 18.63983
vt -29.64034 18.63983
vt -29.26737 8.840174
vt -31.03228 8.840174
vt -29.13086 10.87354
vt -31.1688 10.87354
vt 35.43307 35.43307
vt -35.43307 35.43307
vt -15.74803 35.43307
vt 15.74803 35.43307
vt 35.43307 29.13086
vt -35.43307 29.13086
vt 35.43307 31.1688
vt -35.43307 31.1688
vt -12.90045 35.43307
vt -14.9384 35.43307
vt -29.13086 35.43307
vt -31.1688 35.43307
vt -35.43307 -7.059649
vt -35.43307 -5.021704
vt 35.43307 -7.059649
vt 35.43307 -5.021704
vt 31.1688 35.43307
vt 29.13086 35.43307
vt -15.74803 24.03599
vt -15.74803 26.07394
vt 15.74803 24.03599
vt 15.74803 26.07394
vt 14.9384 35.43307
vt 12.90045 35.43307
vt 15.74803 -1.018973
vt -15.74803 -1.018973
vt 15.74803 1.018973
vt -15.74803 1.018973
vt 5.021704 35.43307
vt 7.059649 35.43307
vt -5.021704 35.43307
vt -7.059649 35.43307
vt -15.74803 -24.03599
vt 15.74803 -24.03599
vt -15.74803 -26.07394
vt 15.74803 -26.07394
vt 6.923133 -1.996716
vt 5.158221 -1.996716
vt 6.550163 0.006809517
vt 5.53119 0.006809517
vt -30.14983 -12.97105
vt -29.64034 -14.94428
vt -30.65931 -14.94428
vt -31.03228 7.673757
vt -30.65931 9.677282
vt -29.26737 7.673757
vt -29.64034 9.677282
vt 29.64034 -14.94428
vt 30.14983 -12.97105
vt 30.65931 -14.94428
vt 13.40994 1.473492
vt 14.42891 1.473492
vt 13.03697 -0.5300335
vt 14.80188 -0.5300335
vt 6.550163 -28.35719
vt 5.53119 -28.35719
vt 6.040677 -26.38396
vt 31.1688 27.24064
vt 29.13086 27.24064
vt 31.03228 29.27401
vt 29.26737 29.27401
vt -6.550163 -28.35719
vt -6.040677 -26.38396
vt -5.53119 -28.35719
vt -6.550163 0.006809517
vt -5.53119 0.006809517
vt -6.923133 -1.996716
vt -5.158221 -1.996716
vt -12.90045 24.28192
vt -14.9384 24.28192
vt -13.03697 26.31529
vt -14.80188 26.31529
vt 14.9384 24.28192
vt 12.90045 24.28192
vt 14.80188 26.31529
vt 13.03697 26.31529
vt -14.80188 -0.5300335
vt -14.42891 1.473492
vt -13.03697 -0.5300335
vt -13.40994 1.473492
vt 13.40994 -26.32291
vt 13.91943 -24.34968
vt 14.42891 -26.32291
vt -13.40994 -26.32291
vt -14.42891 -26.32291
vt -13.91943 -24.34968
vt 7.059649 23.75295
vt 5.021704 23.75295
vt 6.923133 25.78632
vt 5.158221 25.78632
vt -7.059649 23.75295
vt -6.923133 25.78632
vt -5.021704 23.75295
vt -5.158221 25.78632
vt 31.03228 7.673757
vt 29.26737 7.673757
vt 30.65931 9.677282
vt 29.64034 9.677282
vt -29.13086 27.24064
vt -31.1688 27.24064
vt -29.26737 29.27401
vt -31.03228 29.27401

usemtl dirt

f 3/3/1 2/2/1 1/1/1
f 2/2/1 3/3/1 4/4/1
f 7/7/2 6/6/2 5/5/2
f 6/6/2 7/7/2 8/8/2
f 11/11/3 10/10/3 9/9/3
f 10/10/3 11/11/3 12/12/3
f 15/10/4 14/11/4 13/12/4
f 14/11/4 15/10/4 16/9/4
f 19/15/7 18/14/6 17/13/5
f 18/14/6 19/15/7 20/16/8
f 23/19/11 22/18/10 21/17/9
f 22/18/10 23/19/11 24/20/12
f 26/23/15 1/22/14 25/21/13
f 1/22/14 26/23/15 3/24/16
f 29/7/17 28/6/17 27/5/17
f 28/6/17 29/7/17 30/8/17
f 33/18/20 32/19/19 31/20/18
f 32/19/19 33/18/20 34/17/21
f 36/13/23 25/16/13 35/14/22
f 25/16/13 36/13/23 26/15/15
f 4/22/25 19/23/7 2/24/24
f 19/23/7 4/22/25 20/21/8
f 18/27/6 9/26/26 17/25/5
f 9/26/26 18/27/6 11/28/27
f 14/28/28 36/25/23 35/27/22
f 36/25/23 14/28/28 16/26/29
f 27/31/30 32/30/19 34/29/21
f 32/30/19 27/31/30 28/32/31
f 1/35/14 33/34/20 31/33/18
f 33/34/20 1/35/14 2/36/24
f 5/31/32 23/30/11 21/29/9
f 23/30/11 5/31/32 6/32/33
f 22/34/10 4/35/25 3/36/16
f 4/35/25 22/34/10 24/33/12
f 39/39/35 38/38/34 37/37/34
f 38/38/34 39/39/35 40/40/35
f 41/43/37 16/42/36 15/41/36
f 16/42/36 41/43/37 42/44/37
f 44/47/38 5/46/39 43/45/38
f 5/46/39 44/47/38 7/48/39
f 41/51/37 43/50/38 42/49/37
f 43/50/38 41/51/37 44/52/38
f 8/55/40 39/54/35 6/53/40
f 39/54/35 8/55/40 40/56/35
f 1/59/14 45/58/41 25/57/13
f 14/62/28 47/61/43 46/60/42
f 47/61/43 14/62/28 35/63/22
f 3/66/16 26/65/15 48/64/44
f 51/38/46 50/39/45 49/40/45
f 50/39/45 51/38/46 46/37/46
f 3/69/16 48/68/44 52/67/47
f 46/72/42 53/71/49 50/70/48
f 53/71/49 46/72/42 47/73/43
f 37/76/34 12/75/50 11/74/50
f 12/75/50 37/76/34 38/77/34
f 56/80/53 55/79/52 54/78/51
f 55/79/52 56/80/53 57/81/54
f 19/65/7 56/64/53 2/66/24
f 54/84/51 33/83/20 2/82/24
f 35/87/22 45/86/41 47/85/43
f 45/86/41 35/87/22 25/88/13
f 13/75/55 46/76/46 51/77/46
f 46/76/46 13/75/55 14/74/55
f 59/79/57 48/80/44 58/81/56
f 48/80/44 59/79/57 52/78/47
f 55/91/52 33/90/20 54/89/51
f 33/90/20 55/91/52 34/92/21
f 59/91/57 22/90/10 52/89/47
f 22/90/10 59/91/57 21/92/9
f 16/95/29 58/94/56 36/93/23
f 58/94/56 16/95/29 42/96/58
f 42/99/58 59/98/57 58/97/56
f 59/98/57 42/99/58 43/100/59
f 56/68/53 54/67/51 2/69/24
f 61/47/60 27/46/61 60/45/60
f 27/46/61 61/47/60 29/48/61
f 45/103/41 53/102/49 47/101/43
f 53/102/49 45/103/41 62/104/62
f 19/107/7 57/106/54 56/105/53
f 57/106/54 19/107/7 17/108/5
f 58/106/56 26/107/15 36/108/23
f 26/107/15 58/106/56 48/105/44
f 43/111/59 21/110/9 59/109/57
f 21/110/9 43/111/59 5/112/32
f 30/55/63 50/54/45 28/53/63
f 50/54/45 30/55/63 49/56/45
f 9/42/65 64/43/64 63/44/64
f 64/43/64 9/42/65 10/41/65
f 22/83/10 3/82/16 52/84/47
f 64/51/64 60/50/60 63/49/64
f 60/50/60 64/51/64 61/52/60
f 65/115/66 4/114/25 24/113/12
f 63/99/67 55/98/52 57/97/54
f 55/98/52 63/99/67 60/100/68
f 57/94/54 9/95/26 63/96/67
f 9/95/26 57/94/54 17/93/5
f 60/111/68 34/110/21 55/109/52
f 34/110/21 60/111/68 27/112/30
f 1/114/14 31/113/18 62/115/62
f 1/118/14 62/117/62 45/116/41
f 62/121/62 32/120/19 53/119/49
f 32/120/19 62/121/62 31/122/18
f 28/125/31 53/124/49 32/123/19
f 53/124/49 28/125/31 50/126/48
f 66/61/69 11/62/27 18/63/6
f 11/62/27 66/61/69 37/60/70
f 67/116/71 4/118/25 65/117/66
f 68/102/72 67/103/71 65/104/66
f 67/103/71 68/102/72 66/101/69
f 68/71/72 37/72/70 66/73/69
f 37/72/70 68/71/72 39/70/73
f 23/120/11 65/121/66 24/122/12
f 65/121/66 23/120/11 68/119/72
f 20/88/8 66/85/69 18/87/6
f 66/85/69 20/88/8 67/86/71
f 20/57/8 4/59/25 67/58/71
f 6/125/33 68/124/72 23/123/11
f 68/124/72 6/125/33 39/126/73

usemtl snow

f 69/127/17 30/8/17 29/7/17
f 30/8/17 69/127/17 70/128/17
f 73/1/74 72/4/74 71/2/74
f 72/4/74 73/1/74 74/3/74
f 12/12/3 75/129/3 10/10/3
f 75/129/3 12/12/3 76/130/3
f 78/129/4 13/12/4 77/130/4
f 13/12/4 78/129/4 15/10/4
f 79/127/2 8/8/2 7/7/2
f 8/8/2 79/127/2 80/128/2
f 81/133/77 70/132/76 69/131/75
f 70/132/76 81/133/77 82/134/78
f 84/136/46 49/40/45 83/135/45
f 49/40/45 84/136/46 51/38/46
f 85/17/79 82/20/78 81/18/77
f 82/20/78 85/17/79 86/19/80
f 70/137/63 49/56/45 30/55/63
f 49/56/45 70/137/63 83/138/45
f 85/141/79 71/140/81 86/139/80
f 71/140/81 85/141/79 73/142/82
f 87/143/60 29/48/61 61/47/60
f 29/48/61 87/143/60 69/144/61
f 90/17/84 89/20/83 88/18/83
f 89/20/83 90/17/84 91/19/84
f 76/147/85 92/146/86 75/145/85
f 92/146/86 76/147/85 93/148/86
f 88/133/83 80/132/87 79/131/87
f 80/132/87 88/133/83 89/134/83
f 94/149/64 61/52/60 64/51/64
f 61/52/60 94/149/64 87/150/60
f 97/153/89 96/152/88 95/151/88
f 96/152/88 97/153/89 98/154/89
f 93/151/86 99/154/90 92/152/86
f 99/154/90 93/151/86 100/153/90
f 38/77/34 76/155/50 12/75/50
f 76/155/50 38/77/34 101/156/34
f 102/158/37 15/41/36 78/157/36
f 15/41/36 102/158/37 41/43/37
f 80/137/40 40/56/35 8/55/40
f 40/56/35 80/137/40 103/138/35
f 77/155/55 51/77/46 84/156/46
f 51/77/46 77/155/55 13/75/55
f 74/140/91 90/141/84 72/142/91
f 90/141/84 74/140/91 91/139/84
f 40/40/35 101/136/34 38/38/34
f 101/136/34 40/40/35 103/135/35
f 99/161/90 74/160/92 73/159/92
f 74/160/92 99/161/90 100/162/90
f 96/146/88 77/147/93 95/148/88
f 77/147/93 96/146/88 78/145/93
f 10/41/65 94/158/64 64/43/64
f 94/158/64 10/41/65 75/157/65
f 104/143/38 7/48/39 44/47/38
f 7/48/39 104/143/38 79/144/39
f 71/160/94 98/161/89 97/162/89
f 98/161/89 71/160/94 72/159/94
f 102/149/37 44/52/38 41/51/37
f 44/52/38 102/149/37 104/150/38
f 106/165/97 95/164/96 105/163/95
f 95/164/96 106/165/97 97/166/98
f 107/169/101 91/168/100 74/167/99
f 82/172/78 109/171/103 108/170/102
f 109/171/103 82/172/78 86/173/80
f 110/176/104 73/175/82 85/174/79
f 112/179/106 111/178/105 110/177/104
f 111/178/105 112/179/106 113/180/107
f 71/183/81 97/182/98 106/181/97
f 71/167/81 109/169/103 86/168/80
f 114/186/110 79/185/109 104/184/108
f 79/185/109 114/186/110 88/187/111
f 99/190/112 73/189/82 111/188/105
f 113/193/107 99/192/112 111/191/105
f 99/192/112 113/193/107 92/194/113
f 108/197/102 84/196/115 83/195/114
f 84/196/115 108/197/102 105/198/95
f 113/201/107 87/200/117 94/199/116
f 87/200/117 113/201/107 112/202/106
f 115/201/119 104/200/108 102/199/118
f 104/200/108 115/201/119 114/202/110
f 108/205/102 106/204/97 105/203/95
f 106/204/97 108/205/102 109/206/103
f 111/209/105 73/208/82 110/207/104
f 112/186/106 69/185/75 87/184/117
f 69/185/75 112/186/106 81/187/77
f 71/212/81 106/211/97 109/210/103
f 105/215/95 77/214/120 84/213/115
f 77/214/120 105/215/95 95/216/96
f 116/178/121 114/179/110 115/180/119
f 114/179/110 116/178/121 117/177/122
f 75/219/123 113/218/107 94/217/116
f 113/218/107 75/219/123 92/220/113
f 72/189/125 116/188/121 98/190/124
f 98/192/124 115/193/119 96/194/126
f 115/193/119 98/192/124 116/191/121
f 72/208/125 117/207/122 116/209/121
f 110/223/104 81/222/77 112/221/106
f 81/222/77 110/223/104 85/224/79
f 90/174/127 117/176/122 72/175/125
f 100/182/129 118/181/128 74/183/99
f 118/211/128 107/210/101 74/212/99
f 82/227/78 83/226/114 70/225/76
f 83/226/114 82/227/78 108/228/102
f 118/204/128 119/205/130 107/206/101
f 119/205/130 118/204/128 120/203/131
f 115/218/119 78/219/132 96/220/126
f 78/219/132 115/218/119 102/217/118
f 120/163/131 100/166/129 93/164/133
f 100/166/129 120/163/131 118/165/128
f 117/223/122 88/222/111 114/221/110
f 88/222/111 117/223/122 90/224/127
f 89/227/136 103/226/135 80/225/134
f 103/226/135 89/227/136 119/228/130
f 107/171/101 89/172/136 91/173/100
f 89/172/136 107/171/101 119/170/130
f 101/213/138 93/216/133 76/214/137
f 93/216/133 101/213/138 120/215/131
f 101/196/138 119/197/130 120/198/131
f 119/197/130 101/196/138 103/195/135

