# Created by Kenney (www.kenney.nl)

mtllib blockSnowLevel.mtl

g blockSnowLevel

v 0 0.5 0
v 0 0.5 0.5
v -0.5 0.5 0
v -0.5 0.5 0.5
v -0.591514 0.3414931 0.5
v -0.5 0.3414931 0.591514
v -0.09151399 0.8414931 0.5
v 0 1 0.5
v 0 0.8414931 0.591514
v 0.5 1 -0.5
v 0 1 0
v -0.5 1 -0.5
v -0.5 1 0
v 0.5 1 0.5
v -0.591514 0.8414931 -0.5
v -0.5 0.8414931 -0.591514
v -0.25 0.7981918 -0.616514
v -0.2072618 0.79941 -0.6158106
v -0.2927382 0.79941 -0.6158106
v -0.3352913 0.803059 -0.613704
v -0.1647086 0.803059 -0.613704
v -0.3774755 0.8091233 -0.6102027
v -0.1225245 0.8091233 -0.6102027
v -0.4191079 0.8175765 -0.6053224
v -0.08089209 0.8175765 -0.6053224
v -0.4600083 0.828382 -0.5990837
v -0.03999162 0.828382 -0.5990837
v 0.03999162 0.8546042 -0.5839443
v 0.08089209 0.8654098 -0.5777057
v 0.1225245 0.8738629 -0.5728252
v 0.1647086 0.8799272 -0.569324
v 0.2072618 0.8835763 -0.5672172
v 0.25 0.8847944 -0.566514
v 0.2927382 0.8835763 -0.5672172
v 0.3352914 0.8799272 -0.569324
v 0.3774755 0.8738629 -0.5728252
v 0.4191079 0.8654098 -0.5777057
v 0.4600084 0.8546042 -0.5839443
v 0.5 0.8414931 -0.591514
v -0.125 0.2981918 0.616514
v -0.146369 0.29941 0.615811
v -0.1036309 0.29941 0.615811
v -0.08235419 0.303059 0.613704
v -0.1676457 0.303059 0.613704
v -0.06126219 0.3091233 0.610203
v -0.1887378 0.3091233 0.610203
v -0.0404461 0.3175765 0.605322
v -0.2095539 0.3175765 0.605322
v -0.01999581 0.328382 0.599084
v -0.2300042 0.328382 0.599084
v 0 0.3414931 0.591514
v -0.2699958 0.3546042 0.583944
v -0.2904461 0.3654097 0.577706
v -0.3112622 0.3738629 0.572825
v -0.3323543 0.3799272 0.569324
v -0.3536309 0.3835762 0.567217
v -0.375 0.3847944 0.566514
v -0.3963691 0.3835762 0.567217
v -0.4176457 0.3799272 0.569324
v -0.4387378 0.3738629 0.572825
v -0.4595538 0.3654097 0.577706
v -0.4800042 0.3546042 0.583944
v 0.375 0.7981918 0.616514
v 0.3536309 0.79941 0.615811
v 0.3963691 0.79941 0.615811
v 0.4176457 0.803059 0.613704
v 0.3323543 0.803059 0.613704
v 0.4387378 0.8091233 0.610203
v 0.3112624 0.8091233 0.610203
v 0.459554 0.8175765 0.605322
v 0.290446 0.8175765 0.605322
v 0.4800042 0.828382 0.599084
v 0.2699958 0.828382 0.599084
v 0.5 0.8414931 0.591514
v 0.2300042 0.8546042 0.583944
v 0.209554 0.8654098 0.577706
v 0.1887378 0.8738629 0.572825
v 0.1676457 0.8799272 0.569324
v 0.1463691 0.8835763 0.567217
v 0.125 0.8847944 0.566514
v 0.1036309 0.8835763 0.567217
v 0.08235431 0.8799272 0.569324
v 0.06126225 0.8738629 0.572825
v 0.04044604 0.8654098 0.577706
v 0.01999581 0.8546042 0.583944
v -0.583944 0.8546042 -0.4800042
v -0.577706 0.8654098 -0.459554
v -0.572825 0.8738629 -0.4387378
v -0.569324 0.8799272 -0.4176457
v -0.567217 0.8835763 -0.3963691
v -0.566514 0.8847944 -0.375
v -0.567217 0.8835763 -0.3536309
v -0.569324 0.8799272 -0.3323543
v -0.572825 0.8738629 -0.3112623
v -0.577706 0.8654098 -0.2904461
v -0.583944 0.8546042 -0.2699958
v -0.599084 0.828382 -0.2300042
v -0.605322 0.8175765 -0.209554
v -0.610203 0.8091233 -0.1887378
v -0.613704 0.803059 -0.1676457
v -0.615811 0.79941 -0.1463691
v -0.616514 0.7981918 -0.125
v -0.615811 0.79941 -0.1036309
v -0.613704 0.803059 -0.08235431
v -0.610203 0.8091233 -0.06126219
v -0.605322 0.8175765 -0.0404461
v -0.599084 0.828382 -0.01999581
v -0.591514 0.8414931 0
v -0.07117921 0.8767141 0.07117921
v -0.08235419 0.8799272 0.06932411
v -0.1036309 0.8835763 0.0672172
v -0.125 0.8847944 0.06651402
v -0.146369 0.8835763 0.0672172
v -0.1676457 0.8799272 0.06932411
v -0.1887378 0.8738629 0.07282531
v -0.2095539 0.8654098 0.07770568
v -0.2300042 0.8546042 0.08394429
v -0.5 0.8414931 0.09151399
v -0.4800042 0.828382 0.09908369
v -0.2699958 0.828382 0.09908369
v -0.4595538 0.8175765 0.1053222
v -0.2904461 0.8175765 0.1053222
v -0.4387378 0.8091233 0.1102027
v -0.3112622 0.8091233 0.1102027
v -0.4176457 0.803059 0.1137039
v -0.3323543 0.803059 0.1137039
v -0.3963691 0.79941 0.1158107
v -0.3536309 0.79941 0.1158107
v -0.375 0.7981918 0.116514
v -0.591514 0.3414931 0
v -0.583944 0.3546042 0.01999581
v -0.577706 0.3654097 0.0404461
v -0.572825 0.3738629 0.06126219
v -0.569324 0.3799272 0.08235419
v -0.567217 0.3835762 0.1036309
v -0.566514 0.3847944 0.125
v -0.567217 0.3835762 0.146369
v -0.569324 0.3799272 0.1676457
v -0.572825 0.3738629 0.1887378
v -0.577706 0.3654097 0.2095539
v -0.583944 0.3546042 0.2300042
v -0.599084 0.328382 0.2699958
v -0.605322 0.3175765 0.2904461
v -0.610203 0.3091233 0.3112622
v -0.613704 0.303059 0.3323543
v -0.615811 0.29941 0.3536309
v -0.616514 0.2981918 0.375
v -0.615811 0.29941 0.3963691
v -0.613704 0.303059 0.4176457
v -0.610203 0.3091233 0.4387378
v -0.605322 0.3175765 0.4595539
v -0.599084 0.328382 0.4800042
v -0.06932408 0.8799272 0.08235419
v -0.06721723 0.8835763 0.1036309
v -0.06651402 0.8847944 0.125
v -0.06721723 0.8835763 0.146369
v -0.06932408 0.8799272 0.1676457
v -0.07282531 0.8738629 0.1887378
v -0.07770568 0.8654098 0.2095539
v -0.08394432 0.8546042 0.2300042
v -0.09908372 0.828382 0.2699958
v -0.1053222 0.8175765 0.2904461
v -0.1102027 0.8091233 0.3112622
v -0.1137039 0.803059 0.3323543
v -0.1158107 0.79941 0.3536309
v -0.116514 0.7981918 0.375
v -0.1158107 0.79941 0.3963691
v -0.1137039 0.803059 0.4176457
v -0.1102027 0.8091233 0.4387378
v -0.1053222 0.8175765 0.4595539
v -0.09908372 0.828382 0.4800042
v 0.591514 0.8414931 0.5
v 0.591514 0.8414931 -0.5
v 0.5990837 0.828382 -0.4600084
v 0.6053224 0.8175765 -0.4191079
v 0.6102027 0.8091233 -0.3774755
v 0.613704 0.803059 -0.3352914
v 0.6158106 0.79941 -0.2927382
v 0.616514 0.7981918 -0.25
v 0.6158106 0.79941 -0.2072618
v 0.613704 0.803059 -0.1647086
v 0.6102027 0.8091233 -0.1225245
v 0.6053224 0.8175765 -0.08089209
v 0.5839443 0.8546042 0.03999159
v 0.5990837 0.828382 -0.03999162
v 0.591514 0.8414931 0
v 0.5777057 0.8654098 0.08089209
v 0.5728252 0.8738629 0.1225245
v 0.569324 0.8799272 0.1647086
v 0.5672172 0.8835763 0.2072618
v 0.566514 0.8847944 0.25
v 0.5672172 0.8835763 0.2927382
v 0.569324 0.8799272 0.3352913
v 0.5728252 0.8738629 0.3774755
v 0.5777057 0.8654098 0.4191079
v 0.5839443 0.8546042 0.4600083
v 0.5 0 -0.5
v 0.5 0 0.5
v -0.5 0 -0.5
v -0.5 0 0.5

vn 0 1 0
vn -0.6546537 0.3779645 0.6546537
vn 0.6546537 -0.3779645 -0.6546537
vn -0.6546537 0.3779645 -0.6546535
vn 0.6546537 -0.3779645 0.6546535
vn 0 0.5 -0.8660254
vn 0 -0.5 0.8660254
vn -3.560154E-07 0.5000005 0.8660251
vn 3.560154E-07 -0.5000005 -0.8660251
vn -3.220842E-07 0.5000005 0.8660251
vn 3.220842E-07 -0.5000005 -0.8660251
vn -0.8660251 0.5000005 -3.220842E-07
vn 0.8660251 -0.5000005 3.220842E-07
vn 0 0.5 0.8660254
vn 0 -0.5 -0.8660254
vn -0.8660251 0.5000005 -3.560154E-07
vn 0.8660251 -0.5000005 3.560154E-07
vn -0.8660254 0.5 0
vn 0.8660254 -0.5 0
vn 0.6546535 0.3779645 0.6546537
vn -0.6546535 -0.3779645 -0.6546537
vn 0.8660254 0.5 0
vn -0.8660254 -0.5 0
vn 0.6546537 0.3779645 -0.6546537
vn -0.6546537 -0.3779645 0.6546537
vn -1 0 0
vn 1 0 0
vn 0 -1 0
vn 0 0 1
vn 0 0 -1

vt 0 5.684342E-14
vt 0 19.68504
vt 19.68504 5.684342E-14
vt 19.68504 19.68504
vt -2.547644 0.9622753
vt -4.085621E-14 7.702709
vt 2.547644 0.9622753
vt 11.37178 24.44813
vt 13.91943 31.18856
vt 16.46707 24.44813
vt -19.68504 -19.68504
vt 19.68504 -19.68504
vt -19.68504 19.68504
vt 2.547643 19.18708
vt -2.547647 19.18708
vt -1.520817E-06 25.92751
vt 9.84252 15.07864
vt 8.159913 15.13402
vt 11.52513 15.13402
vt 13.20044 15.2999
vt 6.48459 15.2999
vt 14.86124 15.57559
vt 4.823799 15.57559
vt 16.50031 15.95988
vt 3.184728 15.95988
vt 18.11056 16.4511
vt 1.574472 16.4511
vt 19.68504 17.04714
vt -1.574473 17.64318
vt 19.68504 24.25297
vt -3.184729 18.13441
vt -4.8238 18.5187
vt -6.484591 18.79438
vt -8.159914 18.96027
vt -9.84252 19.01565
vt -19.68504 24.25297
vt -11.52513 18.96027
vt -13.20045 18.79438
vt -14.86124 18.5187
vt -16.50031 18.13441
vt -18.11057 17.64318
vt -19.68504 17.04714
vt -4.92125 -1.969124
vt -5.762549 -1.91375
vt -4.079947 -1.91375
vt -3.242281 -1.747859
vt -6.600214 -1.747859
vt -2.411888 -1.472176
vt -7.430612 -1.472177
vt -1.592356 -1.087877
vt -8.250144 -1.087879
vt -0.7872265 -0.5966629
vt -9.055274 -0.5966647
vt 9.573475E-06 -0.0006176753
vt -10.62975 0.5954252
vt 8.092348E-06 7.205209
vt -11.43488 1.086639
vt -12.25441 1.470938
vt -13.08481 1.74662
vt -13.92247 1.912511
vt -14.76377 1.967884
vt -19.68503 7.205205
vt -15.60507 1.91251
vt -16.44274 1.746619
vt -17.27313 1.470937
vt -18.09266 1.086638
vt -18.89779 0.5954235
vt -19.68503 -0.0006217214
vt 14.76379 15.07862
vt 13.92249 15.13399
vt 15.60509 15.13399
vt 16.44275 15.29988
vt 13.08482 15.29988
vt 17.27315 15.57557
vt 12.25443 15.57557
vt 18.09268 15.95987
vt 11.43489 15.95986
vt 18.89781 16.45108
vt 10.62976 16.45108
vt 19.68505 17.04712
vt 9.055292 17.64317
vt 19.68505 24.25295
vt 8.250166 18.13439
vt 7.43063 18.51868
vt 6.600233 18.79436
vt 5.762571 18.96026
vt 4.921268 19.01563
vt 7.321081E-06 24.25295
vt 4.079965 18.96026
vt 3.242304 18.79436
vt 2.411906 18.51868
vt 1.592375 18.13438
vt 0.7872448 17.64317
vt 8.661044E-06 17.04712
vt -19.68503 17.04712
vt -19.68503 24.25294
vt -18.89779 17.64316
vt -18.09267 18.13438
vt -17.27313 18.51868
vt -16.44274 18.79436
vt -15.60507 18.96025
vt -14.76377 19.01562
vt -13.92247 18.96025
vt -13.08481 18.79436
vt -12.25441 18.51868
vt -11.43488 18.13438
vt -10.62975 17.64316
vt -9.055275 16.45107
vt -8.250149 15.95986
vt -7.430613 15.57556
vt -6.600215 15.29988
vt -5.762554 15.13399
vt -4.921251 15.07862
vt -4.079947 15.13399
vt -3.242286 15.29988
vt -2.411889 15.57556
vt -1.592357 15.95986
vt -0.7872275 16.45108
vt -2.80233 28.49083
vt -3.242291 28.6369
vt 2.551807E-21 34.09549
vt -4.079957 28.80279
vt -4.92126 28.85817
vt -19.68504 34.09549
vt -5.762559 28.80279
vt -6.600224 28.6369
vt -7.430622 28.36121
vt -8.250154 27.97693
vt -9.055284 27.4857
vt -19.68504 26.88966
vt -18.8978 26.29362
vt -10.62976 26.29362
vt -18.09267 25.8024
vt -11.43489 25.8024
vt -17.27314 25.41811
vt -12.25442 25.41811
vt -16.44274 25.14242
vt -13.08482 25.14242
vt -15.60508 24.97654
vt -13.92248 24.97654
vt -14.76378 24.92116
vt 0.7872457 0.5954276
vt 1.592376 1.086642
vt 2.411907 1.470941
vt 3.242301 1.746623
vt 19.68505 7.205213
vt 4.079966 1.912514
vt 4.921269 1.967888
vt 5.762568 1.912515
vt 6.600234 1.746624
vt 7.430631 1.470942
vt 8.250163 1.086643
vt 9.055293 0.5954293
vt 10.62977 -0.5966606
vt 11.4349 -1.087875
vt 12.25443 -1.472173
vt 13.08482 -1.747855
vt 13.92249 -1.913746
vt 14.76379 -1.96912
vt 15.60509 -1.913746
vt 16.44275 -1.747855
vt 17.27315 -1.472172
vt 18.09268 -1.087873
vt 18.89781 -0.5966589
vt 19.68505 -0.0006136291
vt 19.68504 34.09549
vt 3.242291 28.6369
vt 5.684342E-14 34.09549
vt 2.80233 28.49083
vt 4.079957 28.80279
vt 4.92126 28.85817
vt 5.762559 28.80279
vt 6.600224 28.6369
vt 7.430622 28.36121
vt 8.250154 27.97693
vt 9.055284 27.4857
vt 10.62976 26.29362
vt 11.43489 25.8024
vt 12.25442 25.41811
vt 13.08482 25.14242
vt 13.92248 24.97654
vt 14.76378 24.92116
vt 15.60508 24.97654
vt 16.44274 25.14242
vt 17.27314 25.41811
vt 18.09267 25.8024
vt 18.8978 26.29362
vt 19.68504 26.88966
vt -11.37178 24.44813
vt -16.46707 24.44813
vt -13.91943 31.18856
vt 2.547647 19.18708
vt -2.547643 19.18708
vt 1.521117E-06 25.92751
vt 18.11057 16.4511
vt 16.50031 15.95988
vt 13.20045 15.2999
vt -1.574473 17.64318
vt -3.164619E-07 17.04714
vt -13.20045 18.79438
vt -18.11056 17.64318
vt 2.547645 19.18708
vt -2.547645 19.18708
vt -3.104432E-10 25.92751
vt 5.684342E-14 19.68504
vt 5.684342E-14 39.37008
vt 19.68504 39.37008
vt 19.68504 -4.604317E-12
vt -19.68504 39.37008
vt -19.68504 -4.604317E-12
vt -19.68504 0
vt 19.68504 0
vt 0 39.37008
vt 19.68504 4.973799E-12
vt -19.68504 4.973799E-12

usemtl snow

f 3/3/1 2/2/1 1/1/1
f 2/2/1 3/3/1 4/4/1
f 6/7/2 4/6/2 5/5/2
f 5/5/3 4/6/3 6/7/3
f 9/10/2 8/9/2 7/8/2
f 7/8/3 8/9/3 9/10/3
f 12/12/1 11/1/1 10/11/1
f 11/1/1 12/12/1 13/3/1
f 8/2/1 10/11/1 11/1/1
f 10/11/1 8/2/1 14/13/1
f 12/16/4 16/15/4 15/14/4
f 15/14/5 16/15/5 12/16/5
f 19/19/6 18/18/6 17/17/6
f 18/18/6 19/19/6 20/20/6
f 18/18/6 20/20/6 21/21/6
f 21/21/6 20/20/6 22/22/6
f 21/21/6 22/22/6 23/23/6
f 23/23/6 22/22/6 24/24/6
f 23/23/6 24/24/6 25/25/6
f 25/25/6 24/24/6 26/26/6
f 25/25/6 26/26/6 27/27/6
f 27/27/6 26/26/6 16/28/6
f 27/27/6 16/28/6 28/29/6
f 28/29/6 16/28/6 12/30/6
f 28/29/6 12/30/6 29/31/6
f 29/31/6 12/30/6 30/32/6
f 30/32/6 12/30/6 31/33/6
f 31/33/6 12/30/6 32/34/6
f 32/34/6 12/30/6 33/35/6
f 10/36/6 33/35/6 12/30/6
f 10/36/6 34/37/6 33/35/6
f 10/36/6 35/38/6 34/37/6
f 10/36/6 36/39/6 35/38/6
f 10/36/6 37/40/6 36/39/6
f 10/36/6 38/41/6 37/40/6
f 38/41/6 10/36/6 39/42/6
f 17/17/7 18/18/7 19/19/7
f 20/20/7 19/19/7 18/18/7
f 21/21/7 20/20/7 18/18/7
f 22/22/7 20/20/7 21/21/7
f 23/23/7 22/22/7 21/21/7
f 24/24/7 22/22/7 23/23/7
f 25/25/7 24/24/7 23/23/7
f 26/26/7 24/24/7 25/25/7
f 27/27/7 26/26/7 25/25/7
f 16/28/7 26/26/7 27/27/7
f 28/29/7 16/28/7 27/27/7
f 12/30/7 16/28/7 28/29/7
f 29/31/7 12/30/7 28/29/7
f 30/32/7 12/30/7 29/31/7
f 31/33/7 12/30/7 30/32/7
f 32/34/7 12/30/7 31/33/7
f 33/35/7 12/30/7 32/34/7
f 12/30/7 33/35/7 10/36/7
f 33/35/7 34/37/7 10/36/7
f 34/37/7 35/38/7 10/36/7
f 35/38/7 36/39/7 10/36/7
f 36/39/7 37/40/7 10/36/7
f 37/40/7 38/41/7 10/36/7
f 39/42/7 10/36/7 38/41/7
f 42/45/8 41/44/8 40/43/8
f 41/44/8 42/45/8 43/46/8
f 41/44/8 43/46/8 44/47/8
f 44/47/8 43/46/8 45/48/8
f 44/47/8 45/48/8 46/49/8
f 46/49/8 45/48/8 47/50/8
f 46/49/8 47/50/8 48/51/8
f 48/51/8 47/50/8 49/52/8
f 48/51/8 49/52/8 50/53/8
f 50/53/8 49/52/8 51/54/8
f 50/53/8 51/54/8 52/55/8
f 52/55/8 51/54/8 2/56/8
f 52/55/8 2/56/8 53/57/8
f 53/57/8 2/56/8 54/58/8
f 54/58/8 2/56/8 55/59/8
f 55/59/8 2/56/8 56/60/8
f 56/60/8 2/56/8 57/61/8
f 4/62/8 57/61/8 2/56/8
f 4/62/8 58/63/8 57/61/8
f 4/62/8 59/64/8 58/63/8
f 4/62/8 60/65/8 59/64/8
f 4/62/8 61/66/8 60/65/8
f 4/62/8 62/67/8 61/66/8
f 62/67/8 4/62/8 6/68/8
f 40/43/9 41/44/9 42/45/9
f 43/46/9 42/45/9 41/44/9
f 44/47/9 43/46/9 41/44/9
f 45/48/9 43/46/9 44/47/9
f 46/49/9 45/48/9 44/47/9
f 47/50/9 45/48/9 46/49/9
f 48/51/9 47/50/9 46/49/9
f 49/52/9 47/50/9 48/51/9
f 50/53/9 49/52/9 48/51/9
f 51/54/9 49/52/9 50/53/9
f 52/55/9 51/54/9 50/53/9
f 2/56/9 51/54/9 52/55/9
f 53/57/9 2/56/9 52/55/9
f 54/58/9 2/56/9 53/57/9
f 55/59/9 2/56/9 54/58/9
f 56/60/9 2/56/9 55/59/9
f 57/61/9 2/56/9 56/60/9
f 2/56/9 57/61/9 4/62/9
f 57/61/9 58/63/9 4/62/9
f 58/63/9 59/64/9 4/62/9
f 59/64/9 60/65/9 4/62/9
f 60/65/9 61/66/9 4/62/9
f 61/66/9 62/67/9 4/62/9
f 6/68/9 4/62/9 62/67/9
f 65/71/10 64/70/10 63/69/10
f 64/70/10 65/71/10 66/72/10
f 64/70/10 66/72/10 67/73/10
f 67/73/10 66/72/10 68/74/10
f 67/73/10 68/74/10 69/75/10
f 69/75/10 68/74/10 70/76/10
f 69/75/10 70/76/10 71/77/10
f 71/77/10 70/76/10 72/78/10
f 71/77/10 72/78/10 73/79/10
f 73/79/10 72/78/10 74/80/10
f 73/79/10 74/80/10 75/81/10
f 75/81/10 74/80/10 14/82/10
f 75/81/10 14/82/10 76/83/10
f 76/83/10 14/82/10 77/84/10
f 77/84/10 14/82/10 78/85/10
f 78/85/10 14/82/10 79/86/10
f 79/86/10 14/82/10 80/87/10
f 8/88/10 80/87/10 14/82/10
f 8/88/10 81/89/10 80/87/10
f 8/88/10 82/90/10 81/89/10
f 8/88/10 83/91/10 82/90/10
f 8/88/10 84/92/10 83/91/10
f 8/88/10 85/93/10 84/92/10
f 85/93/10 8/88/10 9/94/10
f 63/69/11 64/70/11 65/71/11
f 66/72/11 65/71/11 64/70/11
f 67/73/11 66/72/11 64/70/11
f 68/74/11 66/72/11 67/73/11
f 69/75/11 68/74/11 67/73/11
f 70/76/11 68/74/11 69/75/11
f 71/77/11 70/76/11 69/75/11
f 72/78/11 70/76/11 71/77/11
f 73/79/11 72/78/11 71/77/11
f 74/80/11 72/78/11 73/79/11
f 75/81/11 74/80/11 73/79/11
f 14/82/11 74/80/11 75/81/11
f 76/83/11 14/82/11 75/81/11
f 77/84/11 14/82/11 76/83/11
f 78/85/11 14/82/11 77/84/11
f 79/86/11 14/82/11 78/85/11
f 80/87/11 14/82/11 79/86/11
f 14/82/11 80/87/11 8/88/11
f 80/87/11 81/89/11 8/88/11
f 81/89/11 82/90/11 8/88/11
f 82/90/11 83/91/11 8/88/11
f 83/91/11 84/92/11 8/88/11
f 84/92/11 85/93/11 8/88/11
f 9/94/11 8/88/11 85/93/11
f 86/97/12 12/96/12 15/95/12
f 12/96/12 86/97/12 87/98/12
f 12/96/12 87/98/12 88/99/12
f 12/96/12 88/99/12 89/100/12
f 12/96/12 89/100/12 13/88/12
f 13/88/12 89/100/12 90/101/12
f 13/88/12 90/101/12 91/102/12
f 13/88/12 91/102/12 92/103/12
f 13/88/12 92/103/12 93/104/12
f 13/88/12 93/104/12 94/105/12
f 13/88/12 94/105/12 95/106/12
f 13/88/12 95/106/12 96/107/12
f 13/88/12 96/107/12 97/108/12
f 13/88/12 97/108/12 98/109/12
f 13/88/12 98/109/12 99/110/12
f 13/88/12 99/110/12 100/111/12
f 13/88/12 100/111/12 101/112/12
f 13/88/12 101/112/12 102/113/12
f 13/88/12 102/113/12 103/114/12
f 13/88/12 103/114/12 104/115/12
f 13/88/12 104/115/12 105/116/12
f 13/88/12 105/116/12 106/117/12
f 13/88/12 106/117/12 107/118/12
f 13/88/12 107/118/12 108/94/12
f 15/95/13 12/96/13 86/97/13
f 87/98/13 86/97/13 12/96/13
f 88/99/13 87/98/13 12/96/13
f 89/100/13 88/99/13 12/96/13
f 13/88/13 89/100/13 12/96/13
f 90/101/13 89/100/13 13/88/13
f 91/102/13 90/101/13 13/88/13
f 92/103/13 91/102/13 13/88/13
f 93/104/13 92/103/13 13/88/13
f 94/105/13 93/104/13 13/88/13
f 95/106/13 94/105/13 13/88/13
f 96/107/13 95/106/13 13/88/13
f 97/108/13 96/107/13 13/88/13
f 98/109/13 97/108/13 13/88/13
f 99/110/13 98/109/13 13/88/13
f 100/111/13 99/110/13 13/88/13
f 101/112/13 100/111/13 13/88/13
f 102/113/13 101/112/13 13/88/13
f 103/114/13 102/113/13 13/88/13
f 104/115/13 103/114/13 13/88/13
f 105/116/13 104/115/13 13/88/13
f 106/117/13 105/116/13 13/88/13
f 107/118/13 106/117/13 13/88/13
f 108/94/13 107/118/13 13/88/13
f 11/121/14 110/120/14 109/119/14
f 110/120/14 11/121/14 111/122/14
f 111/122/14 11/121/14 112/123/14
f 13/124/14 112/123/14 11/121/14
f 13/124/14 113/125/14 112/123/14
f 13/124/14 114/126/14 113/125/14
f 13/124/14 115/127/14 114/126/14
f 13/124/14 116/128/14 115/127/14
f 13/124/14 117/129/14 116/128/14
f 118/130/14 117/129/14 13/124/14
f 119/131/14 117/129/14 118/130/14
f 119/131/14 120/132/14 117/129/14
f 121/133/14 120/132/14 119/131/14
f 121/133/14 122/134/14 120/132/14
f 123/135/14 122/134/14 121/133/14
f 123/135/14 124/136/14 122/134/14
f 125/137/14 124/136/14 123/135/14
f 125/137/14 126/138/14 124/136/14
f 127/139/14 126/138/14 125/137/14
f 127/139/14 128/140/14 126/138/14
f 128/140/14 127/139/14 129/141/14
f 109/119/15 110/120/15 11/121/15
f 111/122/15 11/121/15 110/120/15
f 112/123/15 11/121/15 111/122/15
f 11/121/15 112/123/15 13/124/15
f 112/123/15 113/125/15 13/124/15
f 113/125/15 114/126/15 13/124/15
f 114/126/15 115/127/15 13/124/15
f 115/127/15 116/128/15 13/124/15
f 116/128/15 117/129/15 13/124/15
f 13/124/15 117/129/15 118/130/15
f 118/130/15 117/129/15 119/131/15
f 117/129/15 120/132/15 119/131/15
f 119/131/15 120/132/15 121/133/15
f 120/132/15 122/134/15 121/133/15
f 121/133/15 122/134/15 123/135/15
f 122/134/15 124/136/15 123/135/15
f 123/135/15 124/136/15 125/137/15
f 124/136/15 126/138/15 125/137/15
f 125/137/15 126/138/15 127/139/15
f 126/138/15 128/140/15 127/139/15
f 129/141/15 127/139/15 128/140/15
f 131/142/16 3/56/16 130/54/16
f 3/56/16 131/142/16 132/143/16
f 3/56/16 132/143/16 133/144/16
f 3/56/16 133/144/16 134/145/16
f 3/56/16 134/145/16 4/146/16
f 4/146/16 134/145/16 135/147/16
f 4/146/16 135/147/16 136/148/16
f 4/146/16 136/148/16 137/149/16
f 4/146/16 137/149/16 138/150/16
f 4/146/16 138/150/16 139/151/16
f 4/146/16 139/151/16 140/152/16
f 4/146/16 140/152/16 141/153/16
f 4/146/16 141/153/16 142/154/16
f 4/146/16 142/154/16 143/155/16
f 4/146/16 143/155/16 144/156/16
f 4/146/16 144/156/16 145/157/16
f 4/146/16 145/157/16 146/158/16
f 4/146/16 146/158/16 147/159/16
f 4/146/16 147/159/16 148/160/16
f 4/146/16 148/160/16 149/161/16
f 4/146/16 149/161/16 150/162/16
f 4/146/16 150/162/16 151/163/16
f 4/146/16 151/163/16 152/164/16
f 4/146/16 152/164/16 5/165/16
f 130/54/17 3/56/17 131/142/17
f 132/143/17 131/142/17 3/56/17
f 133/144/17 132/143/17 3/56/17
f 134/145/17 133/144/17 3/56/17
f 4/146/17 134/145/17 3/56/17
f 135/147/17 134/145/17 4/146/17
f 136/148/17 135/147/17 4/146/17
f 137/149/17 136/148/17 4/146/17
f 138/150/17 137/149/17 4/146/17
f 139/151/17 138/150/17 4/146/17
f 140/152/17 139/151/17 4/146/17
f 141/153/17 140/152/17 4/146/17
f 142/154/17 141/153/17 4/146/17
f 143/155/17 142/154/17 4/146/17
f 144/156/17 143/155/17 4/146/17
f 145/157/17 144/156/17 4/146/17
f 146/158/17 145/157/17 4/146/17
f 147/159/17 146/158/17 4/146/17
f 148/160/17 147/159/17 4/146/17
f 149/161/17 148/160/17 4/146/17
f 150/162/17 149/161/17 4/146/17
f 151/163/17 150/162/17 4/146/17
f 152/164/17 151/163/17 4/146/17
f 5/165/17 152/164/17 4/146/17
f 11/168/18 153/167/18 8/166/18
f 153/167/18 11/168/18 109/169/18
f 8/166/18 153/167/18 154/170/18
f 8/166/18 154/170/18 155/171/18
f 8/166/18 155/171/18 156/172/18
f 8/166/18 156/172/18 157/173/18
f 8/166/18 157/173/18 158/174/18
f 8/166/18 158/174/18 159/175/18
f 8/166/18 159/175/18 160/176/18
f 8/166/18 160/176/18 161/177/18
f 8/166/18 161/177/18 162/178/18
f 8/166/18 162/178/18 163/179/18
f 8/166/18 163/179/18 164/180/18
f 8/166/18 164/180/18 165/181/18
f 8/166/18 165/181/18 166/182/18
f 8/166/18 166/182/18 167/183/18
f 8/166/18 167/183/18 168/184/18
f 8/166/18 168/184/18 169/185/18
f 8/166/18 169/185/18 170/186/18
f 8/166/18 170/186/18 171/187/18
f 8/166/18 171/187/18 7/188/18
f 8/166/19 153/167/19 11/168/19
f 109/169/19 11/168/19 153/167/19
f 154/170/19 153/167/19 8/166/19
f 155/171/19 154/170/19 8/166/19
f 156/172/19 155/171/19 8/166/19
f 157/173/19 156/172/19 8/166/19
f 158/174/19 157/173/19 8/166/19
f 159/175/19 158/174/19 8/166/19
f 160/176/19 159/175/19 8/166/19
f 161/177/19 160/176/19 8/166/19
f 162/178/19 161/177/19 8/166/19
f 163/179/19 162/178/19 8/166/19
f 164/180/19 163/179/19 8/166/19
f 165/181/19 164/180/19 8/166/19
f 166/182/19 165/181/19 8/166/19
f 167/183/19 166/182/19 8/166/19
f 168/184/19 167/183/19 8/166/19
f 169/185/19 168/184/19 8/166/19
f 170/186/19 169/185/19 8/166/19
f 171/187/19 170/186/19 8/166/19
f 7/188/19 171/187/19 8/166/19
f 13/191/2 108/190/2 118/189/2
f 118/189/3 108/190/3 13/191/3
f 14/194/20 74/193/20 172/192/20
f 172/192/21 74/193/21 14/194/21
f 10/30/22 174/195/22 173/28/22
f 174/195/22 10/30/22 14/36/22
f 174/195/22 14/36/22 175/196/22
f 175/196/22 14/36/22 176/22/22
f 176/22/22 14/36/22 177/197/22
f 177/197/22 14/36/22 178/19/22
f 178/19/22 14/36/22 179/17/22
f 179/17/22 14/36/22 180/18/22
f 180/18/22 14/36/22 181/21/22
f 181/21/22 14/36/22 182/23/22
f 182/23/22 14/36/22 183/25/22
f 183/25/22 14/36/22 184/198/22
f 183/25/22 184/198/22 185/27/22
f 185/27/22 184/198/22 186/199/22
f 184/198/22 14/36/22 187/31/22
f 187/31/22 14/36/22 188/32/22
f 188/32/22 14/36/22 189/33/22
f 189/33/22 14/36/22 190/34/22
f 190/34/22 14/36/22 191/35/22
f 191/35/22 14/36/22 192/37/22
f 192/37/22 14/36/22 193/200/22
f 193/200/22 14/36/22 194/39/22
f 194/39/22 14/36/22 195/40/22
f 195/40/22 14/36/22 196/201/22
f 196/201/22 14/36/22 172/42/22
f 173/28/23 174/195/23 10/30/23
f 14/36/23 10/30/23 174/195/23
f 175/196/23 14/36/23 174/195/23
f 176/22/23 14/36/23 175/196/23
f 177/197/23 14/36/23 176/22/23
f 178/19/23 14/36/23 177/197/23
f 179/17/23 14/36/23 178/19/23
f 180/18/23 14/36/23 179/17/23
f 181/21/23 14/36/23 180/18/23
f 182/23/23 14/36/23 181/21/23
f 183/25/23 14/36/23 182/23/23
f 184/198/23 14/36/23 183/25/23
f 185/27/23 184/198/23 183/25/23
f 186/199/23 184/198/23 185/27/23
f 187/31/23 14/36/23 184/198/23
f 188/32/23 14/36/23 187/31/23
f 189/33/23 14/36/23 188/32/23
f 190/34/23 14/36/23 189/33/23
f 191/35/23 14/36/23 190/34/23
f 192/37/23 14/36/23 191/35/23
f 193/200/23 14/36/23 192/37/23
f 194/39/23 14/36/23 193/200/23
f 195/40/23 14/36/23 194/39/23
f 196/201/23 14/36/23 195/40/23
f 172/42/23 14/36/23 196/201/23
f 10/204/24 173/203/24 39/202/24
f 39/202/25 173/203/25 10/204/25

usemtl dirt

f 2/4/26 11/206/26 1/205/26
f 11/206/26 2/4/26 8/207/26
f 14/209/27 197/208/27 10/207/27
f 197/208/27 14/209/27 198/210/27
f 200/212/26 12/209/26 199/211/26
f 12/209/26 200/212/26 3/205/26
f 3/205/26 200/212/26 4/4/26
f 13/206/26 12/209/26 3/205/26
f 200/13/28 197/12/28 198/4/28
f 197/12/28 200/13/28 199/11/28
f 198/212/29 2/2/29 200/211/29
f 2/2/29 198/212/29 14/207/29
f 2/2/29 14/207/29 8/213/29
f 4/13/29 200/211/29 2/2/29
f 12/207/30 197/215/30 199/214/30
f 197/215/30 12/207/30 10/209/30
f 11/213/29 3/13/29 1/2/29
f 3/13/29 11/213/29 13/209/29

