# Created by Kenney (www.kenney.nl)

mtllib blockSlopeHalf.mtl

g blockSlopeHalf

v 0.5 0 0.5
v 0.5 0 -0.5
v -0.5 0 0.5
v -0.5 0 -0.5
v -0.5 0.5 -0.5
v 0.5 0.5 -0.5
v -0.591514 0.3414931 -0.5
v -0.633028 0.2279221 -0.4166666
v -0.591514 0.2581598 -0.3333333
v -0.591514 0.1748264 -0.1666667
v -0.633028 0.1445888 -0.25
v -0.591514 0.09149311 0
v -0.633028 0.06125541 -0.08333331
v -0.591514 0.008159771 0.1666667
v -0.633028 -0.02207792 0.08333331
v -0.633028 -0.1054112 0.25
v -0.591514 -0.07517356 0.3333333
v -0.633028 -0.1887446 0.4166666
v -0.591514 -0.1585069 0.5
v -0.4166666 0.2695887 -0.633028
v -0.3333333 0.3414931 -0.591514
v -0.5 0.3414931 -0.591514
v -0.1666667 0.3414931 -0.591514
v 0 0.3414931 -0.591514
v 0.1666667 0.3414931 -0.591514
v 0.3333333 0.3414931 -0.591514
v 0.5 0.3414931 -0.591514
v 0.4166666 0.2695887 -0.633028
v 0.25 0.2695887 -0.633028
v 0.08333325 0.2695887 -0.633028
v -0.08333331 0.2695887 -0.633028
v -0.25 0.2695887 -0.633028
v -0.5 -0.1585069 0.591514
v 0.591514 -0.1585069 0.5
v 0.5 -0.1585069 0.591514
v 0.591514 0.3414931 -0.5
v 0.591514 0.2581598 -0.3333333
v 0.633028 0.2279221 -0.4166666
v 0.591514 0.1748264 -0.1666667
v 0.633028 0.1445888 -0.25
v 0.591514 0.09149311 0
v 0.633028 0.06125541 -0.08333331
v 0.591514 0.008159771 0.1666667
v 0.633028 -0.02207792 0.08333331
v 0.633028 -0.1054112 0.25
v 0.591514 -0.07517356 0.3333333
v 0.633028 -0.1887446 0.4166666
v 0.4166666 -0.2304112 0.633028
v 0.3333333 -0.1585069 0.591514
v 0.1666667 -0.1585069 0.591514
v 0 -0.1585069 0.591514
v -0.1666667 -0.1585069 0.591514
v -0.3333333 -0.1585069 0.591514
v -0.4166666 -0.2304112 0.633028
v -0.25 -0.2304112 0.633028
v -0.08333331 -0.2304112 0.633028
v 0.08333325 -0.2304112 0.633028
v 0.25 -0.2304112 0.633028

vn 0 -1 0
vn 0 0 -1
vn 1 0 0
vn -1 0 0
vn -0.8401681 0.4850713 0.2425357
vn 0.8401681 -0.4850713 -0.2425357
vn 0 0.4999999 -0.8660254
vn 0 -0.4999999 0.8660254
vn 0 0.8944272 0.4472136
vn -0.6546537 0.3779645 -0.6546535
vn 0.6546537 -0.3779645 0.6546535
vn -0.6546537 0.3779645 0.6546537
vn 0.6546537 -0.3779645 -0.6546537
vn 0.6546535 0.3779645 0.6546537
vn -0.6546535 -0.3779645 -0.6546537
vn 0.8401681 0.4850713 0.2425357
vn -0.8401681 -0.4850713 -0.2425357
vn 0.6546537 0.3779645 -0.6546537
vn -0.6546537 -0.3779645 0.6546537
vn 0 0.5000001 0.8660253
vn 0 -0.5000001 -0.8660253

vt 19.68504 19.68504
vt 19.68504 -19.68504
vt -19.68504 19.68504
vt -19.68504 -19.68504
vt 19.68504 9.97602E-12
vt -19.68504 9.97602E-12
vt 19.68504 -1.841727E-11
vt -19.68504 -1.841727E-11
vt -19.68504 0
vt 19.68504 0
vt -25.37169 3.552139
vt -24.37242 10.68834
vt -22.67286 -1.560988
vt -19.06743 -0.1996443
vt 13.45313 -11.82236
vt -12.76318 -3.95143
vt -16.36861 -5.312771
vt -6.458917 -7.703213
vt -10.06435 -9.064557
vt -0.1546574 -11.455
vt -3.760093 -12.81634
vt 2.544167 -16.56812
vt 6.149598 -15.20678
vt 8.848422 -20.31991
vt 12.45386 -18.95856
vt 16.4042 -3.26942
vt 13.12336 -0.0005999279
vt 19.68504 -0.0005999279
vt 19.68504 7.205227
vt 6.561681 -0.0005999279
vt -3.33653E-12 -0.0005999279
vt -6.561681 -0.0005999279
vt -13.12336 -0.0005999279
vt -19.68504 -0.0005999279
vt -19.68504 7.205227
vt -16.4042 -3.26942
vt -9.84252 -3.26942
vt -3.280838 -3.26942
vt 3.280838 -3.26942
vt 9.84252 -3.26942
vt 19.68504 -17.60683
vt -19.68504 -17.60683
vt 19.68504 26.41025
vt -19.68504 26.41025
vt 2.547643 0.9622746
vt -2.547647 0.9622746
vt -1.521009E-06 7.702709
vt -2.547644 -17.26253
vt 7.029044E-12 -10.5221
vt 2.547644 -17.26253
vt 2.547647 -17.26253
vt -2.547643 -17.26253
vt 1.521002E-06 -10.5221
vt 24.37242 10.68834
vt 25.37169 3.552139
vt -13.45313 -11.82236
vt 19.06743 -0.1996444
vt 22.67286 -1.560988
vt 12.76318 -3.95143
vt 16.36861 -5.31277
vt 6.458917 -7.703213
vt 10.06435 -9.064557
vt 0.1546575 -11.455
vt 3.760092 -12.81634
vt -2.544167 -16.56812
vt -6.149598 -15.20678
vt -8.848422 -20.31991
vt -12.45386 -18.95856
vt 3.433698E-11 7.702708
vt 2.547645 0.962274
vt -2.547645 0.962274
vt 16.4042 -20.31717
vt 13.12336 -17.04835
vt 19.68504 -17.04835
vt 19.68504 -9.842522
vt 6.561681 -17.04835
vt 7.610308E-15 -17.04835
vt -6.561681 -17.04835
vt -13.12336 -17.04835
vt -19.68504 -17.04835
vt -19.68504 -9.842522
vt -16.4042 -20.31717
vt -9.84252 -20.31717
vt -3.280838 -20.31717
vt 3.280838 -20.31717
vt 9.84252 -20.31717

usemtl dirt

f 3/3/1 2/2/1 1/1/1
f 2/2/1 3/3/1 4/4/1
f 5/1/2 2/6/2 4/5/2
f 2/6/2 5/1/2 6/3/2
f 1/8/3 2/7/3 6/1/3
f 3/10/4 5/3/4 4/9/4

usemtl grass

f 8/13/5 5/12/5 7/11/5
f 5/12/5 8/13/5 9/14/5
f 5/12/5 9/14/5 3/15/5
f 3/15/5 9/14/5 10/16/5
f 10/16/5 9/14/5 11/17/5
f 3/15/5 10/16/5 12/18/5
f 12/18/5 10/16/5 13/19/5
f 3/15/5 12/18/5 14/20/5
f 14/20/5 12/18/5 15/21/5
f 3/15/5 14/20/5 16/22/5
f 3/15/5 16/22/5 17/23/5
f 3/15/5 17/23/5 18/24/5
f 3/15/5 18/24/5 19/25/5
f 7/11/6 5/12/6 8/13/6
f 9/14/6 8/13/6 5/12/6
f 3/15/6 9/14/6 5/12/6
f 10/16/6 9/14/6 3/15/6
f 11/17/6 9/14/6 10/16/6
f 12/18/6 10/16/6 3/15/6
f 13/19/6 10/16/6 12/18/6
f 14/20/6 12/18/6 3/15/6
f 15/21/6 12/18/6 14/20/6
f 16/22/6 14/20/6 3/15/6
f 17/23/6 16/22/6 3/15/6
f 18/24/6 17/23/6 3/15/6
f 19/25/6 18/24/6 3/15/6
f 22/28/7 21/27/7 20/26/7
f 21/27/7 22/28/7 5/29/7
f 21/27/7 5/29/7 23/30/7
f 23/30/7 5/29/7 24/31/7
f 24/31/7 5/29/7 25/32/7
f 25/32/7 5/29/7 26/33/7
f 26/33/7 5/29/7 27/34/7
f 27/34/7 5/29/7 6/35/7
f 27/34/7 28/36/7 26/33/7
f 26/33/7 29/37/7 25/32/7
f 25/32/7 30/38/7 24/31/7
f 24/31/7 31/39/7 23/30/7
f 23/30/7 32/40/7 21/27/7
f 20/26/8 21/27/8 22/28/8
f 5/29/8 22/28/8 21/27/8
f 23/30/8 5/29/8 21/27/8
f 24/31/8 5/29/8 23/30/8
f 25/32/8 5/29/8 24/31/8
f 26/33/8 5/29/8 25/32/8
f 27/34/8 5/29/8 26/33/8
f 6/35/8 5/29/8 27/34/8
f 26/33/8 28/36/8 27/34/8
f 25/32/8 29/37/8 26/33/8
f 24/31/8 30/38/8 25/32/8
f 23/30/8 31/39/8 24/31/8
f 21/27/8 32/40/8 23/30/8
f 6/43/9 3/42/9 1/41/9
f 3/42/9 6/43/9 5/44/9
f 5/47/10 22/46/10 7/45/10
f 7/45/11 22/46/11 5/47/11
f 33/50/12 3/49/12 19/48/12
f 19/48/13 3/49/13 33/50/13
f 1/53/14 35/52/14 34/51/14
f 34/51/15 35/52/15 1/53/15
f 1/56/16 36/55/16 6/54/16
f 36/55/16 1/56/16 37/57/16
f 36/55/16 37/57/16 38/58/16
f 37/57/16 1/56/16 39/59/16
f 37/57/16 39/59/16 40/60/16
f 39/59/16 1/56/16 41/61/16
f 39/59/16 41/61/16 42/62/16
f 41/61/16 1/56/16 43/63/16
f 41/61/16 43/63/16 44/64/16
f 43/63/16 1/56/16 45/65/16
f 45/65/16 1/56/16 46/66/16
f 46/66/16 1/56/16 47/67/16
f 47/67/16 1/56/16 34/68/16
f 6/54/17 36/55/17 1/56/17
f 37/57/17 1/56/17 36/55/17
f 38/58/17 37/57/17 36/55/17
f 39/59/17 1/56/17 37/57/17
f 40/60/17 39/59/17 37/57/17
f 41/61/17 1/56/17 39/59/17
f 42/62/17 41/61/17 39/59/17
f 43/63/17 1/56/17 41/61/17
f 44/64/17 43/63/17 41/61/17
f 45/65/17 1/56/17 43/63/17
f 46/66/17 1/56/17 45/65/17
f 47/67/17 1/56/17 46/66/17
f 34/68/17 1/56/17 47/67/17
f 36/71/18 27/70/18 6/69/18
f 6/69/19 27/70/19 36/71/19
f 35/74/20 49/73/20 48/72/20
f 49/73/20 35/74/20 1/75/20
f 49/73/20 1/75/20 50/76/20
f 50/76/20 1/75/20 51/77/20
f 51/77/20 1/75/20 52/78/20
f 52/78/20 1/75/20 53/79/20
f 53/79/20 1/75/20 33/80/20
f 33/80/20 1/75/20 3/81/20
f 33/80/20 54/82/20 53/79/20
f 53/79/20 55/83/20 52/78/20
f 52/78/20 56/84/20 51/77/20
f 51/77/20 57/85/20 50/76/20
f 50/76/20 58/86/20 49/73/20
f 48/72/21 49/73/21 35/74/21
f 1/75/21 35/74/21 49/73/21
f 50/76/21 1/75/21 49/73/21
f 51/77/21 1/75/21 50/76/21
f 52/78/21 1/75/21 51/77/21
f 53/79/21 1/75/21 52/78/21
f 33/80/21 1/75/21 53/79/21
f 3/81/21 1/75/21 33/80/21
f 53/79/21 54/82/21 33/80/21
f 52/78/21 55/83/21 53/79/21
f 51/77/21 56/84/21 52/78/21
f 50/76/21 57/85/21 51/77/21
f 49/73/21 58/86/21 50/76/21

