# Created by Kenney (www.kenney.nl)

mtllib blockSnowCliffCorner.mtl

g blockSnowCliffCorner

v 0.5 1 0.5
v -0.4325529 0.8799272 -0.3345139
v -0.5 1 -0.5
v -0.4648573 0.8738629 -0.3618668
v -0.4977468 0.8654098 -0.3878544
v -0.531079 0.8546042 -0.4123641
v -0.56471 0.8414931 -0.4352898
v -0.4009736 0.8835763 -0.305914
v -0.3702558 0.8847944 -0.2761908
v -0.3405326 0.8835763 -0.2454731
v -0.3119327 0.8799272 -0.2138937
v -0.2845798 0.8738629 -0.1815893
v -0.2585922 0.8654098 -0.1486997
v -0.2340825 0.8546042 -0.1153674
v -0.188231 0.828382 -0.04810548
v -0.1637213 0.8175765 -0.01477313
v -0.1377338 0.8091233 0.01811641
v -0.1103808 0.803059 0.05042079
v -0.08178091 0.79941 0.0820002
v -0.05205768 0.7981918 0.1127179
v -0.02134001 0.79941 0.1424411
v 0.01023936 0.803059 0.171041
v 0.04254377 0.8091233 0.1983939
v 0.07543325 0.8175765 0.2243815
v 0.1087657 0.828382 0.2488912
v 0.1760275 0.8546042 0.2947427
v 0.2093599 0.8654098 0.3192524
v 0.2422495 0.8738629 0.3452399
v 0.2745538 0.8799272 0.3725929
v 0.3061333 0.8835763 0.4011928
v 0.336851 0.8847944 0.430916
v 0.3665742 0.8835763 0.4616337
v 0.3951741 0.8799272 0.4932131
v 0.4225271 0.8738629 0.525518
v 0.4454594 0.8664035 0.554541
v 0.591514 0.8414931 0.5
v -0.5 0.8414931 -0.591514
v -0.25 0.7981918 -0.616514
v -0.2072618 0.79941 -0.6158106
v -0.2927382 0.79941 -0.6158106
v -0.3352913 0.803059 -0.613704
v -0.1647086 0.803059 -0.613704
v -0.3774755 0.8091233 -0.6102027
v -0.1225245 0.8091233 -0.6102027
v -0.4191079 0.8175765 -0.6053224
v -0.08089209 0.8175765 -0.6053224
v -0.4600083 0.828382 -0.5990837
v -0.03999162 0.828382 -0.5990837
v 0.03999162 0.8546042 -0.5839443
v 0.08089209 0.8654098 -0.5777057
v 0.1225245 0.8738629 -0.5728252
v 0.1647086 0.8799272 -0.569324
v 0.2072618 0.8835763 -0.5672172
v 0.25 0.8847944 -0.566514
v 0.5 1 -0.5
v 0.2927382 0.8835763 -0.5672172
v 0.3352914 0.8799272 -0.569324
v 0.3774755 0.8738629 -0.5728252
v 0.4191079 0.8654098 -0.5777057
v 0.4600084 0.8546042 -0.5839443
v 0.5 0.8414931 -0.591514
v 0.591514 0.8414931 -0.5
v 0.5990837 0.828382 -0.4600084
v 0.6053224 0.8175765 -0.4191079
v 0.6102027 0.8091233 -0.3774755
v 0.613704 0.803059 -0.3352914
v 0.6158106 0.79941 -0.2927382
v 0.616514 0.7981918 -0.25
v 0.6158106 0.79941 -0.2072618
v 0.613704 0.803059 -0.1647086
v 0.6102027 0.8091233 -0.1225245
v 0.6053224 0.8175765 -0.08089209
v 0.5839443 0.8546042 0.03999159
v 0.591514 0.8414931 0
v 0.5990837 0.828382 -0.03999162
v 0.5777057 0.8654098 0.08089209
v 0.5728252 0.8738629 0.1225245
v 0.569324 0.8799272 0.1647086
v 0.5672172 0.8835763 0.2072618
v 0.566514 0.8847944 0.25
v 0.5672172 0.8835763 0.2927382
v 0.569324 0.8799272 0.3352913
v 0.5728252 0.8738629 0.3774755
v 0.5777057 0.8654098 0.4191079
v 0.5839443 0.8546042 0.4600083
v 0.5 0 -0.5
v 0.5 0.25 0
v 0 0.25 -0.5

vn -0.6123725 0.4999999 0.6123725
vn 0.6123725 -0.4999999 -0.6123725
vn 0.3736742 0.2157409 0.9021217
vn -0.3736742 -0.2157409 -0.9021217
vn -0.9021235 0.2157389 -0.3736708
vn 0.9021235 -0.2157389 0.3736708
vn 0 0.5 -0.8660254
vn 0 -0.5 0.8660254
vn 0 1 0
vn 0.8660254 0.5 0
vn -0.8660254 -0.5 0
vn 0.6546537 0.3779645 -0.6546537
vn -0.6546537 -0.3779645 0.6546537
vn 1 0 0
vn -0.4082483 -0.8164966 0.4082483
vn -0.6396021 -0.4264015 0.6396021
vn 0 0 -1

vt 27.83885 34.09549
vt -21.35426 28.6369
vt -27.83885 34.09549
vt -23.01505 28.36121
vt -24.65412 27.97693
vt -26.26437 27.48571
vt -27.83884 26.88967
vt -19.67894 28.80279
vt -17.99633 28.85817
vt -16.31372 28.80279
vt -14.6384 28.6369
vt -12.97761 28.36122
vt -11.33854 27.97693
vt -9.728283 27.4857
vt -6.579336 26.29362
vt -4.969079 25.8024
vt -3.33001 25.41811
vt -1.669217 25.14243
vt 0.006105475 24.97654
vt 1.688711 24.92116
vt 3.371316 24.97654
vt 5.046638 25.14243
vt 6.707429 25.41811
vt 8.346499 25.8024
vt 9.956757 26.29362
vt 13.1057 27.4857
vt 14.71596 27.97693
vt 16.35503 28.36122
vt 18.01582 28.6369
vt 19.69114 28.80279
vt 21.37375 28.85817
vt 23.05635 28.8028
vt 24.73168 28.63691
vt 26.39248 28.36121
vt 27.83886 28.0221
vt 13.98205 26.5032
vt 7.847843 27.50758
vt 10.65339 32.89413
vt -13.98215 26.50328
vt -10.65349 32.89421
vt -7.324837 26.50328
vt 9.84252 15.07864
vt 8.159913 15.13402
vt 11.52513 15.13402
vt 13.20044 15.2999
vt 6.48459 15.2999
vt 14.86124 15.57559
vt 4.823799 15.57559
vt 16.50031 15.95988
vt 3.184728 15.95988
vt 18.11056 16.4511
vt 1.574472 16.4511
vt 19.68504 17.04714
vt -1.574473 17.64318
vt 19.68504 24.25297
vt -3.184729 18.13441
vt -4.8238 18.5187
vt -6.484591 18.79438
vt -8.159914 18.96027
vt -9.84252 19.01565
vt -19.68504 24.25297
vt -11.52513 18.96027
vt -13.20045 18.79438
vt -14.86124 18.5187
vt -16.50031 18.13441
vt -18.11057 17.64318
vt -19.68504 17.04714
vt -19.68504 -19.68504
vt -19.68504 19.68504
vt 19.68504 -19.68504
vt 18.11057 16.4511
vt 16.50031 15.95988
vt 13.20045 15.2999
vt -1.574473 17.64318
vt -3.164483E-07 17.04714
vt -13.20045 18.79438
vt -18.11056 17.64318
vt 2.547645 19.18708
vt -2.547645 19.18708
vt -1.678533E-10 25.92751
vt 19.68504 39.37008
vt 19.68504 -3.304498E-12
vt -19.68504 39.37008
vt 3.069545E-13 9.84252
vt 13.91943 -5.682581
vt -6.108891E-12 -22.73033
vt -13.91943 -5.682581
vt 13.91943 2.967631
vt -13.91943 2.967631
vt 27.83885 35.61158
vt -27.83885 35.61158
vt -19.68504 4.282204E-13
vt 2.035563E-11 9.84252

usemtl snow

f 3/3/1 2/2/1 1/1/1
f 2/2/1 3/3/1 4/4/1
f 4/4/1 3/3/1 5/5/1
f 5/5/1 3/3/1 6/6/1
f 6/6/1 3/3/1 7/7/1
f 1/1/1 2/2/1 8/8/1
f 1/1/1 8/8/1 9/9/1
f 1/1/1 9/9/1 10/10/1
f 1/1/1 10/10/1 11/11/1
f 1/1/1 11/11/1 12/12/1
f 1/1/1 12/12/1 13/13/1
f 1/1/1 13/13/1 14/14/1
f 1/1/1 14/14/1 15/15/1
f 1/1/1 15/15/1 16/16/1
f 1/1/1 16/16/1 17/17/1
f 1/1/1 17/17/1 18/18/1
f 1/1/1 18/18/1 19/19/1
f 1/1/1 19/19/1 20/20/1
f 1/1/1 20/20/1 21/21/1
f 1/1/1 21/21/1 22/22/1
f 1/1/1 22/22/1 23/23/1
f 1/1/1 23/23/1 24/24/1
f 1/1/1 24/24/1 25/25/1
f 1/1/1 25/25/1 26/26/1
f 1/1/1 26/26/1 27/27/1
f 1/1/1 27/27/1 28/28/1
f 1/1/1 28/28/1 29/29/1
f 1/1/1 29/29/1 30/30/1
f 1/1/1 30/30/1 31/31/1
f 1/1/1 31/31/1 32/32/1
f 1/1/1 32/32/1 33/33/1
f 1/1/1 33/33/1 34/34/1
f 1/1/1 34/34/1 35/35/1
f 1/1/2 2/2/2 3/3/2
f 4/4/2 3/3/2 2/2/2
f 5/5/2 3/3/2 4/4/2
f 6/6/2 3/3/2 5/5/2
f 7/7/2 3/3/2 6/6/2
f 8/8/2 2/2/2 1/1/2
f 9/9/2 8/8/2 1/1/2
f 10/10/2 9/9/2 1/1/2
f 11/11/2 10/10/2 1/1/2
f 12/12/2 11/11/2 1/1/2
f 13/13/2 12/12/2 1/1/2
f 14/14/2 13/13/2 1/1/2
f 15/15/2 14/14/2 1/1/2
f 16/16/2 15/15/2 1/1/2
f 17/17/2 16/16/2 1/1/2
f 18/18/2 17/17/2 1/1/2
f 19/19/2 18/18/2 1/1/2
f 20/20/2 19/19/2 1/1/2
f 21/21/2 20/20/2 1/1/2
f 22/22/2 21/21/2 1/1/2
f 23/23/2 22/22/2 1/1/2
f 24/24/2 23/23/2 1/1/2
f 25/25/2 24/24/2 1/1/2
f 26/26/2 25/25/2 1/1/2
f 27/27/2 26/26/2 1/1/2
f 28/28/2 27/27/2 1/1/2
f 29/29/2 28/28/2 1/1/2
f 30/30/2 29/29/2 1/1/2
f 31/31/2 30/30/2 1/1/2
f 32/32/2 31/31/2 1/1/2
f 33/33/2 32/32/2 1/1/2
f 34/34/2 33/33/2 1/1/2
f 35/35/2 34/34/2 1/1/2
f 1/38/3 35/37/3 36/36/3
f 36/36/4 35/37/4 1/38/4
f 7/41/5 3/40/5 37/39/5
f 37/39/6 3/40/6 7/41/6
f 40/44/7 39/43/7 38/42/7
f 39/43/7 40/44/7 41/45/7
f 39/43/7 41/45/7 42/46/7
f 42/46/7 41/45/7 43/47/7
f 42/46/7 43/47/7 44/48/7
f 44/48/7 43/47/7 45/49/7
f 44/48/7 45/49/7 46/50/7
f 46/50/7 45/49/7 47/51/7
f 46/50/7 47/51/7 48/52/7
f 48/52/7 47/51/7 37/53/7
f 48/52/7 37/53/7 49/54/7
f 49/54/7 37/53/7 3/55/7
f 49/54/7 3/55/7 50/56/7
f 50/56/7 3/55/7 51/57/7
f 51/57/7 3/55/7 52/58/7
f 52/58/7 3/55/7 53/59/7
f 53/59/7 3/55/7 54/60/7
f 55/61/7 54/60/7 3/55/7
f 55/61/7 56/62/7 54/60/7
f 55/61/7 57/63/7 56/62/7
f 55/61/7 58/64/7 57/63/7
f 55/61/7 59/65/7 58/64/7
f 55/61/7 60/66/7 59/65/7
f 60/66/7 55/61/7 61/67/7
f 38/42/8 39/43/8 40/44/8
f 41/45/8 40/44/8 39/43/8
f 42/46/8 41/45/8 39/43/8
f 43/47/8 41/45/8 42/46/8
f 44/48/8 43/47/8 42/46/8
f 45/49/8 43/47/8 44/48/8
f 46/50/8 45/49/8 44/48/8
f 47/51/8 45/49/8 46/50/8
f 48/52/8 47/51/8 46/50/8
f 37/53/8 47/51/8 48/52/8
f 49/54/8 37/53/8 48/52/8
f 3/55/8 37/53/8 49/54/8
f 50/56/8 3/55/8 49/54/8
f 51/57/8 3/55/8 50/56/8
f 52/58/8 3/55/8 51/57/8
f 53/59/8 3/55/8 52/58/8
f 54/60/8 3/55/8 53/59/8
f 3/55/8 54/60/8 55/61/8
f 54/60/8 56/62/8 55/61/8
f 56/62/8 57/63/8 55/61/8
f 57/63/8 58/64/8 55/61/8
f 58/64/8 59/65/8 55/61/8
f 59/65/8 60/66/8 55/61/8
f 61/67/8 55/61/8 60/66/8
f 3/70/9 1/69/9 55/68/9
f 55/55/10 63/71/10 62/53/10
f 63/71/10 55/55/10 1/61/10
f 63/71/10 1/61/10 64/72/10
f 64/72/10 1/61/10 65/47/10
f 65/47/10 1/61/10 66/73/10
f 66/73/10 1/61/10 67/44/10
f 67/44/10 1/61/10 68/42/10
f 68/42/10 1/61/10 69/43/10
f 69/43/10 1/61/10 70/46/10
f 70/46/10 1/61/10 71/48/10
f 71/48/10 1/61/10 72/50/10
f 72/50/10 1/61/10 73/74/10
f 72/50/10 73/74/10 74/75/10
f 72/50/10 74/75/10 75/52/10
f 73/74/10 1/61/10 76/56/10
f 76/56/10 1/61/10 77/57/10
f 77/57/10 1/61/10 78/58/10
f 78/58/10 1/61/10 79/59/10
f 79/59/10 1/61/10 80/60/10
f 80/60/10 1/61/10 81/62/10
f 81/62/10 1/61/10 82/76/10
f 82/76/10 1/61/10 83/64/10
f 83/64/10 1/61/10 84/65/10
f 84/65/10 1/61/10 85/77/10
f 85/77/10 1/61/10 36/67/10
f 62/53/11 63/71/11 55/55/11
f 1/61/11 55/55/11 63/71/11
f 64/72/11 1/61/11 63/71/11
f 65/47/11 1/61/11 64/72/11
f 66/73/11 1/61/11 65/47/11
f 67/44/11 1/61/11 66/73/11
f 68/42/11 1/61/11 67/44/11
f 69/43/11 1/61/11 68/42/11
f 70/46/11 1/61/11 69/43/11
f 71/48/11 1/61/11 70/46/11
f 72/50/11 1/61/11 71/48/11
f 73/74/11 1/61/11 72/50/11
f 74/75/11 73/74/11 72/50/11
f 75/52/11 74/75/11 72/50/11
f 76/56/11 1/61/11 73/74/11
f 77/57/11 1/61/11 76/56/11
f 78/58/11 1/61/11 77/57/11
f 79/59/11 1/61/11 78/58/11
f 80/60/11 1/61/11 79/59/11
f 81/62/11 1/61/11 80/60/11
f 82/76/11 1/61/11 81/62/11
f 83/64/11 1/61/11 82/76/11
f 84/65/11 1/61/11 83/64/11
f 85/77/11 1/61/11 84/65/11
f 36/67/11 1/61/11 85/77/11
f 55/80/12 62/79/12 61/78/12
f 61/78/13 62/79/13 55/80/13

usemtl dirt

f 1/83/14 86/82/14 55/81/14
f 86/82/14 1/83/14 87/84/14
f 88/87/15 86/86/15 87/85/15
f 1/90/16 88/89/16 87/88/16
f 88/89/16 1/90/16 3/91/16
f 88/93/17 55/83/17 86/92/17
f 55/83/17 88/93/17 3/81/17

