# Created by Kenney (www.kenney.nl)

mtllib bridge.mtl

g bridge

v -0.43 0.3575 0.2750883
v -0.43 0.3575 0.1138089
v -0.4980423 0.3575 0.2766323
v -0.5 0.3575 0.1153975
v 0.5 0.3925 -0.08061892
v 0.5 0.3925 0.08061889
v -0.5 0.3925 -0.08061892
v -0.5 0.3925 0.08061889
v -0.43 0.3575 -0.2887622
v -0.43 0.3575 -0.45
v -0.5 0.3575 -0.2887622
v -0.5 0.3575 -0.45
v 0.5 0.3575 0.08061889
v 0.5 0.3575 -0.08061892
v 0.4300001 0.3575 0.08061889
v 0.4300001 0.3575 -0.08061892
v 0.5 0.3925 -0.45
v 0.5 0.3925 -0.2887622
v -0.5 0.3925 -0.45
v -0.5 0.3925 -0.2887622
v -0.5 0.3575 0.2887622
v -0.43 0.3575 0.2887622
v -0.5 0.3925 0.2887622
v -0.36 0.3575 0.2887622
v 0.36 0.3575 0.2887622
v 0.4300001 0.3575 0.2887622
v 0.5 0.3575 0.2887622
v 0.5 0.3925 0.2887622
v 0.5 0.3575 -0.45
v 0.5 0.3575 -0.2887622
v -0.5 0.3575 -0.08061892
v -0.43 0.3575 -0.08061892
v -0.36 0.3575 -0.08061892
v 0.36 0.3575 -0.08061892
v 0.5 0.3925 0.4499999
v -0.5 0.3925 0.4499999
v -0.43 0.3575 0.08061889
v -0.5 0.3575 0.08061889
v 0.5 0.3575 0.4499999
v 0.4300001 0.3575 0.4499999
v 0.36 0.3575 0.4499999
v -0.36 0.3575 0.4499999
v -0.43 0.3575 0.4499999
v -0.5 0.3575 0.4499999
v 0.4300001 0.3575 -0.2887622
v 0.36 0.3575 -0.2887622
v -0.36 0.3575 -0.2887622
v -0.43 0.3575 -0.1108167
v -0.43 0.3575 -0.2720744
v -0.5 0.3575 -0.1119164
v -0.4986719 0.3575 -0.2731532
v -0.36 0.3575 -0.45
v 0.36 0.3575 -0.45
v 0.4300001 0.3575 -0.45
v 0.36 0.3575 -0.09840643
v 0.36 0.3575 -0.2596641
v -0.36 0.3575 -0.109717
v -0.36 0.3575 -0.2709747
v 0.498672 0.3575 -0.09622788
v 0.4300001 0.3575 -0.09730673
v 0.498672 0.375 -0.09622788
v -0.5 0.375 -0.1119164
v 0.5 0.375 0.2539836
v -0.4980423 0.375 0.2766323
v 0.4980422 0.375 0.09274879
v -0.5 0.375 0.1153975
v 0.5 0.3575 0.2539836
v 0.4980422 0.3575 0.09274879
v 0.4300001 0.3575 0.2555721
v 0.4300001 0.3575 0.09429279
v 0.36 0.3575 0.2571607
v -0.36 0.3575 0.2734997
v 0.36 0.3575 0.08061889
v -0.36 0.3575 0.08061889
v 0.36 0.3575 0.09588128
v -0.36 0.3575 0.1122204
v -0.4986719 0.375 -0.2731532
v 0.4300001 0.3575 -0.2585644
v 0.5 0.3575 -0.2574648
v 0.5 0.375 -0.2574648
v -0.36 0.2875 -0.5
v -0.3775 0.2875 0.3114949
v -0.36 0.2875 0.5
v -0.43 0.2875 0.5
v -0.4125 0.2875 0.3114949
v -0.4125 0.2875 0.2125
v -0.4125 0.2875 -0.2125
v -0.4125 0.2875 -0.3114949
v -0.3775 0.2875 -0.3114949
v -0.43 0.2875 -0.5
v -0.3775 0.2875 0.2125
v -0.3775 0.2875 -0.2125
v -0.4125 0.098995 -0.5
v -0.4125 0 -0.5
v 0.4125 0.098995 -0.5
v 0.4125 0.2875 -0.3114949
v 0.3775001 0.098995 -0.5
v 0.3775001 0.2875 -0.3114949
v -0.36 0.3575 0.5
v -0.43 0.3575 0.5
v -0.4125 0 0.5
v -0.3775 0 0.5
v -0.3775 0.098995 -0.5
v 0.4125 0 0.5
v 0.3775001 0 0.5
v 0.4125 0.098995 0.5
v 0.3775001 0.098995 0.5
v 0.4125 0.2875 -0.2125
v 0.4125 0 -0.5
v 0.3775001 0.2875 -0.2125
v 0.3775001 0 -0.5
v -0.43 0.3575 -0.5
v 0.36 0.2875 -0.5
v 0.4300001 0.2875 -0.5
v 0.36 0.3575 -0.5
v 0.4300001 0.3575 -0.5
v -0.36 0.3575 -0.5
v -0.3775 0.098995 0.5
v 0.4300001 0.2875 0.5
v 0.36 0.2875 0.5
v 0.4300001 0.3575 0.5
v 0.36 0.3575 0.5
v -0.4125 0.098995 0.5
v -0.3775 0 -0.5
v 0.4125 0.2875 0.2125
v 0.4125 0.2875 0.3114949
v 0.3775001 0.2875 0.2125
v 0.3775001 0.2875 0.3114949

vn 0 -1 0
vn 0 1 0
vn 0 0 -1
vn 1 0 0
vn -1 0 0
vn 0 0 1
vn -0.01570736 0 0.9998766
vn 0.02268731 1.791499E-06 0.9997426
vn -0.02268731 3.808107E-06 -0.9997426
vn 0.01570737 0 -0.9998766
vn 0.9999661 0 0.008235992
vn 0.9999263 0 -0.01214117
vn -0.9999263 0 0.01214103
vn -0.9999661 0 -0.008236674
vn 0 0.7071069 -0.7071066
vn 0 -0.7071068 -0.7071068
vn 0 -0.7071068 0.7071068
vn 0 0.7071069 0.7071066

vt -16.92913 10.83025
vt -16.92913 4.480665
vt -19.60797 10.89104
vt -19.68504 4.54321
vt -19.68504 -3.173972
vt -19.68504 3.173972
vt 19.68504 -3.173972
vt 19.68504 3.173972
vt -16.92913 -11.36859
vt -16.92913 -17.71654
vt -19.68504 -11.36859
vt -19.68504 -17.71654
vt 16.92913 3.173972
vt 16.92913 -3.173972
vt 19.68504 -17.71654
vt 19.68504 -11.36859
vt 19.68504 14.0748
vt 16.92913 14.0748
vt 19.68504 15.45276
vt 14.17323 14.0748
vt -14.17323 14.0748
vt -16.92913 14.0748
vt -19.68504 14.0748
vt -19.68504 15.45276
vt 17.71654 15.45276
vt 17.71654 14.0748
vt 11.36859 15.45276
vt 11.36859 14.0748
vt -17.71654 14.0748
vt -17.71654 15.45276
vt -11.36859 14.0748
vt -11.36859 15.45276
vt -19.68504 11.36859
vt -19.68504 17.71653
vt 19.68504 11.36859
vt 19.68504 17.71653
vt -16.92913 3.173972
vt -16.92913 -3.173972
vt 17.71653 14.0748
vt 17.71653 15.45276
vt 14.17323 17.71653
vt 14.17323 11.36859
vt -14.17323 17.71653
vt -14.17323 11.36859
vt 16.92913 17.71653
vt 16.92913 11.36859
vt -16.92913 -4.362862
vt -16.92913 -10.71159
vt -19.68504 -4.406157
vt -19.63275 -10.75406
vt 3.173972 15.45276
vt 3.173972 14.0748
vt -3.173972 15.45276
vt -3.173972 14.0748
vt 14.17323 -11.36859
vt 14.17323 -17.71654
vt -14.17323 -11.36859
vt -14.17323 -17.71654
vt 14.17323 -3.874268
vt 14.17323 -10.223
vt -14.17323 -4.319567
vt -14.17323 -10.66829
vt 19.57083 14.0748
vt 16.86687 14.0748
vt 19.57083 14.76378
vt 14.11063 14.0748
vt -14.23933 14.0748
vt -16.99557 14.0748
vt -19.75182 14.0748
vt -19.75182 14.76378
vt 16.92913 -11.36859
vt 16.92913 -17.71654
vt -17.71653 15.45276
vt -17.71653 14.0748
vt -16.92913 17.71653
vt -16.92913 11.36859
vt -19.68504 9.999353
vt 19.60797 10.89104
vt -19.60796 3.651528
vt 19.68504 4.54321
vt 19.68504 9.999353
vt 19.60796 3.651528
vt 16.92913 10.06189
vt 16.92913 3.712315
vt 19.45311 14.07478
vt 16.6965 14.07478
vt 19.45311 14.76376
vt 13.93988 14.07478
vt -14.41387 14.07478
vt -17.17049 14.07478
vt -19.85001 14.07478
vt -19.85001 14.76376
vt 14.17323 3.173972
vt 14.17323 -3.173972
vt -14.17323 3.173972
vt -14.17323 -3.173972
vt 14.17323 10.12444
vt 14.17323 3.774854
vt -14.17323 10.7677
vt -14.17323 4.418126
vt 19.78305 14.07482
vt 17.02643 14.07482
vt 19.78305 14.76379
vt 14.26982 14.07482
vt -14.08394 14.07482
vt -16.84055 14.07482
vt -19.52007 14.07482
vt -19.52007 14.76379
vt 19.79925 14.0748
vt 17.0953 14.0748
vt 19.79925 14.76378
vt 14.33905 14.0748
vt -14.0109 14.0748
vt -16.76715 14.0748
vt -19.5234 14.0748
vt -19.5234 14.76378
vt 19.68504 -10.13641
vt 16.92913 -10.1797
vt 19.63276 -3.7885
vt 16.92913 -3.830972
vt 10.29819 14.76378
vt 10.29819 14.0748
vt 3.950067 14.76378
vt 3.950067 14.0748
vt -3.889322 14.76378
vt -3.889322 14.0748
vt -10.23762 14.76378
vt -10.23762 14.0748
vt 4.303878 14.76378
vt 10.65217 14.76378
vt 4.303878 14.0748
vt 10.65217 14.0748
vt -19.68504 -10.13641
vt -19.63276 -3.7885
vt 19.63275 -10.75406
vt 19.68504 -4.406157
vt -10.59199 14.0748
vt -10.59199 14.76378
vt -4.243867 14.0748
vt -4.243867 14.76378
vt -14.17323 -19.68504
vt -14.8622 12.26358
vt -14.17323 19.68504
vt -16.92913 19.68504
vt -16.24016 12.26358
vt -16.24016 8.366141
vt -16.24016 -8.366141
vt -16.24016 -12.26358
vt -14.8622 -12.26358
vt -16.92913 -19.68504
vt -14.8622 8.366141
vt -14.8622 -8.366141
vt -19.68504 3.897441
vt -12.26358 11.3189
vt -19.68504 0
vt -8.366141 11.3189
vt -16.24016 -11.16352
vt -16.24016 -0.6679949
vt -14.8622 -11.16352
vt -14.8622 -0.6679949
vt 14.17323 19.68504
vt 16.92913 19.68504
vt 16.24016 -13.91943
vt 14.8622 -13.91943
vt 16.24016 2.087914
vt 14.8622 2.087914
vt 14.8622 -11.16352
vt 14.8622 -0.6679949
vt 16.24016 -11.16352
vt 16.24016 -0.6679949
vt 16.24016 0
vt 14.8622 0
vt 16.24016 3.897441
vt 14.8622 3.897441
vt -19.68504 11.3189
vt 19.68504 11.3189
vt -10.71159 14.0748
vt -4.362862 14.0748
vt 4.480665 14.0748
vt 10.83025 14.0748
vt 19.68504 3.897441
vt 19.68504 0
vt 12.26358 11.3189
vt 8.366141 11.3189
vt -14.17323 11.3189
vt -16.92913 11.3189
vt 10.66829 14.0748
vt 4.319567 14.0748
vt -4.418126 14.0748
vt -10.7677 14.0748
vt -14.8622 5.024293E-12
vt -16.24016 5.024293E-12
vt -14.8622 3.897441
vt -16.24016 3.897441
vt -16.92913 -10.1797
vt -14.17323 -10.223
vt 16.92913 11.3189
vt 14.17323 11.3189
vt -14.8622 0
vt -16.24016 0
vt 16.24016 5.024293E-12
vt 14.8622 5.024293E-12
vt -16.92913 10.06189
vt -14.17323 10.12444
vt 14.17323 4.418126
vt 16.92913 4.480665
vt 14.17323 -4.319567
vt 16.92913 -4.362862
vt -14.8622 2.087914
vt -14.8622 -13.91943
vt -16.24016 2.087914
vt -16.24016 -13.91943
vt 14.17323 -10.66829
vt 16.92913 -10.71159
vt -16.92913 3.712315
vt -14.17323 3.774854
vt 14.17323 10.7677
vt 16.92913 10.83025
vt 14.17323 -19.68504
vt 16.92913 -19.68504
vt -16.92913 -3.830972
vt -14.17323 -3.874268
vt 16.24016 12.26358
vt 14.8622 12.26358
vt 14.8622 8.366141
vt 14.8622 -8.366141
vt 14.8622 -12.26358
vt 16.24016 -12.26358
vt 16.24016 8.366141
vt 16.24016 -8.366141
vt 10.1797 14.0748
vt 3.830972 14.0748
vt -3.712315 14.0748
vt -10.06189 14.0748
vt -10.223 14.0748
vt -3.874268 14.0748
vt 3.774854 14.0748
vt 10.12444 14.0748

usemtl wood

f 3/3/1 2/2/1 1/1/1
f 2/2/1 3/3/1 4/4/1
f 7/7/2 6/6/2 5/5/2
f 6/6/2 7/7/2 8/8/2
f 11/11/1 10/10/1 9/9/1
f 10/10/1 11/11/1 12/12/1
f 15/13/1 14/7/1 13/8/1
f 14/7/1 15/13/1 16/14/1
f 19/15/2 18/11/2 17/12/2
f 18/11/2 19/15/2 20/16/2
f 23/19/3 22/18/3 21/17/3
f 22/18/3 23/19/3 24/20/3
f 24/20/3 23/19/3 25/21/3
f 25/21/3 23/19/3 26/22/3
f 26/22/3 23/19/3 27/23/3
f 27/23/3 23/19/3 28/24/3
f 18/27/4 29/26/4 17/25/4
f 29/26/4 18/27/4 30/28/4
f 11/31/5 19/30/5 12/29/5
f 19/30/5 11/31/5 20/32/5
f 7/19/3 32/18/3 31/17/3
f 32/18/3 7/19/3 33/20/3
f 33/20/3 7/19/3 34/21/3
f 34/21/3 7/19/3 16/22/3
f 16/22/3 7/19/3 14/23/3
f 14/23/3 7/19/3 5/24/3
f 23/35/2 35/34/2 28/33/2
f 35/34/2 23/35/2 36/36/2
f 38/6/1 32/38/1 37/37/1
f 32/38/1 38/6/1 31/5/1
f 35/19/6 40/18/6 39/17/6
f 40/18/6 35/19/6 41/20/6
f 41/20/6 35/19/6 42/21/6
f 42/21/6 35/19/6 43/22/6
f 43/22/6 35/19/6 44/23/6
f 44/23/6 35/19/6 36/24/6
f 44/39/5 23/27/5 21/28/5
f 23/27/5 44/39/5 36/40/5
f 18/19/6 45/18/6 30/17/6
f 45/18/6 18/19/6 46/20/6
f 46/20/6 18/19/6 47/21/6
f 47/21/6 18/19/6 9/22/6
f 9/22/6 18/19/6 11/23/6
f 11/23/6 18/19/6 20/24/6
f 42/43/1 25/42/1 41/41/1
f 25/42/1 42/43/1 24/44/1
f 40/45/1 27/35/1 39/36/1
f 27/35/1 40/45/1 26/46/1
f 50/49/1 49/48/1 48/47/1
f 49/48/1 50/49/1 51/50/1
f 19/19/3 10/18/3 12/17/3
f 10/18/3 19/19/3 52/20/3
f 52/20/3 19/19/3 53/21/3
f 53/21/3 19/19/3 54/22/3
f 54/22/3 19/19/3 29/23/3
f 29/23/3 19/19/3 17/24/3
f 6/53/4 14/52/4 5/51/4
f 14/52/4 6/53/4 13/54/4
f 38/52/5 7/53/5 31/54/5
f 7/53/5 38/52/5 8/51/5
f 47/57/1 53/56/1 46/55/1
f 53/56/1 47/57/1 52/58/1
f 57/61/1 56/60/1 55/59/1
f 56/60/1 57/61/1 58/62/1
f 61/65/7 60/64/7 59/63/7
f 60/64/7 61/65/7 55/66/7
f 55/66/7 61/65/7 57/67/7
f 57/67/7 61/65/7 48/68/7
f 48/68/7 61/65/7 50/69/7
f 50/69/7 61/65/7 62/70/7
f 45/71/1 29/15/1 30/16/1
f 29/15/1 45/71/1 54/72/1
f 35/73/4 27/31/4 28/32/4
f 27/31/4 35/73/4 39/74/4
f 44/34/1 22/76/1 43/75/1
f 22/76/1 44/34/1 21/33/1
f 65/79/2 64/78/2 63/77/2
f 64/78/2 65/79/2 66/80/2
f 69/83/1 68/82/1 67/81/1
f 68/82/1 69/83/1 70/84/1
f 63/87/8 69/86/8 67/85/8
f 69/86/8 63/87/8 71/88/8
f 71/88/8 63/87/8 72/89/8
f 72/89/8 63/87/8 1/90/8
f 1/90/8 63/87/8 3/91/8
f 3/91/8 63/87/8 64/92/8
f 6/19/6 15/18/6 13/17/6
f 15/18/6 6/19/6 73/20/6
f 73/20/6 6/19/6 74/21/6
f 74/21/6 6/19/6 37/22/6
f 37/22/6 6/19/6 38/23/6
f 38/23/6 6/19/6 8/24/6
f 74/95/1 34/94/1 73/93/1
f 34/94/1 74/95/1 33/96/1
f 72/99/1 75/98/1 71/97/1
f 75/98/1 72/99/1 76/100/1
f 66/103/9 2/102/9 4/101/9
f 2/102/9 66/103/9 76/104/9
f 76/104/9 66/103/9 75/105/9
f 75/105/9 66/103/9 70/106/9
f 70/106/9 66/103/9 68/107/9
f 68/107/9 66/103/9 65/108/9
f 77/111/10 49/110/10 51/109/10
f 49/110/10 77/111/10 58/112/10
f 58/112/10 77/111/10 56/113/10
f 56/113/10 77/111/10 78/114/10
f 78/114/10 77/111/10 79/115/10
f 79/115/10 77/111/10 80/116/10
f 59/119/1 78/118/1 79/117/1
f 78/118/1 59/119/1 60/120/1
f 61/123/11 79/122/11 80/121/11
f 79/122/11 61/123/11 59/124/11
f 63/127/12 68/126/12 65/125/12
f 68/126/12 63/127/12 67/128/12
f 4/131/13 64/130/13 66/129/13
f 64/130/13 4/131/13 3/132/13
f 77/135/2 61/134/2 80/133/2
f 61/134/2 77/135/2 62/136/2
f 50/139/14 77/138/14 51/137/14
f 77/138/14 50/139/14 62/140/14

usemtl woodDark

f 83/143/1 82/142/1 81/141/1
f 82/142/1 83/143/1 84/144/1
f 82/142/1 84/144/1 85/145/1
f 85/145/1 84/144/1 86/146/1
f 86/146/1 84/144/1 87/147/1
f 87/147/1 84/144/1 88/148/1
f 89/149/1 81/141/1 82/142/1
f 81/141/1 89/149/1 90/150/1
f 90/150/1 89/149/1 88/148/1
f 90/150/1 88/148/1 84/144/1
f 89/149/1 82/142/1 91/151/1
f 89/149/1 91/151/1 92/152/1
f 86/146/1 92/152/1 91/151/1
f 92/152/1 86/146/1 87/147/1
f 94/155/5 88/154/5 93/153/5
f 88/154/5 94/155/5 87/156/5
f 97/159/15 96/158/15 95/157/15
f 96/158/15 97/159/15 98/160/15
f 43/45/2 99/161/2 42/41/2
f 99/161/2 43/45/2 100/162/2
f 86/165/16 102/164/16 101/163/16
f 102/164/16 86/165/16 91/166/16
f 93/169/15 89/168/15 103/167/15
f 89/168/15 93/169/15 88/170/15
f 106/173/6 105/172/6 104/171/6
f 105/172/6 106/173/6 107/174/6
f 110/166/17 109/163/17 108/165/17
f 109/163/17 110/166/17 111/164/17
f 84/176/5 112/23/5 90/175/5
f 112/23/5 84/176/5 10/29/5
f 10/29/5 84/176/5 9/31/5
f 9/31/5 84/176/5 49/177/5
f 49/177/5 84/176/5 48/178/5
f 48/178/5 84/176/5 32/54/5
f 32/54/5 84/176/5 37/52/5
f 37/52/5 84/176/5 2/179/5
f 2/179/5 84/176/5 1/180/5
f 1/180/5 84/176/5 22/28/5
f 22/28/5 84/176/5 43/39/5
f 43/39/5 84/176/5 100/17/5
f 96/183/4 109/182/4 95/181/4
f 109/182/4 96/183/4 108/184/4
f 115/21/3 114/186/3 113/185/3
f 114/186/3 115/21/3 116/22/3
f 52/26/4 81/176/4 117/17/4
f 81/176/4 52/26/4 83/175/4
f 83/175/4 52/26/4 47/28/4
f 83/175/4 47/28/4 58/187/4
f 83/175/4 58/187/4 57/188/4
f 83/175/4 57/188/4 33/52/4
f 83/175/4 33/52/4 74/54/4
f 83/175/4 74/54/4 76/189/4
f 83/175/4 76/189/4 72/190/4
f 83/175/4 72/190/4 24/31/4
f 83/175/4 24/31/4 42/74/4
f 83/175/4 42/74/4 99/23/4
f 97/193/3 109/192/3 111/191/3
f 109/192/3 97/193/3 95/194/3
f 82/154/4 102/155/4 91/156/4
f 102/155/4 82/154/4 118/153/4
f 46/57/2 78/195/2 45/9/2
f 78/195/2 46/57/2 56/196/2
f 115/141/2 54/10/2 116/150/2
f 54/10/2 115/141/2 53/58/2
f 121/18/6 120/198/6 119/197/6
f 120/198/6 121/18/6 122/20/6
f 112/18/3 81/198/3 90/197/3
f 81/198/3 112/18/3 117/20/3
f 118/193/6 101/200/6 102/199/6
f 101/200/6 118/193/6 123/194/6
f 93/173/3 124/202/3 94/201/3
f 124/202/3 93/173/3 103/174/3
f 99/21/6 84/186/6 83/185/6
f 84/186/6 99/21/6 100/22/6
f 71/204/2 26/76/2 69/203/2
f 26/76/2 71/204/2 25/44/2
f 37/13/2 76/205/2 74/93/2
f 76/205/2 37/13/2 2/206/2
f 48/208/2 33/94/2 57/207/2
f 33/94/2 48/208/2 32/14/2
f 87/211/17 124/210/17 92/209/17
f 124/210/17 87/211/17 94/212/17
f 41/43/2 121/144/2 40/75/2
f 121/144/2 41/43/2 122/143/2
f 126/154/4 104/155/4 125/156/4
f 104/155/4 126/154/4 106/153/4
f 101/182/5 85/183/5 86/184/5
f 85/183/5 101/182/5 123/181/5
f 9/71/2 58/213/2 47/55/2
f 58/213/2 9/71/2 49/214/2
f 89/183/4 124/182/4 103/181/4
f 124/182/4 89/183/4 92/184/4
f 105/182/5 128/183/5 127/184/5
f 128/183/5 105/182/5 107/181/5
f 73/95/2 70/215/2 15/37/2
f 70/215/2 73/95/2 75/216/2
f 127/209/16 104/212/16 105/210/16
f 104/212/16 127/209/16 125/211/16
f 111/155/5 98/154/5 97/153/5
f 98/154/5 111/155/5 110/156/5
f 1/218/2 24/42/2 72/217/2
f 24/42/2 1/218/2 22/46/2
f 112/220/2 52/56/2 117/219/2
f 52/56/2 112/220/2 10/72/2
f 128/168/18 106/169/18 126/170/18
f 106/169/18 128/168/18 107/167/18
f 55/222/2 16/38/2 60/221/2
f 16/38/2 55/222/2 34/96/2
f 119/162/1 126/223/1 114/220/1
f 126/223/1 119/162/1 120/161/1
f 126/223/1 120/161/1 128/224/1
f 128/224/1 120/161/1 127/225/1
f 127/225/1 120/161/1 110/226/1
f 110/226/1 120/161/1 98/227/1
f 96/228/1 114/220/1 126/223/1
f 114/220/1 96/228/1 113/219/1
f 113/219/1 96/228/1 98/227/1
f 113/219/1 98/227/1 120/161/1
f 96/228/1 126/223/1 125/229/1
f 96/228/1 125/229/1 108/230/1
f 127/225/1 108/230/1 125/229/1
f 108/230/1 127/225/1 110/226/1
f 54/26/4 114/176/4 116/17/4
f 114/176/4 54/26/4 119/175/4
f 119/175/4 54/26/4 45/28/4
f 119/175/4 45/28/4 78/231/4
f 119/175/4 78/231/4 60/232/4
f 119/175/4 60/232/4 16/52/4
f 119/175/4 16/52/4 15/54/4
f 119/175/4 15/54/4 70/233/4
f 119/175/4 70/233/4 69/234/4
f 119/175/4 69/234/4 26/31/4
f 119/175/4 26/31/4 40/74/4
f 119/175/4 40/74/4 121/23/4
f 120/176/5 115/23/5 113/175/5
f 115/23/5 120/176/5 53/29/5
f 53/29/5 120/176/5 46/31/5
f 46/31/5 120/176/5 56/235/5
f 56/235/5 120/176/5 55/236/5
f 55/236/5 120/176/5 34/54/5
f 34/54/5 120/176/5 73/52/5
f 73/52/5 120/176/5 75/237/5
f 75/237/5 120/176/5 71/238/5
f 71/238/5 120/176/5 25/28/5
f 25/28/5 120/176/5 41/39/5
f 41/39/5 120/176/5 122/17/5
f 85/158/18 118/159/18 82/160/18
f 118/159/18 85/158/18 123/157/18

