# Created by Kenney (www.kenney.nl)

mtllib buttonSquare.mtl

g buttonSquare

v -0.3 0 0.2387627
v -0.3 0.05 0.2387627
v -0.2387627 0 0.3
v -0.2387627 0.05 0.3
v -0.2 0.05 0.2
v 0.2 0.05 0.2
v -0.2 0.1 0.2
v 0.2 0.1 0.2
v 0.3 0.05 0.2387627
v 0.2387627 0.05 0.3
v 0.25 0.1 0.1887628
v 0.1887628 0.1 0.25
v -0.1887628 0.1 -0.25
v -0.25 0.1 -0.1887628
v -0.2387627 0.05 -0.3
v -0.3 0.05 -0.2387627
v 0.3 0.05 -0.2387627
v 0.25 0.1 -0.1887628
v 0.2 0.05 -0.2
v -0.2 0.05 -0.2
v 0.2 0.1 -0.2
v -0.2 0.1 -0.2
v 0.3 0 0.2387627
v 0.2387627 0 0.3
v 0.3 0 -0.2387627
v -0.2387627 0 -0.3
v 0.2387627 0 -0.3
v 0.2387627 0.05 -0.3
v -0.1887628 0.1 0.25
v -0.25 0.1 0.1887628
v 0.1887628 0.1 -0.25
v -0.3 0 -0.2387627

vn -0.7071068 0 0.7071068
vn 0 0 -1
vn 0.4082483 0.8164966 0.4082483
vn -0.4082483 0.8164966 -0.4082483
vn 0.7071068 0.7071068 0
vn 0 0 1
vn 0.7071068 0 0.7071068
vn 1 0 0
vn -1 0 0
vn -0.4082483 0.8164966 0.4082483
vn 0 1 0
vn -0.7071068 0.7071068 0
vn 0 0.7071068 -0.7071068
vn 0.7071068 0 -0.7071068
vn 0.4082483 0.8164966 -0.4082483
vn -0.7071068 0 -0.7071068
vn 0 -1 0
vn 0 0.7071068 0.7071068

vt -1.704774 -3.828618E-14
vt -1.704774 1.968504
vt 1.704774 -3.828618E-14
vt 1.704774 1.968504
vt 7.874016 1.968504
vt -7.874016 1.968504
vt 7.874016 3.937008
vt -7.874016 3.937008
vt 1.704774 -11.10974
vt -1.704774 -11.10974
vt 1.704774 -7.700188
vt -1.704774 -7.700188
vt 9.400108 -6.959713
vt -9.400108 -6.959713
vt 7.431604 -4.175828
vt -7.431604 -4.175828
vt 1.704774 -1.148585E-13
vt -1.704774 -1.148585E-13
vt 9.400108 1.968504
vt 9.400108 -2.557954E-13
vt -9.400108 1.968504
vt -9.400108 -2.557954E-13
vt 9.400108 -3.410605E-13
vt -9.400108 -3.410605E-13
vt -9.84252 7.431604
vt -7.874016 -7.874016
vt -9.84252 -7.431604
vt -7.431604 -9.84252
vt 7.874016 -7.874016
vt 7.431604 -9.84252
vt 9.84252 -7.431604
vt 7.874016 7.874016
vt -7.874016 7.874016
vt -7.431604 9.84252
vt 7.431604 9.84252
vt 9.84252 7.431604
vt -9.400108 -1.705303E-13
vt 9.400108 -1.705303E-13
vt 1.704774 3.828618E-14
vt -1.704774 3.828618E-14
vt 9.400108 0
vt -9.400108 0
vt 1.704774 -1.914309E-13
vt -1.704774 -1.914309E-13
vt 11.81102 9.400108
vt 11.81102 -9.400108
vt 9.400108 11.81102
vt 9.400108 -11.81102
vt -9.400108 11.81102
vt -9.400108 -11.81102
vt -11.81102 9.400108
vt -11.81102 -9.400108

usemtl metal

f 3/3/1 2/2/1 1/1/1
f 2/2/1 3/3/1 4/4/1
f 7/7/2 6/6/2 5/5/2
f 6/6/2 7/7/2 8/8/2
f 11/11/3 10/10/3 9/9/3
f 10/10/3 11/11/3 12/12/3
f 15/10/4 14/11/4 13/12/4
f 14/11/4 15/10/4 16/9/4
f 18/15/5 9/14/5 17/13/5
f 9/14/5 18/15/5 11/16/5
f 21/7/6 20/6/6 19/5/6
f 20/6/6 21/7/6 22/8/6
f 10/2/7 23/17/7 9/4/7
f 23/17/7 10/2/7 24/18/7
f 9/21/8 25/20/8 17/19/8
f 25/20/8 9/21/8 23/22/8
f 15/19/2 27/24/2 26/23/2
f 27/24/2 15/19/2 28/21/2
f 6/5/9 21/8/9 19/6/9
f 21/8/9 6/5/9 8/7/9
f 30/12/10 4/9/10 29/11/10
f 4/9/10 30/12/10 2/10/10
f 18/27/11 21/26/11 11/25/11
f 21/26/11 18/27/11 31/28/11
f 21/26/11 31/28/11 22/29/11
f 22/29/11 31/28/11 13/30/11
f 22/29/11 13/30/11 14/31/11
f 22/29/11 14/31/11 7/32/11
f 8/33/11 11/25/11 21/26/11
f 11/25/11 8/33/11 12/34/11
f 12/34/11 8/33/11 7/32/11
f 12/34/11 7/32/11 29/35/11
f 29/35/11 7/32/11 30/36/11
f 30/36/11 7/32/11 14/31/11
f 16/14/12 30/15/12 14/16/12
f 30/15/12 16/14/12 2/13/12
f 15/13/13 31/16/13 28/14/13
f 31/16/13 15/13/13 13/15/13
f 20/29/11 6/33/11 19/26/11
f 6/33/11 20/29/11 5/32/11
f 1/38/9 16/21/9 32/37/9
f 16/21/9 1/38/9 2/19/9
f 28/4/14 25/40/14 27/39/14
f 25/40/14 28/4/14 17/2/14
f 10/19/6 3/42/6 24/41/6
f 3/42/6 10/19/6 4/21/6
f 28/9/15 18/12/15 17/10/15
f 18/12/15 28/9/15 31/11/15
f 7/8/8 20/5/8 22/7/8
f 20/5/8 7/8/8 5/6/8
f 16/4/16 26/44/16 32/43/16
f 26/44/16 16/4/16 15/2/16
f 24/47/17 25/46/17 23/45/17
f 25/46/17 24/47/17 27/48/17
f 27/48/17 24/47/17 3/49/17
f 27/48/17 3/49/17 26/50/17
f 26/50/17 3/49/17 1/51/17
f 26/50/17 1/51/17 32/52/17
f 12/15/18 4/14/18 10/13/18
f 4/14/18 12/15/18 29/16/18

g knob

v 0.15 0.15 -0.15
v 0.15 0.15 0.15
v -0.15 0.15 -0.15
v -0.15 0.15 0.15


vt -5.905512 -5.905512
vt -5.905512 5.905512
vt 5.905512 -5.905512
vt 5.905512 5.905512
vt 7.874016 -4.175828
vt -7.874016 -4.175828
vt 5.905512 -1.391943
vt -5.905512 -1.391943
vt -7.874016 0
vt 7.874016 0

usemtl heart

f 5/33/17 19/29/17 6/32/17
f 19/29/17 5/33/17 20/26/17
f 35/55/11 34/54/11 33/53/11
f 34/54/11 35/55/11 36/56/11
f 34/59/18 7/58/18 8/57/18
f 7/58/18 34/59/18 36/60/18
f 22/58/12 36/59/12 35/60/12
f 36/59/12 22/58/12 7/57/12
f 33/59/5 8/58/5 21/57/5
f 8/58/5 33/59/5 34/60/5
f 22/57/13 33/60/13 21/58/13
f 33/60/13 22/57/13 35/59/13
f 5/62/9 22/6/9 20/61/9
f 22/6/9 5/62/9 7/5/9
f 8/5/6 5/61/6 6/62/6
f 5/61/6 8/5/6 7/6/6
f 22/5/2 19/61/2 20/62/2
f 19/61/2 22/5/2 21/6/2
f 8/6/8 19/62/8 21/5/8
f 19/62/8 8/6/8 6/61/8

