# Created by Kenney (www.kenney.nl)

mtllib coinBronze.mtl

g coinBronze

v 0 0 -0.05000001
v 0 0.05726583 -0.05000001
v -0.1732051 0.1 -0.05000001
v -0.1236114 0.1286329 -0.05000001
v -0.1732051 0.3 -0.05000001
v -0.1236114 0.2713671 -0.05000001
v 0 0.3427342 -0.05000001
v 0 0.4 -0.05000001
v 0.1732051 0.1 -0.05000001
v 0.1236115 0.1286329 -0.05000001
v 0.1732051 0.3 -0.05000001
v 0.1236115 0.2713671 -0.05000001
v 0 0 0.05000001
v 0 0.05726583 0.05000001
v 0.1732051 0.1 0.05000001
v 0.1236115 0.1286329 0.05000001
v 0.1732051 0.3 0.05000001
v 0.1236115 0.2713671 0.05000001
v 0 0.3427342 0.05000001
v 0 0.4 0.05000001
v -0.1732051 0.1 0.05000001
v -0.1236114 0.1286329 0.05000001
v -0.1732051 0.3 0.05000001
v -0.1236114 0.2713671 0.05000001
v 0.1236115 0.2713671 0.00999999
v 0 0.3427342 0.00999999
v 0.1236115 0.1286329 -0.00999999
v 0 0.05726583 -0.00999999
v 0 0.05726583 0.00999999
v -0.1236114 0.1286329 0.00999999
v 0.1236115 0.2713671 -0.00999999
v 0 0.3427342 -0.00999999
v -0.1236114 0.1286329 -0.00999999
v -0.1236114 0.2713671 -0.00999999
v 0.1236115 0.1286329 0.00999999
v -0.1236114 0.2713671 0.00999999
v 0 0.1031442 0.00999999
v -0.08387959 0.1515721 0.00999999
v 0.08387959 0.1515721 0.00999999
v 0.08387959 0.2484279 0.00999999
v -0.08387959 0.2484279 0.00999999
v 0 0.2968558 0.00999999
v 0 0.1031442 -0.00999999
v 0.08387959 0.1515721 -0.00999999
v -0.08387959 0.1515721 -0.00999999
v -0.08387959 0.2484279 -0.00999999
v 0.08387959 0.2484279 -0.00999999
v 0 0.2968558 -0.00999999

vn 0 0 -1
vn 0 0 1
vn -1 0 0
vn 1 0 0
vn -0.5 0.8660254 0
vn -0.4999998 -0.8660255 0
vn -0.4999997 0.8660256 0
vn 0.5 0.8660254 0
vn 0.5000001 -0.8660253 0
vn 0.5 -0.8660254 0
vn -0.5 -0.8660254 0

vt 1.693112E-14 0
vt 1.693112E-14 2.25456
vt 6.819098 3.937008
vt 4.86659 5.064287
vt 6.819098 11.81102
vt 4.86659 10.68374
vt 1.693112E-14 13.49347
vt 1.693112E-14 15.74803
vt -6.819098 3.937008
vt -4.866594 5.064287
vt -6.819098 11.81102
vt -4.866594 10.68374
vt 4.866594 5.064287
vt 4.866594 10.68374
vt -4.86659 5.064287
vt -4.86659 10.68374
vt -1.968504 3.937008
vt -1.968504 11.81102
vt 1.968504 3.937008
vt 1.968504 11.81102
vt 1.968504 7.874015
vt 1.968504 -1.312207E-06
vt -1.968504 7.874015
vt -1.968504 -1.312207E-06
vt 1.968504 1.127275
vt 0.3937008 1.127275
vt 1.968504 6.746734
vt 0.3937008 6.746734
vt -0.3937008 6.746737
vt -0.3937008 1.127279
vt -1.968504 6.746737
vt -1.968504 1.127279
vt -1.968504 1.12728
vt -1.968504 6.746735
vt -0.3937008 1.12728
vt -0.3937008 6.746735
vt -0.3937008 1.127275
vt -1.968504 1.127275
vt -0.3937008 6.746734
vt -1.968504 6.746734
vt 0.3937008 1.12728
vt 0.3937008 6.746735
vt 1.968504 1.12728
vt 1.968504 6.746735
vt 0.3937008 6.746738
vt 1.968504 6.746738
vt 0.3937008 1.127283
vt 1.968504 1.127283
vt 1.968504 10.68374
vt 1.968504 5.064287
vt 0.3937008 10.68374
vt 0.3937008 5.064287
vt -1.968504 7.874016
vt 1.968504 7.874016
vt -1.968504 1.466278E-14
vt 1.968504 -1.466278E-14
vt 1.968504 6.746737
vt 1.968504 1.127279
vt 0.3937008 6.746737
vt 0.3937008 1.127279
vt -1.968504 5.064287
vt -1.968504 10.68374
vt -0.3937008 5.064287
vt -0.3937008 10.68374
vt -1.968504 6.746738
vt -0.3937008 6.746738
vt -1.968504 1.127283
vt -0.3937008 1.127283
vt -7.98246E-15 4.060795
vt -3.302346 5.967405
vt 3.302346 5.967405
vt 3.302346 9.780626
vt -3.302346 9.780626
vt -7.98246E-15 11.68724
vt -7.98246E-15 2.25456
vt -7.98246E-15 13.49347

usemtl wood

f 3/3/1 2/2/1 1/1/1
f 2/2/1 3/3/1 4/4/1
f 4/4/1 3/3/1 5/5/1
f 4/4/1 5/5/1 6/6/1
f 6/6/1 5/5/1 7/7/1
f 7/7/1 5/5/1 8/8/1
f 2/2/1 9/9/1 1/1/1
f 9/9/1 2/2/1 10/10/1
f 9/9/1 10/10/1 11/11/1
f 11/11/1 7/7/1 8/8/1
f 11/11/1 10/10/1 12/12/1
f 11/11/1 12/12/1 7/7/1
f 15/3/2 14/2/2 13/1/2
f 14/2/2 15/3/2 16/13/2
f 16/13/2 15/3/2 17/5/2
f 16/13/2 17/5/2 18/14/2
f 18/14/2 17/5/2 19/7/2
f 19/7/2 17/5/2 20/8/2
f 14/2/2 21/9/2 13/1/2
f 21/9/2 14/2/2 22/15/2
f 21/9/2 22/15/2 23/11/2
f 23/11/2 19/7/2 20/8/2
f 23/11/2 22/15/2 24/16/2
f 23/11/2 24/16/2 19/7/2
f 21/19/3 5/18/3 3/17/3
f 5/18/3 21/19/3 23/20/3
f 17/18/4 9/19/4 11/20/4
f 9/19/4 17/18/4 15/17/4
f 8/23/5 23/22/5 20/21/5
f 23/22/5 8/23/5 5/24/5
f 19/27/6 25/26/6 18/25/6
f 25/26/6 19/27/6 26/28/6
f 10/31/7 28/30/7 27/29/7
f 28/30/7 10/31/7 2/32/7
f 29/35/8 22/34/8 14/33/8
f 22/34/8 29/35/8 30/36/8
f 11/22/8 20/23/8 17/24/8
f 20/23/8 11/22/8 8/21/8
f 32/39/6 12/38/6 31/37/6
f 12/38/6 32/39/6 7/40/6
f 2/43/8 33/42/8 28/41/8
f 33/42/8 2/43/8 4/44/8
f 34/47/9 7/46/9 32/45/9
f 7/46/9 34/47/9 6/48/9
f 34/51/4 4/50/4 6/49/4
f 4/50/4 34/51/4 33/52/4
f 13/55/10 9/54/10 15/53/10
f 9/54/10 13/55/10 1/56/10
f 35/59/7 14/58/7 16/57/7
f 14/58/7 35/59/7 29/60/7
f 27/63/3 12/62/3 10/61/3
f 12/62/3 27/63/3 31/64/3
f 24/67/9 26/66/9 19/65/9
f 26/66/9 24/67/9 36/68/9
f 39/71/2 38/70/2 37/69/2
f 38/70/2 39/71/2 40/72/2
f 38/70/2 40/72/2 41/73/2
f 41/73/2 40/72/2 42/74/2
f 24/62/4 30/63/4 36/64/4
f 30/63/4 24/62/4 22/61/4
f 16/50/3 25/51/3 35/52/3
f 25/51/3 16/50/3 18/49/3
f 45/71/1 44/70/1 43/69/1
f 44/70/1 45/71/1 46/72/1
f 44/70/1 46/72/1 47/73/1
f 47/73/1 46/72/1 48/74/1
f 21/54/11 1/55/11 13/56/11
f 1/55/11 21/54/11 3/53/11

usemtl woodDark

f 33/4/1 43/69/1 28/75/1
f 43/69/1 33/4/1 45/71/1
f 45/71/1 33/4/1 34/6/1
f 45/71/1 34/6/1 46/72/1
f 46/72/1 34/6/1 48/74/1
f 48/74/1 34/6/1 32/76/1
f 43/69/1 27/10/1 28/75/1
f 27/10/1 43/69/1 44/70/1
f 27/10/1 44/70/1 31/12/1
f 31/12/1 48/74/1 32/76/1
f 31/12/1 44/70/1 47/73/1
f 31/12/1 47/73/1 48/74/1
f 35/13/2 37/69/2 29/75/2
f 37/69/2 35/13/2 39/71/2
f 39/71/2 35/13/2 25/14/2
f 39/71/2 25/14/2 40/72/2
f 40/72/2 25/14/2 42/74/2
f 42/74/2 25/14/2 26/76/2
f 37/69/2 30/15/2 29/75/2
f 30/15/2 37/69/2 38/70/2
f 30/15/2 38/70/2 36/16/2
f 36/16/2 42/74/2 26/76/2
f 36/16/2 38/70/2 41/73/2
f 36/16/2 41/73/2 42/74/2

