# Created by Kenney (www.kenney.nl)

mtllib doorClosed.mtl

g doorClosed

v 0.212132 0.912132 -0.1
v 0.212132 0.912132 0.09999999
v 0.15 0.9598076 -0.1
v 0.15 0.9598076 0.09999999
v 0 1 -0.1
v 0 1 0.09999999
v -0.07764572 0.9897777 -0.1
v -0.07764572 0.9897777 0.09999999
v 0.2598076 0.85 -0.1
v 0.2598076 0.85 0.09999999
v -0.3 0 -0.1
v -0.3 0.7 -0.1
v -0.3 0 0.09999999
v -0.3 0.7 0.09999999
v 0.3 0 -0.1
v 0.1994203 4.524707E-17 -0.1
v 0.3 0 0.09999999
v 0.1994203 4.523738E-17 -0.05000001
v 0.1994203 1.242061E-16 0.09999999
v 0.1994203 1.241965E-16 0.05000001
v -0.15 0.9598076 -0.1
v -0.15 0.9598076 0.09999999
v -0.212132 0.912132 -0.1
v -0.212132 0.912132 0.09999999
v 0.3 0.7 -0.1
v 0.3 0.7 0.09999999
v -0.1994203 4.524707E-17 -0.1
v -0.1994203 0.6934077 -0.1
v -0.1917869 0.7513891 -0.1
v -0.2897778 0.7776457 -0.1
v -0.1719515 0.7992762 -0.1
v -0.2598076 0.85 -0.1
v -0.1403978 0.8403977 -0.1
v -0.09927619 0.8719514 -0.1
v -0.05138922 0.8917869 -0.1
v 0 0.8985524 -0.1
v 0.05138922 0.8917869 -0.1
v 0.09927619 0.8719514 -0.1
v 0.1403978 0.8403977 -0.1
v 0.1719515 0.7992762 -0.1
v 0.2897778 0.7776457 -0.1
v 0.1917869 0.7513891 -0.1
v 0.1994203 0.6934077 -0.1
v 0.07764566 0.9897777 -0.1
v -0.1719514 0.7992762 -0.05000001
v -0.1403978 0.8403977 -0.05000001
v 0.2897778 0.7776457 0.09999999
v 0.1403978 0.8403977 -0.05000001
v 0.1719515 0.7992762 -0.05000001
v 0.1994203 0.6934077 0.09999999
v 0.1917869 0.7513891 0.09999999
v 0.1719515 0.7992762 0.09999999
v 0.1403978 0.8403977 0.09999999
v 0.09927619 0.8719514 0.09999999
v 0.05138922 0.8917869 0.09999999
v 0 0.8985524 0.09999999
v -0.05138922 0.8917869 0.09999999
v -0.09927619 0.8719514 0.09999999
v -0.2598076 0.85 0.09999999
v -0.1403978 0.8403977 0.09999999
v -0.1719515 0.7992762 0.09999999
v -0.2897778 0.7776457 0.09999999
v -0.1917869 0.7513891 0.09999999
v -0.1994203 0.6934077 0.09999999
v -0.1994203 1.242061E-16 0.09999999
v 0.07764566 0.9897777 0.09999999
v -0.1994203 4.523738E-17 -0.05000001
v -0.1994203 1.241965E-16 0.05000001
v -0.09927619 0.8719514 -0.05000001
v -0.1917869 0.7513891 0.05000001
v -0.1719514 0.7992762 0.05000001
v 0.1994203 0.6934077 -0.05000001
v 0.1917869 0.7513891 -0.05000001
v -0.1917869 0.7513891 -0.05000001
v -0.05138922 0.8917869 0.05000001
v -0.09927619 0.8719514 0.05000001
v -0.05138922 0.8917869 -0.05000001
v 0.1719515 0.7992762 0.05000001
v 0.1917869 0.7513891 0.05000001
v 0.05138922 0.8917869 -0.05000001
v 0 0.8985524 -0.05000001
v 0.09927619 0.8719514 -0.05000001
v -0.1994203 0.6934077 0.05000001
v 0 0.8985524 0.05000001
v 0.1403978 0.8403977 0.05000001
v 0.09927619 0.8719514 0.05000001
v -0.1403978 0.8403977 0.05000001
v 0.1994203 0.6934077 0.05000001
v 0.05138922 0.8917869 0.05000001
v -0.1994203 0.6934077 -0.05000001
v -0.1017879 0.7587673 0.00999999
v -0.1017879 0.7587673 0.05000001
v -0.0831095 0.7831095 0.00999999
v -0.0831095 0.7831095 0.05000001
v 0.1135297 0.7304202 0.00999999
v 0.1135297 0.7304202 0.05000001
v 0.1190956 0.6881429 0.00999999
v 0.1190956 0.6881429 0.05000001
v 0.0831095 0.7831095 -0.05000001
v 0.0831095 0.7831095 -0.00999999
v 0.1017879 0.7587673 -0.05000001
v 0.1017879 0.7587673 -0.00999999
v 0.05876732 0.8017879 -0.05000001
v 0.05876732 0.8017879 -0.00999999
v 0.1190956 0.08032473 0.05000001
v 0.1017879 0.7587673 0.05000001
v 0.0831095 0.7831095 0.05000001
v 0.05876732 0.8017879 0.05000001
v 0.03042018 0.8135297 0.05000001
v 0 0.8175346 0.05000001
v -0.1190956 0.08032473 0.05000001
v -0.1190956 0.6881429 0.05000001
v -0.1135297 0.7304202 0.05000001
v -0.05876732 0.8017879 0.05000001
v -0.03042018 0.8135297 0.05000001
v 0.0831095 0.7831095 0.00999999
v 0.1017879 0.7587673 0.00999999
v -0.1135297 0.7304202 -0.05000001
v -0.1190956 0.6881429 -0.05000001
v -0.1135297 0.7304202 -0.00999999
v -0.1190956 0.6881429 -0.00999999
v -0.1190956 0.08032473 -0.05000001
v -0.1017879 0.7587673 -0.05000001
v -0.0831095 0.7831095 -0.05000001
v -0.05876732 0.8017879 -0.05000001
v -0.03042018 0.8135297 -0.05000001
v 0 0.8175346 -0.05000001
v 0.1190956 0.08032473 -0.05000001
v 0.1190956 0.6881429 -0.05000001
v 0.1135297 0.7304202 -0.05000001
v 0.03042018 0.8135297 -0.05000001
v -0.03042018 0.8135297 -0.00999999
v -0.05876732 0.8017879 -0.00999999
v 0.1135297 0.7304202 -0.00999999
v 0.03042018 0.8135297 -0.00999999
v -0.1135297 0.7304202 0.00999999
v 0.03042018 0.8135297 0.00999999
v 0 0.8175346 0.00999999
v 0.1190956 0.6881429 -0.00999999
v 0.1190956 0.08032473 -0.00999999
v -0.1190956 0.08032473 -0.00999999
v -0.05876732 0.8017879 0.00999999
v -0.0831095 0.7831095 -0.00999999
v 0.05876732 0.8017879 0.00999999
v 0 0.8175346 -0.00999999
v 0.1190956 0.08032473 0.00999999
v -0.1190956 0.08032473 0.00999999
v -0.1190956 0.6881429 0.00999999
v -0.1017879 0.7587673 -0.00999999
v -0.03042018 0.8135297 0.00999999

vn 0.7071068 0.7071068 0
vn 0.5 0.8660254 0
vn 0 1 0
vn -0.2588191 0.9659257 0
vn 0.8660251 0.5000005 0
vn -1 0 0
vn 0 -1 0
vn -0.5 0.8660254 0
vn -0.7071068 0.7071068 0
vn 1 0 0
vn 0 0 -1
vn 0.8660256 -0.4999998 -8.660256E-07
vn 0.8660255 -0.4999999 -8.660255E-07
vn 0.7071066 -0.7071069 -4.000995E-07
vn 0.9659258 0.2588191 0
vn 0.9914449 0.1305256 0
vn -0.7071064 -0.7071072 0
vn -0.8660255 -0.4999997 0
vn 0 0 1
vn 0.5000004 -0.8660253 0
vn -0.8660251 0.5000005 0
vn 0.2588191 0.9659257 0
vn -0.9659258 0.2588191 0
vn 0.9659258 -0.2588188 4.659259E-07
vn 0.8660255 -0.4999999 8.660255E-07
vn 0.8660256 -0.4999998 8.660256E-07
vn -0.9914449 0.1305256 0
vn -0.9914449 -0.1305263 0
vn -0.9659259 -0.2588183 0
vn 0.9659258 -0.2588188 -4.659258E-07
vn 0.2588193 -0.9659257 0
vn -0.2588193 -0.9659257 0
vn -0.5000004 -0.8660253 0
vn 0.9914449 -0.1305263 0
vn 0.7071066 -0.7071069 4.000995E-07
vn 0.8660253 -0.5000004 0
vn 0.7071068 -0.7071068 0
vn -0.9659256 -0.2588196 0
vn -0.9914449 -0.1305259 0
vn -0.7071068 -0.7071068 0
vn -0.8660253 -0.5000004 0
vn 0.9659256 -0.2588196 0
vn 0.9914449 -0.1305259 0
vn 0.2588198 -0.9659256 0
vn -0.2588198 -0.9659256 0

vt 3.937008 15.23526
vt -3.937008 15.23526
vt 3.937008 18.31855
vt -3.937008 18.31855
vt -3.937008 5.138851
vt 3.937008 5.138851
vt -3.937008 2.055555
vt 3.937008 2.055555
vt 3.937008 23.4057
vt 3.937008 20.32241
vt -3.937008 23.4057
vt -3.937008 20.32241
vt -3.937008 0
vt -3.937008 27.55906
vt 3.937008 0
vt 3.937008 27.55906
vt 11.81102 -3.937008
vt 7.851193 -3.937008
vt 11.81102 3.937008
vt 7.851193 -1.968504
vt 7.851193 3.937008
vt 7.851193 1.968504
vt 11.81102 0
vt 7.851193 1.781381E-15
vt 11.81102 27.55906
vt 7.851193 27.29952
vt 7.550665 29.58225
vt 11.40858 30.61597
vt 6.769744 31.46757
vt 10.22865 33.46457
vt 5.527472 33.08652
vt 3.908512 34.3288
vt 8.351653 35.91071
vt 2.023197 35.10972
vt -3.688825E-14 35.37608
vt -8.351653 35.91071
vt -2.023197 35.10972
vt -3.908512 34.3288
vt -10.22865 33.46457
vt -5.527472 33.08652
vt -6.769744 31.46757
vt -11.40858 30.61597
vt -7.550665 29.58225
vt -11.81102 27.55906
vt -7.851193 27.29952
vt -7.851193 1.781381E-15
vt -11.81102 0
vt 5.905512 37.7877
vt -5.905512 37.7877
vt 3.056917 38.96762
vt -3.056917 38.96762
vt -3.688825E-14 39.37008
vt 3.937015 20.84374
vt 1.968511 20.84374
vt 3.937013 22.88439
vt 1.968509 22.88439
vt 3.937008 28.86494
vt 3.937008 25.78164
vt -3.937008 28.86494
vt -3.937008 25.78164
vt 3.937008 27.00288
vt 3.937008 23.91958
vt -3.937008 27.00288
vt -3.937008 23.91958
vt -3.937008 22.88437
vt -1.968504 22.88437
vt -3.937008 20.84372
vt -1.968504 20.84372
vt 7.851193 4.890003E-15
vt 1.995517E-14 35.37608
vt -7.851193 4.890003E-15
vt 1.995517E-14 39.37008
vt -7.851193 -3.937008
vt -11.81102 -3.937008
vt -7.851193 -1.968504
vt -7.851193 1.968504
vt -7.851193 3.937008
vt -11.81102 3.937008
vt 3.937008 17.79721
vt 3.937008 15.75655
vt 1.968504 17.79721
vt 1.968504 15.75655
vt -3.937008 12.08803
vt 3.937008 12.08803
vt -3.937008 9.004731
vt 3.937008 9.004731
vt -1.968511 24.44093
vt -3.937016 24.44093
vt -1.968511 26.48159
vt -3.937015 26.48158
vt -3.937008 26.04118
vt -3.937008 28.34361
vt -1.968504 26.04118
vt -1.968504 28.34361
vt 3.937016 24.44093
vt 1.968511 24.44093
vt 3.937015 26.48158
vt 1.968511 26.48159
vt -1.968504 11.56675
vt -1.968504 9.5261
vt -3.937008 11.56675
vt -3.937008 9.5261
vt 3.937008 11.56675
vt 3.937008 9.5261
vt 1.968504 11.56675
vt 1.968504 9.5261
vt 1.968504 26.4816
vt 3.937008 26.4816
vt 1.968504 24.44095
vt 3.937008 24.44095
vt -3.937008 2.576839
vt -3.937008 4.617494
vt -1.968504 2.576839
vt -1.968504 4.617494
vt 3.937008 4.617494
vt 3.937008 2.576839
vt 1.968504 4.617494
vt 1.968504 2.576839
vt -3.937008 15.75655
vt -3.937008 17.79721
vt -1.968504 15.75655
vt -1.968504 17.79721
vt -3.937008 26.4816
vt -1.968504 26.4816
vt -3.937008 24.44095
vt -1.968504 24.44095
vt -1.968511 20.84374
vt -3.937015 20.84374
vt -1.968509 22.88439
vt -3.937013 22.88439
vt 1.968504 4.889626E-15
vt 1.968504 27.29952
vt 3.937008 4.890003E-15
vt 3.937008 27.29952
vt -3.937008 1.781381E-15
vt -3.937008 27.29952
vt -1.968504 1.780999E-15
vt -1.968504 27.29952
vt -1.968504 4.889626E-15
vt -3.937008 4.890003E-15
vt 1.968504 22.88437
vt 3.937008 22.88437
vt 1.968504 20.84372
vt 3.937008 20.84372
vt 1.968504 26.04118
vt 1.968504 28.34361
vt 3.937008 26.04118
vt 3.937008 28.34361
vt 3.937008 1.781381E-15
vt 1.968504 1.780999E-15
vt -0.3937008 21.26009
vt -1.968504 21.26009
vt -0.3937008 22.46807
vt -1.968504 22.46807
vt 0.3937008 27.92728
vt 1.968504 27.92728
vt 0.3937008 26.24845
vt 1.968504 26.24845
vt -1.968504 16.17288
vt -1.968504 17.38086
vt -0.3937008 16.17288
vt -0.3937008 17.38086
vt -7.851193 4.889626E-15
vt 4.688803 3.162391
vt 7.851193 4.889626E-15
vt 4.688803 27.09224
vt 4.469673 28.7567
vt 4.007398 29.87273
vt 3.272027 30.83108
vt 2.313673 31.56645
vt 1.197646 32.02873
vt 9.977583E-15 32.1864
vt -4.688803 3.162391
vt -4.688803 27.09224
vt -4.469673 28.7567
vt -4.007398 29.87273
vt -6.76974 31.46757
vt -3.272027 30.83108
vt -2.313673 31.56645
vt -1.197646 32.02873
vt 9.977583E-15 35.37608
vt 0.3937008 22.46807
vt 1.968504 22.46807
vt 0.3937008 21.26009
vt 1.968504 21.26009
vt -7.851193 1.780999E-15
vt 7.851193 1.780999E-15
vt 6.76974 31.46757
vt -4.686583E-14 32.1864
vt -4.686583E-14 35.37608
vt 1.968504 11.15043
vt 1.968504 9.942446
vt 0.3937008 11.15043
vt 0.3937008 9.942446
vt -1.968504 24.85724
vt -1.968504 26.06522
vt -0.3937008 24.85724
vt -0.3937008 26.06522
vt -1.968504 9.942446
vt -1.968504 11.15043
vt -0.3937008 9.942446
vt -0.3937008 11.15043
vt 0.3937008 2.993193
vt 0.3937008 4.201173
vt 1.968504 2.993193
vt 1.968504 4.201173
vt -1.968504 27.92728
vt -0.3937008 27.92728
vt -1.968504 26.24845
vt -0.3937008 26.24845
vt -4.688803 -1.968504
vt -4.688803 -0.3937008
vt 4.688803 -1.968504
vt 4.688803 -0.3937008
vt -1.968504 3.162391
vt -1.968504 27.09224
vt -0.3937008 3.162391
vt -0.3937008 27.09224
vt 1.968504 27.09224
vt 1.968504 3.162391
vt 0.3937008 27.09224
vt 0.3937008 3.162391
vt 0.3937008 24.85724
vt 0.3937008 26.06522
vt 1.968504 24.85724
vt 1.968504 26.06522
vt 1.968504 17.38086
vt 1.968504 16.17288
vt 0.3937008 17.38086
vt 0.3937008 16.17288
vt -1.968504 2.993193
vt -1.968504 4.201173
vt -0.3937008 2.993193
vt -0.3937008 4.201173
vt -4.688803 0.3937008
vt -4.688803 1.968504
vt 4.688803 0.3937008
vt 4.688803 1.968504
vt 1.33642E-14 32.1864
vt -4.347922E-14 32.1864

usemtl metal

f 3/3/2 2/2/1 1/1/1
f 2/2/1 3/3/2 4/4/2
f 7/7/4 6/6/3 5/5/3
f 6/6/3 7/7/4 8/8/4
f 2/11/1 9/10/5 1/9/1
f 9/10/5 2/11/1 10/12/5
f 13/15/6 12/14/6 11/13/6
f 12/14/6 13/15/6 14/16/6
f 17/19/7 16/18/7 15/17/7
f 16/18/7 17/19/7 18/20/7
f 18/20/7 17/19/7 19/21/7
f 18/20/7 19/21/7 20/22/7
f 23/2/9 22/3/8 21/4/8
f 22/3/8 23/2/9 24/1/9
f 26/14/10 15/15/10 25/16/10
f 15/15/10 26/14/10 17/13/10
f 12/25/11 27/24/11 11/23/11
f 27/24/11 12/25/11 28/26/11
f 28/26/11 12/25/11 29/27/11
f 29/27/11 12/25/11 30/28/11
f 29/27/11 30/28/11 31/29/11
f 31/29/11 30/28/11 32/30/11
f 31/29/11 32/30/11 33/31/11
f 33/31/11 32/30/11 34/32/11
f 34/32/11 32/30/11 23/33/11
f 34/32/11 23/33/11 35/34/11
f 35/34/11 23/33/11 36/35/11
f 1/36/11 36/35/11 23/33/11
f 1/36/11 37/37/11 36/35/11
f 1/36/11 38/38/11 37/37/11
f 9/39/11 38/38/11 1/36/11
f 9/39/11 39/40/11 38/38/11
f 9/39/11 40/41/11 39/40/11
f 41/42/11 40/41/11 9/39/11
f 41/42/11 42/43/11 40/41/11
f 25/44/11 42/43/11 41/42/11
f 25/44/11 43/45/11 42/43/11
f 25/44/11 16/46/11 43/45/11
f 16/46/11 25/44/11 15/47/11
f 1/36/11 23/33/11 21/48/11
f 1/36/11 21/48/11 3/49/11
f 3/49/11 21/48/11 7/50/11
f 3/49/11 7/50/11 44/51/11
f 44/51/11 7/50/11 5/52/11
f 33/55/14 45/54/13 31/53/12
f 45/54/13 33/55/14 46/56/14
f 47/59/15 25/58/16 41/57/15
f 25/58/16 47/59/15 26/60/16
f 10/63/5 41/62/15 9/61/5
f 41/62/15 10/63/5 47/64/15
f 40/67/18 48/66/17 39/65/17
f 48/66/17 40/67/18 49/68/18
f 26/25/19 19/69/19 17/23/19
f 19/69/19 26/25/19 50/26/19
f 50/26/19 26/25/19 51/27/19
f 51/27/19 26/25/19 47/28/19
f 51/27/19 47/28/19 52/29/19
f 52/29/19 47/28/19 10/30/19
f 52/29/19 10/30/19 53/31/19
f 53/31/19 10/30/19 54/32/19
f 54/32/19 10/30/19 2/33/19
f 54/32/19 2/33/19 55/34/19
f 55/34/19 2/33/19 56/70/19
f 24/36/19 56/70/19 2/33/19
f 24/36/19 57/37/19 56/70/19
f 24/36/19 58/38/19 57/37/19
f 59/39/19 58/38/19 24/36/19
f 59/39/19 60/40/19 58/38/19
f 59/39/19 61/41/19 60/40/19
f 62/42/19 61/41/19 59/39/19
f 62/42/19 63/43/19 61/41/19
f 14/44/19 63/43/19 62/42/19
f 14/44/19 64/45/19 63/43/19
f 14/44/19 65/71/19 64/45/19
f 65/71/19 14/44/19 13/47/19
f 24/36/19 2/33/19 4/48/19
f 24/36/19 4/48/19 22/49/19
f 22/49/19 4/48/19 66/50/19
f 22/49/19 66/50/19 8/51/19
f 8/51/19 66/50/19 6/72/19
f 67/75/7 11/74/7 27/73/7
f 11/74/7 67/75/7 68/76/7
f 11/74/7 68/76/7 65/77/7
f 11/74/7 65/77/7 13/78/7
f 69/81/20 33/80/14 34/79/20
f 33/80/14 69/81/20 46/82/14
f 59/10/21 23/11/9 32/12/21
f 23/11/9 59/10/21 24/9/9
f 5/6/3 66/7/22 44/8/22
f 66/7/22 5/6/3 6/5/3
f 21/85/8 8/84/4 7/83/4
f 8/84/4 21/85/8 22/86/8
f 62/62/23 32/63/21 30/64/23
f 32/63/21 62/62/23 59/61/21
f 71/89/25 63/88/24 70/87/24
f 63/88/24 71/89/25 61/90/26
f 14/58/27 30/59/23 12/60/27
f 30/59/23 14/58/27 62/57/23
f 44/84/22 4/85/2 3/86/2
f 4/85/2 44/84/22 66/83/22
f 72/93/28 42/92/29 43/91/28
f 42/92/29 72/93/28 73/94/29
f 31/97/12 74/96/30 29/95/30
f 74/96/30 31/97/12 45/98/13
f 57/101/31 76/100/20 75/99/31
f 76/100/20 57/101/31 58/102/20
f 77/105/31 34/104/20 35/103/31
f 34/104/20 77/105/31 69/106/20
f 79/109/29 52/108/18 78/107/18
f 52/108/18 79/109/29 51/110/29
f 80/113/32 36/112/7 37/111/32
f 36/112/7 80/113/32 81/114/7
f 81/117/7 35/116/31 36/115/7
f 35/116/31 81/117/7 77/118/31
f 48/121/17 38/120/33 39/119/17
f 38/120/33 48/121/17 82/122/33
f 63/92/24 83/93/34 70/94/24
f 83/93/34 63/92/24 64/91/34
f 56/112/7 75/113/31 84/114/7
f 75/113/31 56/112/7 57/111/31
f 53/80/17 86/81/33 85/82/17
f 86/81/33 53/80/17 54/79/33
f 42/125/29 49/124/18 40/123/18
f 49/124/18 42/125/29 73/126/29
f 82/100/33 37/101/32 38/102/33
f 37/101/32 82/100/33 80/99/32
f 87/129/35 61/128/26 71/127/25
f 61/128/26 87/129/35 60/130/35
f 19/133/6 88/132/6 20/131/6
f 88/132/6 19/133/6 50/134/6
f 18/137/6 43/136/6 16/135/6
f 43/136/6 18/137/6 72/138/6
f 58/120/20 87/121/35 76/122/20
f 87/121/35 58/120/20 60/119/35
f 64/136/10 68/139/10 83/138/10
f 68/139/10 64/136/10 65/140/10
f 55/116/32 84/117/7 89/118/32
f 84/117/7 55/116/32 56/115/7
f 78/143/18 53/142/17 85/141/17
f 53/142/17 78/143/18 52/144/18
f 50/147/28 79/146/29 88/145/28
f 79/146/29 50/147/28 51/148/29
f 74/146/30 28/147/34 29/148/30
f 28/147/34 74/146/30 90/145/34
f 54/104/33 89/105/32 86/106/33
f 89/105/32 54/104/33 55/103/32
f 90/132/10 27/149/10 28/134/10
f 27/149/10 90/132/10 67/150/10

usemtl wood

f 93/153/37 92/152/36 91/151/36
f 92/152/36 93/153/37 94/154/37
f 20/22/7 67/75/7 18/20/7
f 67/75/7 20/22/7 68/76/7
f 97/157/39 96/156/38 95/155/38
f 96/156/38 97/157/39 98/158/39
f 101/152/41 100/153/40 99/154/40
f 100/153/40 101/152/41 102/151/41
f 100/161/40 103/160/33 99/159/40
f 103/160/33 100/161/40 104/162/33
f 20/165/19 105/164/19 68/163/19
f 105/164/19 20/165/19 88/26/19
f 105/164/19 88/26/19 98/166/19
f 98/166/19 88/26/19 96/167/19
f 96/167/19 88/26/19 79/27/19
f 96/167/19 79/27/19 106/168/19
f 106/168/19 79/27/19 78/29/19
f 106/168/19 78/29/19 107/169/19
f 107/169/19 78/29/19 108/170/19
f 108/170/19 78/29/19 85/31/19
f 108/170/19 85/31/19 109/171/19
f 109/171/19 85/31/19 110/172/19
f 111/173/19 68/163/19 105/164/19
f 68/163/19 111/173/19 83/45/19
f 83/45/19 111/173/19 112/174/19
f 83/45/19 112/174/19 113/175/19
f 83/45/19 113/175/19 70/43/19
f 70/43/19 113/175/19 92/176/19
f 70/43/19 92/176/19 71/177/19
f 71/177/19 92/176/19 94/178/19
f 71/177/19 94/178/19 114/179/19
f 71/177/19 114/179/19 87/40/19
f 87/40/19 110/172/19 85/31/19
f 87/40/19 114/179/19 115/180/19
f 87/40/19 115/180/19 110/172/19
f 87/40/19 85/31/19 86/32/19
f 87/40/19 86/32/19 76/38/19
f 76/38/19 86/32/19 89/34/19
f 76/38/19 89/34/19 75/37/19
f 75/37/19 89/34/19 84/181/19
f 117/184/41 107/183/40 116/182/40
f 107/183/40 117/184/41 106/185/41
f 120/155/42 119/158/43 118/156/42
f 119/158/43 120/155/42 121/157/43
f 67/187/11 122/164/11 18/186/11
f 122/164/11 67/187/11 90/26/11
f 122/164/11 90/26/11 119/166/11
f 119/166/11 90/26/11 118/167/11
f 118/167/11 90/26/11 74/27/11
f 118/167/11 74/27/11 123/168/11
f 123/168/11 74/27/11 45/188/11
f 123/168/11 45/188/11 124/169/11
f 124/169/11 45/188/11 125/170/11
f 125/170/11 45/188/11 46/31/11
f 125/170/11 46/31/11 126/171/11
f 126/171/11 46/31/11 127/189/11
f 128/173/11 18/186/11 122/164/11
f 18/186/11 128/173/11 72/45/11
f 72/45/11 128/173/11 129/174/11
f 72/45/11 129/174/11 130/175/11
f 72/45/11 130/175/11 73/43/11
f 73/43/11 130/175/11 101/176/11
f 73/43/11 101/176/11 49/41/11
f 49/41/11 101/176/11 99/178/11
f 49/41/11 99/178/11 103/179/11
f 49/41/11 103/179/11 48/40/11
f 48/40/11 127/189/11 46/31/11
f 48/40/11 103/179/11 131/180/11
f 48/40/11 131/180/11 127/189/11
f 48/40/11 46/31/11 69/32/11
f 48/40/11 69/32/11 82/38/11
f 82/38/11 69/32/11 77/34/11
f 82/38/11 77/34/11 80/37/11
f 80/37/11 77/34/11 81/190/11
f 132/193/44 125/192/20 126/191/44
f 125/192/20 132/193/44 133/194/20
f 134/197/38 101/196/41 130/195/38
f 101/196/41 134/197/38 102/198/41
f 104/201/33 131/200/45 103/199/33
f 131/200/45 104/201/33 135/202/45
f 92/196/36 136/197/42 91/198/36
f 136/197/42 92/196/36 113/195/42
f 109/205/45 138/204/7 137/203/45
f 138/204/7 109/205/45 110/206/7
f 129/209/39 134/208/38 130/207/38
f 134/208/38 129/209/39 139/210/39
f 122/213/3 140/212/3 128/211/3
f 140/212/3 122/213/3 141/214/3
f 140/217/6 129/216/6 128/215/6
f 129/216/6 140/217/6 139/218/6
f 121/221/10 122/220/10 119/219/10
f 122/220/10 121/221/10 141/222/10
f 96/225/38 117/224/41 95/223/38
f 117/224/41 96/225/38 106/226/41
f 114/160/20 93/161/37 142/162/20
f 93/161/37 114/160/20 94/159/37
f 133/229/20 124/228/37 125/227/20
f 124/228/37 133/229/20 143/230/37
f 108/192/33 137/193/45 144/194/33
f 137/193/45 108/192/33 109/191/45
f 107/228/40 144/229/33 116/230/40
f 144/229/33 107/228/40 108/227/33
f 135/233/45 127/232/7 131/231/45
f 127/232/7 135/233/45 145/234/7
f 147/237/3 105/236/3 146/235/3
f 105/236/3 147/237/3 111/238/3
f 136/208/42 112/209/43 148/210/43
f 112/209/43 136/208/42 113/207/42
f 124/183/37 149/184/36 123/185/36
f 149/184/36 124/183/37 143/182/37
f 105/220/6 97/221/6 146/222/6
f 97/221/6 105/220/6 98/219/6
f 110/232/7 150/233/44 138/234/7
f 150/233/44 110/232/7 115/231/44
f 115/200/44 142/201/20 150/202/44
f 142/201/20 115/200/44 114/199/20
f 112/216/10 147/217/10 148/218/10
f 147/217/10 112/216/10 111/215/10
f 149/224/36 118/225/42 123/226/36
f 118/225/42 149/224/36 120/223/42
f 145/204/7 126/205/44 127/206/7
f 126/205/44 145/204/7 132/203/44

usemtl woodDark

f 97/166/19 147/173/19 146/164/19
f 147/173/19 97/166/19 148/174/19
f 148/174/19 97/166/19 95/167/19
f 148/174/19 95/167/19 136/175/19
f 136/175/19 95/167/19 117/168/19
f 136/175/19 117/168/19 91/176/19
f 91/176/19 117/168/19 116/169/19
f 91/176/19 116/169/19 93/178/19
f 93/178/19 116/169/19 144/170/19
f 93/178/19 144/170/19 142/179/19
f 142/179/19 144/170/19 137/171/19
f 142/179/19 137/171/19 150/180/19
f 150/180/19 137/171/19 138/239/19
f 121/166/11 140/173/11 141/164/11
f 140/173/11 121/166/11 139/174/11
f 139/174/11 121/166/11 120/167/11
f 139/174/11 120/167/11 134/175/11
f 134/175/11 120/167/11 149/168/11
f 134/175/11 149/168/11 102/176/11
f 102/176/11 149/168/11 143/169/11
f 102/176/11 143/169/11 100/178/11
f 100/178/11 143/169/11 133/170/11
f 100/178/11 133/170/11 104/179/11
f 104/179/11 133/170/11 132/171/11
f 104/179/11 132/171/11 135/180/11
f 135/180/11 132/171/11 145/240/11

