# Created by Kenney (www.kenney.nl)

mtllib doorOpen.mtl

g doorOpen

v 0.212132 0.912132 -0.1
v 0.212132 0.912132 0.09999999
v 0.15 0.9598076 -0.1
v 0.15 0.9598076 0.09999999
v 0 1 -0.1
v 0 1 0.09999999
v -0.07764572 0.9897777 -0.1
v -0.07764572 0.9897777 0.09999999
v 0.2598076 0.85 -0.1
v 0.2598076 0.85 0.09999999
v -0.3 0 -0.1
v -0.3 0.7 -0.1
v -0.3 0 0.09999999
v -0.3 0.7 0.09999999
v 0.3 0 -0.1
v 0.1994203 4.524707E-17 -0.1
v 0.3 0 0.09999999
v 0.1994203 1.242061E-16 0.09999999
v -0.15 0.9598076 -0.1
v -0.15 0.9598076 0.09999999
v -0.212132 0.912132 -0.1
v -0.212132 0.912132 0.09999999
v 0.3 0.7 -0.1
v 0.3 0.7 0.09999999
v -0.1994203 4.524707E-17 -0.1
v -0.1994203 0.6934077 -0.1
v -0.1917869 0.7513891 -0.1
v -0.2897778 0.7776457 -0.1
v -0.1719515 0.7992762 -0.1
v -0.2598076 0.85 -0.1
v -0.1403978 0.8403977 -0.1
v -0.09927619 0.8719514 -0.1
v -0.05138922 0.8917869 -0.1
v 0 0.8985524 -0.1
v 0.05138922 0.8917869 -0.1
v 0.09927619 0.8719514 -0.1
v 0.1403978 0.8403977 -0.1
v 0.1719515 0.7992762 -0.1
v 0.2897778 0.7776457 -0.1
v 0.1917869 0.7513891 -0.1
v 0.1994203 0.6934077 -0.1
v 0.07764566 0.9897777 -0.1
v 0.2897778 0.7776457 0.09999999
v 0.1994203 0.6934077 0.09999999
v 0.1917869 0.7513891 0.09999999
v 0.1719515 0.7992762 0.09999999
v 0.1403978 0.8403977 0.09999999
v 0.09927619 0.8719514 0.09999999
v 0.05138922 0.8917869 0.09999999
v 0 0.8985524 0.09999999
v -0.05138922 0.8917869 0.09999999
v -0.09927619 0.8719514 0.09999999
v -0.2598076 0.85 0.09999999
v -0.1403978 0.8403977 0.09999999
v -0.1719515 0.7992762 0.09999999
v -0.2897778 0.7776457 0.09999999
v -0.1917869 0.7513891 0.09999999
v -0.1994203 0.6934077 0.09999999
v -0.1994203 1.242061E-16 0.09999999
v 0.07764566 0.9897777 0.09999999

vn 0.7071068 0.7071068 0
vn 0.5 0.8660254 0
vn 0 1 0
vn -0.2588191 0.9659257 0
vn 0.8660251 0.5000005 0
vn -1 0 0
vn 0 -1 0
vn -0.5 0.8660254 0
vn -0.7071068 0.7071068 0
vn 1 0 0
vn 0 0 -1
vn 0.9659258 0.2588191 0
vn 0.9914449 0.1305256 0
vn 0 0 1
vn -0.8660251 0.5000005 0
vn 0.2588191 0.9659257 0
vn -0.9659258 0.2588191 0
vn -0.9914449 0.1305256 0
vn -0.9914449 -0.1305263 0
vn -0.9659259 -0.2588183 0
vn 0.9659259 -0.2588186 0
vn 0.8660255 -0.4999998 0
vn 0.2588193 -0.9659257 0
vn 0.5000004 -0.8660253 0
vn -0.8660255 -0.4999997 0
vn -0.2588193 -0.9659257 0
vn 0.9914449 -0.1305263 0
vn -0.7071064 -0.7071072 0
vn -0.5000004 -0.8660253 0
vn 0.7071065 -0.707107 0

vt 3.937008 15.23526
vt -3.937008 15.23526
vt 3.937008 18.31855
vt -3.937008 18.31855
vt -3.937008 5.138851
vt 3.937008 5.138851
vt -3.937008 2.055555
vt 3.937008 2.055555
vt 3.937008 23.4057
vt 3.937008 20.32241
vt -3.937008 23.4057
vt -3.937008 20.32241
vt -3.937008 0
vt -3.937008 27.55906
vt 3.937008 0
vt 3.937008 27.55906
vt 11.81102 -3.937008
vt 7.851193 -3.937008
vt 11.81102 3.937008
vt 7.851193 3.937008
vt 11.81102 0
vt 7.851193 1.781381E-15
vt 11.81102 27.55906
vt 7.851193 27.29952
vt 7.550665 29.58225
vt 11.40858 30.61597
vt 6.769744 31.46757
vt 10.22865 33.46457
vt 5.527472 33.08652
vt 3.908512 34.3288
vt 8.351653 35.91071
vt 2.023197 35.10972
vt -3.688825E-14 35.37608
vt -8.351653 35.91071
vt -2.023197 35.10972
vt -3.908512 34.3288
vt -10.22865 33.46457
vt -5.527472 33.08652
vt -6.769744 31.46757
vt -11.40858 30.61597
vt -7.550665 29.58225
vt -11.81102 27.55906
vt -7.851193 27.29952
vt -7.851193 1.781381E-15
vt -11.81102 0
vt 5.905512 37.7877
vt -5.905512 37.7877
vt 3.056917 38.96762
vt -3.056917 38.96762
vt -3.688825E-14 39.37008
vt 3.937008 28.86494
vt 3.937008 25.78164
vt -3.937008 28.86494
vt -3.937008 25.78164
vt 3.937008 27.00288
vt 3.937008 23.91958
vt -3.937008 27.00288
vt -3.937008 23.91958
vt 7.851193 4.890003E-15
vt 1.995517E-14 35.37608
vt -7.851193 4.890003E-15
vt 1.995517E-14 39.37008
vt -7.851193 -3.937008
vt -11.81102 -3.937008
vt -7.851193 3.937008
vt -11.81102 3.937008
vt -3.937008 12.08803
vt 3.937008 12.08803
vt -3.937008 9.004731
vt 3.937008 9.004731
vt -3.937008 26.04118
vt -3.937008 28.34361
vt 3.937008 26.04118
vt 3.937008 28.34361
vt 3.937008 24.44094
vt -3.937008 24.44094
vt 3.937008 26.48159
vt -3.937008 26.48159
vt 3.937008 11.56675
vt 3.937008 9.5261
vt -3.937008 11.56675
vt -3.937008 9.5261
vt -3.937008 24.44095
vt -3.937008 26.4816
vt 3.937008 24.44095
vt 3.937008 26.4816
vt -3.937008 2.576839
vt -3.937008 4.617494
vt 3.937008 2.576839
vt 3.937008 4.617494
vt -3.937008 15.75655
vt -3.937008 17.79721
vt 3.937008 15.75655
vt 3.937008 17.79721
vt 3.937008 22.88438
vt 3.937008 20.84373
vt -3.937008 22.88438
vt -3.937008 20.84373
vt -3.937008 1.781381E-15
vt -3.937008 27.29952
vt 3.937008 4.890003E-15
vt 3.937008 27.29952
vt 3.937008 3.824863E-15
vt -3.937008 6.933486E-15
vt -3.937008 22.88437
vt 3.937008 22.88437
vt -3.937008 20.84372
vt 3.937008 20.84372

usemtl metal

f 3/3/2 2/2/1 1/1/1
f 2/2/1 3/3/2 4/4/2
f 7/7/4 6/6/3 5/5/3
f 6/6/3 7/7/4 8/8/4
f 2/11/1 9/10/5 1/9/1
f 9/10/5 2/11/1 10/12/5
f 13/15/6 12/14/6 11/13/6
f 12/14/6 13/15/6 14/16/6
f 17/19/7 16/18/7 15/17/7
f 16/18/7 17/19/7 18/20/7
f 21/2/9 20/3/8 19/4/8
f 20/3/8 21/2/9 22/1/9
f 24/14/10 15/15/10 23/16/10
f 15/15/10 24/14/10 17/13/10
f 12/23/11 25/22/11 11/21/11
f 25/22/11 12/23/11 26/24/11
f 26/24/11 12/23/11 27/25/11
f 27/25/11 12/23/11 28/26/11
f 27/25/11 28/26/11 29/27/11
f 29/27/11 28/26/11 30/28/11
f 29/27/11 30/28/11 31/29/11
f 31/29/11 30/28/11 32/30/11
f 32/30/11 30/28/11 21/31/11
f 32/30/11 21/31/11 33/32/11
f 33/32/11 21/31/11 34/33/11
f 1/34/11 34/33/11 21/31/11
f 1/34/11 35/35/11 34/33/11
f 1/34/11 36/36/11 35/35/11
f 9/37/11 36/36/11 1/34/11
f 9/37/11 37/38/11 36/36/11
f 9/37/11 38/39/11 37/38/11
f 39/40/11 38/39/11 9/37/11
f 39/40/11 40/41/11 38/39/11
f 23/42/11 40/41/11 39/40/11
f 23/42/11 41/43/11 40/41/11
f 23/42/11 16/44/11 41/43/11
f 16/44/11 23/42/11 15/45/11
f 1/34/11 21/31/11 19/46/11
f 1/34/11 19/46/11 3/47/11
f 3/47/11 19/46/11 7/48/11
f 3/47/11 7/48/11 42/49/11
f 42/49/11 7/48/11 5/50/11
f 43/53/12 23/52/13 39/51/12
f 23/52/13 43/53/12 24/54/13
f 10/57/5 39/56/12 9/55/5
f 39/56/12 10/57/5 43/58/12
f 24/23/14 18/59/14 17/21/14
f 18/59/14 24/23/14 44/24/14
f 44/24/14 24/23/14 45/25/14
f 45/25/14 24/23/14 43/26/14
f 45/25/14 43/26/14 46/27/14
f 46/27/14 43/26/14 10/28/14
f 46/27/14 10/28/14 47/29/14
f 47/29/14 10/28/14 48/30/14
f 48/30/14 10/28/14 2/31/14
f 48/30/14 2/31/14 49/32/14
f 49/32/14 2/31/14 50/60/14
f 22/34/14 50/60/14 2/31/14
f 22/34/14 51/35/14 50/60/14
f 22/34/14 52/36/14 51/35/14
f 53/37/14 52/36/14 22/34/14
f 53/37/14 54/38/14 52/36/14
f 53/37/14 55/39/14 54/38/14
f 56/40/14 55/39/14 53/37/14
f 56/40/14 57/41/14 55/39/14
f 14/42/14 57/41/14 56/40/14
f 14/42/14 58/43/14 57/41/14
f 14/42/14 59/61/14 58/43/14
f 59/61/14 14/42/14 13/45/14
f 22/34/14 2/31/14 4/46/14
f 22/34/14 4/46/14 20/47/14
f 20/47/14 4/46/14 60/48/14
f 20/47/14 60/48/14 8/49/14
f 8/49/14 60/48/14 6/62/14
f 59/65/7 11/64/7 25/63/7
f 11/64/7 59/65/7 13/66/7
f 53/10/15 21/11/9 30/12/15
f 21/11/9 53/10/15 22/9/9
f 5/6/3 60/7/16 42/8/16
f 60/7/16 5/6/3 6/5/3
f 19/69/8 8/68/4 7/67/4
f 8/68/4 19/69/8 20/70/8
f 56/56/17 30/57/15 28/58/17
f 30/57/15 56/56/17 53/55/15
f 14/52/18 28/53/17 12/54/18
f 28/53/17 14/52/18 56/51/17
f 42/68/16 4/69/2 3/70/2
f 4/69/2 42/68/16 60/67/16
f 44/73/19 40/72/20 41/71/19
f 40/72/20 44/73/19 45/74/20
f 29/77/22 57/76/21 27/75/21
f 57/76/21 29/77/22 55/78/22
f 51/81/23 32/80/24 33/79/23
f 32/80/24 51/81/23 52/82/24
f 45/85/20 38/84/25 40/83/20
f 38/84/25 45/85/20 46/86/25
f 49/89/26 34/88/7 35/87/26
f 34/88/7 49/89/26 50/90/7
f 57/72/21 26/73/27 27/74/21
f 26/73/27 57/72/21 58/71/27
f 50/88/7 33/89/23 34/90/7
f 33/89/23 50/88/7 51/87/23
f 47/93/28 36/92/29 37/91/28
f 36/92/29 47/93/28 48/94/29
f 54/97/30 29/96/22 31/95/30
f 29/96/22 54/97/30 55/98/22
f 18/101/6 41/100/6 16/99/6
f 41/100/6 18/101/6 44/102/6
f 52/92/24 31/93/30 32/94/24
f 31/93/30 52/92/24 54/91/30
f 58/100/10 25/103/10 26/102/10
f 25/103/10 58/100/10 59/104/10
f 38/107/25 47/106/28 37/105/28
f 47/106/28 38/107/25 46/108/25
f 48/80/29 35/81/26 36/82/29
f 35/81/26 48/80/29 49/79/26

