# Created by Kenney (www.kenney.nl)

mtllib fenceCorner.mtl

g fenceCorner

v 0.5 0.25 0.47
v -0.4499999 0.25 0.47
v 0.5 0.35 0.47
v -0.4499999 0.35 0.47
v -0.47 0.1 -0.5
v -0.47 0.2 -0.5
v -0.47 0.1 0.4499999
v -0.47 0.2 0.4499999
v 0.5 0.1 0.47
v -0.4499999 0.1 0.47
v 0.5 0.2 0.47
v -0.4499999 0.2 0.47
v -0.47 0.25 0.4499999
v -0.47 0.35 0.4499999
v -0.4499999 0.2 -0.35
v -0.4499999 0.1 -0.35
v -0.4499999 0.2 0.35
v -0.4499999 0.1 0.35
v 0.5 0.2 0.4499999
v 0.5 0.1 0.4499999
v -0.35 0.25 0.4499999
v 0.35 0.25 0.4499999
v -0.35 0.35 0.4499999
v 0.35 0.35 0.4499999
v -0.4499999 0.35 -0.35
v -0.4499999 0.25 -0.35
v -0.4499999 0.35 0.35
v -0.4499999 0.25 0.35
v 0.45 0.1 0.4499999
v 0.45 0.2 0.4499999
v -0.47 0.25 -0.5
v -0.4499999 0.25 -0.5
v -0.47 0.35 -0.5
v -0.4499999 0.35 -0.5
v -0.4499999 0.25 -0.45
v -0.4499999 0.35 -0.45
v 0.5 0.35 0.4499999
v 0.5 0.25 0.4499999
v -0.4499999 0.1 -0.5
v -0.4499999 0.2 -0.5
v -0.35 0.1 0.4499999
v 0.35 0.1 0.4499999
v -0.35 0.2 0.4499999
v 0.35 0.2 0.4499999
v -0.4499999 0.1 0.4499999
v -0.4499999 0.1 -0.45
v 0.45 0.25 0.4499999
v 0.45 0.35 0.4499999
v -0.4499999 0.25 0.4499999
v -0.4499999 0.2 -0.45
v -0.4499999 0.35 0.4499999
v -0.4499999 0.2 0.4499999
v -0.4499999 0.4 -0.45
v -0.4499999 0.4 -0.35
v -0.35 1.127987E-17 0.4499999
v -0.35 1.127987E-17 0.35
v -0.4499999 1.127987E-17 0.4499999
v -0.4499999 1.127987E-17 0.35
v -0.35 0.4 -0.45
v -0.35 1.127987E-17 -0.45
v -0.35 0.4 -0.35
v -0.35 1.127987E-17 -0.35
v 0.35 1.127987E-17 0.35
v 0.35 0.4 0.35
v 0.35 1.127987E-17 0.4499999
v 0.35 0.4 0.4499999
v -0.35 0.4 0.4499999
v -0.4499999 0.4 0.4499999
v -0.4499999 1.127987E-17 -0.45
v -0.4499999 1.127987E-17 -0.35
v 0.45 1.127987E-17 0.4499999
v -0.4499999 0.4 0.35
v -0.35 0.4 0.35
v 0.45 1.127987E-17 0.35
v 0.45 0.4 0.35
v 0.45 0.4 0.4499999

vn 0 0 1
vn -1 0 0
vn -0.7071068 0 0.7071068
vn 1 0 0
vn 0 0 -1
vn 0 -1 0
vn 0 1 0

vt 19.68504 9.84252
vt -17.71653 9.84252
vt 19.68504 13.77953
vt -17.71653 13.77953
vt -19.68504 3.937008
vt -19.68504 7.874016
vt 17.71653 3.937008
vt 17.71653 7.874016
vt 19.68504 3.937008
vt -17.71653 3.937008
vt 19.68504 7.874016
vt -17.71653 7.874016
vt 0.5567798 9.84252
vt -0.5567798 9.84252
vt 0.5567798 13.77953
vt -0.5567798 13.77953
vt 13.77953 7.874016
vt 13.77953 3.937008
vt -13.77953 7.874016
vt -13.77953 3.937008
vt -18.50394 7.874016
vt -18.50394 3.937008
vt 13.77953 9.84252
vt -13.77953 9.84252
vt 13.77953 13.77953
vt -13.77953 13.77953
vt -17.71654 3.937008
vt -17.71654 7.874016
vt 18.50394 9.84252
vt 17.71653 9.84252
vt 18.50394 13.77953
vt 17.71653 13.77953
vt 17.71654 9.84252
vt 17.71654 13.77953
vt -19.68504 9.84252
vt -19.68504 13.77953
vt 0.5567798 3.937008
vt -0.5567798 3.937008
vt 0.5567798 7.874016
vt -0.5567798 7.874016
vt -18.50394 13.77953
vt -18.50394 9.84252
vt 18.50394 3.937008
vt 18.50394 7.874016
vt 19.68504 17.71653
vt 17.71654 17.71653
vt 19.68504 18.50394
vt -17.71653 18.50394
vt 13.77953 17.71653
vt -13.77953 17.71653
vt -17.71653 17.71653
vt -18.50394 17.71653
vt -17.71653 -13.77953
vt -17.71653 -17.71654
vt -17.71653 -19.68504
vt -18.50394 -19.68504
vt -17.71654 9.84252
vt -17.71654 13.77953
vt 17.71654 3.937008
vt 17.71654 7.874016
vt 17.71653 -19.68504
vt 17.71653 -17.71654
vt 18.50394 -19.68504
vt 17.71653 -13.77953
vt 17.71653 17.71653
vt 17.71653 18.50394
vt 18.50394 17.71653
vt -17.71654 17.71653
vt -19.68504 18.50394
vt -19.68504 17.71653
vt -17.71654 15.74803
vt -13.77953 15.74803
vt 17.71654 15.74803
vt 17.71654 4.440892E-16
vt 13.77953 15.74803
vt 13.77953 4.440892E-16
vt 17.71653 4.440892E-16
vt 17.71653 15.74803
vt -17.71653 15.74803
vt -17.71654 4.440892E-16
vt -13.77953 4.440892E-16
vt -17.71653 4.440892E-16
vt 13.77953 -17.71654
vt 13.77953 -13.77953
vt -13.77953 -13.77953
vt -13.77953 -17.71654

usemtl woodDark

f 3/3/1 2/2/1 1/1/1
f 2/2/1 3/3/1 4/4/1
f 7/7/2 6/6/2 5/5/2
f 6/6/2 7/7/2 8/8/2
f 11/11/1 10/10/1 9/9/1
f 10/10/1 11/11/1 12/12/1
f 4/15/3 13/14/3 2/13/3
f 13/14/3 4/15/3 14/16/3
f 17/19/4 16/18/4 15/17/4
f 16/18/4 17/19/4 18/20/4
f 11/21/4 20/10/4 19/12/4
f 20/10/4 11/21/4 9/22/4
f 23/25/5 22/24/5 21/23/5
f 22/24/5 23/25/5 24/26/5
f 27/26/4 26/23/4 25/25/4
f 26/23/4 27/26/4 28/24/4
f 30/28/5 20/5/5 29/27/5
f 20/5/5 30/28/5 19/6/5
f 33/31/5 32/30/5 31/29/5
f 32/30/5 33/31/5 34/32/5
f 34/3/4 35/33/4 32/1/4
f 35/33/4 34/3/4 36/34/4
f 13/30/2 33/36/2 31/35/2
f 33/36/2 13/30/2 14/32/2
f 12/39/3 7/38/3 10/37/3
f 7/38/3 12/39/3 8/40/3
f 3/41/4 38/2/4 37/4/4
f 38/2/4 3/41/4 1/42/4
f 6/44/5 39/7/5 5/43/5
f 39/7/5 6/44/5 40/8/5
f 43/17/5 42/20/5 41/18/5
f 42/20/5 43/17/5 44/19/5
f 9/47/6 29/46/6 20/45/6
f 29/46/6 9/47/6 10/48/6
f 29/46/6 10/48/6 42/49/6
f 42/49/6 10/48/6 41/50/6
f 41/50/6 10/48/6 45/51/6
f 45/51/6 10/48/6 7/52/6
f 45/51/6 7/52/6 18/4/6
f 18/4/6 7/52/6 16/53/6
f 16/53/6 7/52/6 46/54/6
f 46/54/6 7/52/6 39/55/6
f 39/55/6 7/52/6 5/56/6
f 48/58/5 38/35/5 47/57/5
f 38/35/5 48/58/5 37/36/5
f 1/47/6 47/46/6 38/45/6
f 47/46/6 1/47/6 2/48/6
f 47/46/6 2/48/6 22/49/6
f 22/49/6 2/48/6 21/50/6
f 21/50/6 2/48/6 49/51/6
f 49/51/6 2/48/6 13/52/6
f 49/51/6 13/52/6 28/4/6
f 28/4/6 13/52/6 26/53/6
f 26/53/6 13/52/6 35/54/6
f 35/54/6 13/52/6 32/55/6
f 32/55/6 13/52/6 31/56/6
f 40/11/4 46/59/4 39/9/4
f 46/59/4 40/11/4 50/60/4
f 33/63/7 36/62/7 34/61/7
f 36/62/7 33/63/7 25/64/7
f 25/64/7 33/63/7 27/32/7
f 27/32/7 33/63/7 51/65/7
f 51/65/7 33/63/7 4/66/7
f 4/66/7 33/63/7 14/67/7
f 4/66/7 23/49/7 51/65/7
f 4/66/7 24/50/7 23/49/7
f 4/66/7 48/68/7 24/50/7
f 3/69/7 48/68/7 4/66/7
f 48/68/7 3/69/7 37/70/7
f 6/63/7 50/62/7 40/61/7
f 50/62/7 6/63/7 15/64/7
f 15/64/7 6/63/7 17/32/7
f 17/32/7 6/63/7 52/65/7
f 52/65/7 6/63/7 12/66/7
f 12/66/7 6/63/7 8/67/7
f 12/66/7 43/49/7 52/65/7
f 12/66/7 44/50/7 43/49/7
f 12/66/7 30/68/7 44/50/7
f 11/69/7 30/68/7 12/66/7
f 30/68/7 11/69/7 19/70/7

usemtl wood

f 25/26/2 53/71/2 36/58/2
f 53/71/2 25/26/2 54/72/2
f 57/51/6 56/26/6 55/50/6
f 56/26/6 57/51/6 58/4/6
f 61/75/4 60/74/4 59/73/4
f 60/74/4 61/75/4 62/76/4
f 65/77/2 64/75/2 63/76/2
f 64/75/2 65/77/2 66/78/2
f 66/78/2 65/77/2 42/7/2
f 66/78/2 42/7/2 44/8/2
f 66/78/2 44/8/2 22/30/2
f 66/78/2 22/30/2 24/32/2
f 67/72/1 51/4/1 23/26/1
f 51/4/1 67/72/1 68/79/1
f 70/81/2 46/27/2 69/80/2
f 46/27/2 70/81/2 16/20/2
f 46/7/5 60/76/5 69/77/5
f 60/76/5 46/7/5 59/75/5
f 59/75/5 46/7/5 50/8/5
f 59/75/5 50/8/5 35/30/5
f 59/75/5 35/30/5 36/32/5
f 59/75/5 36/32/5 53/78/5
f 41/20/1 57/82/1 55/81/1
f 57/82/1 41/20/1 45/10/1
f 21/24/1 52/12/1 43/19/1
f 52/12/1 21/24/1 49/2/1
f 29/59/1 65/76/1 71/74/1
f 65/76/1 29/59/1 42/18/1
f 51/32/2 72/75/2 27/25/2
f 72/75/2 51/32/2 68/78/2
f 61/72/1 70/82/1 62/81/1
f 70/82/1 61/72/1 16/10/1
f 16/10/1 61/72/1 15/12/1
f 15/12/1 61/72/1 26/2/1
f 26/2/1 61/72/1 25/4/1
f 25/4/1 61/72/1 54/79/1
f 67/79/4 56/81/4 73/72/4
f 56/81/4 67/79/4 55/82/4
f 55/82/4 67/79/4 23/4/4
f 55/82/4 23/4/4 21/2/4
f 55/82/4 21/2/4 43/12/4
f 55/82/4 43/12/4 41/10/4
f 52/8/2 28/23/2 17/17/2
f 28/23/2 52/8/2 49/30/2
f 15/19/2 35/57/2 50/28/2
f 35/57/2 15/19/2 26/24/2
f 57/77/2 18/18/2 58/76/2
f 18/18/2 57/77/2 45/7/2
f 65/49/6 74/34/6 71/46/6
f 74/34/6 65/49/6 63/25/6
f 64/72/5 74/80/5 63/81/5
f 74/80/5 64/72/5 75/71/5
f 76/79/4 74/81/4 75/72/4
f 74/81/4 76/79/4 71/82/4
f 71/82/4 76/79/4 48/4/4
f 71/82/4 48/4/4 47/2/4
f 71/82/4 47/2/4 30/12/4
f 71/82/4 30/12/4 29/10/4
f 76/73/1 24/25/1 48/34/1
f 24/25/1 76/73/1 66/75/1
f 53/62/7 61/84/7 59/83/7
f 61/84/7 53/62/7 54/64/7
f 64/26/7 76/68/7 75/58/7
f 76/68/7 64/26/7 66/50/7
f 47/33/1 44/17/1 30/60/1
f 44/17/1 47/33/1 22/23/1
f 72/32/7 67/49/7 73/25/7
f 67/49/7 72/32/7 68/65/7
f 70/53/6 60/86/6 62/85/6
f 60/86/6 70/53/6 69/54/6
f 18/7/5 56/76/5 58/77/5
f 56/76/5 18/7/5 73/75/5
f 73/75/5 18/7/5 17/8/5
f 73/75/5 17/8/5 28/30/5
f 73/75/5 28/30/5 27/32/5
f 73/75/5 27/32/5 72/78/5

