# Created by Kenney (www.kenney.nl)

mtllib fenceLowBroken.mtl

g fenceLowBroken

v 0.4499999 0.2 0.35
v 0.4499999 0 0.35
v 0.4499999 0.2 0.4499999
v 0.4499999 0 0.4499999
v -0.45 0 0.35
v -0.35 0 0.35
v -0.45 0.2 0.35
v -0.35 0.2 0.35
v 0.35 0.2 0.35
v 0.35 0.2 0.4499999
v 0.35 0 0.4499999
v 0.35 0 0.35
v -0.35 0.17 0.3799999
v -0.35 0.2 0.4499999
v -0.35 0.17 0.42
v -0.35 0.07 0.42
v -0.35 0.07 0.3799999
v -0.35 0 0.4499999
v -0.45 0.2 0.4499999
v -0.45 0 0.4499999
v 0.35 0.03 0.3799999
v 0.35 0.03 0.42
v 0.35 0.13 0.42
v 0.35 0.13 0.3799999

vn 1 0 0
vn 0 0 -1
vn 0 1 0
vn 0 0 1
vn -1 0 0
vn 0 -1 0
vn 0.0570498 0.9983714 0
vn -0.0570498 -0.9983714 0

vt -13.77953 7.874016
vt -13.77953 0
vt -17.71653 7.874016
vt -17.71653 0
vt 17.71654 0
vt 13.77953 0
vt 17.71654 7.874016
vt 13.77953 7.874016
vt -17.71653 13.77953
vt -17.71653 17.71653
vt -13.77953 13.77953
vt -13.77953 17.71653
vt 17.71653 0
vt 17.71653 7.874016
vt -14.96063 6.692914
vt -16.53543 6.692914
vt -16.53543 2.755906
vt -14.96063 2.755906
vt 13.77953 13.77953
vt 13.77953 17.71653
vt 17.71654 13.77953
vt 17.71654 17.71653
vt 14.96063 1.181102
vt 16.53543 1.181102
vt 16.53543 5.11811
vt 14.96063 5.11811
vt -17.71654 0
vt -17.71654 7.874016
vt 16.53543 13.91431
vt 16.53543 -13.6897
vt 14.96063 13.91431
vt -13.77953 1.181102
vt -13.77953 5.11811
vt 13.77953 2.755906
vt 13.77953 6.692914
vt 13.77953 1.181102
vt -13.77953 2.755906
vt 13.77953 5.11811
vt -13.77953 6.692914
vt -14.96063 -13.4651
vt -16.53543 -13.4651
vt -14.96063 14.13892
vt -16.53543 14.13892
vt 14.96063 -13.6897

usemtl wood

f 3/3/1 2/2/1 1/1/1
f 2/2/1 3/3/1 4/4/1
f 7/7/2 6/6/2 5/5/2
f 6/6/2 7/7/2 8/8/2
f 9/11/3 3/10/3 1/9/3
f 3/10/3 9/11/3 10/12/3
f 3/14/4 11/6/4 4/13/4
f 11/6/4 3/14/4 10/8/4
f 9/1/2 2/4/2 12/2/2
f 2/4/2 9/1/2 1/3/2
f 8/1/1 13/15/1 6/2/1
f 13/15/1 8/1/1 14/3/1
f 13/15/1 14/3/1 15/16/1
f 15/16/1 14/3/1 16/17/1
f 17/18/1 6/2/1 13/15/1
f 6/2/1 17/18/1 18/4/1
f 18/4/1 17/18/1 16/17/1
f 18/4/1 16/17/1 14/3/1
f 7/21/3 14/20/3 8/19/3
f 14/20/3 7/21/3 19/22/3
f 20/13/5 7/8/5 5/6/5
f 7/8/5 20/13/5 19/14/5
f 12/6/5 21/23/5 9/8/5
f 21/23/5 12/6/5 11/13/5
f 21/23/5 11/13/5 22/24/5
f 22/24/5 11/13/5 23/25/5
f 24/26/5 9/8/5 21/23/5
f 9/8/5 24/26/5 10/14/5
f 10/14/5 24/26/5 23/25/5
f 10/14/5 23/25/5 11/13/5
f 14/1/4 20/27/4 18/2/4
f 20/27/4 14/1/4 19/28/4

usemtl _defaultMat

f 18/6/6 5/7/6 6/8/6
f 5/6/6 18/7/6 20/8/6
f 4/31/6 12/30/6 2/29/6
f 12/31/6 4/30/6 11/29/6

usemtl woodDark

f 17/34/2 24/33/2 21/32/2
f 24/33/2 17/34/2 13/35/2
f 23/38/4 16/37/4 22/36/4
f 16/37/4 23/38/4 15/39/4
f 13/42/7 23/41/7 24/40/7
f 23/41/7 13/42/7 15/43/7
f 22/30/8 17/31/8 21/44/8
f 17/31/8 22/30/8 16/29/8

