# Created by Kenney (www.kenney.nl)

mtllib fenceBroken.mtl

g fenceBroken

v 0.285463 0.2488867 0.4499999
v 0.2576787 0.2707507 0.4499999
v 0.285463 0.2488867 0.47
v 0.2576787 0.2707507 0.47
v 0.4499999 0.2433294 0.4499999
v 0.51184 0.2507035 0.4499999
v 0.4499999 0.3440379 0.4499999
v 0.5 0.35 0.4499999
v 0.5 0.35 0.47
v 0.51184 0.2507035 0.47
v -0.2567724 0.0844997 0.4499999
v -0.35 0.09036508 0.4499999
v -0.2567724 0.0844997 0.47
v -0.5062791 0.1001973 0.47
v -0.45 0.09665655 0.4499999
v -0.5062791 0.1001973 0.4499999
v 0.2795429 0.298535 0.4499999
v 0.2795429 0.298535 0.47
v -0.03539598 0.2392385 0.4499999
v -0.01382411 0.2112269 0.4499999
v -0.03539598 0.2392385 0.47
v -0.01382411 0.2112269 0.47
v -0.04183578 0.189655 0.4499999
v -0.35 0.2296785 0.4499999
v -0.04183578 0.189655 0.47
v -0.5128796 0.2508329 0.47
v -0.45 0.2426662 0.4499999
v -0.5128796 0.2508329 0.4499999
v 0.0415566 0.04045487 0.4499999
v 0.01358259 0.06207561 0.4499999
v 0.0415566 0.04045487 0.47
v 0.01358259 0.06207561 0.47
v -0.45 0.3435061 0.4499999
v -0.5 0.35 0.4499999
v 0.512707 0.1008106 0.47
v 0.03520346 0.09004959 0.47
v 0.007229447 0.1116703 0.47
v 0.5 0.2 0.47
v 0.02885008 0.1396443 0.47
v 0.007229447 0.1116703 0.4499999
v 0.02885008 0.1396443 0.4499999
v -0.2770138 0.1609215 0.4499999
v -0.2536328 0.134401 0.4499999
v -0.2770138 0.1609215 0.47
v -0.2536328 0.134401 0.47
v 0.263599 0.2211025 0.4499999
v 0.35 0.2314052 0.4499999
v 0.35 0.3321136 0.4499999
v 0.2517586 0.320399 0.4499999
v -0.2504933 0.1843024 0.4499999
v -0.2504933 0.1843024 0.47
v -0.35 0.1905628 0.4499999
v -0.5 0.2 0.47
v -0.45 0.1968543 0.4499999
v -0.5 0.2 0.4499999
v 0.263599 0.2211025 0.47
v 0.2517586 0.320399 0.47
v 0.4499999 0.09277767 0.4499999
v 0.512707 0.1008106 0.4499999
v 0.4499999 0.1935949 0.4499999
v 0.5 0.2 0.4499999
v 0.03520346 0.09004959 0.4499999
v -0.0073843 0.2608104 0.47
v -0.5 0.35 0.47
v -0.02895617 0.2888221 0.47
v -0.2801533 0.1110201 0.47
v -0.0073843 0.2608104 0.4499999
v -0.2801533 0.1110201 0.4499999
v -0.35 0.3305184 0.4499999
v -0.02895617 0.2888221 0.4499999
v 0.35 0.07996737 0.4499999
v 0.35 0.1807846 0.4499999
v 0.4499999 0.4 0.35
v 0.4499999 0.4 0.4499999
v 0.35 0.4 0.35
v 0.35 0.4 0.4499999
v 0.35 -4.511946E-17 0.35
v 0.4499999 -4.511946E-17 0.35
v -0.35 0.4 0.4499999
v -0.45 0.4 0.4499999
v 0.4499999 -4.511946E-17 0.4499999
v 0.35 -4.511946E-17 0.4499999
v -0.35 0.4 0.35
v -0.35 -4.511946E-17 0.35
v -0.35 -4.511946E-17 0.4499999
v -0.45 -4.511946E-17 0.4499999
v -0.45 0.4 0.35
v -0.45 -4.511946E-17 0.35

vn -0.6184083 -0.785857 0
vn 0 0 -1
vn 0.9929659 0.1184001 0
vn -0.06279043 -0.9980267 -3.49327E-07
vn -0.7858567 0.6184086 0
vn 0.7922888 0.6101463 0
vn -0.1287956 -0.9916712 1.271374E-06
vn -0.6115266 -0.7912239 0
vn 0 0 1
vn -0.7912244 0.6115259 0
vn 0.7501106 0.6613124 0
vn 0.06279043 0.9980267 0
vn -0.785857 0.6184083 0
vn 0.610145 -0.7922899 0
vn -0.6115261 -0.7912243 0
vn 0.6613108 -0.750112 0
vn -0.9916712 0.1287956 0
vn 0.1184041 -0.9929655 1.407218E-06
vn 0.7501107 0.6613122 0
vn 0.1287956 0.9916712 -4.227362E-07
vn 0.9918937 0.12707 0
vn -0.7912229 0.611528 0
vn -0.6184068 -0.785858 0
vn 0.7922899 0.610145 0
vn -0.1270647 0.9918944 1.206716E-06
vn -0.118404 0.9929656 8.746915E-07
vn 0.1270646 -0.9918944 -4.349535E-07
vn -0.9980267 0.0627905 0
vn 0 1 0
vn 1 0 0
vn -1 0 0
vn 0 -1 0

vt 17.71653 -2.772422
vt 17.71653 -1.380482
vt 18.50394 -2.772422
vt 18.50394 -1.380482
vt -17.71653 9.579898
vt -20.15118 9.870216
vt -17.71653 13.5448
vt -19.68504 13.77953
vt -17.71653 11.35189
vt -17.71653 7.414887
vt -18.50394 11.35189
vt -18.50394 7.414887
vt 17.71659 10.29799
vt 17.71661 13.97563
vt 18.50399 10.29799
vt 18.50405 20.14051
vt 17.71663 17.92042
vt 17.71664 20.14051
vt 17.71653 14.65047
vt 17.71653 16.04242
vt 18.50394 14.65047
vt 18.50394 16.04242
vt -17.71653 8.312705
vt -17.71653 6.920765
vt -18.50394 8.312705
vt -18.50394 6.920765
vt 17.71651 2.595216
vt 17.7164 14.82956
vt 18.50392 2.595224
vt 18.50374 21.29601
vt 17.71636 18.79964
vt 17.71633 21.296
vt 17.71653 -0.3205253
vt 17.71653 1.071418
vt 18.50394 -0.3205253
vt 18.50394 1.071418
vt 17.71654 9.553787
vt 17.71654 13.52386
vt 20.19211 9.875311
vt 19.68504 13.77953
vt 1.636087 1.592711
vt 0.534748 2.443922
vt 20.18531 3.968921
vt 1.385961 3.545259
vt 0.284622 4.396469
vt 19.68504 7.874016
vt 1.135831 5.497807
vt 17.71653 3.652647
vt 17.71653 5.044589
vt 18.50394 3.652647
vt 18.50394 5.044589
vt -17.71653 11.96463
vt -17.71653 10.57268
vt -18.50394 11.96463
vt -18.50394 10.57268
vt -10.37791 8.704823
vt -13.77953 9.110441
vt -11.2387 9.798689
vt -13.77953 13.07534
vt -10.14483 10.65948
vt -11.00563 11.75335
vt -9.911756 12.61413
vt -17.71655 10.29806
vt -18.50395 10.29806
vt -17.71655 14.2234
vt -18.50396 20.14058
vt -17.71656 18.16819
vt -17.71656 20.14058
vt 10.37791 8.704823
vt 11.2387 9.798689
vt 20.15118 9.870216
vt 10.14483 10.65948
vt 11.00563 11.75335
vt 9.911756 12.61413
vt 17.71653 13.25853
vt 17.71653 14.65047
vt 18.50394 13.25853
vt 18.50394 14.65047
vt -17.71653 4.642769
vt -17.71653 3.250825
vt -18.50394 4.642769
vt -18.50394 3.250825
vt -17.71653 3.652664
vt -20.18531 3.968921
vt -17.71653 7.621847
vt -19.68504 7.874016
vt 17.71653 1.071413
vt 17.71653 2.463355
vt 18.50394 1.071413
vt 18.50394 2.463355
vt -1.647079 7.466733
vt -20.19211 9.875311
vt -0.5442559 8.31602
vt -1.393543 9.418839
vt -0.2907205 10.26813
vt -1.140008 11.37095
vt -17.71653 -2.599089
vt -17.71653 -3.991033
vt -18.50394 -2.599089
vt -18.50394 -3.991033
vt -10.10915 3.32676
vt -19.93225 3.944776
vt -11.02966 4.37087
vt -9.985543 5.291378
vt -10.90606 6.335492
vt -9.861941 7.256
vt 17.71653 7.192406
vt 17.71653 11.12941
vt 18.50394 7.192406
vt 18.50394 11.12941
vt -17.71629 21.17831
vt -17.71632 18.72641
vt -18.5037 21.17832
vt -18.50381 11.33582
vt -17.71637 14.76152
vt -17.71641 11.33581
vt -17.71653 6.03471
vt -17.71653 4.642766
vt -18.50394 6.03471
vt -18.50394 4.642766
vt -17.71653 10.57268
vt -17.71653 9.180742
vt -18.50394 10.57268
vt -18.50394 9.180742
vt 1.647079 7.466733
vt 0.5442559 8.31602
vt 13.77953 9.04246
vt 1.393543 9.418839
vt 13.77953 13.01254
vt 0.2907205 10.26813
vt 1.140008 11.37095
vt -17.71653 2.595098
vt -18.50393 2.595101
vt -17.71649 15.34077
vt -18.50387 21.29589
vt -17.71647 19.31085
vt -17.71647 21.29589
vt -17.71653 5.30881
vt -17.71653 1.371801
vt -18.50394 5.30881
vt -18.50394 1.371801
vt 17.71653 2.2607
vt 17.71653 3.652644
vt 18.50394 2.2607
vt 18.50394 3.652644
vt 10.10915 3.32676
vt 11.02966 4.37087
vt 13.77953 3.55768
vt 13.77953 7.502472
vt 9.985543 5.291378
vt 10.90606 6.335492
vt 9.861941 7.256
vt 17.71653 -1.38051
vt 17.71653 0.01143315
vt 18.50394 -1.38051
vt 18.50394 0.01143315
vt -1.636087 1.592711
vt -13.77953 3.148322
vt -0.534748 2.443922
vt -1.385961 3.545259
vt -13.77953 7.117504
vt -0.284622 4.396469
vt -1.135831 5.497807
vt -17.71653 9.704657
vt -17.71653 8.312714
vt -18.50394 9.704657
vt -18.50394 8.312714
vt 17.71672 20.52582
vt 18.50412 20.52582
vt 17.7167 18.54123
vt 18.50395 1.825027
vt 17.71666 14.57205
vt 17.71654 1.825034
vt 17.71668 21.17799
vt 18.50408 21.17798
vt 17.71666 19.19553
vt 18.50401 11.33546
vt 17.71663 15.23064
vt 17.7166 11.33547
vt -17.7166 20.52595
vt -17.71659 18.03699
vt -18.50401 20.52595
vt -18.50394 1.82514
vt -17.71658 14.06782
vt -17.71654 1.825142
vt -17.71653 -3.99103
vt -17.71653 -5.382975
vt -18.50394 -3.99103
vt -18.50394 -5.382975
vt 17.71654 3.805376
vt 17.71654 7.750169
vt 19.93225 3.944776
vt 17.71653 2.685436
vt 17.71653 6.622445
vt 18.50394 2.685436
vt 18.50394 6.622445
vt -17.71653 13.77953
vt -17.71653 17.71653
vt -13.77953 13.77953
vt -13.77953 17.71653
vt -13.77953 -1.776357E-15
vt -17.71653 -1.776357E-15
vt -13.77953 15.74803
vt -17.71653 15.74803
vt -13.77953 13.01254
vt -17.71654 13.52386
vt -17.71654 15.74803
vt 17.71653 -1.776357E-15
vt 13.77953 -1.776357E-15
vt 17.71653 3.652664
vt 13.77953 3.148322
vt -17.71653 13.01254
vt -17.71653 9.04246
vt -17.71653 7.502472
vt -17.71653 3.55768
vt -17.71654 -1.776357E-15
vt -13.77953 3.55768
vt -17.71654 3.805376
vt 13.77953 13.07534
vt 13.77953 15.74803
vt 17.71653 13.5448
vt 17.71653 15.74803
vt 13.77953 13.77953
vt 13.77953 17.71653
vt 17.71654 13.77953
vt 17.71654 17.71653
vt -13.77953 7.502472
vt -17.71654 7.750169
vt -13.77953 9.04246
vt -17.71654 9.553787
vt 17.71653 3.805376
vt 17.71653 7.750169
vt 17.71653 9.553787
vt 17.71653 13.52386
vt 17.71653 3.148322
vt 17.71653 7.117504
vt 17.71653 9.110441
vt 17.71653 13.07534
vt 13.77953 7.117504
vt 13.77953 9.110441
vt 17.71653 7.621847
vt 17.71653 9.579898
vt 17.71654 -1.776357E-15
vt 17.71654 15.74803

usemtl woodDark

f 3/3/1 2/2/1 1/1/1
f 2/2/1 3/3/1 4/4/1
f 7/7/2 6/6/2 5/5/2
f 6/6/2 7/7/2 8/8/2
f 9/11/3 6/10/3 8/9/3
f 6/10/3 9/11/3 10/12/3
f 13/15/4 12/14/4 11/13/4
f 12/14/4 13/15/4 14/16/4
f 12/14/4 14/16/4 15/17/4
f 15/17/4 14/16/4 16/18/4
f 4/21/5 17/20/5 2/19/5
f 17/20/5 4/21/5 18/22/5
f 21/25/6 20/24/6 19/23/6
f 20/24/6 21/25/6 22/26/6
f 25/29/7 24/28/7 23/27/7
f 24/28/7 25/29/7 26/30/7
f 24/28/7 26/30/7 27/31/7
f 27/31/7 26/30/7 28/32/7
f 31/35/8 30/34/8 29/33/8
f 30/34/8 31/35/8 32/36/8
f 28/39/2 33/38/2 27/37/2
f 33/38/2 28/39/2 34/40/2
f 35/43/9 32/42/9 31/41/9
f 32/42/9 35/43/9 36/44/9
f 36/44/9 35/43/9 37/45/9
f 37/45/9 35/43/9 38/46/9
f 37/45/9 38/46/9 39/47/9
f 37/50/10 41/49/10 40/48/10
f 41/49/10 37/50/10 39/51/10
f 44/54/11 43/53/11 42/52/11
f 43/53/11 44/54/11 45/55/11
f 1/58/2 47/57/2 46/56/2
f 47/57/2 1/58/2 48/59/2
f 48/59/2 1/58/2 2/60/2
f 48/59/2 2/60/2 17/61/2
f 48/59/2 17/61/2 49/62/2
f 52/65/12 51/64/12 50/63/12
f 51/64/12 52/65/12 53/66/12
f 53/66/12 52/65/12 54/67/12
f 53/66/12 54/67/12 55/68/12
f 10/71/9 3/70/9 56/69/9
f 3/70/9 10/71/9 4/72/9
f 4/72/9 10/71/9 9/40/9
f 4/72/9 9/40/9 18/73/9
f 18/73/9 9/40/9 57/74/9
f 56/77/13 1/76/13 46/75/13
f 1/76/13 56/77/13 3/78/13
f 22/81/14 23/80/14 20/79/14
f 23/80/14 22/81/14 25/82/14
f 60/85/2 59/84/2 58/83/2
f 59/84/2 60/85/2 61/86/2
f 36/89/15 40/88/15 62/87/15
f 40/88/15 36/89/15 37/90/15
f 22/93/9 26/92/9 25/91/9
f 26/92/9 22/93/9 21/94/9
f 26/92/9 21/94/9 63/95/9
f 26/92/9 63/95/9 64/8/9
f 64/8/9 63/95/9 65/96/9
f 51/99/16 42/98/16 50/97/16
f 42/98/16 51/99/16 44/100/16
f 66/103/9 14/102/9 13/101/9
f 14/102/9 66/103/9 53/86/9
f 53/86/9 66/103/9 45/104/9
f 53/86/9 45/104/9 44/105/9
f 53/86/9 44/105/9 51/106/9
f 26/109/17 34/108/17 28/107/17
f 34/108/17 26/109/17 64/110/17
f 10/113/18 5/112/18 6/111/18
f 5/112/18 10/113/18 56/114/18
f 5/112/18 56/114/18 47/115/18
f 47/115/18 56/114/18 46/116/18
f 63/119/14 19/118/14 67/117/14
f 19/118/14 63/119/14 21/120/14
f 66/123/19 11/122/19 68/121/19
f 11/122/19 66/123/19 13/124/19
f 24/127/2 20/126/2 23/125/2
f 20/126/2 24/127/2 19/128/2
f 19/128/2 24/127/2 69/129/2
f 19/128/2 69/129/2 67/130/2
f 67/130/2 69/129/2 70/131/2
f 69/134/20 65/133/20 70/132/20
f 65/133/20 69/134/20 64/135/20
f 64/135/20 69/134/20 33/136/20
f 64/135/20 33/136/20 34/137/20
f 38/140/21 59/139/21 61/138/21
f 59/139/21 38/140/21 35/141/21
f 32/144/22 62/143/22 30/142/22
f 62/143/22 32/144/22 36/145/22
f 12/148/2 68/147/2 11/146/2
f 68/147/2 12/148/2 52/149/2
f 68/147/2 52/149/2 43/150/2
f 43/150/2 52/149/2 42/151/2
f 42/151/2 52/149/2 50/152/2
f 18/155/23 49/154/23 17/153/23
f 49/154/23 18/155/23 57/156/23
f 30/159/2 71/158/2 29/157/2
f 71/158/2 30/159/2 62/160/2
f 71/158/2 62/160/2 72/161/2
f 72/161/2 62/160/2 40/162/2
f 72/161/2 40/162/2 41/163/2
f 65/166/24 67/165/24 70/164/24
f 67/165/24 65/166/24 63/167/24
f 60/170/25 38/169/25 61/168/25
f 38/169/25 60/170/25 39/171/25
f 39/171/25 60/170/25 72/172/25
f 39/171/25 72/172/25 41/173/25
f 7/176/26 9/175/26 8/174/26
f 9/175/26 7/176/26 57/177/26
f 57/177/26 7/176/26 48/178/26
f 57/177/26 48/178/26 49/179/26
f 35/182/27 58/181/27 59/180/27
f 58/181/27 35/182/27 31/183/27
f 58/181/27 31/183/27 71/184/27
f 71/184/27 31/183/27 29/185/27
f 45/188/16 68/187/16 43/186/16
f 68/187/16 45/188/16 66/189/16
f 16/192/2 54/191/2 15/190/2
f 54/191/2 16/192/2 55/46/2
f 14/195/28 55/194/28 16/193/28
f 55/194/28 14/195/28 53/196/28

usemtl wood

f 75/199/29 74/198/29 73/197/29
f 74/198/29 75/199/29 76/200/29
f 75/203/2 78/202/2 77/201/2
f 78/202/2 75/203/2 73/204/2
f 79/203/9 33/206/9 69/205/9
f 33/206/9 79/203/9 80/207/9
f 58/210/9 82/209/9 81/208/9
f 82/209/9 58/210/9 71/211/9
f 79/204/30 84/201/30 83/203/30
f 84/201/30 79/204/30 85/202/30
f 85/202/30 79/204/30 69/212/30
f 85/202/30 69/212/30 24/213/30
f 85/202/30 24/213/30 52/214/30
f 85/202/30 52/214/30 12/215/30
f 12/217/9 86/216/9 85/201/9
f 86/216/9 12/217/9 15/218/9
f 7/221/9 76/220/9 48/219/9
f 76/220/9 7/221/9 74/222/9
f 87/225/29 79/224/29 83/223/29
f 79/224/29 87/225/29 80/226/29
f 24/229/9 54/228/9 52/227/9
f 54/228/9 24/229/9 27/230/9
f 86/208/31 87/220/31 88/209/31
f 87/220/31 86/208/31 80/222/31
f 80/222/31 86/208/31 15/231/31
f 80/222/31 15/231/31 54/232/31
f 80/222/31 54/232/31 27/233/31
f 80/222/31 27/233/31 33/234/31
f 82/208/31 75/220/31 77/209/31
f 75/220/31 82/208/31 76/222/31
f 76/222/31 82/208/31 71/235/31
f 76/222/31 71/235/31 72/236/31
f 76/222/31 72/236/31 47/237/31
f 76/222/31 47/237/31 48/238/31
f 60/241/9 47/240/9 72/239/9
f 47/240/9 60/241/9 5/242/9
f 87/244/2 84/209/2 88/243/2
f 84/209/2 87/244/2 83/220/2
f 74/204/30 78/201/30 73/203/30
f 78/201/30 74/204/30 81/202/30
f 81/202/30 74/204/30 7/7/30
f 81/202/30 7/7/30 5/5/30
f 81/202/30 5/5/30 60/85/30
f 81/202/30 60/85/30 58/83/30

usemtl _defaultMat

f 85/209/32 88/210/32 84/211/32
f 88/209/32 85/210/32 86/211/32
f 81/84/32 77/85/32 78/86/32
f 77/84/32 81/85/32 82/86/32

