# Created by Kenney (www.kenney.nl)

mtllib flag.mtl

g flag

v 0.1005501 0.5897169 -0.02040452
v 0.1154288 0.5897169 -0.01953912
v 0.1005501 0.87 -0.02040452
v 0.1154288 0.87 -0.01953912
v 0.1588342 0.5897169 -0.006702006
v 0.1724912 0.5897169 0.0008721054
v 0.1588342 0.87 -0.006702006
v 0.1724912 0.87 0.0008721054
v 0.3288343 0.5897169 0.0267019
v 0.3424911 0.5897169 0.01912791
v 0.3288343 0.87 0.0267019
v 0.3424911 0.87 0.01912791
v 0.3555501 0.5897169 0.01000002
v 0.3555501 0.87 0.01000002
v 0.2854288 0.5897169 0.0395391
v 0.3001839 0.5897169 0.0369502
v 0.2854288 0.87 0.0395391
v 0.3001839 0.87 0.0369502
v 0.02586496 0.87 0.002789915
v 0.02860868 0.6086886 0.0008721054
v 0.02860868 0.87 0.0008721054
v 0.2409161 0.5897169 0.0369502
v 0.255671 0.5897169 0.0395391
v 0.2409161 0.87 0.0369502
v 0.255671 0.87 0.0395391
v 0.07091606 0.5897169 -0.01695019
v 0.08567119 0.5897169 -0.01953912
v 0.07091606 0.87 -0.01695019
v 0.08567119 0.87 -0.01953912
v 0.1301839 0.5897169 -0.01695019
v 0.1301839 0.87 -0.01695019
v 0.2122657 0.5897169 0.02670202
v 0.2264074 0.5897169 0.0326592
v 0.2122657 0.87 0.02670202
v 0.2264074 0.87 0.0326592
v 0.27055 0.5897169 0.0404045
v 0.27055 0.87 0.0404045
v 0.3146926 0.5897169 0.0326592
v 0.3146926 0.87 0.0326592
v 0.028808 0.5897169 0.0007615983
v 0.04226565 0.5897169 -0.006702006
v 0.04226565 0.87 -0.006702006
v 0.1986088 0.5897169 0.01912791
v 0.1986088 0.87 0.01912791
v 0.05640733 0.5897169 -0.01265931
v 0.05640733 0.87 -0.01265931
v 0.1446927 0.5897169 -0.01265931
v 0.1446927 0.87 -0.01265931
v 0.02555001 0.9 -0.02555001
v 0.02555001 0.9 0.02555001
v -0.02555001 0.9 -0.02555001
v -0.02555001 0.9 0.02555001
v 0.03499997 0 -0.03500003
v 0.03499997 0 0.035
v -0.03499997 0 -0.03500003
v -0.03500003 0 0.035

vn 0 0 -1
vn 0.1156347 0 -0.9932919
vn 0 0 1
vn -0.1156347 0 0.9932919
vn 0.4372437 0 -0.8993431
vn 0.5296637 0 -0.8482077
vn -0.4372437 0 0.8993431
vn -0.5296637 0 0.8482077
vn -0.4372414 0 -0.8993442
vn -0.5296627 0 -0.8482084
vn 0.4372414 0 0.8993442
vn 0.5296627 0 0.8482084
vn -0.5729036 0 -0.8196228
vn 0.5729036 0 0.8196228
vn -0.1156346 0 -0.9932919
vn -0.2285842 0 -0.9735241
vn 0.1156346 0 0.9932919
vn 0.2285842 0 0.9735241
vn -0.5729028 0 -0.8196232
vn -0.48537 0 -0.8743089
vn -0.5296635 0 -0.8482079
vn 0.5296635 0 0.8482079
vn 0.48537 0 0.8743089
vn 0.5729028 0 0.8196232
vn 0.2285849 0 -0.973524
vn 0.1156351 0 -0.9932917
vn -0.2285849 0 0.973524
vn -0.1156351 0 0.9932917
vn -0.2285803 0 -0.973525
vn 0.2285803 0 0.973525
vn 0.2285812 0 -0.9735249
vn -0.2285812 0 0.9735249
vn 0.4372412 0 -0.8993442
vn 0.3364302 0 -0.9417083
vn -0.4372412 0 0.8993442
vn -0.3364302 0 0.9417083
vn -0.336433 0 -0.9417074
vn 0.336433 0 0.9417074
vn -0.4850011 0 -0.8745136
vn -0.4372439 0 -0.899343
vn 0.4372439 0 0.899343
vn 0.4850011 0 0.8745136
vn 0.5296651 0 -0.8482069
vn -0.5296651 0 0.8482069
vn -0.3364303 0 -0.9417083
vn 0.3364303 0 0.9417083
vn 0.3364312 0 -0.941708
vn -0.3364312 0 0.941708
vn 0 1 0
vn 0.9999449 0.01049942 0
vn -0.9999449 0.01049942 0
vn 0 0.01049942 -0.9999449
vn 0 0.01049942 0.9999449
vn 0 -1 0

vt -3.905337 23.2172
vt -4.492106 23.2172
vt -3.905337 34.25197
vt -4.492106 34.25197
vt -5.340639 23.2172
vt -5.955468 23.2172
vt -5.340639 34.25197
vt -5.955468 34.25197
vt -10.81182 23.2172
vt -11.42664 23.2172
vt -10.81182 34.25197
vt -11.42664 34.25197
vt -10.62028 23.2172
vt -11.24755 23.2172
vt -10.62028 34.25197
vt -11.24755 34.25197
vt -10.79926 23.2172
vt -11.38904 23.2172
vt -10.79926 34.25197
vt -11.38904 34.25197
vt -0.7717014 34.25197
vt -0.9034933 23.96412
vt -0.9034933 34.25197
vt -9.593577 23.2172
vt -10.18336 23.2172
vt -9.593577 34.25197
vt -10.18336 34.25197
vt -2.865291 23.2172
vt -3.455074 23.2172
vt -2.865291 34.25197
vt -3.455074 34.25197
vt -4.343123 23.2172
vt -4.932907 23.2172
vt -4.343123 34.25197
vt -4.932907 34.25197
vt -8.109597 23.2172
vt -8.713739 23.2172
vt -8.109597 34.25197
vt -8.713739 34.25197
vt -10.54124 23.2172
vt -11.12801 23.2172
vt -10.54124 34.25197
vt -11.12801 34.25197
vt -10.92043 23.2172
vt -11.51609 23.2172
vt -10.92043 34.25197
vt -11.51609 34.25197
vt -3.411858 23.2172
vt -3.998628 23.2172
vt -3.411858 34.25197
vt -3.998628 34.25197
vt -0.9773075 23.2172
vt -1.583166 23.2172
vt -0.9683357 23.96412
vt -1.583166 34.25197
vt -0.9683357 34.25197
vt -7.203265 23.2172
vt -7.818091 23.2172
vt -7.203265 34.25197
vt -7.818091 34.25197
vt -10.91857 23.2172
vt -11.52271 23.2172
vt -10.91857 34.25197
vt -11.52271 34.25197
vt -1.635926 23.2172
vt -2.240067 23.2172
vt -1.635926 34.25197
vt -2.240067 34.25197
vt -5.056272 23.2172
vt -5.660412 23.2172
vt -5.056272 34.25197
vt -5.660412 34.25197
vt -8.912344 23.2172
vt -9.508011 23.2172
vt -8.912344 34.25197
vt -9.508011 34.25197
vt -5.585722 23.2172
vt -6.840265 23.2172
vt -5.585722 34.25197
vt -6.840265 34.25197
vt -2.270927 23.2172
vt -2.866596 23.2172
vt -2.270927 34.25197
vt -2.866596 34.25197
vt -4.725654 23.2172
vt -5.32132 23.2172
vt -4.725654 34.25197
vt -5.32132 34.25197
vt -10.1392 23.2172
vt -10.72597 23.2172
vt -10.1392 34.25197
vt -10.72597 34.25197
vt -1.005906 -1.005906
vt -1.005906 1.005906
vt 1.005906 -1.005906
vt 1.005906 1.005906
vt 1.377953 -0.01446771
vt -1.377953 -0.01446771
vt 1.005906 35.42056
vt -1.005906 35.42056
vt -1.377953 -0.01446771
vt 1.377953 -0.01446771
vt 1.377953 -0.01446771
vt -1.377953 -0.01446771
vt 1.377953 -0.01446771
vt -1.377953 -0.01446771

usemtl heart

f 3/3/1 2/2/2 1/1/1
f 2/2/2 3/3/1 4/4/2
f 1/1/3 2/2/4 3/3/3
f 4/4/4 3/3/3 2/2/4
f 7/7/5 6/6/6 5/5/5
f 6/6/6 7/7/5 8/8/6
f 5/5/7 6/6/8 7/7/7
f 8/8/8 7/7/7 6/6/8
f 11/11/9 10/10/10 9/9/9
f 10/10/10 11/11/9 12/12/10
f 9/9/11 10/10/12 11/11/11
f 12/12/12 11/11/11 10/10/12
f 12/15/10 13/14/13 10/13/10
f 13/14/13 12/15/10 14/16/13
f 10/13/12 13/14/14 12/15/12
f 14/16/14 12/15/12 13/14/14
f 17/19/15 16/18/16 15/17/15
f 16/18/16 17/19/15 18/20/16
f 15/17/17 16/18/18 17/19/17
f 18/20/18 17/19/17 16/18/18
f 21/23/21 20/22/20 19/21/19
f 19/21/24 20/22/23 21/23/22
f 24/26/25 23/25/26 22/24/25
f 23/25/26 24/26/25 25/27/26
f 22/24/27 23/25/28 24/26/27
f 25/27/28 24/26/27 23/25/28
f 28/30/29 27/29/15 26/28/29
f 27/29/15 28/30/29 29/31/15
f 26/28/30 27/29/17 28/30/30
f 29/31/17 28/30/30 27/29/17
f 4/34/2 30/33/31 2/32/2
f 30/33/31 4/34/2 31/35/31
f 2/32/4 30/33/32 4/34/4
f 31/35/32 4/34/4 30/33/32
f 34/38/33 33/37/34 32/36/33
f 33/37/34 34/38/33 35/39/34
f 32/36/35 33/37/36 34/38/35
f 35/39/36 34/38/35 33/37/36
f 37/42/1 15/41/15 36/40/1
f 15/41/15 37/42/1 17/43/15
f 36/40/3 15/41/17 37/42/3
f 17/43/17 37/42/3 15/41/17
f 18/46/16 38/45/37 16/44/16
f 38/45/37 18/46/16 39/47/37
f 16/44/18 38/45/38 18/46/18
f 39/47/38 18/46/18 38/45/38
f 29/50/15 1/49/1 27/48/15
f 1/49/1 29/50/15 3/51/1
f 27/48/17 1/49/3 29/50/17
f 3/51/3 29/50/17 1/49/3
f 20/54/20 41/53/40 40/52/39
f 41/53/40 20/54/20 42/55/40
f 42/55/40 20/54/20 21/56/21
f 40/52/42 41/53/41 20/54/23
f 42/55/41 20/54/23 41/53/41
f 21/56/22 20/54/23 42/55/41
f 44/59/43 32/58/33 43/57/43
f 32/58/33 44/59/43 34/60/33
f 43/57/44 32/58/35 44/59/44
f 34/60/35 44/59/44 32/58/35
f 39/63/37 9/62/9 38/61/37
f 9/62/9 39/63/37 11/64/9
f 38/61/38 9/62/11 39/63/38
f 11/64/11 39/63/38 9/62/11
f 42/67/40 45/66/45 41/65/40
f 45/66/45 42/67/40 46/68/45
f 41/65/41 45/66/46 42/67/41
f 46/68/46 42/67/41 45/66/46
f 48/71/47 5/70/5 47/69/47
f 5/70/5 48/71/47 7/72/5
f 47/69/48 5/70/7 48/71/48
f 7/72/7 48/71/48 5/70/7
f 35/75/34 22/74/25 33/73/34
f 22/74/25 35/75/34 24/76/25
f 33/73/36 22/74/27 35/75/36
f 24/76/27 35/75/36 22/74/27
f 8/79/6 43/78/43 6/77/6
f 43/78/43 8/79/6 44/80/43
f 6/77/8 43/78/44 8/79/8
f 44/80/44 8/79/8 43/78/44
f 46/83/45 26/82/29 45/81/45
f 26/82/29 46/83/45 28/84/29
f 45/81/46 26/82/30 46/83/46
f 28/84/30 46/83/46 26/82/30
f 31/87/31 47/86/47 30/85/31
f 47/86/47 31/87/31 48/88/47
f 30/85/32 47/86/48 31/87/32
f 48/88/48 31/87/32 47/86/48
f 25/91/26 36/90/1 23/89/26
f 36/90/1 25/91/26 37/92/1
f 23/89/28 36/90/3 25/91/28
f 37/92/3 25/91/28 36/90/3

usemtl woodDark

f 51/95/49 50/94/49 49/93/49
f 50/94/49 51/95/49 52/96/49
f 49/99/50 54/98/50 53/97/50
f 54/98/50 49/99/50 50/100/50
f 56/102/51 51/100/51 55/101/51
f 51/100/51 56/102/51 52/99/51
f 51/99/52 53/104/52 55/103/52
f 53/104/52 51/99/52 49/100/52
f 50/99/53 56/106/53 54/105/53
f 56/106/53 50/99/53 52/100/53

usemtl _defaultMat

f 54/49/54 55/50/54 53/51/54
f 55/49/54 54/50/54 56/51/54

