# Created by Kenney (www.kenney.nl)

mtllib flowersLow.mtl

g flowersLow

v 0.07244444 0.075 0.3271811
v 0.03535533 0.1 0.3819479
v 0.06123722 0.05 0.2853553
v -0.03535533 0.05 0.3112372
v -0.02414817 0.075 0.3530631
v 0.03535533 0.05 0.1887628
v -0.06123722 0.05 0.2146446
v 0.02414811 0.075 0.146937
v -0.03535533 0.1 0.1180521
v -0.07244444 0.075 0.1728188
v -0.07718116 0.075 0.3224444
v -0.103063 0.075 0.2258519
v -0.1319479 0.1 0.2853553
v 0.1319479 0.1 0.2146446
v 0.1030631 0.075 0.2741481
v 0.0771811 0.075 0.1775556
v -0.1180521 0.1 0.03535533
v -0.1728188 0.075 0.07244444
v -0.146937 0.075 -0.02414817
v -0.1887628 0.05 -0.03535533
v -0.2146447 0.05 0.06123725
v -0.2258519 0.075 0.103063
v -0.3112372 0.05 0.03535533
v -0.2853553 0.1 0.1319479
v -0.3224444 0.075 0.07718116
v -0.1775556 0.075 -0.07718116
v -0.2146447 0.1 -0.1319479
v -0.2853553 0.05 -0.06123722
v -0.2741481 0.075 -0.103063
v -0.3271811 0.075 -0.07244444
v -0.3530631 0.075 0.02414814
v -0.3819479 0.1 -0.03535533
v 0.381948 0.1 -0.03535533
v 0.3530631 0.075 0.02414814
v 0.3271811 0.075 -0.07244444
v 0.3112372 0.05 0.03535533
v 0.2853553 0.05 -0.06123722
v 0.2146447 0.05 0.06123725
v 0.1728189 0.075 0.07244444
v 0.1887628 0.05 -0.03535533
v 0.1469369 0.075 -0.02414817
v 0.1180521 0.1 0.03535533
v 0.3224444 0.075 0.07718116
v 0.2853553 0.1 0.1319479
v 0.2258519 0.075 0.103063
v 0.2741481 0.075 -0.103063
v 0.2146447 0.1 -0.1319479
v 0.1775556 0.075 -0.07718116
v 0.03535533 0.05 -0.1887628
v 0.02414811 0.075 -0.146937
v -0.06123722 0.05 -0.2146447
v -0.03535533 0.1 -0.1180521
v -0.07244444 0.075 -0.1728188
v -0.03535533 0.05 -0.3112372
v -0.07718116 0.075 -0.3224444
v -0.103063 0.075 -0.2258519
v -0.1319479 0.1 -0.2853553
v 0.1319479 0.1 -0.2146447
v 0.0771811 0.075 -0.1775556
v 0.1030631 0.075 -0.2741481
v 0.06123722 0.05 -0.2853553
v 0.07244444 0.075 -0.3271811
v 0.03535533 0.1 -0.3819479
v -0.02414817 0.075 -0.3530631
v 0.03061867 0 0.2676777
v -0.01767766 0 0.2806186
v 0.01767766 0 0.2193814
v -0.03061861 0 0.2323223
v -0.2676777 0 -0.03061861
v -0.2806187 0 0.01767766
v -0.2193814 0 -0.01767766
v -0.2323223 0 0.03061861
v 0.2193813 0 -0.01767766
v 0.2676777 0 -0.03061861
v 0.2806187 0 0.01767766
v 0.2323223 0 0.03061861
v 0.03061867 0 -0.2676777
v -0.01767766 0 -0.2806187
v 0.01767766 0 -0.2193814
v -0.03061861 0 -0.2323223

vn -0.1294095 0.8660254 -0.4829629
vn 0.1294095 -0.8660254 0.4829629
vn 0.1294095 0.8660254 0.4829629
vn 0.4829629 0.8660254 -0.1294095
vn -0.4829629 -0.8660254 0.1294095
vn -0.4829629 0.8660254 0.1294095
vn 0.4829629 -0.8660254 -0.1294095
vn -0.4829629 0.8660254 -0.1294095
vn 0.4829629 -0.8660254 0.1294095
vn 0.1294095 0.8660254 -0.4829629
vn -0.1294095 -0.8660254 0.4829629
vn -0.1294095 0.8660254 0.4829629
vn 0.4829629 0.8660254 0.1294095
vn -0.4829629 -0.8660254 -0.1294095
vn 0.2314948 -0.4472137 0.8639504
vn 0.8639504 -0.4472137 -0.2314948
vn -0.2314948 -0.4472137 -0.8639504
vn -0.8639504 -0.4472137 0.2314948
vn 0 -1 0
vn -0.8639504 -0.4472137 -0.2314948
vn 0.8639504 -0.4472137 0.2314948
vn -0.2314948 -0.4472137 0.8639504
vn 0.2314948 -0.4472137 -0.8639504
vn -0.2314948 0.4472137 -0.8639504
vn -0.8639504 0.4472137 0.2314948
vn 0.2314948 0.4472137 0.8639504
vn 0 1 0
vn 0.8639504 0.4472137 -0.2314948
vn 0.8639504 0.4472137 0.2314948
vn -0.8639504 0.4472137 -0.2314948
vn 0.2314948 0.4472137 -0.8639504
vn -0.2314948 0.4472137 0.8639504

vt 0.5789275 12.89096
vt 2.547431 14.85946
vt 0.5789275 10.92245
vt 4.515935 10.92245
vt 4.515935 12.89096
vt -0.5789276 -5.544402
vt -4.515935 -5.544402
vt -0.5789275 -3.575898
vt -2.547431 -1.607394
vt -4.515935 -3.575898
vt -11.47565 4.895167
vt -11.47565 6.863671
vt -7.53864 4.895167
vt -7.53864 6.863671
vt -9.507144 8.832174
vt 9.507144 4.419894
vt 11.47565 2.45139
vt 7.53864 2.45139
vt 11.47565 0.482886
vt 7.53864 0.482886
vt 2.547431 -1.607394
vt 4.515935 -3.575898
vt 0.5789276 -3.575898
vt 0.5789276 -5.544402
vt 4.515935 -5.544402
vt 7.53864 4.895167
vt 7.53864 6.863671
vt 11.47565 4.895167
vt 9.507144 8.832174
vt 11.47565 6.863671
vt -7.53864 2.45139
vt -7.53864 0.4828859
vt -9.507144 4.419894
vt -11.47565 0.4828858
vt -11.47565 2.45139
vt -0.5789276 10.92245
vt -4.515935 10.92245
vt -0.5789276 12.89096
vt -4.515935 12.89096
vt -2.547431 14.85946
vt 0.5789276 12.89096
vt 0.5789276 10.92245
vt -0.5789276 -5.544402
vt -0.5789276 -3.575898
vt 11.47565 0.482886
vt 11.47565 2.45139
vt 7.53864 2.45139
vt 0.5789277 -3.575898
vt 2.547432 -1.607394
vt -11.47565 0.482886
vt -7.53864 0.482886
vt -0.5789277 12.89096
vt -0.5789277 10.92245
vt -2.547432 14.85946
vt -1.56318 4.691895
vt -3.531683 4.691895
vt -0.5789276 6.892749
vt -4.515935 6.892749
vt -7.53864 1.501779
vt -8.522892 -0.6990752
vt -11.47565 1.501779
vt -10.4914 -0.6990752
vt 3.531683 -3.811553
vt 1.56318 -3.811553
vt 4.515935 -1.610699
vt 0.5789276 -1.610699
vt 7.53864 3.780271
vt 11.47565 3.780271
vt 8.522892 1.579417
vt 10.4914 1.579417
vt 1.205458 10.53849
vt 0.6959713 8.637062
vt -0.6959713 11.04798
vt -1.205458 9.146548
vt 0.5789276 6.892749
vt 4.515935 6.892749
vt 1.56318 4.691895
vt 3.531683 4.691895
vt -0.5789276 -1.610699
vt -1.56318 -3.811553
vt -4.515935 -1.610699
vt -3.531683 -3.811553
vt -8.522892 1.579417
vt -10.4914 1.579417
vt -7.53864 3.780271
vt -11.47565 3.780271
vt 10.4914 -0.6990752
vt 8.522892 -0.6990752
vt 11.47565 1.501779
vt 7.53864 1.501779
vt -8.637062 -0.6959712
vt -10.53849 -1.205458
vt -9.146548 1.205458
vt -11.04798 0.6959713
vt -7.53864 1.501779
vt -11.47565 1.501779
vt 11.04798 0.6959713
vt 10.53849 -1.205458
vt 9.146548 1.205458
vt 8.637062 -0.6959712
vt 1.205458 -10.53849
vt -0.6959713 -11.04798
vt 0.6959713 -8.637062
vt -1.205458 -9.146548
vt 11.47565 1.501779
vt 7.53864 1.501779
vt -1.391943 12.25344
vt 1.391943 7.431604
vt 2.410915 11.23446
vt -2.410915 8.450577
vt -8.450577 2.410915
vt -11.23446 -2.410915
vt -7.431604 -1.391943
vt -12.25344 1.391943
vt 8.450577 2.410915
vt 11.23446 -2.410915
vt 12.25344 1.391943
vt 7.431604 -1.391943
vt 1.391943 -7.431604
vt -1.391943 -12.25344
vt 2.410915 -11.23446
vt -2.410915 -8.450577

usemtl heart

f 3/3/1 2/2/1 1/1/1
f 2/2/1 3/3/1 4/4/1
f 2/2/1 4/4/1 5/5/1
f 1/1/2 2/2/2 3/3/2
f 4/4/2 3/3/2 2/2/2
f 5/5/2 4/4/2 2/2/2
f 8/8/3 7/7/3 6/6/3
f 7/7/3 8/8/3 9/9/3
f 7/7/3 9/9/3 10/10/3
f 7/13/4 11/12/4 4/11/4
f 11/12/4 7/13/4 12/14/4
f 11/12/4 12/14/4 13/15/4
f 4/11/5 11/12/5 7/13/5
f 12/14/5 7/13/5 11/12/5
f 13/15/5 12/14/5 11/12/5
f 16/18/6 15/17/6 14/16/6
f 15/17/6 16/18/6 3/19/6
f 3/19/6 16/18/6 6/20/6
f 14/16/7 15/17/7 16/18/7
f 3/19/7 16/18/7 15/17/7
f 6/20/7 16/18/7 3/19/7
f 19/23/8 18/22/8 17/21/8
f 18/22/8 19/23/8 20/24/8
f 18/22/8 20/24/8 21/25/8
f 17/21/9 18/22/9 19/23/9
f 20/24/9 19/23/9 18/22/9
f 21/25/9 20/24/9 18/22/9
f 23/28/10 22/27/10 21/26/10
f 22/27/10 23/28/10 24/29/10
f 24/29/10 23/28/10 25/30/10
f 21/26/11 22/27/11 23/28/11
f 24/29/11 23/28/11 22/27/11
f 25/30/11 23/28/11 24/29/11
f 27/33/12 20/32/12 26/31/12
f 20/32/12 27/33/12 28/34/12
f 28/34/12 27/33/12 29/35/12
f 30/38/13 23/37/13 28/36/13
f 23/37/13 30/38/13 31/39/13
f 31/39/13 30/38/13 32/40/13
f 28/36/14 23/37/14 30/38/14
f 31/39/14 30/38/14 23/37/14
f 32/40/14 30/38/14 31/39/14
f 35/41/6 34/5/6 33/2/6
f 34/5/6 35/41/6 36/4/6
f 36/4/6 35/41/6 37/42/6
f 33/2/7 34/5/7 35/41/7
f 36/4/7 35/41/7 34/5/7
f 37/42/7 35/41/7 36/4/7
f 40/43/4 39/10/4 38/7/4
f 39/10/4 40/43/4 41/44/4
f 39/10/4 41/44/4 42/9/4
f 38/7/5 39/10/5 40/43/5
f 41/44/5 40/43/5 39/10/5
f 42/9/5 41/44/5 39/10/5
f 36/11/1 44/15/1 43/12/1
f 44/15/1 36/11/1 38/13/1
f 44/15/1 38/13/1 45/14/1
f 43/12/2 44/15/2 36/11/2
f 38/13/2 36/11/2 44/15/2
f 45/14/2 38/13/2 44/15/2
f 46/46/3 40/20/3 37/45/3
f 40/20/3 46/46/3 47/16/3
f 40/20/3 47/16/3 48/47/3
f 51/25/10 50/48/10 49/24/10
f 50/48/10 51/25/10 52/49/10
f 52/49/10 51/25/10 53/22/10
f 49/24/11 50/48/11 51/25/11
f 52/49/11 51/25/11 50/48/11
f 53/22/11 51/25/11 52/49/11
f 55/30/13 51/26/13 54/28/13
f 51/26/13 55/30/13 56/27/13
f 56/27/13 55/30/13 57/29/13
f 54/28/14 51/26/14 55/30/14
f 56/27/14 55/30/14 51/26/14
f 57/29/14 55/30/14 56/27/14
f 60/35/8 59/31/8 58/33/8
f 59/31/8 60/35/8 61/50/8
f 59/31/8 61/50/8 49/51/8
f 58/33/9 59/31/9 60/35/9
f 61/50/9 60/35/9 59/31/9
f 49/51/9 61/50/9 59/31/9
f 63/54/12 61/53/12 62/52/12
f 61/53/12 63/54/12 54/37/12
f 54/37/12 63/54/12 64/39/12

usemtl grass

f 3/57/15 66/56/15 65/55/15
f 66/56/15 3/57/15 4/58/15
f 3/61/16 67/60/16 6/59/16
f 67/60/16 3/61/16 65/62/16
f 7/65/17 67/64/17 68/63/17
f 67/64/17 7/65/17 6/66/17
f 68/69/18 4/68/18 7/67/18
f 4/68/18 68/69/18 66/70/18
f 66/73/19 67/72/19 65/71/19
f 67/72/19 66/73/19 68/74/19
f 69/77/20 23/76/20 28/75/20
f 23/76/20 69/77/20 70/78/20
f 21/81/21 71/80/21 20/79/21
f 71/80/21 21/81/21 72/82/21
f 21/85/22 70/84/22 72/83/22
f 70/84/22 21/85/22 23/86/22
f 28/89/23 71/88/23 69/87/23
f 71/88/23 28/89/23 20/90/23
f 72/93/19 69/92/19 71/91/19
f 69/92/19 72/93/19 70/94/19
f 40/95/17 74/62/17 73/60/17
f 74/62/17 40/95/17 37/96/17
f 36/68/15 76/69/15 75/70/15
f 76/69/15 36/68/15 38/67/15
f 76/99/19 74/98/19 75/97/19
f 74/98/19 76/99/19 73/100/19
f 36/58/16 74/55/16 37/57/16
f 74/55/16 36/58/16 75/56/16
f 73/64/18 38/65/18 40/66/18
f 38/65/18 73/64/18 76/63/18
f 79/103/19 78/102/19 77/101/19
f 78/102/19 79/103/19 80/104/19
f 78/84/20 51/85/20 54/86/20
f 51/85/20 78/84/20 80/83/20
f 54/76/23 77/77/23 78/78/23
f 77/77/23 54/76/23 61/75/23
f 49/106/21 77/87/21 61/105/21
f 77/87/21 49/106/21 79/88/21
f 49/79/22 80/82/22 79/80/22
f 80/82/22 49/79/22 51/81/22

usemtl snow

f 65/55/24 66/56/24 3/57/24
f 4/58/24 3/57/24 66/56/24
f 6/59/25 67/60/25 3/61/25
f 65/62/25 3/61/25 67/60/25
f 68/63/26 67/64/26 7/65/26
f 6/66/26 7/65/26 67/64/26
f 3/109/27 6/108/27 4/107/27
f 7/110/27 4/107/27 6/108/27
f 7/67/28 4/68/28 68/69/28
f 66/70/28 68/69/28 4/68/28
f 65/71/27 67/72/27 66/73/27
f 68/74/27 66/73/27 67/72/27
f 28/75/29 23/76/29 69/77/29
f 70/78/29 69/77/29 23/76/29
f 20/79/30 71/80/30 21/81/30
f 72/82/30 21/81/30 71/80/30
f 72/83/31 70/84/31 21/85/31
f 23/86/31 21/85/31 70/84/31
f 69/87/32 71/88/32 28/89/32
f 20/90/32 28/89/32 71/88/32
f 20/113/27 28/112/27 21/111/27
f 23/114/27 21/111/27 28/112/27
f 71/91/27 69/92/27 72/93/27
f 70/94/27 72/93/27 69/92/27
f 73/60/26 74/62/26 40/95/26
f 37/96/26 40/95/26 74/62/26
f 75/70/24 76/69/24 36/68/24
f 38/67/24 36/68/24 76/69/24
f 75/97/27 74/98/27 76/99/27
f 73/100/27 76/99/27 74/98/27
f 37/57/25 74/55/25 36/58/25
f 75/56/25 36/58/25 74/55/25
f 36/117/27 37/116/27 38/115/27
f 40/118/27 38/115/27 37/116/27
f 40/66/28 38/65/28 73/64/28
f 76/63/28 73/64/28 38/65/28
f 77/101/27 78/102/27 79/103/27
f 80/104/27 79/103/27 78/102/27
f 61/121/27 54/120/27 49/119/27
f 51/122/27 49/119/27 54/120/27
f 54/86/29 51/85/29 78/84/29
f 80/83/29 78/84/29 51/85/29
f 78/78/32 77/77/32 54/76/32
f 61/75/32 54/76/32 77/77/32
f 61/105/30 77/87/30 49/106/30
f 79/88/30 49/106/30 77/87/30
f 79/80/31 80/82/31 49/79/31
f 51/81/31 49/79/31 80/82/31

usemtl _defaultMat

f 4/107/19 6/108/19 3/109/19
f 6/108/19 4/107/19 7/110/19
f 21/111/19 28/112/19 20/113/19
f 28/112/19 21/111/19 23/114/19
f 38/115/19 37/116/19 36/117/19
f 37/116/19 38/115/19 40/118/19
f 49/119/19 54/120/19 61/121/19
f 54/120/19 49/119/19 51/122/19

