# Created by Kenney (www.kenney.nl)

mtllib heart.mtl

g heart

v 0 0.3070954 0
v -0.103057 0.3838693 0
v 0 0.2771536 -0.05949998
v -0.07626218 0.3339663 -0.05949998
v 0.2061141 0.1535477 0
v 0 0 0
v 0.1525244 0.1635283 0.05950001
v 0 0.04990301 0.05950001
v 0.1525244 0.1635283 -0.05949998
v 0 0.04990301 -0.05949998
v -0.1525244 0.1635283 0.05950001
v -0.2061141 0.1535477 0
v -0.2061141 0.3070954 0
v -0.1525244 0.2771536 0.05950001
v 0.103057 0.3838693 0
v 0.07626224 0.3339663 0.05950001
v 0 0.2771536 0.05950001
v 0.07626224 0.3339663 -0.05949998
v 0.2061141 0.3070954 0
v 0.1525244 0.2771536 0.05950001
v -0.1525244 0.1635283 -0.05949998
v -0.1525244 0.2771536 -0.05949998
v -0.07626218 0.3339663 0.05950001
v 0.1525244 0.2771536 -0.05949998

vn 0 0.8932725 -0.4495157
vn -0.0699652 0.7485783 -0.6593449
vn 0 0.3371665 -0.941445
vn 0.1099402 0.5632054 -0.8189706
vn 0.6811088 -0.3066235 0.6648856
vn 0 -0.7661929 0.6426107
vn 0.4363065 -0.2613631 0.861003
vn 0 -0.5420226 0.840364
vn 0.6811088 -0.3066235 -0.6648856
vn 0.4363065 -0.2613631 -0.861003
vn 0 -0.7661929 -0.6426107
vn 0 -0.5420226 -0.840364
vn -0.4363065 -0.2613631 0.861003
vn -0.6811088 -0.3066235 0.6648856
vn -0.6200269 0.3167136 0.7178155
vn -0.4162532 0.2022108 0.8864784
vn 0.0699652 0.7485783 0.6593449
vn -0.1099402 0.5632054 0.8189706
vn 0 0.8932725 0.4495157
vn 0 0.3371665 0.941445
vn 0.0699652 0.7485783 -0.6593449
vn -0.1099402 0.5632054 -0.8189706
vn 0.6200269 0.3167136 0.7178155
vn 0.4162532 0.2022108 0.8864784
vn -0.4363065 -0.2613631 -0.861003
vn -0.4162532 0.2022108 -0.8864784
vn -0.6811088 -0.3066235 -0.6648856
vn -0.6200269 0.3167136 -0.7178155
vn 0.1099402 0.5632054 0.8189706
vn -0.0699652 0.7485783 0.6593449
vn 0.4162532 0.2022108 -0.8864784
vn 0.6200269 0.3167136 -0.7178155

vt -2.42849E-13 8.08308
vt 2.271137 12.60416
vt 1.941145 6.319859
vt 3.621787 9.665462
vt 6.067006 8.098427
vt -2.796185E-13 1.382813E-13
vt 2.933942 8.624825
vt -1.555641 2.631989
vt -6.067006 8.098427
vt -2.933942 8.624825
vt -1.733705E-13 -2.010793E-13
vt 1.555641 2.631989
vt 1.733705E-13 2.010793E-13
vt -5.430689 6.045185
vt -5.430689 12.09037
vt -2.278106 6.438122
vt -2.278106 10.91156
vt 2.42849E-13 8.08308
vt -2.271137 12.60416
vt 3.228393E-13 8.08308
vt -3.621787 9.665462
vt -1.941145 6.319859
vt 5.430689 12.09037
vt 5.430689 6.045185
vt 2.278106 10.91156
vt 2.278106 6.438122
vt -3.223952E-13 8.08308
vt 6.004898 10.91156
vt -7.569784E-14 10.91156
vt 3.002449 13.14828
vt -6.004898 10.91156
vt -6.004898 6.438122
vt 6.004898 6.438122
vt -7.569784E-14 1.964685
vt -3.002449 13.14828
vt 2.796185E-13 -1.382813E-13
vt 3.815542 5.825734
vt 1.280297 8.580757
vt 6.852014 7.277704
vt 3.426005 11.00071
vt 7.351613E-14 10.91156
vt 7.351613E-14 1.964685
vt -3.815542 5.825734
vt -6.852014 7.277704
vt -1.280297 8.580757
vt -3.426005 11.00071

usemtl heart

f 3/3/3 2/2/2 1/1/1
f 2/2/2 3/3/3 4/4/4
f 7/7/7 6/6/6 5/5/5
f 6/6/6 7/7/7 8/8/8
f 6/11/11 9/10/10 5/9/9
f 9/10/10 6/11/11 10/12/12
f 11/10/13 6/13/6 8/12/8
f 6/13/6 11/10/13 12/9/14
f 11/16/13 13/15/15 12/14/14
f 13/15/15 11/16/13 14/17/16
f 1/18/19 16/4/18 15/2/17
f 16/4/18 1/18/19 17/3/20
f 18/21/22 1/20/1 15/19/21
f 1/20/1 18/21/22 3/22/3
f 20/25/24 5/24/5 19/23/23
f 5/24/5 20/25/24 7/26/7
f 12/24/27 22/25/26 21/26/25
f 22/25/26 12/24/27 13/23/28
f 1/27/19 23/21/29 17/22/20
f 23/21/29 1/27/19 2/19/30
f 16/30/18 17/29/20 20/28/24
f 14/31/16 20/28/24 17/29/20
f 11/32/13 20/28/24 14/31/16
f 11/32/13 7/33/7 20/28/24
f 7/33/7 11/32/13 8/34/8
f 14/31/16 17/29/20 23/35/29
f 12/5/27 10/8/12 6/36/11
f 10/8/12 12/5/27 21/7/25
f 19/39/23 16/38/18 20/37/24
f 16/38/18 19/39/23 15/40/17
f 13/39/28 4/38/4 22/37/26
f 4/38/4 13/39/28 2/40/2
f 4/30/4 3/41/3 22/28/26
f 24/31/31 22/28/26 3/41/3
f 9/32/10 22/28/26 24/31/31
f 9/32/10 21/33/25 22/28/26
f 21/33/25 9/32/10 10/42/12
f 24/31/31 3/41/3 18/35/22
f 18/45/22 19/44/32 24/43/31
f 19/44/32 18/45/22 15/46/21
f 19/15/32 9/16/10 24/17/31
f 9/16/10 19/15/32 5/14/9
f 23/45/29 13/44/15 14/43/16
f 13/44/15 23/45/29 2/46/30

