# Created by Kenney (www.kenney.nl)

mtllib hedgeCorner.mtl

g hedgeCorner

v -0.5 0 -0.5
v -0.3099999 0 -0.5
v -0.5 0.16 -0.5
v -0.3099999 0.16 -0.5
v -0.3099999 0 0.3099999
v 0.5 0 0.3099999
v -0.3099999 0.16 0.3099999
v 0.5 0.16 0.3099999
v -0.46 0.2 -0.46
v -0.46 0.2 0.46
v -0.5 0.16 0.5
v 0.5 0.16 0.5
v 0.46 0.2 0.35
v 0.46 0.2 0.46
v 0.5 0 0.5
v -0.5 0 0.5
v -0.35 0.2 -0.46
v -0.35 0.2 0.35

vn 0 0 -1
vn -0.7071068 0.7071068 0
vn 0.7071068 0.7071068 0
vn 1 0 0
vn 0 0 1
vn 0.7071059 0.7071077 0
vn 0 0.7071068 -0.7071068
vn 0 0.7071068 0.7071068
vn 0 0.7071077 -0.7071059
vn -1 0 0
vn 0 -1 0
vn 0 1 0

vt 19.68504 -2.664535E-13
vt 12.20472 -2.664535E-13
vt 19.68504 6.299212
vt 12.20472 6.299212
vt 12.20472 0
vt -19.68504 0
vt -19.68504 6.299212
vt -18.11024 -7.238101
vt 18.11024 -7.238101
vt -19.68504 -9.465209
vt 19.68504 -9.465209
vt -12.20472 -9.465209
vt -13.77953 -7.238101
vt 19.68504 0
vt -12.20472 6.299212
vt -12.20472 0
vt 19.68504 3.108624E-13
vt -19.68504 3.108624E-13
vt 19.68504 13.08426
vt -12.20472 13.08426
vt 18.11024 15.31137
vt -13.77953 15.31137
vt 12.20472 -9.465209
vt 13.77953 -7.238101
vt -19.68504 13.08426
vt -18.11024 15.31137
vt 12.20472 13.08426
vt 13.77953 15.31137
vt -19.68504 3.552714E-13
vt 19.68504 3.552714E-13
vt 19.68504 19.68504
vt 19.68504 12.20472
vt -19.68504 19.68504
vt -12.20472 12.20472
vt -12.20472 -19.68504
vt -19.68504 -19.68504
vt -12.20472 -3.481659E-11
vt -19.68504 -3.481659E-11
vt 13.77953 -18.11024
vt 13.77953 13.77953
vt 18.11024 -18.11024
vt 18.11024 18.11024
vt -18.11024 18.11024
vt -18.11024 13.77953

usemtl grass

f 3/3/1 2/2/1 1/1/1
f 2/2/1 3/3/1 4/4/1
f 7/4/1 6/6/1 5/5/1
f 6/6/1 7/4/1 8/7/1
f 3/10/2 10/9/2 9/8/2
f 10/9/2 3/10/2 11/11/2
f 13/13/3 12/10/3 8/12/3
f 12/10/3 13/13/3 14/8/3
f 7/15/4 2/14/4 4/3/4
f 2/14/4 7/15/4 5/16/4
f 12/3/5 16/18/5 15/17/5
f 16/18/5 12/3/5 11/7/5
f 17/21/6 7/20/6 4/19/6
f 7/20/6 17/21/6 18/22/6
f 3/11/7 17/24/7 4/23/7
f 17/24/7 3/11/7 9/9/7
f 14/9/8 11/10/8 12/11/8
f 11/10/8 14/9/8 10/8/8
f 7/27/9 13/26/9 8/25/9
f 13/26/9 7/27/9 18/28/9
f 16/30/10 3/7/10 1/29/10
f 3/7/10 16/30/10 11/3/10
f 16/33/11 6/32/11 15/31/11
f 6/32/11 16/33/11 5/34/11
f 5/34/11 16/33/11 2/35/11
f 2/35/11 16/33/11 1/36/11
f 12/7/4 6/37/4 8/15/4
f 6/37/4 12/7/4 15/38/4
f 9/41/12 18/40/12 17/39/12
f 10/42/12 18/40/12 9/41/12
f 14/43/12 18/40/12 10/42/12
f 18/40/12 14/43/12 13/44/12

