# Created by Kenney (www.kenney.nl)

mtllib jewel.mtl

g jewel

v 0.16644 0.185241 0
v 0 0 0
v 0.08322001 0.185241 0.1441413
v -0.08322001 0.185241 0.1441413
v 0 0.3704819 0
v -0.08322001 0.185241 -0.1441413
v 0.08322001 0.185241 -0.1441413
v -0.16644 0.185241 0

vn 0.683483 -0.614113 0.394609
vn 0 -0.6141131 0.7892181
vn 0.6834829 0.6141132 0.3946089
vn 0 0.6141133 -0.7892179
vn 0.683483 -0.614113 -0.394609
vn 0 -0.6141131 -0.7892181
vn -0.6834829 0.6141132 -0.3946089
vn -0.683483 -0.614113 0.394609
vn 0 0.6141133 0.7892179
vn -0.6834829 0.6141132 0.3946089
vn -0.683483 -0.614113 -0.394609
vn 0.6834829 0.6141132 -0.3946089

vt 3.276377 9.240731
vt 0 0
vt -3.27638 9.240731
vt 3.276378 9.240732
vt -3.276378 9.240732
vt 0 11.51146
vt 3.276377 2.270727
vt -3.27638 2.270727
vt 3.276378 2.270725
vt -3.276378 2.270725
vt -1.232595E-32 11.51145
vt -3.276377 9.240731
vt 3.27638 9.240731
vt -4.440892E-16 11.51146
vt -3.276377 2.270727
vt 3.27638 2.270727

usemtl gold

f 3/3/1 2/2/1 1/1/1
f 4/5/2 2/2/2 3/4/2
f 3/8/3 1/7/3 5/6/3
f 5/11/4 7/10/4 6/9/4
f 2/2/5 7/13/5 1/12/5
f 7/5/6 2/2/6 6/4/6
f 5/14/7 6/8/7 8/7/7
f 4/13/8 8/12/8 2/2/8
f 5/11/9 4/10/9 3/9/9
f 4/16/10 5/6/10 8/15/10
f 8/1/11 6/3/11 2/2/11
f 1/15/12 7/16/12 5/6/12

