# Created by Kenney (www.kenney.nl)

mtllib ladderBroken.mtl

g ladderBroken

v -0.11 -5.639933E-18 -0.04000002
v -0.11 0.9066665 -0.01639998
v -0.11 1 -0.04000002
v -0.11 1 0.03999999
v -0.11 0.9066665 0.01640001
v -0.11 0.84 0.01640001
v -0.11 0.6566666 0.01640001
v -0.11 0.59 0.01640001
v -0.11 0.4066666 0.01640001
v -0.11 0.34 0.01640001
v -0.11 0.1566667 0.01640001
v -0.11 0.09 0.01640001
v -0.11 0.09 -0.01639998
v -0.11 -5.639933E-18 0.03999999
v -0.11 0.84 -0.01639998
v -0.11 0.6566666 -0.01639998
v -0.11 0.59 -0.01639998
v -0.11 0.4066666 -0.01639998
v -0.11 0.34 -0.01639998
v -0.11 0.1566667 -0.01639998
v 0.11 -5.639933E-18 -0.04000002
v 0.1900001 -5.639933E-18 -0.04000002
v 0.11 1 -0.04000002
v 0.1900001 1 -0.04000002
v 0.1900001 -5.639933E-18 0.03999999
v 0.11 -5.639933E-18 0.03999999
v 0.1900001 1 0.03999999
v 0.11 1 0.03999999
v -0.19 -5.639933E-18 0.03999999
v -0.19 1 0.03999999
v 0.11 0.09 -0.01639998
v 0.11 0.09 0.01640001
v 0.11 0.1566667 0.01640001
v 0.11 0.34 0.01640001
v 0.11 0.4066666 0.01640001
v 0.11 0.59 0.01640001
v 0.11 0.6566666 0.01640001
v 0.11 0.84 0.01640001
v 0.11 0.9066665 0.01640001
v 0.11 0.9066665 -0.01639998
v 0.11 0.1566667 -0.01639998
v 0.11 0.34 -0.01639998
v 0.11 0.4066666 -0.01639998
v 0.11 0.59 -0.01639998
v 0.11 0.6566666 -0.01639998
v 0.11 0.84 -0.01639998
v -0.19 -5.639933E-18 -0.04000002
v -0.19 1 -0.04000002
v 0 0.34 -0.01639998
v 0.00999999 0.4066666 -0.01639998
v 0 0.9066665 0.01640001
v 0 0.9066665 -0.01639998
v 0.05499995 0.84 0.01640001
v 0.05499995 0.84 -0.01639998
v 0.00999999 0.4066666 0.01640001
v 0 0.34 0.01640001
v 0.00999999 0.84 -0.01639998
v 0.04499996 0.9066665 0.01640001
v 0.04499996 0.9066665 -0.01639998
v 0 0.09 -0.01639998
v -0.00999999 0.1566667 -0.01639998
v 0 0.09 0.01640001
v -0.00999999 0.1566667 0.01640001
v -0.04500002 0.09 -0.01639998
v -0.04500002 0.09 0.01640001
v -0.05500001 0.1566667 -0.01639998
v -0.05500001 0.1566667 0.01640001
v 0.00999999 0.84 0.01640001
v 0.05499995 0.4066666 0.01640001
v 0.05499995 0.4066666 -0.01639998
v 0.04499996 0.34 -0.01639998
v 0.04499996 0.34 0.01640001

vn 1 0 0
vn 0 0 -1
vn 0 0 1
vn 0 1 0
vn -1 0 0
vn 0 -1 0
vn 0.9889364 -0.1483406 0
vn -0.9889364 -0.1483404 0
vn 0.9889364 0.1483404 0
vn -0.9889364 -0.1483406 0
vn -0.9889364 0.1483406 0
vn 0.9889364 0.1483406 0

vt 1.574803 -2.220446E-16
vt 0.6456693 35.69553
vt 1.574803 39.37008
vt -1.574803 39.37008
vt -0.6456693 35.69553
vt -0.6456693 33.07087
vt -0.6456693 25.85302
vt -0.6456693 23.22835
vt -0.6456693 16.0105
vt -0.6456693 13.38583
vt -0.6456693 6.16798
vt -0.6456693 3.543307
vt 0.6456693 3.543307
vt -1.574803 -2.220446E-16
vt 0.6456693 33.07087
vt 0.6456693 25.85302
vt 0.6456693 23.22835
vt 0.6456693 16.0105
vt 0.6456693 13.38583
vt 0.6456693 6.16798
vt -4.330709 -2.220446E-16
vt -7.480315 -2.220446E-16
vt -4.330709 39.37008
vt -7.480315 39.37008
vt 7.480315 -2.220446E-16
vt 4.330709 -2.220446E-16
vt 7.480315 39.37008
vt 4.330709 39.37008
vt -7.480315 1.574803
vt -4.330709 1.574803
vt -7.480315 -1.574803
vt -4.330709 -1.574803
vt 4.330709 1.574803
vt 7.480315 1.574803
vt 4.330709 -1.574803
vt 7.480315 -1.574803
vt 4.330709 13.38583
vt 7.861408E-14 13.38583
vt 4.330709 16.0105
vt -0.3937008 16.0105
vt -1.215028E-12 0.6456693
vt 4.330709 0.6456693
vt 1.371347E-12 -0.6456693
vt 4.330709 -0.6456693
vt 4.330709 23.22835
vt -4.330709 23.22835
vt 4.330709 25.85302
vt -4.330709 25.85302
vt 2.165354 0.6456693
vt 2.165354 -0.6456693
vt 0.6456693 15.89176
vt 0.6456693 13.23773
vt -0.6456693 15.89176
vt -0.6456693 13.23773
vt 4.330709 33.07087
vt -0.3937008 33.07087
vt 4.330709 35.69553
vt 7.861408E-14 35.69553
vt -0.3937008 0.6456693
vt -0.3937008 -0.6456693
vt -4.330709 0.6456693
vt -1.771654 0.6456693
vt -4.330709 -0.6456693
vt -1.771654 -0.6456693
vt 7.861408E-14 3.543307
vt -4.330709 3.543307
vt 0.3937008 6.16798
vt -4.330709 6.16798
vt -0.6456693 3.504105
vt -0.6456693 6.158142
vt 0.6456693 3.504105
vt 0.6456693 6.158142
vt 2.165354 33.07087
vt 1.771654 35.69553
vt 0.6456693 3.766913
vt -0.6456693 3.766913
vt 0.6456693 6.420949
vt -0.6456693 6.420949
vt 0.3937008 33.07087
vt -4.330709 33.07087
vt -7.770532E-14 35.69553
vt -4.330709 35.69553
vt -0.6456693 32.38377
vt -0.6456693 35.0378
vt 0.6456693 32.38377
vt 0.6456693 35.0378
vt 4.330709 3.543307
vt -7.770532E-14 3.543307
vt 4.330709 6.16798
vt -0.3937008 6.16798
vt -2.165354 33.07087
vt -1.771654 35.69553
vt -7.770532E-14 13.38583
vt -4.330709 13.38583
vt 0.3937008 16.0105
vt -4.330709 16.0105
vt 0.3937008 0.6456693
vt 0.3937008 -0.6456693
vt 1.215028E-12 0.6456693
vt -1.371347E-12 -0.6456693
vt -1.771654 3.543307
vt -2.165354 6.16798
vt -2.165354 0.6456693
vt -2.165354 -0.6456693
vt 1.771654 3.543307
vt 2.165354 6.16798
vt -0.6456693 16.15457
vt 0.6456693 16.15457
vt -0.6456693 13.50054
vt 0.6456693 13.50054
vt -1.771654 13.38583
vt -2.165354 16.0105
vt 0.6456693 32.64658
vt -0.6456693 32.64658
vt 0.6456693 35.30061
vt -0.6456693 35.30061
vt 1.771654 0.6456693
vt 1.771654 -0.6456693
vt 1.771654 13.38583
vt 2.165354 16.0105

usemtl wood

f 3/3/1 2/2/1 1/1/1
f 2/2/1 3/3/1 4/4/1
f 2/2/1 4/4/1 5/5/1
f 5/5/1 4/4/1 6/6/1
f 6/6/1 4/4/1 7/7/1
f 7/7/1 4/4/1 8/8/1
f 8/8/1 4/4/1 9/9/1
f 9/9/1 4/4/1 10/10/1
f 10/10/1 4/4/1 11/11/1
f 11/11/1 4/4/1 12/12/1
f 13/13/1 1/1/1 2/2/1
f 1/1/1 13/13/1 14/14/1
f 14/14/1 13/13/1 12/12/1
f 14/14/1 12/12/1 4/4/1
f 13/13/1 2/2/1 15/15/1
f 13/13/1 15/15/1 16/16/1
f 6/6/1 16/16/1 15/15/1
f 16/16/1 6/6/1 7/7/1
f 13/13/1 16/16/1 17/17/1
f 13/13/1 17/17/1 18/18/1
f 8/8/1 18/18/1 17/17/1
f 18/18/1 8/8/1 9/9/1
f 13/13/1 18/18/1 19/19/1
f 13/13/1 19/19/1 20/20/1
f 10/10/1 20/20/1 19/19/1
f 20/20/1 10/10/1 11/11/1
f 23/23/2 22/22/2 21/21/2
f 22/22/2 23/23/2 24/24/2
f 27/27/3 26/26/3 25/25/3
f 26/26/3 27/27/3 28/28/3
f 24/31/4 28/30/4 27/29/4
f 28/30/4 24/31/4 23/32/4
f 4/23/3 29/22/3 14/21/3
f 29/22/3 4/23/3 30/24/3
f 21/14/5 31/12/5 23/4/5
f 31/12/5 21/14/5 26/1/5
f 31/12/5 26/1/5 32/13/5
f 32/13/5 26/1/5 33/20/5
f 33/20/5 26/1/5 34/19/5
f 34/19/5 26/1/5 35/18/5
f 35/18/5 26/1/5 36/17/5
f 36/17/5 26/1/5 37/16/5
f 37/16/5 26/1/5 38/15/5
f 38/15/5 26/1/5 39/2/5
f 40/5/5 23/4/5 31/12/5
f 23/4/5 40/5/5 28/3/5
f 28/3/5 40/5/5 39/2/5
f 28/3/5 39/2/5 26/1/5
f 40/5/5 31/12/5 41/11/5
f 40/5/5 41/11/5 42/10/5
f 33/20/5 42/10/5 41/11/5
f 42/10/5 33/20/5 34/19/5
f 40/5/5 42/10/5 43/9/5
f 40/5/5 43/9/5 44/8/5
f 35/18/5 44/8/5 43/9/5
f 44/8/5 35/18/5 36/17/5
f 40/5/5 44/8/5 45/7/5
f 40/5/5 45/7/5 46/6/5
f 37/16/5 46/6/5 45/7/5
f 46/6/5 37/16/5 38/15/5
f 29/1/5 48/4/5 47/14/5
f 48/4/5 29/1/5 30/3/5
f 48/27/2 1/26/2 47/25/2
f 1/26/2 48/27/2 3/28/2
f 27/4/1 22/1/1 24/3/1
f 22/1/1 27/4/1 25/14/1
f 3/35/4 30/34/4 4/33/4
f 30/34/4 3/35/4 48/36/4

usemtl woodDark

f 18/39/2 49/38/2 19/37/2
f 49/38/2 18/39/2 50/40/2
f 52/43/4 5/42/4 51/41/4
f 5/42/4 52/43/4 2/44/4
f 16/47/2 44/46/2 17/45/2
f 44/46/2 16/47/2 45/48/2
f 53/49/6 46/44/6 38/42/6
f 46/44/6 53/49/6 54/50/6
f 55/53/7 49/52/7 50/51/7
f 49/52/7 55/53/7 56/54/7
f 2/57/2 57/56/2 15/55/2
f 57/56/2 2/57/2 52/58/2
f 37/47/3 8/46/3 36/45/3
f 8/46/3 37/47/3 7/48/3
f 50/60/4 9/42/4 55/59/4
f 9/42/4 50/60/4 18/44/4
f 40/63/4 58/62/4 39/61/4
f 58/62/4 40/63/4 59/64/4
f 61/67/2 31/66/2 60/65/2
f 31/66/2 61/67/2 41/68/2
f 62/71/8 61/70/8 60/69/8
f 61/70/8 62/71/8 63/72/8
f 39/57/3 53/73/3 38/55/3
f 53/73/3 39/57/3 58/74/3
f 66/77/9 65/76/9 64/75/9
f 65/76/9 66/77/9 67/78/9
f 51/81/3 6/80/3 68/79/3
f 6/80/3 51/81/3 5/82/3
f 53/85/10 59/84/10 54/83/10
f 59/84/10 53/85/10 58/86/10
f 33/89/3 62/88/3 32/87/3
f 62/88/3 33/89/3 63/90/3
f 59/92/2 46/80/2 54/91/2
f 46/80/2 59/92/2 40/82/2
f 66/50/4 11/42/4 67/49/4
f 11/42/4 66/50/4 20/44/4
f 55/95/3 10/94/3 56/93/3
f 10/94/3 55/95/3 9/96/3
f 45/63/4 7/42/4 37/61/4
f 7/42/4 45/63/4 16/44/4
f 6/61/6 57/98/6 68/97/6
f 57/98/6 6/61/6 15/63/6
f 62/99/6 31/44/6 32/42/6
f 31/44/6 62/99/6 60/100/6
f 67/102/3 12/66/3 65/101/3
f 12/66/3 67/102/3 11/68/3
f 43/63/4 69/103/4 35/61/4
f 69/103/4 43/63/4 70/104/4
f 41/63/4 63/97/4 33/61/4
f 63/97/4 41/63/4 61/98/4
f 20/89/2 64/105/2 13/87/2
f 64/105/2 20/89/2 66/106/2
f 71/109/11 69/108/11 70/107/11
f 69/108/11 71/109/11 72/110/11
f 8/61/6 44/44/6 36/42/6
f 44/44/6 8/61/6 17/63/6
f 12/61/6 64/64/6 65/62/6
f 64/64/6 12/61/6 13/63/6
f 70/112/2 42/94/2 71/111/2
f 42/94/2 70/112/2 43/96/2
f 52/115/12 68/114/12 57/113/12
f 68/114/12 52/115/12 51/116/12
f 10/61/6 49/100/6 56/99/6
f 49/100/6 10/61/6 19/63/6
f 72/117/6 42/44/6 34/42/6
f 42/44/6 72/117/6 71/118/6
f 35/39/3 72/119/3 34/37/3
f 72/119/3 35/39/3 69/120/3

usemtl _defaultMat

f 26/66/6 22/67/6 25/68/6
f 22/66/6 26/67/6 21/68/6
f 29/88/6 1/89/6 14/90/6
f 1/88/6 29/89/6 47/90/6

