# Created by Kenney (www.kenney.nl)

mtllib ladderLong.mtl

g ladderLong

v 0.11 0.9066665 0.01640001
v -0.11 0.9066665 0.01640001
v 0.11 0.9066665 -0.01639998
v -0.11 0.9066665 -0.01639998
v 0.11 0.09 0.01640001
v -0.11 0.09 0.01640001
v 0.11 0.1566667 0.01640001
v -0.11 0.1566667 0.01640001
v 0.11 0.59 0.01640001
v -0.11 0.59 0.01640001
v 0.11 0.6566666 0.01640001
v -0.11 0.6566666 0.01640001
v 0.11 0.34 0.01640001
v 0.11 0.34 -0.01639998
v -0.11 0.34 0.01640001
v -0.11 0.34 -0.01639998
v 0.11 0.09 -0.01639998
v -0.11 0.09 -0.01639998
v 0.11 0.59 -0.01639998
v -0.11 0.59 -0.01639998
v 0.11 0.4066666 0.01640001
v -0.11 0.4066666 0.01640001
v 0.11 0.6566666 -0.01639998
v -0.11 0.6566666 -0.01639998
v -0.11 0.84 -0.01639998
v 0.11 0.84 -0.01639998
v 0.11 0.84 0.01640001
v -0.11 0.84 0.01640001
v -0.11 0.4066666 -0.01639998
v 0.11 0.4066666 -0.01639998
v -0.11 0.1566667 -0.01639998
v 0.11 0.1566667 -0.01639998
v 0.11 1.09 0.01640001
v 0.11 1.09 -0.01639998
v -0.11 1.09 0.01640001
v -0.11 1.09 -0.01639998
v 0.11 1.59 0.01640001
v 0.11 1.59 -0.01639998
v -0.11 1.59 0.01640001
v -0.11 1.59 -0.01639998
v 0.11 1.906667 0.01640001
v -0.11 1.906667 0.01640001
v 0.11 1.906667 -0.01639998
v -0.11 1.906667 -0.01639998
v 0.11 1.656667 0.01640001
v -0.11 1.656667 0.01640001
v 0.11 1.656667 -0.01639998
v -0.11 1.656667 -0.01639998
v 0.11 1.156667 0.01640001
v -0.11 1.156667 0.01640001
v 0.11 1.34 0.01640001
v 0.11 1.34 -0.01639998
v -0.11 1.34 0.01640001
v -0.11 1.34 -0.01639998
v 0.11 1.406667 0.01640001
v -0.11 1.406667 0.01640001
v 0.11 1.406667 -0.01639998
v -0.11 1.406667 -0.01639998
v -0.11 1.156667 -0.01639998
v 0.11 1.156667 -0.01639998
v -0.11 1.84 -0.01639998
v 0.11 1.84 -0.01639998
v 0.11 1.84 0.01640001
v -0.11 1.84 0.01640001
v 0.1900001 -5.639933E-18 0.03999999
v 0.11 -5.639933E-18 0.03999999
v 0.1900001 2 0.03999999
v 0.11 2 0.03999999
v 0.1900001 2 -0.04000002
v 0.1900001 -5.639933E-18 -0.04000002
v -0.19 -5.639933E-18 -0.04000002
v -0.11 -5.639933E-18 -0.04000002
v -0.19 2 -0.04000002
v -0.11 2 -0.04000002
v -0.19 -5.639933E-18 0.03999999
v -0.19 2 0.03999999
v -0.11 -5.639933E-18 0.03999999
v -0.11 2 0.03999999
v 0.11 -5.639933E-18 -0.04000002
v 0.11 2 -0.04000002

vn 0 1 0
vn 0 0 1
vn 0 -1 0
vn 0 0 -1
vn 1 0 0
vn -1 0 0

vt -4.330709 0.6456692
vt 4.330709 0.6456693
vt -4.330709 -0.6456693
vt 4.330709 -0.6456692
vt 4.330709 3.543307
vt -4.330709 3.543307
vt 4.330709 6.16798
vt -4.330709 6.16798
vt 4.330709 23.22835
vt -4.330709 23.22835
vt 4.330709 25.85302
vt -4.330709 25.85302
vt 4.330709 0.6456692
vt 4.330709 -0.6456693
vt -4.330709 0.6456693
vt -4.330709 -0.6456692
vt 4.330709 13.38583
vt -4.330709 13.38583
vt 4.330709 16.0105
vt -4.330709 16.0105
vt 4.330709 33.07087
vt -4.330709 33.07087
vt 4.330709 35.69553
vt -4.330709 35.69553
vt 4.330709 42.91339
vt -4.330709 42.91339
vt 4.330709 45.53806
vt -4.330709 45.53806
vt 4.330709 62.59843
vt -4.330709 62.59843
vt 4.330709 65.22309
vt -4.330709 65.22309
vt 4.330709 52.75591
vt -4.330709 52.75591
vt 4.330709 55.38057
vt -4.330709 55.38057
vt 4.330709 72.44095
vt -4.330709 72.44095
vt 4.330709 75.06561
vt -4.330709 75.06561
vt 7.480315 -2.360306E-16
vt 4.330709 -2.360306E-16
vt 7.480315 78.74016
vt 4.330709 78.74016
vt 1.574803 78.74016
vt 1.574803 -4.458447E-09
vt -1.574803 78.74016
vt -1.574803 -4.458447E-09
vt 7.480315 -2.080586E-16
vt 4.330709 -2.080586E-16
vt 7.480315 78.74016
vt -1.574803 4.458447E-09
vt 1.574803 4.458447E-09
vt -4.330709 -2.360306E-16
vt -7.480315 -2.360306E-16
vt -4.330709 78.74016
vt -7.480315 78.74016
vt -4.330709 -2.080586E-16
vt -7.480315 -2.080586E-16
vt -7.480315 78.74016
vt -0.6456693 3.543307
vt -1.574803 -2.581206E-09
vt 1.574803 -2.581206E-09
vt 0.6456693 3.543307
vt 0.6456693 6.16798
vt 0.6456693 13.38583
vt 0.6456693 16.0105
vt 0.6456693 23.22835
vt 0.6456693 25.85302
vt 0.6456693 33.07087
vt 0.6456693 35.69553
vt 0.6456693 42.91339
vt 0.6456693 45.53806
vt 0.6456693 52.75591
vt 0.6456693 55.38057
vt 0.6456693 62.59843
vt 0.6456693 65.22309
vt 0.6456693 72.44095
vt 0.6456693 75.06561
vt -0.6456693 75.06561
vt -0.6456693 6.16798
vt -0.6456693 13.38583
vt -0.6456693 16.0105
vt -0.6456693 23.22835
vt -0.6456693 25.85302
vt -0.6456693 33.07087
vt -0.6456693 35.69553
vt -0.6456693 42.91339
vt -0.6456693 45.53806
vt -0.6456693 52.75591
vt -0.6456693 55.38057
vt -0.6456693 62.59843
vt -0.6456693 65.22309
vt -0.6456693 72.44095
vt 1.574803 2.581206E-09
vt -1.574803 2.581206E-09
vt -7.480315 1.574803
vt -4.330709 1.574803
vt -7.480315 -1.574803
vt -4.330709 -1.574803
vt 4.330709 1.574803
vt 7.480315 1.574803
vt 4.330709 -1.574803
vt 7.480315 -1.574803

usemtl woodDark

f 3/3/1 2/2/1 1/1/1
f 2/2/1 3/3/1 4/4/1
f 7/7/2 6/6/2 5/5/2
f 6/6/2 7/7/2 8/8/2
f 11/11/2 10/10/2 9/9/2
f 10/10/2 11/11/2 12/12/2
f 15/15/3 14/14/3 13/13/3
f 14/14/3 15/15/3 16/16/3
f 6/15/3 17/14/3 5/13/3
f 17/14/3 6/15/3 18/16/3
f 10/15/3 19/14/3 9/13/3
f 19/14/3 10/15/3 20/16/3
f 21/19/2 15/18/2 13/17/2
f 15/18/2 21/19/2 22/20/2
f 23/3/1 12/2/1 11/1/1
f 12/2/1 23/3/1 24/4/1
f 24/11/4 19/10/4 20/9/4
f 19/10/4 24/11/4 23/12/4
f 4/23/4 26/22/4 25/21/4
f 26/22/4 4/23/4 3/24/4
f 28/15/3 26/14/3 27/13/3
f 26/14/3 28/15/3 25/16/3
f 29/19/4 14/18/4 16/17/4
f 14/18/4 29/19/4 30/20/4
f 31/7/4 17/6/4 18/5/4
f 17/6/4 31/7/4 32/8/4
f 30/3/1 22/2/1 21/1/1
f 22/2/1 30/3/1 29/4/1
f 1/23/2 28/22/2 27/21/2
f 28/22/2 1/23/2 2/24/2
f 32/3/1 8/2/1 7/1/1
f 8/2/1 32/3/1 31/4/1
f 35/15/3 34/14/3 33/13/3
f 34/14/3 35/15/3 36/16/3
f 39/15/3 38/14/3 37/13/3
f 38/14/3 39/15/3 40/16/3
f 43/3/1 42/2/1 41/1/1
f 42/2/1 43/3/1 44/4/1
f 47/3/1 46/2/1 45/1/1
f 46/2/1 47/3/1 48/4/1
f 49/27/2 35/26/2 33/25/2
f 35/26/2 49/27/2 50/28/2
f 45/31/2 39/30/2 37/29/2
f 39/30/2 45/31/2 46/32/2
f 53/15/3 52/14/3 51/13/3
f 52/14/3 53/15/3 54/16/3
f 55/35/2 53/34/2 51/33/2
f 53/34/2 55/35/2 56/36/2
f 57/3/1 56/2/1 55/1/1
f 56/2/1 57/3/1 58/4/1
f 59/27/4 34/26/4 36/25/4
f 34/26/4 59/27/4 60/28/4
f 44/39/4 62/38/4 61/37/4
f 62/38/4 44/39/4 43/40/4
f 48/31/4 38/30/4 40/29/4
f 38/30/4 48/31/4 47/32/4
f 64/15/3 62/14/3 63/13/3
f 62/14/3 64/15/3 61/16/3
f 58/35/4 52/34/4 54/33/4
f 52/34/4 58/35/4 57/36/4
f 60/3/1 50/2/1 49/1/1
f 50/2/1 60/3/1 59/4/1
f 41/39/2 64/38/2 63/37/2
f 64/38/2 41/39/2 42/40/2

usemtl wood

f 67/43/2 66/42/2 65/41/2
f 66/42/2 67/43/2 68/44/2
f 67/47/5 70/46/5 69/45/5
f 70/46/5 67/47/5 65/48/5
f 73/51/4 72/50/4 71/49/4
f 72/50/4 73/51/4 74/44/4
f 75/53/6 73/47/6 71/52/6
f 73/47/6 75/53/6 76/45/6
f 78/56/2 75/55/2 77/54/2
f 75/55/2 78/56/2 76/57/2
f 80/56/4 70/59/4 79/58/4
f 70/59/4 80/56/4 69/60/4
f 79/62/6 17/61/6 80/47/6
f 17/61/6 79/62/6 66/63/6
f 17/61/6 66/63/6 5/64/6
f 5/64/6 66/63/6 7/65/6
f 7/65/6 66/63/6 13/66/6
f 13/66/6 66/63/6 21/67/6
f 21/67/6 66/63/6 9/68/6
f 9/68/6 66/63/6 11/69/6
f 11/69/6 66/63/6 27/70/6
f 27/70/6 66/63/6 1/71/6
f 1/71/6 66/63/6 33/72/6
f 33/72/6 66/63/6 49/73/6
f 49/73/6 66/63/6 51/74/6
f 51/74/6 66/63/6 55/75/6
f 55/75/6 66/63/6 37/76/6
f 37/76/6 66/63/6 45/77/6
f 45/77/6 66/63/6 63/78/6
f 63/78/6 66/63/6 41/79/6
f 68/45/6 41/79/6 66/63/6
f 68/45/6 43/80/6 41/79/6
f 80/47/6 43/80/6 68/45/6
f 43/80/6 80/47/6 17/61/6
f 43/80/6 17/61/6 32/81/6
f 43/80/6 32/81/6 14/82/6
f 43/80/6 14/82/6 30/83/6
f 43/80/6 30/83/6 19/84/6
f 43/80/6 19/84/6 23/85/6
f 43/80/6 23/85/6 26/86/6
f 43/80/6 26/86/6 3/87/6
f 43/80/6 3/87/6 34/88/6
f 43/80/6 34/88/6 60/89/6
f 43/80/6 60/89/6 52/90/6
f 43/80/6 52/90/6 57/91/6
f 43/80/6 57/91/6 38/92/6
f 43/80/6 38/92/6 47/93/6
f 43/80/6 47/93/6 62/94/6
f 45/77/6 62/94/6 47/93/6
f 62/94/6 45/77/6 63/78/6
f 55/75/6 38/92/6 57/91/6
f 38/92/6 55/75/6 37/76/6
f 49/73/6 52/90/6 60/89/6
f 52/90/6 49/73/6 51/74/6
f 1/71/6 34/88/6 3/87/6
f 34/88/6 1/71/6 33/72/6
f 11/69/6 26/86/6 23/85/6
f 26/86/6 11/69/6 27/70/6
f 21/67/6 19/84/6 30/83/6
f 19/84/6 21/67/6 9/68/6
f 7/65/6 14/82/6 32/81/6
f 14/82/6 7/65/6 13/66/6
f 74/45/5 44/79/5 72/95/5
f 44/79/5 74/45/5 78/47/5
f 44/79/5 78/47/5 42/80/5
f 42/80/5 78/47/5 64/94/5
f 64/94/5 78/47/5 46/93/5
f 46/93/5 78/47/5 39/92/5
f 39/92/5 78/47/5 56/91/5
f 56/91/5 78/47/5 53/90/5
f 53/90/5 78/47/5 50/89/5
f 50/89/5 78/47/5 35/88/5
f 35/88/5 78/47/5 2/87/5
f 2/87/5 78/47/5 28/86/5
f 28/86/5 78/47/5 12/85/5
f 12/85/5 78/47/5 10/84/5
f 10/84/5 78/47/5 22/83/5
f 22/83/5 78/47/5 15/82/5
f 15/82/5 78/47/5 8/81/5
f 8/81/5 78/47/5 6/61/5
f 77/96/5 6/61/5 78/47/5
f 77/96/5 18/64/5 6/61/5
f 72/95/5 18/64/5 77/96/5
f 18/64/5 72/95/5 44/79/5
f 18/64/5 44/79/5 61/78/5
f 18/64/5 61/78/5 48/77/5
f 18/64/5 48/77/5 40/76/5
f 18/64/5 40/76/5 58/75/5
f 18/64/5 58/75/5 54/74/5
f 18/64/5 54/74/5 59/73/5
f 18/64/5 59/73/5 36/72/5
f 18/64/5 36/72/5 4/71/5
f 18/64/5 4/71/5 25/70/5
f 18/64/5 25/70/5 24/69/5
f 18/64/5 24/69/5 20/68/5
f 18/64/5 20/68/5 29/67/5
f 18/64/5 29/67/5 16/66/5
f 18/64/5 16/66/5 31/65/5
f 15/82/5 31/65/5 16/66/5
f 31/65/5 15/82/5 8/81/5
f 10/84/5 29/67/5 20/68/5
f 29/67/5 10/84/5 22/83/5
f 28/86/5 24/69/5 25/70/5
f 24/69/5 28/86/5 12/85/5
f 35/88/5 4/71/5 36/72/5
f 4/71/5 35/88/5 2/87/5
f 53/90/5 59/73/5 54/74/5
f 59/73/5 53/90/5 50/89/5
f 39/92/5 58/75/5 40/76/5
f 58/75/5 39/92/5 56/91/5
f 64/94/5 48/77/5 61/78/5
f 48/77/5 64/94/5 46/93/5
f 69/99/1 68/98/1 67/97/1
f 68/98/1 69/99/1 80/100/1
f 74/103/1 76/102/1 78/101/1
f 76/102/1 74/103/1 73/104/1

usemtl _defaultMat

f 75/77/3 72/94/3 77/93/3
f 72/77/3 75/94/3 71/93/3
f 66/2/3 70/3/3 65/4/3
f 70/2/3 66/3/3 79/4/3

