# Created by Kenney (www.kenney.nl)

mtllib lever.mtl

g lever

v 0 0.3308482 -0.1
v 0 0.3308482 -0.05000001
v -0.06470472 0.3223297 -0.1
v -0.06470472 0.3223297 -0.05000001
v -0.29 1.71454E-15 -0.14
v -0.29 0.08084825 -0.14
v -0.29 3.205931E-31 0.14
v -0.29 0.08084825 0.14
v -0.2414814 0.145553 -0.1
v -0.2165063 0.2058483 -0.1
v -0.2414814 0.145553 -0.05000001
v -0.2165063 0.2058483 -0.05000001
v -0.1767767 0.257625 -0.1
v -0.1767767 0.257625 -0.05000001
v 0.1932603 0.1326322 -0.05000001
v 0.2000778 0.08084825 -0.05000001
v 0.1932603 0.1326322 0.05000001
v 0.2000778 0.08084825 0.05000001
v 0.25 0.08084825 0.09999999
v -0.25 0.08084825 0.09999999
v 0.2414815 0.145553 0.09999999
v -0.2414814 0.145553 0.09999999
v 0.2165064 0.2058483 0.09999999
v -0.2165063 0.2058483 0.09999999
v 0.1767766 0.257625 0.09999999
v -0.1767767 0.257625 0.09999999
v 0.125 0.2973546 0.09999999
v -0.125 0.2973546 0.09999999
v 0.06470478 0.3223297 0.09999999
v -0.06470472 0.3223297 0.09999999
v 0 0.3308482 0.09999999
v 0.05178404 0.2741086 -0.05000001
v 0.05178404 0.2741086 0.05000001
v 0 0.2809261 -0.05000001
v 0 0.2809261 0.05000001
v 0.1732725 0.1808872 -0.05000001
v 0.1732725 0.1808872 0.05000001
v -0.2165063 0.2058483 0.05000001
v -0.1767767 0.257625 0.05000001
v 0 0.3308482 0.05000001
v -0.06470472 0.3223297 0.05000001
v 0.29 1.71454E-15 -0.14
v 0.29 0.08084825 -0.14
v 0.125 0.2973546 -0.1
v 0.125 0.2973546 -0.05000001
v 0.06470478 0.3223297 -0.1
v 0.06470478 0.3223297 -0.05000001
v 0.2414815 0.145553 -0.1
v 0.25 0.08084825 -0.1
v 0.2414815 0.145553 -0.05000001
v 0.25 0.08084825 -0.05000001
v 0.1767766 0.257625 -0.1
v 0.1767766 0.257625 -0.05000001
v 0.29 3.205931E-31 0.14
v 0.1767766 0.257625 0.05000001
v 0.2165064 0.2058483 0.05000001
v -0.1000389 0.2541207 -0.05000001
v -0.1000389 0.2541207 0.05000001
v -0.1414764 0.2223246 -0.05000001
v -0.1414764 0.2223246 0.05000001
v 0.2414815 0.145553 0.05000001
v 0.25 0.08084825 0.05000001
v 0.2165064 0.2058483 -0.05000001
v 0.1414764 0.2223246 -0.05000001
v 0.1000389 0.2541207 -0.05000001
v -0.125 0.2973546 -0.05000001
v -0.05178392 0.2741086 -0.05000001
v -0.1732725 0.1808872 -0.05000001
v -0.1932603 0.1326322 -0.05000001
v -0.25 0.08084825 -0.05000001
v -0.2000778 0.08084825 -0.05000001
v 0.125 0.2973546 0.05000001
v -0.125 0.2973546 -0.1
v -0.1932603 0.1326322 0.05000001
v -0.1732725 0.1808872 0.05000001
v 0.06470478 0.3223297 0.05000001
v 0.29 0.08084825 0.14
v 0.2165064 0.2058483 -0.1
v -0.125 0.2973546 0.05000001
v -0.2000778 0.08084825 0.05000001
v -0.2414814 0.145553 0.05000001
v -0.05178392 0.2741086 0.05000001
v -0.25 0.08084825 0.05000001
v 0.1000389 0.2541207 0.05000001
v 0.1414764 0.2223246 0.05000001
v -0.25 0.08084825 -0.1

vn 0 1 0
vn -0.2588186 0.9659259 0
vn -1 0 0
vn -0.9659257 0.2588193 0
vn -0.8660257 0.4999995 0
vn -0.7071068 0.7071068 0
vn 0.9659261 0.2588183 0
vn 0.9914449 0.1305259 0
vn 0 0 1
vn 0.2588197 0.9659256 0
vn 0.8660255 0.4999999 0
vn 0 0 -1
vn 0.4999997 0.8660255 0
vn 0.2588187 0.9659258 0
vn 0.9659259 0.2588185 0
vn 0.9914449 0.1305256 0
vn 0.7071064 0.7071072 0
vn 0 -1 0
vn 0.8660254 0.5 0
vn -0.5000001 0.8660253 0
vn -0.7071064 0.7071072 0
vn -0.4999995 0.8660257 0
vn -0.9659259 0.2588185 0
vn -0.8660255 0.4999999 0
vn 1 0 0
vn -0.9914449 0.1305265 0
vn -0.2588195 0.9659257 0
vn -0.9914448 0.1305271 0
vn 0.5000005 0.8660251 0

vt -3.937008 1.700165
vt -1.968504 1.700165
vt -3.937008 -0.8692461
vt -1.968504 -0.8692461
vt -5.511811 6.750156E-14
vt -5.511811 3.183002
vt 5.511811 1.262177E-29
vt 5.511811 3.183002
vt -3.937008 1.656009
vt -3.937008 4.225424
vt -1.968504 1.656009
vt -1.968504 4.225424
vt -3.937008 1.24055
vt -3.937008 3.809962
vt -1.968504 1.24055
vt -1.968504 3.809962
vt 1.968504 4.183939
vt 1.968504 2.127608
vt -1.968504 4.183939
vt -1.968504 2.127608
vt 9.84252 3.183002
vt -9.84252 3.183002
vt 9.507146 5.730433
vt -9.507142 5.730433
vt 8.523874 8.104263
vt -8.52387 8.104263
vt 6.959713 10.14272
vt -6.959713 10.14272
vt 4.92126 11.70687
vt -4.92126 11.70687
vt 2.547433 12.69015
vt -2.547429 12.69015
vt 1.013522E-12 13.02552
vt 1.968504 -0.6127005
vt -1.968504 -0.6127005
vt 1.968504 1.443632
vt -1.968504 1.443632
vt 1.968504 3.968889
vt 1.968504 1.912558
vt -1.968504 3.968889
vt -1.968504 1.912558
vt 1.968504 1.24055
vt 1.968504 3.809962
vt 3.937008 1.24055
vt 3.937008 3.809962
vt 1.968504 1.700165
vt 3.937008 1.700165
vt 1.968504 -0.8692461
vt 3.937008 -0.8692461
vt 11.41732 6.750156E-14
vt -11.41732 6.750156E-14
vt 11.41732 3.183002
vt -11.41732 3.183002
vt 3.937008 -0.06662264
vt 1.968504 -0.06662264
vt 3.937008 2.502789
vt 1.968504 2.502789
vt 3.937008 4.440484
vt 3.937008 1.871071
vt 1.968504 4.440484
vt 1.968504 1.871071
vt 3.937008 0.6529745
vt 1.968504 0.6529745
vt 3.937008 3.222387
vt 1.968504 3.222387
vt 11.41732 -5.511811
vt -11.41732 -5.511811
vt 11.41732 5.511811
vt -11.41732 5.511811
vt -1.968504 3.809948
vt -1.968504 1.240533
vt -3.937008 3.809948
vt -3.937008 1.240533
vt -1.968504 2.965852
vt 1.968504 2.965852
vt -1.968504 0.9095204
vt 1.968504 0.9095204
vt -1.968504 4.440484
vt -1.968504 1.871071
vt -3.937008 4.440484
vt -3.937008 1.871071
vt 7.877079 3.183002
vt 7.608673 5.22174
vt 6.821752 7.121543
vt 5.569937 8.752937
vt 3.938539 10.00475
vt 2.03874 10.79168
vt 1.013801E-12 11.06008
vt -2.038736 10.79168
vt -3.938539 10.00475
vt -5.569937 8.752937
vt -6.821752 7.121543
vt -7.608673 5.22174
vt -7.877079 3.183002
vt 1.013801E-12 13.02552
vt -1.968504 0.6529745
vt -3.937008 0.6529745
vt -1.968504 3.222387
vt -3.937008 3.222387
vt -3.937008 2.502785
vt -1.968504 2.502785
vt -3.937008 -0.06663009
vt -1.968504 -0.06663009
vt -1.968504 -0.8692526
vt -3.937008 -0.8692526
vt -1.968504 1.700162
vt -3.937008 1.700162
vt 5.511811 6.750156E-14
vt -5.511811 1.262177E-29
vt 3.937008 4.225423
vt 3.937008 1.656008
vt 1.968504 4.225423
vt 1.968504 1.656008
vt 11.41732 1.262177E-29
vt -11.41732 1.262177E-29
vt -1.968504 2.127604
vt -1.968504 4.183934
vt 1.968504 2.127604
vt 1.968504 4.183934
vt 1.968504 1.656009
vt 1.968504 4.225424
vt 3.937008 1.656009
vt 3.937008 4.225424
vt -1.968504 2.246254
vt 1.968504 2.246254
vt -1.968504 0.1899216
vt 1.968504 0.1899216
vt 3.937008 -0.8692526
vt 1.968504 -0.8692526
vt 3.937008 1.700162
vt 1.968504 1.700162
vt 9.507142 5.730433
vt 8.52387 8.104263
vt 2.038736 10.79168
vt -1.004141E-12 11.06008
vt -2.03874 10.79168
vt -8.523874 8.104263
vt -9.507146 5.730433
vt 2.547429 12.69015
vt -2.547433 12.69015
vt -1.004141E-12 13.02552
vt -1.968504 1.443635
vt 1.968504 1.443635
vt -1.968504 -0.6126938
vt 1.968504 -0.6126938
vt -1.968504 1.497071
vt -1.968504 3.553399
vt 1.968504 1.497071
vt 1.968504 3.553399
vt 3.937008 3.809948
vt 3.937008 1.240533
vt 1.968504 3.809948
vt 1.968504 1.240533
vt -3.937008 1.871055
vt -3.937008 4.440468
vt -1.968504 1.871055
vt -1.968504 4.440468
vt -1.968504 -0.06662264
vt -3.937008 -0.06662264
vt -1.968504 2.502789
vt -3.937008 2.502789
vt 1.968504 2.502785
vt 3.937008 2.502785
vt 1.968504 -0.06663009
vt 3.937008 -0.06663009
vt -1.00442E-12 13.02552
vt -9.84252 -3.937008
vt 9.84252 -3.937008
vt 9.84252 -1.968504
vt 9.84252 1.968504
vt 9.84252 3.937008
vt -9.84252 1.968504
vt -9.84252 3.937008
vt -9.84252 -1.968504
vt 7.877079 1.968504
vt 7.877079 -1.968504
vt -7.877079 -1.968504
vt -7.877079 1.968504
vt 1.968504 0.1899295
vt -1.968504 0.1899295
vt 1.968504 2.246258
vt -1.968504 2.246258
vt -1.968504 4.225423
vt -1.968504 1.656008
vt -3.937008 4.225423
vt -3.937008 1.656008
vt 1.968504 1.871055
vt 1.968504 4.440468
vt 3.937008 1.871055
vt 3.937008 4.440468

usemtl metal

f 3/3/2 2/2/1 1/1/1
f 2/2/1 3/3/2 4/4/2
f 7/7/3 6/6/3 5/5/3
f 6/6/3 7/7/3 8/8/3
f 11/11/4 10/10/5 9/9/4
f 10/10/5 11/11/4 12/12/5
f 12/15/5 13/14/6 10/13/5
f 13/14/6 12/15/5 14/16/6
f 17/19/7 16/18/8 15/17/7
f 16/18/8 17/19/7 18/20/8
f 21/23/9 20/22/9 19/21/9
f 20/22/9 21/23/9 22/24/9
f 22/24/9 21/23/9 23/25/9
f 22/24/9 23/25/9 24/26/9
f 24/26/9 23/25/9 25/27/9
f 24/26/9 25/27/9 26/28/9
f 26/28/9 25/27/9 27/29/9
f 26/28/9 27/29/9 28/30/9
f 28/30/9 27/29/9 29/31/9
f 28/30/9 29/31/9 30/32/9
f 30/32/9 29/31/9 31/33/9
f 34/36/1 33/35/10 32/34/10
f 33/35/10 34/36/1 35/37/1
f 37/40/11 15/39/7 36/38/11
f 15/39/7 37/40/11 17/41/7
f 24/44/5 39/43/6 38/42/5
f 39/43/6 24/44/5 26/45/6
f 41/48/2 31/47/1 40/46/1
f 31/47/1 41/48/2 30/49/2
f 6/52/12 42/51/12 5/50/12
f 42/51/12 6/52/12 43/53/12
f 46/56/14 45/55/13 44/54/13
f 45/55/13 46/56/14 47/57/14
f 50/60/15 49/59/16 48/58/15
f 49/59/16 50/60/15 51/61/16
f 44/64/13 53/63/17 52/62/17
f 53/63/17 44/64/13 45/65/13
f 54/68/18 5/67/18 42/66/18
f 5/67/18 54/68/18 7/69/18
f 25/72/17 56/71/19 55/70/17
f 56/71/19 25/72/17 23/73/19
f 59/76/21 58/75/20 57/74/20
f 58/75/20 59/76/21 60/77/21
f 21/80/15 62/79/16 61/78/15
f 62/79/16 21/80/15 19/81/16
f 50/23/9 16/82/9 51/21/9
f 16/82/9 50/23/9 15/83/9
f 15/83/9 50/23/9 36/84/9
f 36/84/9 50/23/9 63/25/9
f 36/84/9 63/25/9 64/85/9
f 64/85/9 63/25/9 53/27/9
f 64/85/9 53/27/9 65/86/9
f 65/86/9 53/27/9 32/87/9
f 32/87/9 53/27/9 45/29/9
f 32/87/9 45/29/9 34/88/9
f 66/30/9 34/88/9 45/29/9
f 66/30/9 67/89/9 34/88/9
f 14/28/9 67/89/9 66/30/9
f 14/28/9 57/90/9 67/89/9
f 14/28/9 59/91/9 57/90/9
f 12/26/9 59/91/9 14/28/9
f 12/26/9 68/92/9 59/91/9
f 11/24/9 68/92/9 12/26/9
f 11/24/9 69/93/9 68/92/9
f 70/22/9 69/93/9 11/24/9
f 69/93/9 70/22/9 71/94/9
f 66/30/9 45/29/9 47/31/9
f 66/30/9 47/31/9 4/32/9
f 4/32/9 47/31/9 2/95/9
f 72/98/13 25/97/17 55/96/17
f 25/97/17 72/98/13 27/99/13
f 73/102/22 4/101/2 3/100/2
f 4/101/2 73/102/22 66/103/22
f 74/39/23 68/40/24 69/41/23
f 68/40/24 74/39/23 75/38/24
f 40/106/1 29/105/14 76/104/14
f 29/105/14 40/106/1 31/107/1
f 77/6/25 42/108/25 43/8/25
f 42/108/25 77/6/25 54/109/25
f 63/112/19 48/111/15 78/110/19
f 48/111/15 63/112/19 50/113/15
f 77/52/9 7/115/9 54/114/9
f 7/115/9 77/52/9 8/53/9
f 39/63/6 28/64/22 79/65/22
f 28/64/22 39/63/6 26/62/6
f 80/118/26 69/117/23 71/116/26
f 69/117/23 80/118/26 74/119/23
f 22/122/4 38/121/5 81/120/4
f 38/121/5 22/122/4 24/123/5
f 57/126/20 82/125/27 67/124/27
f 82/125/27 57/126/20 58/127/20
f 1/130/1 47/129/14 46/128/14
f 47/129/14 1/130/1 2/131/1
f 81/132/12 80/82/12 83/21/12
f 80/82/12 81/132/12 74/83/12
f 74/83/12 81/132/12 75/84/12
f 75/84/12 81/132/12 38/133/12
f 75/84/12 38/133/12 60/85/12
f 60/85/12 38/133/12 39/27/12
f 60/85/12 39/27/12 58/86/12
f 58/86/12 39/27/12 82/134/12
f 82/134/12 39/27/12 79/29/12
f 82/134/12 79/29/12 35/135/12
f 72/30/12 35/135/12 79/29/12
f 72/30/12 33/136/12 35/135/12
f 55/28/12 33/136/12 72/30/12
f 55/28/12 84/90/12 33/136/12
f 55/28/12 85/91/12 84/90/12
f 56/137/12 85/91/12 55/28/12
f 56/137/12 37/92/12 85/91/12
f 61/138/12 37/92/12 56/137/12
f 61/138/12 17/93/12 37/92/12
f 62/22/12 17/93/12 61/138/12
f 17/93/12 62/22/12 18/94/12
f 72/30/12 79/29/12 41/139/12
f 72/30/12 41/139/12 76/140/12
f 76/140/12 41/139/12 40/141/12
f 67/144/27 35/143/1 34/142/1
f 35/143/1 67/144/27 82/145/27
f 75/148/24 59/147/21 68/146/24
f 59/147/21 75/148/24 60/149/21
f 53/152/17 78/151/19 52/150/17
f 78/151/19 53/152/17 63/153/19
f 70/156/28 9/155/4 86/154/28
f 9/155/4 70/156/28 11/157/4
f 76/160/14 27/159/13 72/158/13
f 27/159/13 76/160/14 29/161/14
f 79/164/22 30/163/2 41/162/2
f 30/163/2 79/164/22 28/165/22
f 9/132/12 49/22/12 86/21/12
f 49/22/12 9/132/12 48/138/12
f 48/138/12 9/132/12 10/133/12
f 48/138/12 10/133/12 78/137/12
f 78/137/12 10/133/12 13/27/12
f 78/137/12 13/27/12 52/28/12
f 52/28/12 13/27/12 73/29/12
f 52/28/12 73/29/12 44/30/12
f 44/30/12 73/29/12 3/139/12
f 44/30/12 3/139/12 46/140/12
f 46/140/12 3/139/12 1/166/12
f 43/67/1 49/167/1 77/69/1
f 49/167/1 43/67/1 6/66/1
f 49/167/1 6/66/1 86/168/1
f 86/168/1 6/66/1 70/169/1
f 70/169/1 6/66/1 83/170/1
f 83/170/1 6/66/1 20/171/1
f 62/172/1 77/69/1 49/167/1
f 19/173/1 77/69/1 62/172/1
f 77/69/1 19/173/1 8/68/1
f 8/68/1 19/173/1 20/171/1
f 8/68/1 20/171/1 6/66/1
f 62/172/1 49/167/1 51/174/1
f 80/175/1 70/169/1 83/170/1
f 70/169/1 80/175/1 71/176/1
f 16/177/1 62/172/1 51/174/1
f 62/172/1 16/177/1 18/178/1
f 65/75/29 85/76/17 64/77/17
f 85/76/17 65/75/29 84/74/29
f 32/181/10 84/180/29 65/179/29
f 84/180/29 32/181/10 33/182/10
f 85/147/17 36/148/11 64/149/17
f 36/148/11 85/147/17 37/146/11
f 23/185/19 61/184/15 56/183/19
f 61/184/15 23/185/19 21/186/15
f 20/189/28 81/188/4 83/187/28
f 81/188/4 20/189/28 22/190/4
f 13/97/6 66/98/22 73/99/22
f 66/98/22 13/97/6 14/96/6

g handle

v -0.014961 0.08084825 -0.01496112
v -0.014961 0.08084825 0.014961
v 0.01496112 0.08084825 -0.01496112
v 0.01496112 0.08084825 0.014961
v -0.01944941 0.4613482 -0.01944941
v 0.01944935 0.4613482 -0.01944941
v -0.01944941 0.4613482 0.01944941
v 0.01944935 0.4613482 0.01944941
v 0.0405618 0.5263482 -0.0405618
v 0.0405618 0.5263482 0.04056171
v 0.0405618 0.6303482 -0.0405618
v 0.0405618 0.6303482 0.04056171
v -0.04056174 0.5263482 -0.0405618
v -0.03244942 0.4613482 -0.03244942
v 0.03244948 0.4613482 -0.03244942
v -0.03244942 0.4613482 0.03244939
v -0.04056168 0.5263482 0.04056171
v -0.04056174 0.6303482 -0.0405618
v -0.04056168 0.6303482 0.04056171
v 0.03244948 0.4613482 0.03244939

vn -1.192093E-07 -0.01179498 -0.9999306
vn 1.192093E-07 -0.01179524 0.9999306
vn 0.9999306 -0.01179498 -1.192093E-07
vn -0.9999306 -0.01179524 1.192093E-07
vn 0.9982279 -0.05950855 -1.192093E-07
vn 0.9982279 -0.05950858 -1.192093E-07
vn 1 0 -1.192093E-07
vn -1.192093E-07 -0.0595093 -0.9982279
vn -1.192093E-07 -0.1238453 -0.9923016
vn -0.9923018 -0.1238438 1.192093E-07
vn -0.9982279 -0.05950858 1.192093E-07
vn -0.9982279 -0.05950855 1.192093E-07
vn 1.192093E-07 -0.05950858 0.9982279
vn 1.192093E-07 -0.1238438 0.9923018
vn -1 0 1.192093E-07
vn 1.192093E-07 0 1
vn -1.192093E-07 0 -1
vn 0.9923018 -0.1238438 -1.192093E-07

vt 0.5890177 -0.5890177
vt -0.5890177 -0.5890177
vt 0.5890177 0.5890177
vt -0.5890177 0.5890177
vt 0.7657264 14.9883
vt 0.5890177 0.00694745
vt -0.7657225 14.9883
vt -0.5890177 0.00694745
vt -0.7657264 14.9883
vt 0.7657225 14.9883
vt -0.5890177 0.006947604
vt 0.5890177 0.006947604
vt 0.7657225 14.9883
vt -0.7657264 14.9883
vt 0.7657264 14.9883
vt -0.7657225 14.9883
vt 1.596919 17.53937
vt -1.596919 17.53937
vt 1.596919 21.63386
vt -1.596919 21.63386
vt 1.596919 17.60211
vt 1.277537 15.0232
vt -1.596919 17.60211
vt -1.277537 15.0232
vt 1.277537 15.02321
vt -1.277533 15.02321
vt -1.596919 -1.596919
vt -1.596919 1.596919
vt 1.596919 -1.596919
vt 1.596919 1.596919
vt -1.277537 15.02321
vt 1.277533 15.02321
vt 1.277533 -1.277537
vt 0.7657225 0.7657225
vt 1.277533 1.277537
vt -1.277537 1.277537
vt -0.7657264 0.7657225
vt -0.7657264 -0.7657264
vt 0.7657225 -0.7657264
vt -1.277537 -1.277537

usemtl metal

f 89/193/18 88/192/18 87/191/18
f 88/192/18 89/193/18 90/194/18
f 92/197/30 87/196/30 91/195/30
f 87/196/30 92/197/30 89/198/30
f 88/201/31 94/200/31 93/199/31
f 94/200/31 88/201/31 90/202/31
f 92/203/32 90/198/32 89/196/32
f 90/198/32 92/203/32 94/204/32
f 93/205/33 87/201/33 88/202/33
f 87/201/33 93/205/33 91/206/33

usemtl wood

f 97/209/36 96/208/35 95/207/34
f 96/208/35 97/209/36 98/210/36
f 95/213/37 100/212/38 99/211/37
f 100/212/38 95/213/37 101/214/38
f 103/211/40 100/216/39 102/215/39
f 100/216/39 103/211/40 99/213/41
f 105/219/1 97/218/1 104/217/1
f 97/218/1 105/219/1 98/220/1
f 102/221/43 96/211/42 103/213/42
f 96/211/42 102/221/43 106/215/43
f 105/209/44 99/208/41 103/207/40
f 99/208/41 105/209/44 104/210/44
f 96/207/42 105/210/45 103/208/42
f 105/210/45 96/207/42 98/209/45
f 97/210/46 99/207/37 104/209/46
f 99/207/37 97/210/46 95/208/37
f 95/211/34 106/221/47 101/222/47
f 106/221/47 95/211/34 96/213/35
f 101/225/18 92/224/18 100/223/18
f 92/224/18 101/225/18 106/226/18
f 92/224/18 106/226/18 94/227/18
f 94/227/18 106/226/18 93/228/18
f 91/229/18 100/223/18 92/224/18
f 100/223/18 91/229/18 102/230/18
f 102/230/18 91/229/18 93/228/18
f 102/230/18 93/228/18 106/226/18

