# Created by Kenney (www.kenney.nl)

mtllib sign.mtl

g sign

v 0.2276664 0.259144 0.06999999
v 0.2276664 0.259144 0.02015939
v -0.2276665 0.240856 0.06999999
v 0.03104293 0.2512468 0.0310429
v -0.03108221 0.2487516 0.03108221
v -0.03108221 0.2487516 0.02015939
v -0.2276665 0.240856 0.02015939
v 0.03104293 0.2512468 0.02015939
v -0.003431976 0.4569583 0.04507971
v -0.2440079 0.4569583 0.04507971
v -0.003431976 0.4569583 0.02780288
v -0.02780288 0.4569583 0.02780288
v -0.02780288 0.4569583 0.02015939
v -0.2440079 0.4569583 0.02015939
v 0.2281693 0.5484626 0.02015939
v 0.02619505 0.5590476 0.02619499
v 0.02619505 0.5590476 0.02015939
v -0.2269062 0.5723122 0.06999999
v 0.2281693 0.5484626 0.06999999
v -0.02615178 0.5617911 0.02615181
v -0.02615178 0.5617911 0.02015939
v -0.2269062 0.5723122 0.02015939
v 0.2394441 0.3534583 0.04507971
v 0.2238784 0.3534583 0.04507971
v 0.2394441 0.4569583 0.04507971
v 0.2235128 0.3625606 0.04507971
v 0.2227525 0.4451044 0.04507971
v 0.2233738 0.4569583 0.04507971
v -0.2440079 0.3534583 0.04507971
v -0.003115714 0.3534583 0.04507971
v -0.003115714 0.3534583 0.02943301
v -0.02943301 0.3534583 0.02943301
v -0.02943301 0.3534583 0.02015939
v -0.2440079 0.3534583 0.02015939
v 0.2227525 0.4451044 0.06999999
v -0.232323 0.468954 0.06999999
v -0.0277828 0.4582345 0.0277828
v -0.0277828 0.4582345 0.02015939
v -0.232323 0.468954 0.02015939
v -0.2318201 0.3442726 0.06999999
v 0.2235128 0.3625606 0.06999999
v -0.2318201 0.3442726 0.02015939
v -0.0294497 0.3524006 0.0294497
v -0.0294497 0.3524006 0.02015939
v 0.2394441 0.4569583 0.02015939
v 0.2233738 0.4569583 0.02015939
v 0.2394441 0.3534583 0.02015939
v 0.2238784 0.3534583 0.02015939
v -0.03500003 0 -0.03500003
v 0.03499997 0 -0.03500003
v -0.02555001 0.6 -0.02555001
v 0.02555001 0.6 -0.02555001
v 0.02555001 0.6 0.02555001
v -0.02555001 0.6 0.02555001
v 0.03499997 0 0.035
v -0.03500003 0 0.035

vn 0.04013167 -0.9991944 0
vn 0 1 0
vn 0.05233621 0.9986296 0
vn 0 0 1
vn 0 -1 0
vn -0.05233617 -0.9986296 -5.949263E-07
vn -1 0 0
vn -0.9991944 -0.04013141 0
vn -0.04013167 0.9991944 0
vn 0 0 -1
vn 1 0 0
vn 0.9991944 0.04013133 0
vn -0.9986296 0.05233621 0
vn 0.9986296 -0.05233595 6.367432E-07
vn 0 0.01574805 -0.999876
vn 0 0.01574817 0.999876
vn -0.999876 0.01574806 0
vn 0.999876 0.01574807 0
vn 0 0.0157479 0.999876
vn 0 0.01578701 0.9998754
vn 0 0.01574793 0.999876

vt -2.755872 9.365478
vt -0.7936441 9.36547
vt -2.755939 -8.575468
vt -1.222157 1.618148
vt -1.223713 -0.8296941
vt -0.7936817 -0.8296956
vt -0.7937102 -8.575475
vt -0.7936727 1.618146
vt 0.1351181 1.774791
vt 9.60661 1.774791
vt 0.1351181 1.094602
vt 1.094602 1.094602
vt 1.094602 0.7936772
vt 9.60661 0.7936772
vt -0.7937122 -7.840632
vt -1.031303 0.122025
vt -0.7936812 0.122024
vt -2.755871 10.10032
vt -2.75594 -7.840625
vt -1.029594 2.185751
vt -0.7936732 2.18575
vt -0.7936423 10.10031
vt 9.426933 13.91568
vt 8.81411 13.91568
vt 9.426933 17.99048
vt 8.799717 14.27404
vt 8.769783 17.5238
vt 8.794244 17.99048
vt -9.60661 17.99048
vt -9.60661 13.91568
vt -0.1226654 13.91568
vt -0.1351181 17.99048
vt -0.1226654 1.774791
vt -0.1226654 1.15878
vt -9.60661 1.774791
vt -1.15878 1.15878
vt -1.15878 0.7936772
vt -9.60661 0.7936772
vt 2.755806 -7.840668
vt 1.774692 -7.840656
vt 2.75601 10.10028
vt 1.774793 1.076466
vt 1.094604 1.076474
vt 1.093823 2.036482
vt 0.7936896 2.036486
vt 0.7937812 10.1003
vt -9.146575 18.46276
vt 8.983044 21.59302
vt -8.933315 22.53198
vt 0.7936772 13.91568
vt 0.7936772 17.99048
vt 1.774791 13.91568
vt 1.774791 17.99048
vt -8.963248 9.48252
vt -9.126776 13.55404
vt 8.963244 10.20252
vt 0.7936772 9.834588
vt 0.7936772 13.90939
vt 2.755906 9.834588
vt 2.755906 13.90939
vt 2.75589 9.365473
vt 2.755921 -8.575472
vt 1.774776 9.365472
vt 1.774792 0.435896
vt 1.15878 0.4358949
vt 1.159439 -0.6017126
vt 0.7936792 -0.6017133
vt 0.7936929 -8.575476
vt 9.60661 13.91568
vt 1.15878 13.91568
vt 9.60661 17.99048
vt 1.094602 17.99048
vt 1.093811 18.04073
vt 1.029598 22.11776
vt 9.146575 18.46276
vt 8.933315 22.53198
vt -9.426933 1.774791
vt -8.794244 1.774791
vt -9.426933 0.7936772
vt -8.794244 0.7936772
vt 8.963248 9.48252
vt 1.223709 9.79337
vt 9.126776 13.55404
vt 1.159437 13.87404
vt -0.7936772 17.99048
vt -0.7936772 13.91568
vt -1.774791 17.99048
vt -1.774791 13.91568
vt -0.7936755 13.55075
vt -0.7936755 9.834594
vt -1.77479 13.55075
vt -2.755904 9.834594
vt -1.77479 13.9094
vt -2.755904 13.9094
vt 0.7936772 22.03356
vt 2.755906 22.03356
vt 0.7936772 17.95876
vt 2.755906 17.95876
vt 9.426933 1.774791
vt 9.426933 0.7936772
vt 8.81411 1.774791
vt 8.81411 0.7936772
vt -8.794244 17.99048
vt -9.426933 13.91568
vt -9.426933 17.99048
vt -1.031299 22.00975
vt -8.81411 13.91568
vt -8.963244 10.20252
vt -1.222161 9.891606
vt -8.983044 21.59302
vt -0.7936714 22.03356
vt -0.7936715 18.42608
vt -2.7559 22.03356
vt -1.774786 18.42608
vt -1.774786 17.95875
vt -2.7559 17.95875
vt 1.377953 -0.02170006
vt -1.377953 -0.02170006
vt 1.005906 23.60328
vt -1.005906 23.60328
vt -1.005906 1.005906
vt 1.005906 1.005906
vt -1.005906 -1.005906
vt 1.005906 -1.005906
vt 1.031299 21.99078
vt -1.029598 22.0988
vt 1.005905 23.60328
vt -1.005906 23.60328
vt 1.377953 1.377953
vt 1.377953 -1.377953
vt -1.377953 1.377953
vt -1.377953 -1.377953
vt -1.377953 -0.02170009
vt 1.377953 -0.02170008
vt 0.7936772 9.772884
vt 0.7936772 13.85406
vt 1.223709 9.772884
vt 0.7936772 22.0988
vt 0.7936772 13.89571
vt 1.159437 13.85406
vt 1.15878 13.89571
vt 0.7936772 17.97102
vt 0.7936772 18.02127
vt 1.094602 17.97102
vt 1.093811 18.02127
vt 1.029598 22.0988
vt -0.7936774 9.871133
vt -0.7936774 21.99078
vt 1.005905 23.60328
vt -1.005906 23.60328
vt -1.031299 21.99078
vt -1.377953 -0.02170008
vt 1.377952 -0.02170009
vt -1.222162 9.871133
vt 1.377953 -0.02169986
vt -1.377953 -0.02169986
vt 1.222161 9.871133
vt -1.223709 9.772884

usemtl wood

f 3/3/1 2/2/1 1/1/1
f 2/2/1 3/3/1 4/4/1
f 4/4/1 3/3/1 5/5/1
f 5/5/1 3/3/1 6/6/1
f 6/6/1 3/3/1 7/7/1
f 8/8/1 2/2/1 4/4/1
f 11/11/2 10/10/2 9/9/2
f 10/10/2 11/11/2 12/12/2
f 10/10/2 12/12/2 13/13/2
f 10/10/2 13/13/2 14/14/2
f 17/17/3 16/16/3 15/15/3
f 18/18/3 15/15/3 16/16/3
f 15/15/3 18/18/3 19/19/3
f 18/18/3 16/16/3 20/20/3
f 18/18/3 20/20/3 21/21/3
f 18/18/3 21/21/3 22/22/3
f 25/25/4 24/24/4 23/23/4
f 24/24/4 25/25/4 26/26/4
f 26/26/4 25/25/4 27/27/4
f 27/27/4 25/25/4 28/28/4
f 10/29/4 26/26/4 27/27/4
f 29/30/4 26/26/4 10/29/4
f 26/26/4 29/30/4 30/31/4
f 10/29/4 27/27/4 9/32/4
f 29/35/5 31/34/5 30/33/5
f 31/34/5 29/35/5 32/36/5
f 32/36/5 29/35/5 33/37/5
f 33/37/5 29/35/5 34/38/5
f 36/41/6 27/40/6 35/39/6
f 27/40/6 36/41/6 9/42/6
f 9/42/6 36/41/6 11/43/6
f 11/43/6 36/41/6 37/44/6
f 37/44/6 36/41/6 38/45/6
f 38/45/6 36/41/6 39/46/6
f 19/48/4 36/47/4 35/27/4
f 36/47/4 19/48/4 18/49/4
f 29/52/7 14/51/7 34/50/7
f 14/51/7 29/52/7 10/53/7
f 1/56/4 40/55/4 3/54/4
f 40/55/4 1/56/4 41/26/4
f 3/59/8 42/58/8 7/57/8
f 42/58/8 3/59/8 40/60/8
f 26/63/9 40/62/9 41/61/9
f 40/62/9 26/63/9 30/64/9
f 40/62/9 30/64/9 31/65/9
f 40/62/9 31/65/9 43/66/9
f 40/62/9 43/66/9 44/67/9
f 40/62/9 44/67/9 42/68/9
f 14/71/10 33/70/10 34/69/10
f 33/70/10 14/71/10 13/72/10
f 39/75/10 21/74/10 38/73/10
f 21/74/10 39/75/10 22/76/10
f 45/79/2 28/78/2 25/77/2
f 28/78/2 45/79/2 46/80/2
f 42/83/10 6/82/10 7/81/10
f 6/82/10 42/83/10 44/84/10
f 25/87/11 47/86/11 45/85/11
f 47/86/11 25/87/11 23/88/11
f 24/91/12 2/90/12 48/89/12
f 2/90/12 24/91/12 1/92/12
f 1/92/12 24/91/12 26/93/12
f 1/92/12 26/93/12 41/94/12
f 39/97/13 18/96/13 22/95/13
f 18/96/13 39/97/13 36/98/13
f 24/101/5 47/100/5 23/99/5
f 47/100/5 24/101/5 48/102/5
f 45/105/10 47/104/10 46/103/10
f 47/104/10 17/106/10 46/103/10
f 48/107/10 17/106/10 47/104/10
f 2/108/10 17/106/10 48/107/10
f 17/106/10 2/108/10 8/109/10
f 46/103/10 17/106/10 15/110/10
f 19/113/14 46/112/14 15/111/14
f 46/112/14 19/113/14 28/114/14
f 28/114/14 19/113/14 27/115/14
f 27/115/14 19/113/14 35/116/14

usemtl woodDark

f 51/119/15 50/118/15 49/117/15
f 50/118/15 51/119/15 52/120/15
f 52/123/2 54/122/2 53/121/2
f 54/122/2 52/123/2 51/124/2
f 53/127/16 20/126/16 16/125/16
f 20/126/16 53/127/16 54/128/16
f 56/131/5 50/130/5 55/129/5
f 50/130/5 56/131/5 49/132/5
f 56/134/17 51/120/17 49/133/17
f 51/120/17 56/134/17 6/135/17
f 51/120/17 6/135/17 44/136/17
f 6/135/17 56/134/17 5/137/17
f 21/138/17 51/120/17 44/136/17
f 51/120/17 21/138/17 54/119/17
f 21/138/17 44/136/17 33/139/17
f 43/140/17 33/139/17 44/136/17
f 33/139/17 43/140/17 32/141/17
f 21/138/17 33/139/17 13/142/17
f 21/138/17 13/142/17 38/143/17
f 12/144/17 38/143/17 13/142/17
f 38/143/17 12/144/17 37/145/17
f 54/119/17 21/138/17 20/146/17
f 52/149/18 17/148/18 8/147/18
f 17/148/18 52/149/18 53/150/18
f 17/148/18 53/150/18 16/151/18
f 55/152/18 52/149/18 8/147/18
f 52/149/18 55/152/18 50/153/18
f 55/152/18 8/147/18 4/154/18
f 4/157/19 56/156/19 55/155/19
f 56/156/19 4/157/19 5/158/19

usemtl _defaultMat

f 32/122/20 43/123/20 31/124/20
f 37/70/21 12/71/21 11/72/21

